<?xml version="1.0" encoding="UTF-8" standalone="no"?>
<!-- Created with Inkscape (http://www.inkscape.org/) -->

<svg
   xmlns:dc="http://purl.org/dc/elements/1.1/"
   xmlns:cc="http://creativecommons.org/ns#"
   xmlns:rdf="http://www.w3.org/1999/02/22-rdf-syntax-ns#"
   xmlns:svg="http://www.w3.org/2000/svg"
   xmlns="http://www.w3.org/2000/svg"
   xmlns:sodipodi="http://sodipodi.sourceforge.net/DTD/sodipodi-0.dtd"
   xmlns:inkscape="http://www.inkscape.org/namespaces/inkscape"
   width="623"
   height="285"
   viewBox="0 0 164.83541 75.406252"
   version="1.1"
   id="svg898"
   sodipodi:docname="analytics.svg"
   inkscape:version="0.92.2 (unknown)"
   style="shape-rendering:crispEdges">
  <defs
     id="defs892" />
  <sodipodi:namedview
     id="base"
     pagecolor="#ffffff"
     bordercolor="#666666"
     borderopacity="1.0"
     inkscape:pageopacity="0.0"
     inkscape:pageshadow="2"
     inkscape:zoom="2.0000001"
     inkscape:cx="318.07815"
     inkscape:cy="138.96613"
     inkscape:document-units="mm"
     inkscape:current-layer="layer4"
     showgrid="true"
     units="px"
     inkscape:object-nodes="false"
     inkscape:window-width="1366"
     inkscape:window-height="738"
     inkscape:window-x="0"
     inkscape:window-y="0"
     inkscape:window-maximized="1"
     showguides="false">
    <inkscape:grid
       type="xygrid"
       id="grid5908" />
  </sodipodi:namedview>
  <metadata
     id="metadata895">
    <rdf:RDF>
      <cc:Work
         rdf:about="">
        <dc:format>image/svg+xml</dc:format>
        <dc:type
           rdf:resource="http://purl.org/dc/dcmitype/StillImage" />
        <dc:title></dc:title>
      </cc:Work>
    </rdf:RDF>
  </metadata>
  <g
     inkscape:label="Layer 1"
     inkscape:groupmode="layer"
     id="layer1"
     transform="translate(0,-221.59372)"
     style="display:inline">
    <path
       style="fill:#ffffff;fill-opacity:1;stroke-width:10;stroke-miterlimit:4;stroke-dasharray:none;paint-order:fill markers stroke"
       d="M 15.490234,38.880859 V 294.86133 c 0,2.7616 2.08175,4.98633 4.666016,4.98633 H 605 c 2.58427,0 4.66406,-2.22473 4.66406,-4.98633 V 38.880859 Z"
       id="path5993"
       transform="matrix(0.26458333,0,0,0.26458333,0,221.59372)"
       inkscape:connector-curvature="0" />
    <path
       style="fill:#808080;fill-opacity:1;stroke-width:10;stroke-miterlimit:4;stroke-dasharray:none;paint-order:fill markers stroke"
       d="M 15.490234,38.880859 H 609.66406 V 6 c 0,-2.7616011 -2.07979,-4.984375 -4.66406,-4.984375 H 20.15625 c -2.584266,0 -4.666016,2.2227739 -4.666016,4.984375 z"
       id="rect5906"
       inkscape:connector-curvature="0"
       transform="matrix(0.26458333,0,0,0.26458333,0,221.59372)" />
    <rect
       style="fill:#cccccc;fill-opacity:1;stroke:#808080;stroke-width:0.372188;stroke-miterlimit:10;stroke-dasharray:none;stroke-opacity:1;paint-order:fill markers stroke"
       id="rect6034"
       width="13.09479"
       height="6.7879033"
       x="7.9237318"
       y="236.06555"
       rx="0"
       ry="0.21732645" />
    <rect
       ry="0.21732645"
       rx="0"
       y="245.32645"
       x="8.0172758"
       height="6.7879033"
       width="13.09479"
       id="rect6036"
       style="fill:#cccccc;fill-opacity:1;stroke:none;stroke-width:0.372188;stroke-miterlimit:10;stroke-dasharray:none;stroke-opacity:1;paint-order:fill markers stroke" />
    <rect
       style="fill:#cccccc;fill-opacity:1;stroke:none;stroke-width:0.372188;stroke-miterlimit:10;stroke-dasharray:none;stroke-opacity:1;paint-order:fill markers stroke"
       id="rect6038"
       width="13.09479"
       height="6.7879033"
       x="8.1108198"
       y="254.49379"
       rx="0"
       ry="0.21732645" />
    <rect
       style="fill:#ececec;fill-opacity:1;stroke:none;stroke-width:0.79374999;stroke-miterlimit:10;stroke-dasharray:none;stroke-opacity:1;paint-order:fill markers stroke"
       id="rect6358"
       width="51.59375"
       height="50.27084"
       x="26.193745"
       y="236.41037"
       ry="0.21732636" />
    <rect
       ry="0.21852884"
       y="236.26189"
       x="87.553314"
       height="50.548992"
       width="66.410416"
       id="rect6906"
       style="fill:#ececec;fill-opacity:1;stroke:none;stroke-width:0.90302849;stroke-miterlimit:10;stroke-dasharray:none;stroke-opacity:1;paint-order:fill markers stroke" />
  </g>
  <g
     inkscape:groupmode="layer"
     id="layer4"
     inkscape:label="Layer 2">
    <g
       id="g6847"
       transform="matrix(0.05811794,0,0,0.05811794,107.61139,32.082648)">
      <path
         id="path6732"
         d="m 295.724,494.345 h -44.138 c -4.875,0 -8.828,-3.953 -8.828,-8.828 V 282.483 c 0,-4.875 3.953,-8.828 8.828,-8.828 h 44.138 c 4.875,0 8.828,3.953 8.828,8.828 v 203.034 c 0,4.875 -3.953,8.828 -8.828,8.828 z"
         style="fill:#ffd782"
         inkscape:connector-curvature="0" />
      <path
         id="path6734"
         d="m 295.724,494.345 h -44.138 c -4.875,0 -8.828,-3.953 -8.828,-8.828 V 335.448 c 0,-4.875 3.953,-8.828 8.828,-8.828 h 44.138 c 4.875,0 8.828,3.953 8.828,8.828 v 150.069 c 0,4.875 -3.953,8.828 -8.828,8.828 z"
         style="fill:#ffc36e"
         inkscape:connector-curvature="0" />
      <path
         id="path6736"
         d="m 384,494.345 h -44.138 c -4.875,0 -8.828,-3.953 -8.828,-8.828 V 123.586 c 0,-4.875 3.953,-8.828 8.828,-8.828 H 384 c 4.875,0 8.828,3.953 8.828,8.828 v 361.931 c 0,4.875 -3.953,8.828 -8.828,8.828 z"
         style="fill:#c3e678"
         inkscape:connector-curvature="0" />
      <path
         id="path6738"
         d="m 384,494.345 h -44.138 c -4.875,0 -8.828,-3.953 -8.828,-8.828 v -256 c 0,-4.875 3.953,-8.828 8.828,-8.828 H 384 c 4.875,0 8.828,3.953 8.828,8.828 v 256 c 0,4.875 -3.953,8.828 -8.828,8.828 z"
         style="fill:#a5d76e"
         inkscape:connector-curvature="0" />
      <path
         id="path6740"
         d="M 119.172,494.345 H 75.034 c -4.875,0 -8.828,-3.953 -8.828,-8.828 V 335.448 c 0,-4.875 3.953,-8.828 8.828,-8.828 h 44.138 c 4.875,0 8.828,3.953 8.828,8.828 v 150.069 c 0,4.875 -3.953,8.828 -8.828,8.828 z"
         style="fill:#00d2ff"
         inkscape:connector-curvature="0" />
      <path
         id="path6742"
         d="m 472.276,494.345 h -44.138 c -4.875,0 -8.828,-3.953 -8.828,-8.828 V 70.621 c 0,-4.875 3.953,-8.828 8.828,-8.828 h 44.138 c 4.875,0 8.828,3.953 8.828,8.828 v 414.897 c -10e-4,4.874 -3.953,8.827 -8.828,8.827 z"
         style="fill:#9be6d2"
         inkscape:connector-curvature="0" />
      <path
         id="path6744"
         d="m 472.276,494.345 h -44.138 c -4.875,0 -8.828,-3.953 -8.828,-8.828 V 176.552 c 0,-4.875 3.953,-8.828 8.828,-8.828 h 44.138 c 4.875,0 8.828,3.953 8.828,8.828 v 308.966 c -10e-4,4.874 -3.953,8.827 -8.828,8.827 z"
         style="fill:#78d2be"
         inkscape:connector-curvature="0" />
      <path
         id="path6746"
         d="M 207.448,494.345 H 163.31 c -4.875,0 -8.828,-3.953 -8.828,-8.828 v -256 c 0,-4.875 3.953,-8.828 8.828,-8.828 h 44.138 c 4.875,0 8.828,3.953 8.828,8.828 v 256 c 0,4.875 -3.953,8.828 -8.828,8.828 z"
         style="fill:#ff6464"
         inkscape:connector-curvature="0" />
      <path
         id="path6748"
         d="M 207.448,494.345 H 163.31 c -4.875,0 -8.828,-3.953 -8.828,-8.828 V 282.483 c 0,-4.875 3.953,-8.828 8.828,-8.828 h 44.138 c 4.875,0 8.828,3.953 8.828,8.828 v 203.034 c 0,4.875 -3.953,8.828 -8.828,8.828 z"
         style="fill:#d2555a"
         inkscape:connector-curvature="0" />
      <path
         id="path6750"
         d="M 119.172,494.345 H 75.034 c -4.875,0 -8.828,-3.953 -8.828,-8.828 v -97.103 c 0,-4.875 3.953,-8.828 8.828,-8.828 h 44.138 c 4.875,0 8.828,3.953 8.828,8.828 v 97.103 c 0,4.875 -3.953,8.828 -8.828,8.828 z"
         style="fill:#18bdf6"
         inkscape:connector-curvature="0" />
      <g
         id="g6768">
        <path
           id="path6752"
           d="M 26.483,450.207 H 8.828 C 3.953,450.207 0,446.254 0,441.379 v 0 c 0,-4.875 3.953,-8.828 8.828,-8.828 h 17.655 z"
           style="fill:#d7deed"
           inkscape:connector-curvature="0" />
        <path
           id="path6754"
           d="M 26.483,397.241 H 8.828 C 3.953,397.241 0,393.288 0,388.413 v 0 c 0,-4.875 3.953,-8.828 8.828,-8.828 h 17.655 z"
           style="fill:#d7deed"
           inkscape:connector-curvature="0" />
        <path
           id="path6756"
           d="M 26.483,344.276 H 8.828 C 3.953,344.276 0,340.323 0,335.448 v 0 c 0,-4.875 3.953,-8.828 8.828,-8.828 h 17.655 z"
           style="fill:#d7deed"
           inkscape:connector-curvature="0" />
        <path
           id="path6758"
           d="M 26.483,291.31 H 8.828 C 3.953,291.31 0,287.357 0,282.482 v 0 c 0,-4.875 3.953,-8.828 8.828,-8.828 h 17.655 z"
           style="fill:#d7deed"
           inkscape:connector-curvature="0" />
        <path
           id="path6760"
           d="M 26.483,238.345 H 8.828 C 3.953,238.345 0,234.392 0,229.517 v 0 c 0,-4.875 3.953,-8.828 8.828,-8.828 h 17.655 z"
           style="fill:#d7deed"
           inkscape:connector-curvature="0" />
        <path
           id="path6762"
           d="M 26.483,185.379 H 8.828 C 3.953,185.379 0,181.426 0,176.551 v 0 c 0,-4.875 3.953,-8.828 8.828,-8.828 h 17.655 z"
           style="fill:#d7deed"
           inkscape:connector-curvature="0" />
        <path
           id="path6764"
           d="M 26.483,132.414 H 8.828 C 3.953,132.414 0,128.461 0,123.586 v 0 c 0,-4.875 3.953,-8.828 8.828,-8.828 h 17.655 z"
           style="fill:#d7deed"
           inkscape:connector-curvature="0" />
        <path
           id="path6766"
           d="M 26.483,79.448 H 8.828 C 3.953,79.448 0,75.496 0,70.621 v 0 c 0,-4.875 3.953,-8.828 8.828,-8.828 h 17.655 z"
           style="fill:#d7deed"
           inkscape:connector-curvature="0" />
      </g>
      <path
         id="path6770"
         d="m 26.483,494.345 v 0 c -4.875,0 -8.828,-3.953 -8.828,-8.828 V 17.655 c 0,-4.875 3.953,-8.828 8.828,-8.828 v 0 c 4.875,0 8.828,3.953 8.828,8.828 v 467.862 c -10e-4,4.875 -3.953,8.828 -8.828,8.828 z"
         style="fill:#c7cfe2"
         inkscape:connector-curvature="0" />
      <path
         id="path6772"
         d="m 0,494.345 v 0 c 0,-4.875 3.953,-8.828 8.828,-8.828 h 494.345 c 4.875,0 8.828,3.953 8.828,8.828 v 0 c 0,4.875 -3.953,8.828 -8.828,8.828 H 8.828 C 3.953,503.172 0,499.22 0,494.345 Z"
         style="fill:#afb9d2"
         inkscape:connector-curvature="0" />
      <g
         id="g6774" />
      <g
         id="g6776" />
      <g
         id="g6778" />
      <g
         id="g6780" />
      <g
         id="g6782" />
      <g
         id="g6784" />
      <g
         id="g6786" />
      <g
         id="g6788" />
      <g
         id="g6790" />
      <g
         id="g6792" />
      <g
         id="g6794" />
      <g
         id="g6796" />
      <g
         id="g6798" />
      <g
         id="g6800" />
      <g
         id="g6802" />
    </g>
    <rect
       style="fill:#cccccc;fill-opacity:1;stroke:none;stroke-width:0.81629968;stroke-miterlimit:10;stroke-dasharray:none;stroke-opacity:1;paint-order:fill markers stroke"
       id="rect6908"
       width="29.930986"
       height="1.3604995"
       x="89.726822"
       y="19.833227"
       ry="0.68024975"
       rx="0.81629968" />
    <rect
       rx="0.81629968"
       ry="1.0076549"
       y="19.833227"
       x="89.726822"
       height="2.0153098"
       width="29.930986"
       id="rect6910"
       style="fill:#cccccc;fill-opacity:1;stroke:none;stroke-width:0.99350792;stroke-miterlimit:10;stroke-dasharray:none;stroke-opacity:1;paint-order:fill markers stroke" />
    <rect
       style="fill:#cccccc;fill-opacity:1;stroke:none;stroke-width:0.99350792;stroke-miterlimit:10;stroke-dasharray:none;stroke-opacity:1;paint-order:fill markers stroke"
       id="rect6935"
       width="29.930986"
       height="2.0153098"
       x="89.633278"
       y="23.808861"
       ry="1.0076549"
       rx="0.81629968" />
    <rect
       rx="1.0038135"
       ry="0.98426884"
       y="27.878038"
       x="89.726822"
       height="1.9685377"
       width="36.806496"
       id="rect6939"
       style="fill:#cccccc;fill-opacity:1;stroke:none;stroke-width:1.08886492;stroke-miterlimit:10;stroke-dasharray:none;stroke-opacity:1;paint-order:fill markers stroke" />
    <g
       id="g1072"
       transform="matrix(0.01600927,0,0,0.01600927,22.025104,20.185344)"
       style="fill:none;fill-rule:evenodd;stroke:#000000;stroke-width:1;stroke-linecap:square;stroke-linejoin:bevel">
      <g
         id="g994"
         font-style="normal"
         font-weight="400"
         font-size="45.2222"
         style="font-style:normal;font-weight:400;font-size:45.22219849px;font-family:Cantarell;fill:none;stroke:#000000;stroke-width:1;stroke-linecap:square;stroke-linejoin:bevel;stroke-opacity:1" />
      <g
         id="g996"
         font-style="normal"
         font-weight="400"
         font-size="45.2222"
         transform="scale(11.6524)"
         style="font-style:normal;font-weight:400;font-size:45.22219849px;font-family:Cantarell;fill:none;stroke:#000000;stroke-width:1;stroke-linecap:square;stroke-linejoin:bevel;stroke-opacity:1" />
      <g
         id="g1000"
         font-style="normal"
         font-weight="400"
         font-size="45.2222"
         transform="scale(0.9999)"
         style="font-style:normal;font-weight:400;font-size:45.22219849px;font-family:Cantarell;fill:none;stroke:none">
        <path
           id="path998"
           d="M -1,-1 H 3462.1 V 2448.24 H -1 V -1"
           inkscape:connector-curvature="0"
           style="vector-effect:none;fill-rule:evenodd" />
      </g>
      <g
         id="g1002"
         font-style="normal"
         font-weight="400"
         font-size="45.2222"
         transform="scale(11.6524)"
         style="font-style:normal;font-weight:400;font-size:45.22219849px;font-family:Cantarell;fill:none;stroke:#000000;stroke-width:1;stroke-linecap:square;stroke-linejoin:bevel;stroke-opacity:1" />
      <g
         id="g1004"
         font-style="normal"
         font-weight="400"
         font-size="45.2222"
         transform="scale(11.6524)"
         style="font-style:normal;font-weight:400;font-size:45.22219849px;font-family:Cantarell;fill:none;stroke:#000000;stroke-width:1;stroke-linecap:square;stroke-linejoin:bevel;stroke-opacity:1" />
      <g
         id="g1006"
         font-style="normal"
         font-weight="400"
         font-size="45.2222"
         transform="scale(11.6524)"
         style="font-style:normal;font-weight:400;font-size:45.22219849px;font-family:Cantarell;fill:none;stroke:#000000;stroke-width:1;stroke-linecap:square;stroke-linejoin:bevel;stroke-opacity:1" />
      <g
         id="g1008"
         font-style="normal"
         font-weight="400"
         font-size="45.2222"
         transform="scale(11.6524)"
         style="font-style:normal;font-weight:400;font-size:45.22219849px;font-family:Cantarell;fill:none;stroke:#000000;stroke-width:1;stroke-linecap:square;stroke-linejoin:bevel;stroke-opacity:1" />
      <g
         id="g1012"
         font-style="normal"
         font-weight="400"
         font-size="45.2222"
         transform="scale(0.9999)"
         style="font-style:normal;font-weight:400;font-size:45.22219849px;font-family:Cantarell;fill:#000000;fill-opacity:0;stroke:none">
        <path
           id="path1010"
           d="M 0,0 H 3461 V 2424 H 0 V 0"
           inkscape:connector-curvature="0"
           style="vector-effect:non-scaling-stroke;fill-rule:evenodd" />
      </g>
      <g
         id="g1048"
         font-style="normal"
         font-weight="400"
         font-size="45.2222"
         transform="scale(0.9999)"
         style="font-style:normal;font-weight:400;font-size:45.22219849px;font-family:Cantarell;fill:#298896;fill-opacity:0;stroke:#808080;stroke-width:14.68350029;stroke-linecap:square;stroke-linejoin:bevel;stroke-opacity:1">
        <path
           id="path1014"
           d="m 2060.84,2363.49 -0.52,-0.63 -0.17,-1.47 -0.21,-1.16 -0.19,-0.93 0.09,-0.6 0.38,0.57 0.02,-0.62 -0.28,-0.7 -0.35,-0.8 -0.55,-0.38 -0.61,-0.1 -0.32,-0.32 -0.15,-0.54 0.24,-0.22 0.53,0.38 0.41,0.01 -0.01,-0.71 0.48,-0.21 0.36,0.6 0.64,0.31 0.91,0.01 0.7,0.26 0.44,-0.53 0.24,-0.89 0.25,-1.2 -0.02,-1.05 0.3,-1.52 0.7,-0.58 0.75,0.1 0.73,0.36 0.36,0.95 -0.02,0.48 0.05,0.77 -0.11,0.95 -0.37,0.88 -0.76,0.85 -0.55,1.04 -0.11,0.96 -0.06,1.09 -0.01,0.99 -0.26,0.74 -0.91,0.36 -0.88,0.77 -0.18,0.52 -0.39,0.84 -0.59,0.37"
           inkscape:connector-curvature="0"
           style="vector-effect:none;fill-rule:evenodd" />
        <path
           id="path1016"
           d="m 2013.62,2376.93 -0.65,-0.21 -0.69,-0.53 0.15,-0.54 0.42,-0.4 0.5,0.19 0.16,0.6 0.59,0.46 -0.48,0.43"
           inkscape:connector-curvature="0"
           style="vector-effect:none;fill-rule:evenodd" />
        <path
           id="path1018"
           d="m 2024.3,2384.04 -0.8,-0.36 -0.74,-0.99 -0.58,-0.89 -0.45,-1.31 0.02,-1.22 0.5,-0.79 -0.13,-0.74 -0.24,-1.15 0.13,-0.71 0.97,0.68 0.71,0.35 1.1,0.41 0.66,0.37 0.43,0.11 0.47,0.08 1.13,0.12 1.14,0.16 1,0.2 0.19,0.81 -0.34,0.8 -0.44,1.01 -0.67,0.21 -0.32,0.54 -0.63,1.02 -0.8,0.28 -0.7,0.48 -0.6,0.43 -1.01,0.1"
           inkscape:connector-curvature="0"
           style="vector-effect:none;fill-rule:evenodd" />
        <path
           id="path1020"
           d="m 2052.37,2382.05 -0.51,-0.64 -0.21,-0.52 -0.41,0.3 -0.6,-0.08 -0.44,0.02 -0.39,-0.2 -0.4,-0.43 -0.83,-0.12 h -0.7 l -0.63,-0.05 -0.89,-0.08 -0.62,0.08 -0.46,-0.06 -0.44,-0.02 -0.54,0.19 -0.48,-0.16 -0.33,-0.03 -0.32,-0.07 -0.32,-0.37 0.19,-0.18 0.48,-0.05 0.53,-0.06 0.05,-0.54 -0.28,-0.72 -0.38,-0.69 0.69,0.29 0.74,0.21 0.65,0.03 0.72,-0.04 0.85,0.36 1.02,0.25 0.65,0.08 0.8,0.06 0.81,0.13 0.58,-0.14 0.57,-0.55 0.48,-0.02 0.35,0.78 0.3,0.84 0.39,0.68 0.07,0.78 -0.38,0.45 -0.36,0.29"
           inkscape:connector-curvature="0"
           style="vector-effect:none;fill-rule:evenodd" />
        <path
           id="path1022"
           d="m 2438.49,1772.66 -1.29,-0.41 0.74,-1.52 0.83,-1.12 1.33,-0.4 0.7,0.38 0.33,0.88 1.07,-0.35 0.72,0.17 0.84,0.26 -0.2,0.62 -0.7,-0.11 -0.52,1.13 -0.75,-0.07 -0.73,0.06 h -0.68 l -0.89,0.16 -0.8,0.32"
           inkscape:connector-curvature="0"
           style="vector-effect:none;fill-rule:evenodd" />
        <path
           id="path1024"
           d="m 2436.75,1776.59 -0.45,-0.62 0.77,-0.64 0.79,-0.36 0.68,-1.02 0.83,-0.66 1,0.45 0.73,0.67 -0.01,0.69 -2.07,0.16 -1.27,1.23 -1,0.1"
           inkscape:connector-curvature="0"
           style="vector-effect:none;fill-rule:evenodd" />
        <path
           id="path1026"
           d="m 2461.44,1785.82 0.18,-1.88 0.94,-2.12 0.96,-1.6 1.19,-0.76 0.35,-1.1 0.72,-1.21 1.01,-0.43 1.28,-0.78 0.82,-1.32 0.82,-0.2 0.18,0.96 -0.46,1.16 -0.98,1.02 -0.52,0.76 -1.07,1.23 -0.44,0.91 -0.92,1.35 -1.47,0.91 -0.69,1.42 -0.92,1.41 -0.98,0.27"
           inkscape:connector-curvature="0"
           style="vector-effect:none;fill-rule:evenodd" />
        <path
           id="path1028"
           d="m 2450.58,1783.09 -1.14,-0.62 -0.68,-0.56 -0.57,-0.93 1.04,-0.42 0.9,-0.12 0.78,-0.06 0.46,0.58 0.35,0.56 0.43,0.72 -0.49,0.7 -1.08,0.15"
           inkscape:connector-curvature="0"
           style="vector-effect:none;fill-rule:evenodd" />
        <path
           id="path1030"
           d="m 2421.63,1796.11 1.04,-0.95 -0.14,-0.76 -0.23,-1 0.3,-0.98 0.38,-1.23 1.15,0.64 1.09,0.76 0.66,-0.46 0.25,-0.75 0.75,-0.23 0.77,-0.04 0.41,1.15 0.83,1.2 0.91,1.15 0.97,0.46 -0.01,-1.17 -0.59,-0.63 0.33,-0.7 0.96,0.29 0.81,0.48 0.85,1 -0.5,0.93 -0.04,0.93 1.13,-0.02 0.68,-0.93 1.37,-0.8 1.03,0.41 0.68,0.51 1.28,-0.07 1.28,0.27 1.14,1.8 -0.69,1.19 -0.1,1.17 -1.45,0.75 -1.08,-0.62 -0.27,1 -0.61,0.6 -0.72,-1.26 -0.5,-1.42 -1.53,-0.19 -2.13,-0.02 -1.23,-0.6 -0.95,0.26 -0.98,1.4 -0.12,1.21 -0.23,0.82 -0.15,1.53 0.26,1.26 0.02,1.14 0.53,1.17 -0.7,0.63 -0.49,0.77 0.83,0.58 1.25,0.5 -0.28,1.31 -0.81,0.71 -1.28,0.14 -1.67,0.12 -1.24,-0.17 -1,-1.52 -0.69,-1.46 0.67,-1.29 1.16,-0.93 0.08,-0.79 -0.87,0.28 -0.74,0.61 -0.81,-0.07 -0.7,0.81 -1.18,0.69 -0.56,0.9 0.82,0.63 -1.54,0.43 -0.69,0.43 -1.6,0.5 -0.9,-0.09 -1.44,-0.18 1.11,-1.36 0.58,-1.04 0.15,-1.01 -1.18,-0.9 -0.19,-1.38 -0.74,-0.24 -1.05,0.13 -1.19,0.46 -1.59,1.32 -0.97,1.2 -1.84,0.42 -1.02,0.89 1.56,1.26 -0.8,0.94 -2.18,0.71 -1.73,-0.53 -1.35,-0.77 -1.27,-0.65 -0.27,-1.89 -1.23,-0.45 -1.37,-0.51 0.16,-1.21 1.01,-1.45 2.09,-0.94 0.85,-0.44 0.37,-0.54 0.47,-1.21 0.37,-0.86 0.91,0.07 0.37,1.43 -0.7,1.52 -0.4,1.55 0.99,1.02 1.36,-0.51 -0.35,-1.38 0.1,-1.3 0.54,-0.7 1.24,0.55 0.94,0.15 1.98,-1.26 1.99,-1.2 2,-0.81 0.71,-0.21 0.84,0.92 0.86,1.05 1.23,0.63 1,1.21 0.17,-1.15 -0.92,-1.27 -0.26,-1.62 0.75,-0.63 0.98,-0.94 1.69,-1.26"
           inkscape:connector-curvature="0"
           style="vector-effect:none;fill-rule:evenodd" />
        <path
           id="path1032"
           d="m 2436.43,1805.41 -0.9,-0.29 -0.68,-0.7 -1.31,0.08 -0.08,-0.66 -0.49,-0.48 -1,-0.7 1.1,-0.42 0.55,-0.52 0.52,-1.03 0.86,0.7 0.5,0.67 -0.06,0.99 0.62,0.2 0.95,-0.6 0.91,0.2 0.45,0.63 0.59,0.6 -0.2,0.77 -0.78,0.19 -1.55,0.37"
           inkscape:connector-curvature="0"
           style="vector-effect:none;fill-rule:evenodd" />
        <path
           id="path1034"
           d="m 2399.66,1815.74 -0.12,-1.07 0.3,-1.15 0.59,-1.21 1.09,-0.36 0.44,0.58 0.13,0.93 -0.95,1.03 -0.81,0.68 -0.67,0.57"
           inkscape:connector-curvature="0"
           style="vector-effect:none;fill-rule:evenodd" />
        <path
           id="path1036"
           d="m 2416.14,1817.18 -0.41,-0.8 -0.54,-0.47 -0.86,-0.7 0.29,-0.95 0.69,-0.6 0.73,-0.06 0.93,0.26 0.64,0.43 0.68,0.28 0.01,0.78 -0.81,0.75 -0.68,0.68 -0.67,0.4"
           inkscape:connector-curvature="0"
           style="vector-effect:none;fill-rule:evenodd" />
        <path
           id="path1038"
           d="m 2388.27,1852.49 -1,-0.85 -0.89,-1.4 0.52,-1.47 0.62,-1.06 0.67,-0.04 0.88,-0.2 0.75,-0.78 1,-0.46 1.15,0.28 1.2,0.81 1.52,-0.17 1.08,-0.54 0.35,-2.03 -0.96,0.34 -1.25,-0.41 -1.47,-0.52 -0.97,-0.23 -1.68,0.04 -0.91,-1.12 -0.82,-1.28 -1.37,-1.53 -0.53,-1.33 -0.91,-0.62 -0.76,-1.34 -0.45,-1.48 -0.99,-2.08 0.27,-1.79 0.96,-0.25 1.12,0.77 0.85,0.11 0.67,0.28 0.3,0.85 1.25,-0.27 0.81,0.54 1.12,0.63 -0.14,0.92 -0.22,0.89 -0.36,1.69 -0.09,1.56 1.13,0.42 0.85,0.08 0.84,-0.27 -0.21,-0.84 -0.19,-0.72 -0.32,-1.29 0.28,-0.9 1.15,-0.66 0.6,-0.65 -0.46,-0.52 -0.36,-0.96 1.03,0.17 1.03,0.88 0.75,0.4 1.07,0.96 -0.35,0.72 -0.86,0.62 -0.41,0.82 1.16,1.12 1.07,0.37 -0.12,-1.1 0.87,-0.51 0.75,-0.66 0.08,-0.83 -0.49,-0.78 -0.33,-0.9 v -1.36 l -0.75,-0.52 -0.11,-1.2 0.86,0.19 1,0.5 0.85,1.38 0.48,1.4 0.77,1.33 0.89,1.8 0.73,1.06 0.01,1.1 -1.45,1.39 -1.24,1.27 -1.46,1.23 0.06,0.83 -1.09,2.05 -0.98,1.84 -1.04,1.27 -0.9,1.61 -0.85,0.23 -1.14,0.27 -1.27,0.21 -0.81,0.1 -1.09,0.22 -1.35,0.37"
           inkscape:connector-curvature="0"
           style="vector-effect:none;fill-rule:evenodd" />
        <path
           id="path1040"
           d="m 2383.78,1847.66 -1.18,-0.24 -1.87,0.14 -2.1,0.27 -2.51,0.31 -1.38,1.15 -2.09,1.09 -1.77,1.11 -0.76,0.37 -0.93,1.4 -1.25,1.52 -1.82,0.87 -1.6,0.3 -0.46,-2.65 0.63,-1.73 -0.92,-1.7 -0.15,-1.59 0.88,0.49 0.05,-0.97 -0.32,-2.02 0.88,-1.45 0.9,-0.92 1.84,0.3 1.29,0.58 1.67,0.17 0.51,-0.79 -1,-0.41 -0.81,-0.61 -0.69,-0.33 0.07,-0.91 0.81,-1.31 0.74,-0.88 2.15,-0.27 1.86,0.32 h 0.79 l 0.84,-0.54 0.67,-0.7 1.24,0.11 0.08,-1.18 0.47,-0.69 0.92,-0.05 1.67,0.66 0.49,0.53 0.44,0.73 0.57,1.22 0.87,1.31 0.59,0.83 0.92,1.12 0.38,1.75 0.45,1.03 0.45,1.11 -0.35,0.94 -2.16,0.21"
           inkscape:connector-curvature="0"
           style="vector-effect:none;fill-rule:evenodd" />
        <path
           id="path1042"
           d="m 2182.09,2085.01 -0.56,-0.41 -0.55,-0.54 0.24,-1.33 0.65,-0.12 0.38,0.84 0.31,0.67 -0.47,0.89"
           inkscape:connector-curvature="0"
           style="vector-effect:none;fill-rule:evenodd" />
        <path
           id="path1044"
           d="m 2178.15,2088.61 -0.34,-0.82 -0.76,-0.48 0.8,-0.46 h 0.81 l 1.55,-1.2 -0.49,1.62 -0.92,0.67 -0.65,0.67"
           inkscape:connector-curvature="0"
           style="vector-effect:none;fill-rule:evenodd" />
        <path
           id="path1046"
           d="m 2161.46,2141.11 -1.28,2.14 -1.01,1.38 -1.09,1.66 -1.15,1.14 -0.91,0.24 -2.17,-0.63 -0.81,-0.18 -1.02,-0.75 -1.9,-1.35 -1.52,-1.6 -1.57,-1.73 -2.23,-0.72 -2.31,-0.3 -1.53,0.27 -1.48,1.4 -0.73,-0.27 -0.3,-1.27 -0.33,-1.53 0.61,-0.65 0.31,-1.25 1.41,-1.31 -0.43,-0.96 -1.86,0.73 -1.16,1.81 -0.61,2.04 0.72,1.74 1.09,1.41 1.02,0.61 1.87,0.18 1.73,-0.21 1.23,0.15 0.39,0.99 0.14,1.44 -1.29,0.07 -1.77,-0.86 -1.95,-0.43 -1.3,1.07 1.03,0.99 1.19,0.18 1.27,1.08 0.03,1.17 0.28,0.67 1.37,-0.12 0.45,0.88 0.74,0.1 0.87,0.06 1.12,0.42 0.98,-0.14 0.49,-1.29 0.52,-0.72 0.65,-0.42 0.86,0.01 0.83,-0.57 1.04,-0.08 0.85,0.88 1.7,0.17 1.54,0.66 0.95,1.26 0.62,1.94 0.3,1.61 -0.87,1.74 -1.69,1.05 -1.47,0.14 -2.04,-0.11 0.16,0.94 1.47,0.26 1.69,0.15 1.83,0.08 1.28,-0.11 -0.1,0.95 -0.7,2.3 -0.96,2.38 -0.34,1.22 -0.57,0.99 -1.5,3.43 -0.78,3.29 -1.43,3.54 -0.94,3.4 -1.36,3.91 -1.09,3.1 -0.68,3.02 -1,2.37 -0.67,1 -1.4,3.05 -1.68,3.97 -1.63,2.51 -1.16,2.48 -0.64,-0.24 -0.8,3.36 -0.69,2.32 -0.77,1.82 -1.53,2.52 -1.15,1.66 -2.18,0.92 -1.95,0.51 -2.06,-0.63 -1.55,-0.4 h -1.77 l -2.43,0.05 -1.46,-0.13 0.12,0.07 0.33,0.11 0.42,0.11 0.98,-0.07 1.15,-0.01 1.15,0.11 1.21,0.16 1.45,0.44 1.22,0.37 1.16,0.35 1.57,0.5 0.78,0.34 0.59,0.16 -0.25,0.4 -0.93,1.01 -0.94,1.24 -1.13,1.54 -1.18,1.26 -1.36,1.46 -1.11,1.49 -0.43,0.52 -0.35,0.79 -0.21,0.61 -0.05,0.25 -0.21,0.74 0.11,0.97 0.47,0.58 0.42,-0.14 0.09,0.22 -0.19,0.58 -0.39,0.37 -0.75,0.47 -0.64,0.79 -0.65,0.96 -0.65,1.05 -0.8,0.99 -0.87,1.25 -0.7,1.28 -0.86,1.24 -0.98,0.73 -1.11,0.24 -0.97,-0.21 -0.54,-0.05 -0.39,0.14 -0.08,0.33 -0.26,0.54 -0.21,0.92 -0.61,0.64 -0.82,0.53 -0.55,0.49 -0.73,0.45 -0.04,0.26 0.33,0.18 0.44,0.29 0.26,0.51 0.04,0.75 -0.1,0.93 -0.41,1.17 -0.34,0.75 -1.04,1.49 -0.46,0.74 -0.14,0.6 -0.08,0.46 -0.46,0.59 -0.44,0.6 -0.66,1.12 -0.42,0.88 -0.31,1.25 -0.05,0.23 -0.04,0.07 0.11,0.06 -0.8,1.69 -1.75,2.76 -1.13,2.57 -0.97,1.71 -0.95,1.82 -0.64,1.48 -1.08,1.2 -0.79,1.36 -0.7,1.44 -0.29,1.05 -0.43,1.38 -0.52,1.53 -0.45,1.11 -0.47,1.45 -0.48,1.34 -0.21,0.85 -0.27,1.12 -0.49,1.6 -0.02,0.85 -0.43,0.13 -0.74,0.01 -0.83,-0.05 -0.8,0.25 -0.46,0.45 0.49,0.11 h 0.59 l 0.78,-0.21 0.77,0.13 0.42,1.09 -0.52,2.61 -0.77,2 -0.91,2.41 -1.11,2.38 -1.47,2.65 -0.38,1.41 -1.03,2.85 -0.68,1.34 -0.78,2.15 -1.56,3.76 -1.25,3.16 -0.86,3.52 -0.46,3.27 -0.44,2.88 -0.51,1.94 -1.01,0.6 -0.94,-0.32 0.52,-1.27 0.75,-1.55 -0.48,-1.78 -0.55,-1.57 -0.78,-0.61 -0.67,-0.35 -0.53,0.53 -0.38,-0.61 -0.55,-0.86 -0.49,0.45 -1.02,-0.2 -1.01,-0.13 -0.24,0.23 -0.12,0.65 -0.22,0.8 0.04,0.38 0.22,0.14 0.44,-0.62 -0.03,0.65 -0.42,0.56 -0.22,0.89 -0.05,1.05 0.36,0.31 0.38,-0.78 0.53,-0.51 -0.02,1.19 -0.05,0.87 -0.08,1.45 -0.76,1.37 -0.87,0.63 -0.82,-0.17 -1.14,-0.65 -0.83,0.29 -0.08,0.42 0.7,0.23 0.75,-0.06 0.76,0.58 -0.4,1.37 0.06,1.23 0.15,1.68 -0.51,1.28 -1.36,1.04 -1.48,1.15 -0.75,1.2 -1.04,1.67 -0.63,1.53 -0.23,0.71 -0.58,0.61 -0.41,1.71 -0.54,1.85 -0.74,2.22 -0.47,0.54 -0.39,-0.73 0.03,-1.13 -1.12,-1.19 -0.72,-1.09 -0.93,-0.85 -0.54,-0.47 -0.46,0.92 -0.53,1.2 -0.59,0.32 -0.82,-0.73 -1.35,-0.01 -1.17,0.41 0.1,0.6 0.74,0.22 0.02,1.17 0.11,1.05 0.15,1.25 -0.67,0.11 h -1.03 l -0.46,-0.82 -0.68,0.75 -0.39,1.17 -0.5,1.67 -0.64,-0.03 -0.57,-0.13 -1.11,0.61 -0.63,0.2 -1.2,0.46 -0.17,-0.75 0.2,-1.18 -0.84,0.37 -0.65,-0.24 -0.68,-0.2 -0.78,0.07 -0.22,0.24 0.25,0.63 0.51,0.06 0.25,0.7 -0.38,0.58 -0.29,0.36 0.42,0.72 0.49,0.38 0.1,0.77 0.48,0.24 0.45,1.24 0.03,1.23 -0.35,1.77 0.26,1.18 0.33,-0.05 0.16,-0.51 0.23,-0.61 0.28,-0.48 0.43,0.28 0.22,1.09 -0.26,0.7 -0.77,1.21 0.2,1.05 0.02,0.74 0.38,1.22 0.48,1.35 0.72,2.28 0.75,1.78 0.36,2 -1.14,0.76 -1.57,0.52 -1.4,0.07 -1.55,-0.28 -1.31,-0.22 -1.35,-0.54 -1.02,-0.7 -1,-0.49 -0.8,-0.41 -1.6,0.21 -0.88,0.04 -1.42,0.64 -1.54,-0.02 -1.13,-0.14 -0.51,-0.84 -0.33,-0.89 -0.34,0.23 -0.19,0.85 -0.31,-0.27 -0.12,-0.81 -0.8,0.49 -0.87,-0.67 0.1,-1.69 0.48,-1.46 0.58,-0.34 0.53,-0.02 0.28,0.79 0.29,-0.38 0.18,-0.71 -0.04,-0.45 0.42,0.39 0.4,-0.03 0.11,-0.53 -0.14,-0.48 -0.74,-0.19 -0.41,-0.73 -0.77,0.2 -1.16,0.41 0.16,-0.56 0.94,-0.79 0.76,-0.52 0.36,-0.78 -0.56,-1.3 0.09,-1.46 0.4,-0.9 0.2,-1.13 0.89,-0.76 0.86,-0.79 0.39,-0.29 0.53,0.34 0.79,-0.29 0.02,-0.91 -1.29,-0.41 -1,0.01 -1.04,-0.12 -0.66,-0.68 -0.34,-0.59 -0.47,-0.23 -0.23,0.5 0.72,1.11 0.35,0.93 -0.8,0.37 -1.5,0.31 -1.27,0.44 -0.55,-0.3 -0.66,-0.05 -1.04,0.91 -1.34,1.3 -1.18,1.22 -0.61,0.43 -0.67,-0.14 -0.66,0.32 -0.16,-0.68 -0.01,-0.77 -1.32,0.67 -1.1,-0.14 -1.42,-1.05 -1.29,-0.72 -0.88,-1.37 -0.4,0.1 -0.36,0.92 0.33,1.19 0.38,1.04 1.24,0.55 0.51,1.27 0.43,0.89 1.44,0.54 1.55,0.17 0.19,0.99 -1.29,0.11 -1.03,-0.63 -0.27,0.62 -0.64,0.48 -0.08,1.22 -0.86,0.75 -0.37,-0.32 -0.09,-1.15 -0.16,-0.93 -0.54,0.09 -0.02,0.67 -0.19,0.49 -0.59,0.03 -0.03,0.75 -0.25,0.28 -0.38,0.03 -0.02,0.43 -0.39,0.72 -0.32,-0.35 -0.57,-0.59 -0.95,0.05 -0.31,0.65 0.5,0.65 0.55,0.39 -0.27,0.38 -0.64,0.34 -0.56,0.7 -0.52,1.09 0.44,-0.11 0.83,-0.29 0.71,0.27 -0.47,0.47 -0.98,0.2 -1.55,0.22 -0.86,1.37 -0.51,1.13 -0.32,1.23 0.34,0.44 0.41,0.24 0.39,-0.52 0.89,0.35 -0.22,1.38 -0.75,0.7 -0.42,-0.85 -0.72,0.47 0.53,0.89 0.54,0.65 0.44,0.61 1,-0.64 0.49,-0.01 -0.63,1.07 -0.5,1.4 -0.88,-0.75 -1.29,0.06 -1.01,-0.83 -0.68,-0.92 -0.54,-0.51 -1.01,0.41 -0.4,-0.12 -0.26,-1.42 -0.66,-0.68 -1.21,-0.71 -17.82,-12.33 -21.98,-14.94 -0.6,-0.27 -46.27,-32.27 -7.78,-5.21 -72.19,-48.97 h 0.08 l -0.1,-0.11 h -0.07 l -0.27,-0.23 -0.45,-0.41 -0.44,-0.26 -0.39,-0.41 v 0 l -3.19,-2.2 -33.86,-23.96 -62.47,-44.31 -46.31,-32.13 -6.67,-17.03 -0.97,-3.49 -2.79,-7.92 -0.38,-1.72 -10.25,-3.31 -6.37,-4.8 -2.89,1.52 -3.83,1.72 -3.88,1.65 -2.89,-0.78 -0.35,-2.88 1.73,-1.98 3.22,-3.49 -1.01,-5.11 -1.44,-0.08 -6.86,-0.55 0.09,-4.52 12.45,-13.12 3.98,-4.87 5.43,-2.01 0.22,-5.71 6.06,-3.79 -1.77,-10.77 -1.63,-9.54 -1.24,-7.81 -0.26,0.02 -1.4,-7.28 -1.85,-11.98 -1.19,-7.12 -13.64,-9.86 -7.65,-5.2 -6.73,-4.87 -4.91,-2.92 -5.32,-2.71 -5.58,-3.06 -1.63,-0.76 -1.93,-1.04 -7.53,-4.07 -26.77,-14.53 -9.68,-5.14 -54.65,-29.87 -7.61,-4.12 -21.23,-11.92 -7.21,-3.97 -24.58,-13.68 -13.11,-7.19 -52.45,-29.2 -16.74,-9.04 -39.44,-21.88 -49.37,-26.6 -0.3,-3.35 -8.65,-4.77 -97.35,-55.38 -10.78,-6.11 -66.55,-38.33 -9.93,-5.16 -26.54,-15.24 -1.88,-0.97 -27.08,-15.23 -8.66,-4.75 -15.07,-8.9 -12.731,-7.15 -0.149,-0.66 -5.185,-2.99 -0.796,-0.41 -12.604,-7.2 -1.305,-0.72 -9.77,-5.44 -0.697,-0.44 -1.942,-1.09 -0.774,-0.5 -2.663,-1.42 -1.508,-0.94 -10.415,-5.87 -0.753,-0.41 -12.508,-7.11 -1.349,-0.78 -16.585,-9.45 -2.034,-1.11 -24.119,-13.44 -0.67,-0.4 -14.161,-7.86 -0.926,-0.61 -4.145,-2.4 -17.644,-9.66 -2.77,-1.52 -0.246,0.25 -0.606,0.61 -0.91,0.3 -1.485,0.02 -0.164,0.56 0.078,0.89 -0.779,0.81 -1.193,0.86 -1.27,0.72 -1.641,0.14 -1.734,-0.93 -0.832,-1.64 -0.431,-1.69 0.021,-1.81 -0.266,-1.54 -1.103,-1.54 -1.148,-1.01 -19.172,0.06 -1.514,-57.07 -0.021,-0.62 v -0.66 -0.39 l -0.083,-1.18 -0.263,-1.94 -0.092,-4.01 -0.288,-9.13 -0.481,-9.62 -0.121,-7.54 -0.317,-5.9 0.679,-3.54 0.395,-7.45 0.531,-9.24 0.86,-5.53 1.405,-7.83 1.303,-7.59 1.602,-9.62 h -0.541 l 7.961,-47.88 -6.959,-22.92 h 0.26 l -6.309,-20.6 -0.308,-1.35 -0.721,-2.03 -0.903,-2.22 -0.48,-1.49 -0.453,-1.8 0.086,-0.61 0.732,-1.18 1.101,-1.16 1.002,-1.41 0.622,-1.26 0.864,-1.03 0.739,-0.8 1.224,-1.78 1.375,-1.91 1.782,-2.47 0.553,-1.07 0.501,-0.54 0.474,-0.53 0.625,-0.76 0.984,-1.54 1.157,-1.39 1.146,-1.75 2.184,-2.74 0.978,-1.39 0.521,-0.65 0.803,-1.13 0.79,-0.89 1.241,-1.98 0.892,-1.06 0.523,-1.15 0.886,-1.22 0.301,-0.41 0.654,-0.54 -0.05,-0.91 0.137,-0.46 0.633,-0.79 -0.222,-0.57 0.423,-0.43 0.636,-0.1 0.826,-0.05 0.825,-0.13 0.643,-0.72 0.609,-0.8 -0.277,-0.61 0.061,-0.57 -0.098,-0.47 0.175,-0.37 0.321,-0.25 -0.301,-0.36 -0.299,-0.37 0.303,-0.55 0.522,0.57 0.768,-0.42 0.465,-0.79 0.032,-1.1 0.265,-0.75 0.757,-0.8 0.856,-0.26 0.913,-0.66 -0.563,-0.96 -0.48,-0.86 -0.232,-0.7 1.142,-0.47 1.016,0.04 0.698,0.08 0.776,0.04 0.233,-0.59 0.521,-0.42 0.711,-0.28 0.64,-0.5 -0.051,-0.59 0.521,-0.25 0.728,-0.62 0.342,-0.36 0.359,-0.03 0.265,-0.76 0.928,-0.56 0.773,-0.75 0.164,-1.27 0.512,-1.18 0.185,-0.32 0.287,-0.44 0.827,-0.92 0.29,-1.29 -0.146,-1.57 -0.274,-1.28 -0.441,-1.3 -0.312,-1.17 -0.317,-0.78 -0.287,-0.92 -0.226,-1.43 -0.361,-0.86 -0.706,-0.55 -0.75,-0.78 -0.328,-1.07 -0.155,-1.38 0.191,-1.59 0.187,-0.67 -0.061,-1.08 -0.321,-1.4 -0.108,-1.12 0.853,-0.86 0.839,-0.43 0.281,-0.21 0.898,-0.73 0.144,-0.3 0.463,-0.33 0.647,-0.74 1.432,-0.92 1.06,-0.87 -0.173,-0.37 -0.063,-0.88 0.18,-1.37 -0.206,-1.63 -0.228,-1.55 0.468,-1.09 0.738,-1 -0.431,-0.74 -0.64,-0.31 -0.218,-0.85 0.533,-1.02 0.696,-1.09 0.594,-1.09 0.177,-2 0.391,-1.24 0.146,-1.6 0.379,-1.68 0.85,-2.34 0.62,-1.71 0.67,0.25 0.809,0.57 0.427,-0.33 0.791,-0.33 0.573,-0.11 0.755,-0.44 0.618,-0.89 1.188,-0.98 0.794,-0.52 0.766,-0.59 0.743,-0.53 0.567,-0.31 0.379,-0.45 0.738,-0.22 0.604,0.4 0.764,0.07 0.074,-0.74 -0.194,-0.77 0.583,-0.15 0.44,-0.24 0.586,-0.13 -0.24,-0.35 0.012,-0.69 0.4,-0.45 0.316,0.59 0.376,-0.43 -0.151,-0.54 0.546,-0.55 0.737,-0.04 0.568,0.51 0.358,-0.13 0.349,-0.72 0.873,0.47 0.964,0.44 0.553,-0.46 0.196,-0.6 0.59,-0.56 0.632,0.04 0.793,0.39 0.697,0.47 0.395,-0.32 0.575,0.12 0.591,-0.08 0.544,-0.49 0.349,-0.69 0.496,0.02 0.952,0.27 0.56,0.48 0.47,-0.21 0.863,-0.51 0.678,-0.6 1.063,-0.61 0.962,-0.19 0.463,-0.01 0.184,-0.35 0.55,0.27 0.551,-0.58 0.616,-0.75 0.073,-1.03 -0.132,-0.8 -0.573,-0.6 0.73,-0.39 -0.312,-0.89 0.593,-0.84 -0.26,-0.38 -0.351,-0.84 0.023,-1.16 0.011,-0.92 0.708,-0.11 0.458,-0.68 0.612,0.34 0.698,-0.05 0.423,-0.37 0.613,-0.27 0.577,-0.27 -0.341,-0.48 0.658,-0.15 0.365,-0.57 0.59,-0.19 0.398,0.05 0.238,-0.41 0.054,-0.46 0.461,0.32 0.449,-0.14 0.411,-0.03 0.342,-0.06 -0.094,-0.45 0.438,-0.03 -0.231,-0.82 -0.154,-0.6 -0.83,-0.34 0.116,-0.34 0.11,-0.74 0.043,-0.7 -0.25,-0.19 -0.453,-0.94 0.247,-0.99 -0.088,-0.28 0.279,-0.65 -0.223,-0.61 0.027,-0.92 0.411,-0.95 -0.099,-0.61 0.257,-1.12 0.415,-1.25 0.236,-0.91 0.592,-0.43 -0.306,-0.21 0.321,-0.6 0.139,-0.69 0.41,-0.09 0.356,-0.22 0.237,-0.45 0.588,0.3 0.371,-0.1 -0.225,-0.28 0.463,0.04 1.175,-0.17 1.313,-0.02 0.745,-0.71 1.023,-0.07 0.647,-0.6 0.804,-0.29 0.061,0.52 0.951,-0.17 0.285,-0.53 0.749,-0.63 1.136,0.61 0.097,0.11 0.014,-0.03 0.694,-0.51 0.618,-0.25 0.391,-0.21 0.334,-0.52 0.094,-0.77 0.41,-0.78 0.303,-0.51 0.335,-0.38 0.276,0.02 0.234,0.4 0.162,0.36 0.112,0.29 0.29,-0.07 0.153,-0.2 0.036,-0.64 0.078,-0.26 0.005,-0.7 0.171,-0.38 0.418,-0.28 0.462,-0.23 0.376,0.15 0.402,-0.02 0.353,-0.02 0.478,0.3 0.326,0.21 0.328,-0.33 0.546,-0.46 0.558,-0.25 0.852,-0.34 1.244,-0.69 -0.101,-0.42 -0.153,-0.48 0.11,-0.73 0.09,-0.24 -0.249,-0.5 -0.467,-0.46 -0.367,-0.44 -0.016,-0.68 0.818,-0.65 0.438,-0.33 0.176,-0.5 -0.111,-0.8 0.302,-0.64 0.8,-0.7 0.559,-0.87 0.429,-0.83 1.405,-0.47 0.748,-0.06 1.218,-0.25 0.863,-0.35 0.907,-1.01 0.362,-0.85 0.079,-1.04 -0.106,-0.87 -0.045,-0.91 0.266,-0.69 0.449,-0.87 0.184,-0.63 0.081,-0.62 -0.074,-0.76 -0.029,-0.84 0.11,-0.54 0.397,-0.18 0.623,-0.26 0.458,-0.39 0.461,-0.51 0.791,-1.04 0.955,-1 0.534,-0.83 0.592,-1.04 0.435,-1.07 0.552,-1.55 0.417,-1.52 0.212,-1.48 0.7,-2.27 0.524,-1.64 0.299,-1.51 0.422,-2.12 -0.094,-1.28 -0.191,-1.46 0.029,-1.08 v -1.26 l 0.337,-1.34 0.22,-1.64 0.317,-2.31 0.209,-1.93 0.35,-2.54 0.51,-1.96 0.65,-1.92 1.077,-1.72 1.039,-1.22 1.016,-1.13 0.592,-1.43 0.339,-1.03 0.451,-1.1 0.643,-1.07 0.501,-0.47 0.287,-0.66 -0.163,0.65 3.128,-2.47 4.219,-2.59 4.841,-3.6 1.224,-2.05 1.191,-0.23 1.362,-0.22 1.022,-0.16 1.167,-0.36 0.988,-0.27 0.955,-0.26 1.099,-0.46 0.478,-0.6 1.009,-0.82 0.706,-0.54 1.002,-0.35 1.242,-0.13 1.158,-0.09 1.238,-1.06 1.202,-0.63 1.065,-1.01 0.627,-0.75 0.865,-0.89 0.735,-0.82 0.441,-1.02 0.319,-0.85 0.676,-0.78 1.114,-0.37 1.699,-0.33 1.903,-0.2 1.619,-0.19 1.584,-0.35 1.782,-0.24 1.689,-0.19 1.572,-0.08 1.18,-0.22 1.24,-0.1 1.47,-0.28 1.21,-0.23 h 1.38 l 1.14,-0.03 1.35,-0.08 1.51,-0.3 1.39,-0.29 1.14,0.14 0.9,-0.04 1.19,-0.9 1.17,-1.23 0.76,-1.24 0.51,-1.32 0.56,-0.95 0.87,-1.19 0.53,-1.53 0.31,-1.56 -0.03,-0.11 -0.03,-0.18 -0.06,0.01 0.54,-0.49 0.59,-0.48 0.6,-0.46 0.68,-0.45 -0.22,-1.78 -0.1,-1.27 -0.12,-1.62 -0.09,-1.18 0.45,-2.1 -0.04,-0.62 -0.38,-0.65 -0.67,-1.32 -1.45,-1.74 -1.66,-2.04 -1.64,-1.98 -1.6,-2.35 -1.29,-2.12 0.36,-0.71 1.26,-1.04 1.15,-1.14 -0.35,-1.07 -0.86,-1.66 -1.07,-1.44 -0.63,-2.17 -0.73,-1.95 0.22,-1.08 0.93,-1.52 1.51,-0.92 1.21,-0.55 2.09,-1.49 1.73,-1.04 2.02,-1.07 1.04,-0.83 0.79,-0.75 1.57,0.46 1.05,0.34 1.04,-0.1 0.46,-0.55 0.43,-0.79 0.23,-0.84 0.01,-1.23 -0.41,-1.64 0.2,-2.148 0.09,-2.424 -0.12,-2.309 0.46,-4.797 1.31,-0.604 0.72,-0.69 1.09,-0.239 0.84,-0.824 0.69,-2.514 0.76,-1.984 2.85,0.08 0.4,0.116 2.14,-1.957 1.34,-0.32 2.1,-0.804 2.42,-1.065 1.54,-1.039 0.85,-1.834 1.28,-2.327 0.68,-1.312 0.66,-2.218 0.97,-1.988 0.98,-1.58 1.9,-3.227 1.05,-2.496 1.28,-2.26 0.46,-1.773 0.56,-6.967 0.29,-3.379 0.38,-5.097 1.74,-20.373 0.19,-2.304 1.57,-5.07 0.49,-1.405 0.5,-1.448 0.57,-1.57 0.41,-1.93 0.44,-1.405 0.73,-1.536 0.37,-1.856 0.51,-2.175 -1.34,-1.979 -0.97,-1.296 -0.58,-1.209 -1.72,-0.803 -1.38,-1.769 -0.76,-0.781 -0.91,-1.714 -1.03,-1.576 -0.82,-1.279 -0.38,-2.103 v -1.474 l -0.84,-2.116 -1.32,-2.464 -1.16,-2.677 -1.95,-3.193 0.83,-0.82 1.23,-1.731 1.68,-1.496 1.64,-1.82 1.11,-1.764 -0.31,-0.771 -0.99,-2.23 -0.91,-2.364 -1.15,-2.793 -1.68,-3.587 -1.27,-2.907 -0.44,-2.162 -0.8,-2.271 -0.35,-2.368 -0.79,-3.778 -0.54,-1.996 -0.37,-2.751 -0.5,-2.964 -0.64,-3.516 -0.29,-2.627 -0.08,-0.443 -0.23,-1.283 -0.39,-2.05 -0.06,-1.061 0.02,-0.063 -0.32,-1.14 -0.22,-2.286 -0.36,-2.118 -0.33,-2.807 -0.77,-2.945 -0.35,-2.242 -0.04,-1.607 -0.72,-2.374 -0.31,-2.095 -0.28,-2.242 -0.16,-2.201 -0.31,-2.355 -1.01,-2.926 -0.02,-1.664 0.43,-1.165 -0.05,-1.104 0.21,-0.621 -0.13,-0.553 0.11,-0.74 1.08,-0.069 0.79,-0.993 0.47,-0.034 0.57,0.017 0.31,-0.974 0.11,-1.441 0.97,-0.045 0.13,-1.136 0.7,-0.933 1.26,-1.11 -0.09,0.183 2.52,-1.303 0.29,-0.436 2.24,-1.732 -2.55,-6.081 -2.75,-5.852 -4.14,-1.059 -0.78,-5.233 -0.22,-3.471 -0.9,-3.718 -1.6,-4.539 -2.55,1.615 -0.96,1.439 -2.66,2.15 -6.59,-6.402 -1.54,-1.902 -0.46,-2.283 -0.83,-1.865 -2.52,-3.452 -3.11,-2.719 -0.51,-2.088 -1.26,-2.267 -0.71,-2.281 -3.59,-3.698 -0.77,-2.074 1.33,-4.287 1.46,-5.096 0.13,-3.552 -1.16,-6.421 -1.13,-3.743 -1.57,-3.363 -0.69,-0.182 -1.94,-0.438 -1.6,-1.405 -1.28,-2.397 -1.95,-3.808 -1.98,-1.208 -3.8,-2.637 -2.477,2.319 -2.281,0.295 -4.046,-0.784 -1.942,-0.633 -1.317,-1.51 -2.247,-7.148 -3.251,-0.997 -6.939,-3.867 -0.912,-4.999 0.26,-6.124 3.535,-11.25 0.335,-8.144 -3.137,-2.356 -3.739,-7.076 -6.166,-2.468 -4.568,1.277 -1.467,-3.625 -2.099,-2.203 -5.097,-3.427 0.187,-9.056 -0.656,-10.073 -2.207,-7.507 -2.935,-9.715 -7.041,-6.935 0.571,-4.185 0.575,-3.706 4.213,-2.971 0.344,-5.656 -2.893,-4.386 -5.1,-4.853 10.871,-0.855 1.182,-1.5 1.807,-3.08 1.02,-3.008 1.074,-3.136 0.087,-2.734 -0.44,-3.51 0.777,-8.329 1.142,-6.53 0.402,-8.246 -4.723,-1.931 -7.141,-3.089 -3.15,-4.482 -4.332,-5.096 -11.717,2.57 -0.89,3.777 -1.993,4.889 -0.84,-3.778 -1.561,-2.579 -3.825,-3.565 -2.858,-4.606 -2.476,-4.597 -4.488,-1.624 -2.319,0.384 -5.114,1.783 -5.62,1.708 -2.063,-3.123 3.8,-1.011 2.238,-0.218 -3.082,-3.432 -5.101,-0.718 3.709,-5.135 2.636,-0.559 4.011,-1.279 5.413,0.014 -0.344,-1.939 -1.645,-5.07 -1.359,-3.908 -3.964,0.748 -4.48,0.877 -3.571,1.794 -4.137,-0.177 -3.435,-0.301 -6.152,1.29 0.934,-5.836 5.101,-2.03 1.768,-7.308 1.759,-6.776 -3.536,-2.081 -4.602,-1.939 -4.128,-4.726 -3.348,-2.116 -1.042,-1.644 1.153,-1.996 3.932,-1.164 2.347,-2.612 0.374,-3.61 -1.739,-4.032 -3.959,-2.779 -1.727,-2.219 -1.1,-4.124 0.579,-2.292 1.461,-3.465 -0.128,-2.635 -1.652,-3.151 -2.993,-2.34 -3.64,-3.239 -7.334,-7.006 4.516,-3.846 12.255,-9.429 21.215,-20.075 33.346,-31.311 2.55,-2.621 5.377,-5.958 3.296,-4.034 6.611,-6.762 6.867,-6.544 10.864,-11.849 6.872,-6.516 8.177,-5.255 5.797,-8.643 7.739,-7.452 3.087,-2.725 23.239,-22.361 18,-15.405 14.87,-13.841 10.11,-9.386 13.94,-11.751 7.96,-8.285 7.61,-7.286 10.81,-9.359 8.31,-8.014 6.09,-11.198 10.17,-15.38 12.37,-16.996 31.42,-0.898 18.26,-0.949 7.4,0.239 5.8,-0.595 5.89,3.881 7.54,3.329 5.43,0.818 5.64,-0.05 7.64,0.691 6.09,3.571 4.4,2.954 6.49,1.527 3.38,1.539 4.4,3.149 4.75,3.058 2.09,4.659 -3.02,8.664 -1.22,7.336 0.55,5.3 2.74,3.919 0.86,4.263 -2.08,14.116 -2.81,14.208 -2.75,11.367 -1.84,13.766 -1.73,8.878 0.82,9.553 -0.1,9.699 -0.13,4.72 1.18,7.65 13.84,18.402 5.35,6.893 6.14,6.58 2.3,2.923 -1.3,5.462 -1.36,4.339 2.37,1.748 2.2,0.933 1.35,1.506 -0.97,2.978 -3.64,1.568 5.09,4.878 3.17,2.031 0.36,0.223 0.42,0.371 6.73,4.712 5.45,5.104 -0.04,4.409 13.33,2.236 -0.35,0.861 11.83,-0.854 22.31,-1.011 18.23,-0.037 21.75,-0.526 19.08,3.323 22.79,-0.076 19.69,2.742 5.73,-1.263 11.4,-0.97 15.97,1.84 13.36,5.632 24.78,7.777 20.82,12.267 20.43,13.73 24.29,19.349 22.56,13.889 20.88,13.768 7.54,5.701 18.96,13.597 42.99,25.12 15.23,9.164 19.4,11.047 16.64,10.429 11.66,16.797 11.06,5.984 7.96,2.166 19.43,0.944 19.68,0.683 25.53,-1.3 5.29,-1.607 10.16,-3.519 8.84,2.149 9.97,4.196 5.44,0.564 7.23,-5.423 3.94,2.972 7.23,6.839 7.84,8.636 12.06,0.74 18.11,5.326 19.68,-0.448 5.67,-0.527 6.25,-0.175 12.47,-1.386 11.06,4.743 18.63,6.609 17.55,2.185 3.91,6.589 0.58,11.354 1.22,0.081 3.25,0.191 4.43,0.464 3.51,0.615 2.82,0.368 2.78,0.938 1.69,0.147 2.04,-0.918 1.48,-0.275 2.16,-0.357 2.01,-0.516 0.32,4.539 0.73,3.361 0.51,2.013 1,1.128 0.69,1.804 2.53,1.156 2.54,-0.044 3.29,0.319 0.87,-3.581 2.3,-6.046 1.72,-5.356 1.74,-3.329 1.23,-2.191 2.33,-1.213 4.55,-4.39 9.44,-9.666 7.56,-7.768 6.02,-6.331 3.72,-5.322 3.72,-4.358 1.77,-1.2 2.17,-1.985 3.69,-3.637 2.48,-3.306 10.08,-9.218 19.39,-41.872 30.36,-15.685 36.45,-19.237 3.92,-1.534 12.26,-5.195 7.13,-2.942 34.01,-13.698 58.57,-24.49 4.33,-1.971 3.36,-0.674 2.5,-1.576 2.14,-1.888 3.15,-2.43 1.99,0.101 3.17,1.175 2.57,2.135 3.65,1.675 2.44,1.448 2.17,0.073 2.72,0.65 1.08,2.239 1.58,1.436 2.01,1.937 2.4,0.814 0.6,1.625 0.67,1.397 0.45,1.517 1.25,2.473 1.39,1.581 0.44,0.997 0.42,3.21 2.76,1.829 2.79,1.413 3.04,0.856 2.98,1.547 2.56,2.143 1.97,2.62 2.19,1.497 3.08,0.537 1.29,1.38 1.83,2.828 2.52,1.805 3.17,2.579 2.67,2.879 2.97,3.383 1.73,2.961 1.88,1.943 2.73,1.685 2.01,1.305 -0.32,1.488 -0.61,0.926 0.32,2.138 1.35,0.163 1.71,0.355 1.45,0.364 0.57,1.059 0.61,1.602 1.22,1.467 1.39,0.428 2.61,1.57 1.71,1.019 1.04,0.529 1.33,0.225 1.38,1.615 2.6,0.988 1.88,-0.247 1.55,-1.029 1.8,-1.954 3.56,-0.854 3.43,-0.095 2.32,-0.111 1.84,0.032 2.18,0.674 2.2,0.718 2.57,0.182 3.35,0.851 3.18,0.475 2.46,0.071 1.81,-1.777 1.91,-0.966 2.26,0.152 2.03,0.431 2.06,-0.927 1.58,-0.806 2.03,-0.02 2.46,1.719 2.38,1.14 2.02,-0.512 1.61,-0.414 1.68,-0.9 3.04,-0.428 3.21,-0.405 2.04,0.049 1.61,-0.651 1.29,0.279 2.1,0.796 1.91,0.942 1.44,-1.931 0.81,-1.616 1.31,-1.374 2.12,-1.068 2.37,-0.691 1.24,1.433 2.39,1.657 1.44,-0.275 1.59,-0.088 1.74,-0.124 2.24,-0.345 2.71,-0.544 2.33,-1.14 2.13,-0.584 2.07,1.157 1.69,2.233 1.8,0.554 3.26,0.442 1.8,-0.876 1.15,-1.772 2.45,-1.198 2.09,-1.09 3.29,-0.712 3.88,0.67 1.99,1.454 1.25,0.864 0.63,0.364 1.61,-0.214 1.02,-0.156 2.14,-0.529 2,-0.25 1.04,0.411 0.86,1.098 0.7,1.348 0.15,1.619 0.89,0.738 1.82,0.613 1.52,0.595 2.51,0.846 2.93,0.537 1.4,-1.027 2.56,-1.725 2,-0.659 2.66,-1.697 1.73,-1.293 2.39,-0.643 2.41,0.129 -8.86,12.826 -2.15,3.095 -26.3,36.787 -21.56,30.774 -35.68,50.221 -3.91,5.52 -15.6,22.994 -19.22,25.281 -27.61,27.274 -42.34,41.114 -0.17,5.203 -0.09,2.536 0.47,11.771 -0.33,7.014 0.34,80.857 -0.15,25.302 -1.88,10.887 2.17,40.76 1.2,22.242 1,18.548 -0.45,113.031 -1.47,100.07 1.09,44.48 -1.23,35.21 -0.02,14.84 2.32,9.59 -0.88,12.9 -0.63,13.69 0.4,11.51 1.07,91.71 -0.05,26.69 0.51,96.29 0.27,14.63 0.5,8.82 7.74,10.72 17.17,24 14.99,19.08 10.52,14.19 10.5,12.17 20.19,26.97 28.89,40.72 18.76,23.2 -0.47,13.88 -8.3,0.69 -5.83,0.55 -0.25,0.29 -5.33,6.34 -4.31,5.51 -2.61,4.06 -2.47,3.11 -3.95,4.57 -4.49,3.88 -2.98,2.83 -0.85,2.99 -3.23,3.21 -2.39,3.12 -1.52,1.93 -1.85,-0.13 -0.7,1.21 0.67,0.91 h 1.03 l 1.08,-0.31 -1.16,1.97 -2.1,1.96 -1.93,1.99 -1.33,1.4 -1.83,2.6 -2.45,2.07 -1.8,2.47 -1.58,2.34 -1.66,2.39 -0.99,0.69 -1.11,0.37 -0.72,0.56 -1.18,1.37 -1.05,1.28 -1.5,1.4 -1.46,1.21 0.43,-2.08 0.74,-1.97 0.4,-2.46 -0.97,-1.41 -1.09,-1.45 -1.06,-0.32 -0.94,-0.35 -0.54,-0.75 -0.86,1.07 -1.07,-0.09 -0.85,0.35 0.11,1.09 -0.17,0.77 -0.3,0.76 -1,0.67 -1.19,-0.2 -0.19,-1.39 0.34,-1.26 1.45,-1.38 0.67,-0.61 0.22,-1.31 -0.11,-1.24 0.17,-1.13 -0.13,-1.14 -0.88,0.05 -0.29,1.29 -0.42,0.85 -0.7,0.22 -0.13,-1.23 -0.55,-0.53 -0.16,-0.82 -0.08,-0.75 -0.69,-0.49 -0.87,0.01 -1.07,0.89 -1.09,0.81 -0.25,-0.7 0.43,-0.75 0.05,-1.21 0.51,-1.3 0.26,-0.87 -2.07,0.98 -1.28,0.99 -1.04,0.57 -1.09,1.04 -0.69,0.77 -0.99,0.87 -0.85,1.21 -1.36,0.65 -0.96,0.66 -0.87,1.3 -1.21,0.26 -1.34,0.38 -0.39,0.91 0.23,1.06 -0.68,0.93 -1.27,1.09 -1.14,1.2 0.03,-1.3 -0.71,0.41 -0.6,0.97 -0.82,1.01 -0.73,1.18 -1.07,0.91 -1.19,0.86 -1.36,0.16 -0.03,-1.3 -0.66,-0.99 1.08,-0.84 -2.74,1.35 -2.44,0.78 -1.25,0.51 -1.7,0.97 -2.35,1.39 -2.01,1.29 -0.88,1.33 0.92,1.16 -0.44,1.3 -0.87,1.4 0.94,1.39 -0.88,0.03 -1.1,-0.24 -1,-0.26 -1.36,1.11 -0.24,1.22 -1.33,1.69 -0.48,1.25 -0.96,1.4 -1.19,0.97 -0.55,-0.67 -0.47,0.64 -0.92,1.01 -2.08,-0.06 0.02,-1.12 -0.02,-1.42 -0.32,-1.14 -0.85,0.67 -1.07,0.49 -1.38,0.55 -0.52,-0.87 0.01,-1.58 -0.79,-1.52 -0.87,-1.19 1.2,-1.05 0.18,-1.69 -0.54,-0.77 -0.94,-0.49 0.45,-1.22 1.1,-2.74 -0.21,-2.51 -0.09,-2.55 -0.3,-2.05 1.01,-1.92 1.49,-2.2 1.1,-1.73 1.46,-1.03 1.05,-0.37 -0.23,-1.22 0.58,-1.24 1.23,-0.6 0.99,1.05 0.1,-1.11 1.8,-0.92 1.66,-2.49 1.95,-1.63 -0.26,-2.48 -1.32,-1.92 -1.55,0.97 -0.63,1.84 -1.35,1.43 -1.91,1.69 -1.56,0.69 -0.79,0.56 -0.83,-1.24 -0.82,1.89 -0.75,2.31 -1.54,0.8 -1.51,-0.88 0.76,1.7 0.38,0.77 -0.46,0.88 -1.14,0.9 -1.46,0.98 -0.81,1.82 -0.62,1.79 -0.22,1.69 0.91,0.88 0.64,1.41 -0.79,1.35 -0.59,1.13 0.32,2.05 -0.64,1.45 -1.31,1.45 -0.62,0.6 -0.68,2.69 -0.42,1.45 -0.51,1.24 0.11,1.28 0.91,1.2 0.5,2.13 0.49,2.76 0.6,2.22 -1.06,1.08 -0.82,-0.89 -0.35,1.67 -0.75,1.05 -1.97,0.22 -0.01,-3.18 -0.3,-2.63 -0.72,-1.82 -1.49,-1.42 -1.65,-1.45 0.18,-0.8 2.57,-2.58 0.59,-1.71 -2.11,0.03 -1.29,-1.56 -1.86,-2.04 -2.91,-0.78 -2.54,0.06 -1.06,-0.15 -1.54,-1.48 -0.07,-2.41 -0.45,-1.8 -1.14,-2.36 -0.27,1.45 -0.24,1.8 -1.62,0.89 -0.85,-1.04 -0.26,-3.02 -1.24,-2.84 -1.6,-1.5 -0.6,1.41 0.93,2.28 0.29,1.43 -1.3,0.31 -1.97,-0.21 -1.47,-0.32 -0.94,-0.44 -0.46,-1.77 -0.45,-1.23 -0.37,1.35 -0.18,1.28 -1.34,-1.23 -1.92,-0.3 -0.72,-0.21 -1.65,-1 -1.14,-0.31 -0.34,1.18 0.22,0.8 0.6,0.99 1.31,0.92 0.86,0.81 1.13,0.41 1.81,0.87 1.47,0.73 0.39,1.28 1.08,0.84 2.15,0.32 1.45,-0.05 1.5,-0.68 0.94,1.37 1.26,0.8 0.74,0.89 1.87,0.88 1.49,1.33 0.18,1.55 -1.11,0.08 -1.18,-0.42 -2.22,0.66 -2.38,0.85 -1.66,1.34 1.57,0.34 1.12,-0.19 1.52,-0.06 1.15,0.33 1.54,0.46 0.52,-1.3 1.18,-0.31 1.93,0.59 2.28,-0.51 1.37,-0.69 1.46,0.2 -0.15,2.56 -0.33,2.24 0.33,1.59 -0.65,1.36 -1.72,-0.76 -1.21,-1.33 -1.16,-1.26 -0.31,1.23 -0.74,1.47 0.92,0.82 0.88,-0.49 0.97,0.72 0.74,0.65 0.65,1.13 -0.93,0.68 -0.65,-0.42 -0.84,-0.69 -1.22,0.24 -0.98,1.09 -1.67,0.77 -2.1,1.36 1.7,1.2 1.08,-0.56 1.5,-1.01 1.67,-0.65 -0.49,1.19 -0.59,1.42 0.76,0.33 0.6,-1 2.38,0.42 0.64,1.04 0.91,0.49 1.13,-0.01 0.6,2.24 -0.4,3.07 0.05,1.85 0.31,3.09 0.55,2.15 0.86,2.32 0.25,4.73 -0.26,3.92 0.51,1.7 0.23,2.15 0.24,1.68 1.25,1.88 -0.52,0.56 -1.63,-0.57 -1.75,-0.38 -1.18,-1 -0.36,-1.69 -0.47,-0.78 -1.18,0.32 -1.63,-0.7 0.55,-1.78 -0.49,-1.11 -0.5,1.11 -0.54,0.87 -0.58,1.11 -0.15,1.18 0.55,1.87 -1.15,-0.19 -1.25,-0.17 -1.1,-0.1 -0.48,0.57 0.92,0.85 1.74,0.57 0.55,0.92 -1.5,0.59 -0.65,0.54 0.83,0.8 -1.25,0.73 -2.04,0.17 -1.29,0.64 -1.36,0.42 -1.7,0.55 -1.36,-0.04 1.1,-0.9 0.8,-1.74 -0.95,-0.76 -1.54,0.03 -1.29,-0.1 -1.27,0.79 -1.36,0.75 -0.84,0.4 -1.05,-0.52 -1.6,0.24 -0.2,1.13 1.19,0.65 0.83,0.83 -1.59,0.74 -1.38,1.18 -0.93,1.24 -0.74,-0.39 -0.58,-1.41 -0.27,-1.35 -0.87,1.66 -0.25,-1.18 0.15,-1.35 -0.48,-0.81 -0.53,1.2 -1.08,1.04 0.17,0.85 -1.01,0.66 -0.9,0.19 0.15,1.04 0.54,1.21 0.52,1.8 -0.49,0.85 -1.52,0.09 -1.1,-0.34 -0.66,-0.11 -0.37,1.22 0.17,1.11 1.13,0.19 0.87,0.85 0.78,0.68 1.41,1.79 -0.42,1.16 -1.19,-1.22 -1.3,-1.14 -1.86,-0.53 -1,-1.24 -1.04,-0.43 -0.8,-1.12 0.4,-1.32 -1.06,-0.08 -0.69,0.85 -0.78,-0.37 -0.99,-1 -0.61,0.75 0.8,1.04 0.91,0.29 0.84,0.29 0.62,1.15 -1.6,-0.2 -0.91,-0.32 -1.21,-0.5 -0.88,-0.48 -0.9,0.26 -0.64,0.84 -0.12,1.16 0.61,0.98 0.9,0.3 1.49,-0.27 1.53,0.36 1.09,0.26 -0.5,0.86 -1.14,-0.06 -1.3,-0.23 -0.91,0.32 -0.28,0.91 0.5,0.57 1.68,0.5 0.89,-0.28 1.93,0.2 -0.12,-1.05 0.8,-0.14 1.82,0.79 1.25,0.09 1.61,0.32 1.48,1.2 0.95,0.55 0.49,2 0.08,1.39 0.66,1.45 -0.19,0.91 0.06,0.74 0.29,0.76 1.16,0.01 0.78,1.1 -0.56,0.96 0.96,0.08 1.29,-0.53 -0.07,1.42 -1.65,0.63 -0.77,0.49 -0.97,0.84 0.52,0.51 -0.21,1.94 -0.69,1.05 -0.72,1.8 1.8,-0.57 0.74,0.19 0.64,-0.96 -0.66,-1.31 0.89,-1.19 0.82,-0.37 1.07,-1.09 0.56,-1.67 0.61,-0.98 0.13,-1.34 -0.1,-1.37 1.07,0.37 0.66,-0.49 0.28,-1.42 0.43,-0.63 0.74,1.22 1.31,0.3 1.01,0.94 1.25,2.01 0.23,1.58 0.33,2.99 -1.02,3.24 -2.03,1.61 -2.84,1.61 -2.25,2.62 -2.34,2.15 -0.61,1.73 -0.74,1.85 -0.33,1.19 -3.36,-0.46 -2.82,1.49 -3.06,0.76 -2.97,1.21 -3.3,0.6 -2.63,2.06 -6.7,5.45 -5.43,6.15 -5.01,2.97 -6.15,0.57 -4.39,-1.57 -3.62,-2.24 -2.81,-0.9 -2.21,-1.04 -1.46,-0.66 -1.4,0.05 -0.83,1.37 -2.2,0.68 -1.72,0.42 -3.28,0.28 -1.32,0.21 -3.58,0.63 -4.39,1.91 -4.43,1.79 -5.29,2.42 -4.73,2.24 -3,1.67 -4.91,2.82 -5.96,3.76 -4.52,3.51 -3.59,3.93 -1.36,-0.75 -1.13,0.8 -0.63,1.98 -1.05,1.22 -3.88,3.8 -2.75,3.56 -1.41,1.82 -5.96,9.65 -2.8,-3.92 0.32,0.79 -0.59,0.58 -1.5,0.09 0.7,0.93 0.75,0.5 0.46,1.68 0.7,0.03 0.75,-0.73 -0.2,1.71 0.22,1.3 0.35,0.99 -0.62,0.16 0.47,0.84 -0.7,0.38 -0.8,-0.3 -0.54,-0.98 -0.43,1.22 0.52,0.75 -0.41,0.51 1.16,0.48 0.28,0.9 -0.82,0.47 -0.78,0.55 0.69,0.34 0.47,0.41 -0.73,0.69 -0.62,0.52 0.88,1.7 0.79,0.36 0.27,-1.13 0.88,0.7 1.19,2.28 0.8,2.49 0.19,2.25 -0.8,2.08 0.35,0.76 -0.02,1.43 -0.9,2.14 -0.97,2.76 -0.75,2.18 -0.8,1.52 -0.51,-0.71 v -0.98 l -0.68,-1.02 -0.12,1.08 -0.02,1.11 -0.01,1.12 -0.85,0.92 -0.75,0.59 0.16,2.11 1.06,0.38 0.63,-0.9 0.92,-1.12 1.66,-0.79 0.65,0.37 -0.74,1.21 -0.47,1.05 -0.33,1.39 -0.46,0.68 -0.78,-0.76 -0.73,-0.26 -0.78,0.77 -0.03,0.79 -0.22,1.46 0.67,-0.3 1.65,-0.6 -0.09,1.51 0.04,1.51 -0.65,0.48 0.04,1.29 -0.89,0.69 -0.71,1.39 0.49,2.11 0.26,1.7 0.08,1.64 -0.52,1.03 -0.44,1.22 -0.03,1.66 0.45,2.76 -0.13,1.84 -0.61,2.15 0.09,1.92 -0.15,2.22 0.23,2.15 0.57,-0.35 0.68,-0.04 -0.22,-1.2 0.17,-0.75 0.94,-0.9 1.09,0.04 1.12,-0.54 0.62,-1.63 0.89,-1.54 1.67,-1.18 0.19,-2.69 1.24,-1.55 1.38,-0.07 1.21,-0.39 1.73,-0.21 2.39,-0.1 1.57,-1.13 1.41,-1.72 1.33,-0.71 0.5,1.5 -0.01,1.53 -0.51,1.15 -1.26,-0.25 -1.86,0.71 -2.13,1.22 -1.79,1.81 -1.64,2.77 -0.95,2.08 -1.46,0.75 -1.71,0.87 -1.3,1.45 -0.82,1.59 0.04,1.03 0.34,1.6 -0.18,1.07 -0.8,1.36 -1.77,2.69 0.08,2.74 0.97,3.53 0.07,2.84 -1.23,1.86 -2.14,2.95 -1.45,2.5 -1.22,0.32 -1.18,-1.15 -1.3,-0.57 0.63,1.44 0.89,1.61 0.25,1.11 -1.5,2.38 -1.36,1.7 -0.29,1.82 0.1,1.4 -0.12,0.98 0.26,1.28 0.38,1.08 0.4,1.38 0.31,1.23 -0.05,2.02 0.13,1.68 0.56,2.02 0.25,1.42 -0.31,1.35 -0.57,0.91 0.2,1.53 -1.55,0.91 -0.55,2.18 -1.16,1.19 -1.48,1.22 -1.78,1.05 -3.2,1.43 -2.28,1.69 -2.24,1.93 -3.64,1.83 -2.85,1.46 -0.59,1.53 -0.62,0.86 -0.87,0.87 -0.65,-0.49 -0.88,0.6 -0.01,0.67 -1.03,-0.3 -1.24,1.23 -1.27,0.8 -1.02,1.02 -1.29,1.25 -1.84,1.32 -1.44,0.23 -0.24,-1.16 0.38,-1.05 1.42,-1.23 1.08,-0.87 0.69,0.64 0.77,-0.43 1.03,-0.51 -1.23,-0.28 0.54,-0.93 0.3,-1.54 -0.44,-1.66 -0.71,-1.51 -1.17,-0.78 0.4,-1.49 0.59,-0.7 1.31,-1.07 0.75,-1.33 -2.07,0.8 -2.4,0.64 -3.01,1.09 -2.51,0.7 -0.76,1.19 -1.06,1.1 -1.58,0.17 -2.06,0.27 -2.44,0.48 -0.86,0.68 2.18,2.37 1.77,1.78 1.7,1.1 0.48,0.74 1.05,-0.16 0.04,0.98 -0.88,0.73 -0.46,1.07 1.04,-0.13 1.04,-0.96 1.24,0.05 1.18,1.2 1.25,0.8 0.42,1.71 -0.14,1.72 -1.08,2.48 -0.5,1.62 -2.05,4.28 -2.13,4.31 -2.47,5.02 -1.73,4.42 -0.47,2.13 -1.16,2.49 -0.69,2.23 -0.79,2.29 -0.61,2.6 -0.69,2.28 -1.41,2.73 -1.35,2.08 -1,1.81 -0.76,1.64"
           inkscape:connector-curvature="0"
           style="vector-effect:none;fill-rule:evenodd" />
      </g>
      <g
         id="g1050"
         font-style="normal"
         font-weight="400"
         font-size="45.2222"
         transform="scale(11.6524)"
         style="font-style:normal;font-weight:400;font-size:45.22219849px;font-family:Cantarell;fill:none;stroke:#000000;stroke-width:1;stroke-linecap:square;stroke-linejoin:bevel;stroke-opacity:1" />
      <g
         id="g1052"
         font-style="normal"
         font-weight="400"
         font-size="45.2222"
         transform="scale(11.6524)"
         style="font-style:normal;font-weight:400;font-size:45.22219849px;font-family:Cantarell;fill:none;stroke:#000000;stroke-width:1;stroke-linecap:square;stroke-linejoin:bevel;stroke-opacity:1" />
      <g
         id="g1054"
         font-style="normal"
         font-weight="400"
         font-size="45.2222"
         transform="scale(11.6524)"
         style="font-style:normal;font-weight:400;font-size:45.22219849px;font-family:Cantarell;fill:none;stroke:#000000;stroke-width:1;stroke-linecap:square;stroke-linejoin:bevel;stroke-opacity:1" />
      <g
         id="g1056"
         font-style="normal"
         font-weight="400"
         font-size="45.2222"
         style="font-style:normal;font-weight:400;font-size:45.22219849px;font-family:Cantarell;fill:none;stroke:#000000;stroke-width:1;stroke-linecap:square;stroke-linejoin:bevel;stroke-opacity:1" />
      <g
         id="g1058"
         font-style="normal"
         font-weight="400"
         font-size="45.2222"
         transform="scale(11.6524)"
         style="font-style:normal;font-weight:400;font-size:45.22219849px;font-family:Cantarell;fill:none;stroke:#000000;stroke-width:1;stroke-linecap:square;stroke-linejoin:bevel;stroke-opacity:1" />
      <g
         id="g1060"
         font-style="normal"
         font-weight="400"
         font-size="45.2222"
         transform="scale(11.6524)"
         style="font-style:normal;font-weight:400;font-size:45.22219849px;font-family:Cantarell;fill:none;stroke:#000000;stroke-width:1;stroke-linecap:square;stroke-linejoin:bevel;stroke-opacity:1" />
      <g
         id="g1062"
         font-style="normal"
         font-weight="400"
         font-size="45.2222"
         transform="scale(11.6524)"
         style="font-style:normal;font-weight:400;font-size:45.22219849px;font-family:Cantarell;fill:none;stroke:#000000;stroke-width:1;stroke-linecap:square;stroke-linejoin:bevel;stroke-opacity:1" />
      <g
         id="g1064"
         font-style="normal"
         font-weight="400"
         font-size="45.2222"
         transform="scale(11.6524)"
         style="font-style:normal;font-weight:400;font-size:45.22219849px;font-family:Cantarell;fill:none;stroke:#000000;stroke-width:1;stroke-linecap:square;stroke-linejoin:bevel;stroke-opacity:1" />
      <g
         id="g1066"
         font-style="normal"
         font-weight="400"
         font-size="45.2222"
         transform="scale(11.6524)"
         style="font-style:normal;font-weight:400;font-size:45.22219849px;font-family:Cantarell;fill:none;stroke:#000000;stroke-width:1;stroke-linecap:square;stroke-linejoin:bevel;stroke-opacity:1" />
      <g
         id="g1068"
         font-style="normal"
         font-weight="400"
         font-size="45.2222"
         transform="scale(11.6524)"
         style="font-style:normal;font-weight:400;font-size:45.22219849px;font-family:Cantarell;fill:none;stroke:#000000;stroke-width:1;stroke-linecap:square;stroke-linejoin:bevel;stroke-opacity:1" />
      <g
         id="g1070"
         font-style="normal"
         font-weight="400"
         font-size="45.2222"
         style="font-style:normal;font-weight:400;font-size:45.22219849px;font-family:Cantarell;fill:none;stroke:#000000;stroke-width:1;stroke-linecap:square;stroke-linejoin:bevel;stroke-opacity:1" />
    </g>
  </g>
</svg>
