<?xml version="1.0" encoding="UTF-8" standalone="no"?>
<svg
   xmlns:dc="http://purl.org/dc/elements/1.1/"
   xmlns:cc="http://creativecommons.org/ns#"
   xmlns:rdf="http://www.w3.org/1999/02/22-rdf-syntax-ns#"
   xmlns:svg="http://www.w3.org/2000/svg"
   xmlns="http://www.w3.org/2000/svg"
   xmlns:sodipodi="http://sodipodi.sourceforge.net/DTD/sodipodi-0.dtd"
   xmlns:inkscape="http://www.inkscape.org/namespaces/inkscape"
   width="118"
   height="118"
   viewBox="0 0 118 118"
   version="1.1"
   id="svg19"
   sodipodi:docname="chip.svg"
   inkscape:version="0.92.2 (unknown)">
  <metadata
     id="metadata23">
    <rdf:RDF>
      <cc:Work
         rdf:about="">
        <dc:format>image/svg+xml</dc:format>
        <dc:type
           rdf:resource="http://purl.org/dc/dcmitype/StillImage" />
        <dc:title>Group</dc:title>
      </cc:Work>
    </rdf:RDF>
  </metadata>
  <sodipodi:namedview
     pagecolor="#ffffff"
     bordercolor="#666666"
     borderopacity="1"
     objecttolerance="10"
     gridtolerance="10"
     guidetolerance="10"
     inkscape:pageopacity="0"
     inkscape:pageshadow="2"
     inkscape:window-width="1366"
     inkscape:window-height="738"
     id="namedview21"
     showgrid="false"
     inkscape:zoom="2.8284271"
     inkscape:cx="-12.814987"
     inkscape:cy="46.718666"
     inkscape:window-x="0"
     inkscape:window-y="0"
     inkscape:window-maximized="1"
     inkscape:current-layer="g1089" />
  <!-- Generator: Sketch 40.1 (33804) - http://www.bohemiancoding.com/sketch -->
  <title
     id="title2">Group</title>
  <desc
     id="desc4">Created with Sketch.</desc>
  <defs
     id="defs6" />
  <g
     id="g1089"
     transform="translate(-313.8125,-16.3125)">
    <g
       id="g1020" />
    <g
       id="g1022" />
    <g
       id="g1024" />
    <g
       id="g1026" />
    <g
       id="g1028" />
    <g
       id="g1030" />
    <g
       id="g1032" />
    <g
       id="g1034" />
    <g
       id="g1036" />
    <g
       id="g1038" />
    <g
       id="g1040" />
    <g
       id="g1042" />
    <g
       id="g1044" />
    <g
       id="g1046" />
    <g
       id="g1048" />
    <g
       id="g1342"
       transform="matrix(0.23100364,0,0,0.22829901,313.95468,17.136486)">
      <g
         id="g1231">
        <g
           id="g1229">
          <circle
             id="circle1227"
             r="11.636"
             cy="128"
             cx="128"
             style="fill:#808080" />
        </g>
      </g>
      <g
         id="g1237">
        <g
           id="g1235">
          <circle
             id="circle1233"
             r="11.636"
             cy="128"
             cx="384"
             style="fill:#808080" />
        </g>
      </g>
      <g
         id="g1243">
        <g
           id="g1241">
          <circle
             id="circle1239"
             r="11.636"
             cy="384"
             cx="128"
             style="fill:#808080" />
        </g>
      </g>
      <g
         id="g1249">
        <g
           id="g1247">
          <circle
             id="circle1245"
             r="11.636"
             cy="384"
             cx="384"
             style="fill:#808080" />
        </g>
      </g>
      <g
         id="g1255">
        <g
           id="g1253">
          <path
             id="path1251"
             d="m 500.364,232.727 c 6.435,0 11.636,-5.213 11.636,-11.636 0,-6.423 -5.201,-11.636 -11.636,-11.636 H 442.182 V 162.91 h 58.182 c 6.435,0 11.636,-5.213 11.636,-11.636 0,-6.423 -5.201,-11.636 -11.636,-11.636 H 442.182 V 128 c 0,-32.081 -26.1,-58.182 -58.182,-58.182 H 372.364 V 11.636 C 372.364,5.213 367.162,0 360.727,0 354.292,0 349.091,5.213 349.091,11.636 V 69.818 H 302.546 V 11.636 C 302.545,5.213 297.344,0 290.909,0 284.474,0 279.273,5.213 279.273,11.636 V 69.818 H 232.728 V 11.636 C 232.727,5.213 227.526,0 221.091,0 214.656,0 209.455,5.213 209.455,11.636 V 69.818 H 162.91 V 11.636 C 162.909,5.213 157.708,0 151.273,0 144.838,0 139.637,5.213 139.637,11.636 V 69.818 H 128 c -32.081,0 -58.182,26.1 -58.182,58.182 v 11.636 H 11.636 C 5.201,139.636 0,144.849 0,151.273 c 0,6.423 5.201,11.636 11.636,11.636 h 58.182 v 46.545 H 11.636 C 5.201,209.455 0,214.668 0,221.091 c 0,6.423 5.201,11.636 11.636,11.636 h 58.182 v 46.545 H 11.636 C 5.201,279.273 0,284.486 0,290.909 c 0,6.423 5.201,11.636 11.636,11.636 H 69.818 V 349.09 H 11.636 C 5.201,349.091 0,354.304 0,360.727 c 0,6.423 5.201,11.636 11.636,11.636 H 69.818 V 384 c 0,32.081 26.1,58.182 58.182,58.182 h 11.636 v 58.182 c 0,6.423 5.201,11.636 11.636,11.636 6.435,0 11.636,-5.213 11.636,-11.636 v -58.182 h 46.545 v 58.182 c 0,6.423 5.201,11.636 11.636,11.636 6.435,0 11.636,-5.213 11.636,-11.636 v -58.182 h 46.545 v 58.182 c 0,6.423 5.201,11.636 11.636,11.636 6.435,0 11.636,-5.213 11.636,-11.636 v -58.182 h 46.545 v 58.182 c 0,6.423 5.201,11.636 11.636,11.636 6.435,0 11.636,-5.213 11.636,-11.636 V 442.182 H 384 c 32.081,0 58.182,-26.1 58.182,-58.182 v -11.636 h 58.182 c 6.435,0 11.636,-5.213 11.636,-11.636 0,-6.423 -5.201,-11.636 -11.636,-11.636 h -69.818 c -6.435,0 -11.636,5.213 -11.636,11.636 V 384 c 0,19.247 -15.663,34.909 -34.909,34.909 H 128 C 108.753,418.909 93.091,403.246 93.091,384 V 128 c 0,-19.247 15.663,-34.909 34.909,-34.909 h 256 c 19.247,0 34.909,15.663 34.909,34.909 v 186.182 c 0,6.423 5.201,11.636 11.636,11.636 6.435,0 11.636,-5.213 11.636,-11.636 v -11.636 h 58.182 c 6.435,0 11.636,-5.213 11.636,-11.636 0,-6.423 -5.201,-11.636 -11.636,-11.636 h -58.182 v -46.545 h 58.183 z"
             inkscape:connector-curvature="0"
             style="fill:#ff8c00;fill-opacity:1" />
        </g>
      </g>
      <g
         id="g1261">
        <g
           id="g1259">
          <path
             id="path1257"
             d="m 221.091,186.182 c -19.247,0 -34.909,15.663 -34.909,34.909 0,15.151 9.763,27.951 23.273,32.768 v 95.232 h -34.909 c -6.412,0 -11.625,-5.225 -11.625,-11.636 v -162.91 c 0,-6.412 5.213,-11.636 11.636,-11.636 h 69.807 c 6.435,0 11.636,-5.213 11.636,-11.636 0,-6.423 -5.201,-11.636 -11.636,-11.636 h -69.807 c -19.247,0 -34.909,15.663 -34.909,34.909 v 162.909 c 0,19.247 15.663,34.909 34.897,34.909 h 46.545 c 6.435,0 11.636,-5.213 11.636,-11.636 V 253.859 c 13.51,-4.817 23.273,-17.617 23.273,-32.768 0.001,-19.247 -15.662,-34.909 -34.908,-34.909 z m 0,46.545 c -6.423,0 -11.636,-5.225 -11.636,-11.636 0,-6.412 5.213,-11.636 11.636,-11.636 6.423,0 11.636,5.225 11.636,11.636 0,6.412 -5.213,11.636 -11.636,11.636 z"
             inkscape:connector-curvature="0"
             style="fill:#ff8c00;fill-opacity:1" />
        </g>
      </g>
      <g
         id="g1267">
        <g
           id="g1265">
          <path
             id="path1263"
             d="m 337.443,139.636 h -46.534 c -6.435,0 -11.636,5.213 -11.636,11.636 V 258.14 C 265.763,262.959 256,275.759 256,290.909 c 0,19.247 15.663,34.909 34.909,34.909 19.247,0 34.909,-15.663 34.909,-34.909 0,-15.151 -9.763,-27.951 -23.273,-32.768 v -95.232 h 34.897 c 6.423,0 11.636,5.225 11.636,11.636 v 162.909 c 0,6.412 -5.213,11.636 -11.636,11.636 h -69.807 c -6.435,0 -11.636,5.213 -11.636,11.636 0,6.423 5.201,11.636 11.636,11.636 h 69.807 c 19.247,0 34.909,-15.663 34.909,-34.909 V 174.545 c 10e-4,-19.246 -15.662,-34.909 -34.908,-34.909 z m -46.534,162.909 c -6.423,0 -11.636,-5.225 -11.636,-11.636 0,-6.412 5.213,-11.636 11.636,-11.636 6.423,0 11.636,5.225 11.636,11.636 0,6.412 -5.213,11.636 -11.636,11.636 z"
             inkscape:connector-curvature="0"
             style="fill:#ff8c00;fill-opacity:1" />
        </g>
      </g>
      <g
         id="g1269" />
      <g
         id="g1271" />
      <g
         id="g1273" />
      <g
         id="g1275" />
      <g
         id="g1277" />
      <g
         id="g1279" />
      <g
         id="g1281" />
      <g
         id="g1283" />
      <g
         id="g1285" />
      <g
         id="g1287" />
      <g
         id="g1289" />
      <g
         id="g1291" />
      <g
         id="g1293" />
      <g
         id="g1295" />
      <g
         id="g1297" />
    </g>
  </g>
</svg>
