<?xml version="1.0" encoding="UTF-8"?>
<svg width="40px" height="40px" viewBox="0 0 40 40" version="1.1" xmlns="http://www.w3.org/2000/svg" xmlns:xlink="http://www.w3.org/1999/xlink">
    <!-- Generator: Sketch 42 (36781) - http://www.bohemiancoding.com/sketch -->
    <title>Artboard 4</title>
    <desc>Created with Sketch.</desc>
    <defs></defs>
    <g id="v5" stroke="none" stroke-width="1" fill="none" fill-rule="evenodd">
        <g id="Artboard-4">
            <g id="noun_907576_cc-(1)" transform="translate(3.000000, 5.000000)">
                <g id="Group">
                    <path d="M32.1471171,17.8652917 L32.1471171,28.4399821 C32.1471171,29.185192 31.5357706,29.79 30.7825043,29.79 L2.63668485,29.79 C1.88341863,29.79 1.27207213,29.185192 1.27207213,28.4399821 L1.27207213,17.8652917 L13.3611762,17.8652917 L13.8122101,17.8658142 L13.8101337,18.2095462 L13.8101337,21.0148835 C13.8101337,21.7600934 14.4207979,22.3649014 15.1747464,22.3649014 L18.245125,22.3649014 C18.9983913,22.3649014 19.6097378,21.7600934 19.6097378,21.0148835 L19.6097378,17.8674223 L32.1471171,17.8652917 Z M33,6.83902029 L33,15.1078801 C33,15.85309 32.3886535,16.457898 31.6353873,16.457898 L1.7838019,16.457898 C1.03053568,16.457898 0.419189189,15.85309 0.419189189,15.1078801 L0.419189189,6.83902029 C0.419189189,6.09313538 1.03053568,5.48900236 1.7838019,5.48900236 L10.9935731,5.48900236 L10.9935731,2.83419211 C10.9935731,1.75282776 11.8792067,0.878016143 12.9722615,0.878016143 L20.4462454,0.878016143 C21.5393001,0.878016143 22.4249338,1.75350277 22.4249338,2.83419211 L22.4249338,5.48967737 L31.634705,5.48967737 C32.3879712,5.48900236 33,6.09313538 33,6.83902029 Z" id="Shape" fill="#05243E" fill-rule="nonzero"></path>
                    <path d="M20.4191892,3.17752946 C20.4191892,3.01211282 20.2856055,2.87801614 20.1184079,2.87801614 L13.7199704,2.87801614 C13.5538535,2.87801614 13.4191892,3.0183941 13.4191892,3.17752946 L13.4191892,5.48900236 L20.4191892,5.48900236 L20.4191892,3.17752946 Z" id="Path" fill="#FFFFFF"></path>
                </g>
            </g>
        </g>
    </g>
</svg>