<?xml version="1.0" encoding="UTF-8"?>
<svg width="40px" height="40px" viewBox="0 0 40 40" version="1.1" xmlns="http://www.w3.org/2000/svg" xmlns:xlink="http://www.w3.org/1999/xlink">
    <!-- Generator: Sketch 42 (36781) - http://www.bohemiancoding.com/sketch -->
    <title>Artboard 4</title>
    <desc>Created with Sketch.</desc>
    <defs>
        <polygon id="path-1" points="34.99993 20.5977011 0 20.5977011 0 0.0888897344 34.99993 0.0888897344"></polygon>
    </defs>
    <g id="v5" stroke="none" stroke-width="1" fill="none" fill-rule="evenodd">
        <g id="Artboard-4">
            <g id="Page-1" transform="translate(3.000000, 4.000000)">
                <path d="M12.972225,5.27150682 C13.157375,5.31447788 13.343925,5.35744895 13.528725,5.40574701 C15.505175,5.9213998 16.265725,6.12311522 16.419375,8.44816952 L18.515875,8.44816952 C18.264225,4.72815367 16.622025,4.01327138 14.051975,3.34207043 C13.848625,3.28915565 13.643525,3.24121272 13.439825,3.19398006 C11.979625,2.85624879 11.210325,2.67797214 11.136125,0.641995917 C11.129125,0.450934483 10.974775,0.300003052 10.786475,0.300003052 L9.386475,0.300003052 C9.291275,0.300003052 9.200275,0.33942279 9.134475,0.409028815 C9.068325,0.478279707 9.033325,0.57203476 9.036825,0.668275743 C9.171225,4.39113266 11.360475,4.89826227 12.972225,5.27150682" id="Fill-1" fill="#1E88F5"></path>
                <g id="Group-5" transform="translate(0.000000, 10.184072)">
                    <mask id="mask-2" fill="white">
                        <use xlink:href="#path-1"></use>
                    </mask>
                    <g id="Clip-4"></g>
                    <path d="M31.54613,6.93407404 C31.54613,7.05126786 31.45163,7.14715371 31.33613,7.14715371 L28.25613,7.14715371 C28.14063,7.14715371 28.04613,7.05126786 28.04613,6.93407404 L28.04613,3.80855046 C28.04613,3.69135664 28.14063,3.59582592 28.25613,3.59582592 L31.33613,3.59582592 C31.45163,3.59582592 31.54613,3.69135664 31.54613,3.80855046 L31.54613,6.93407404 Z M31.54613,11.9059329 C31.54613,12.0231268 31.45163,12.1190126 31.33613,12.1190126 L25.79668,12.1190126 C25.68118,12.1190126 25.58703,12.0231268 25.58703,11.9059329 L25.58703,8.78040935 C25.58703,8.66321554 25.68118,8.56768482 25.79668,8.56768482 L31.33613,8.56768482 C31.45163,8.56768482 31.54613,8.66321554 31.54613,8.78040935 L31.54613,11.9059329 Z M27.96213,16.8334002 C27.96213,16.9505941 27.86763,17.0464799 27.75213,17.0464799 L7.24773,17.0464799 C7.13223,17.0464799 7.03808,16.9505941 7.03808,16.8334002 L7.03808,13.7078767 C7.03808,13.5906828 7.13223,13.4951521 7.24773,13.4951521 L27.75213,13.4951521 C27.86763,13.4951521 27.96213,13.5906828 27.96213,13.7078767 L27.96213,16.8334002 Z M3.45373,11.9059329 L3.45373,8.78040935 C3.45373,8.66321554 3.54823,8.56768482 3.66373,8.56768482 L9.20318,8.56768482 C9.31868,8.56768482 9.41353,8.66321554 9.41353,8.78040935 L9.41353,11.9059329 C9.41353,12.0231268 9.31868,12.1190126 9.20318,12.1190126 L3.66373,12.1190126 C3.54823,12.1190126 3.45373,12.0231268 3.45373,11.9059329 L3.45373,11.9059329 Z M3.45373,3.80855046 C3.45373,3.69135664 3.54823,3.59582592 3.66373,3.59582592 L6.74408,3.59582592 C6.85958,3.59582592 6.95373,3.69135664 6.95373,3.80855046 L6.95373,6.93407404 C6.95373,7.05126786 6.85958,7.14715371 6.74408,7.14715371 L3.66373,7.14715371 C3.54823,7.14715371 3.45373,7.05126786 3.45373,6.93407404 L3.45373,3.80855046 Z M8.37228,3.80855046 C8.37228,3.69135664 8.46678,3.59582592 8.58228,3.59582592 L11.66228,3.59582592 C11.77813,3.59582592 11.87228,3.69135664 11.87228,3.80855046 L11.87228,6.93407404 C11.87228,7.05126786 11.77813,7.14715371 11.66228,7.14715371 L8.58228,7.14715371 C8.46678,7.14715371 8.37228,7.05126786 8.37228,6.93407404 L8.37228,3.80855046 Z M14.33173,8.78040935 L14.33173,11.9059329 C14.33173,12.0231268 14.23723,12.1190126 14.12173,12.1190126 L11.04173,12.1190126 C10.92623,12.1190126 10.83173,12.0231268 10.83173,11.9059329 L10.83173,8.78040935 C10.83173,8.66321554 10.92623,8.56768482 11.04173,8.56768482 L14.12173,8.56768482 C14.23723,8.56768482 14.33173,8.66321554 14.33173,8.78040935 L14.33173,8.78040935 Z M13.29083,3.80855046 C13.29083,3.69135664 13.38498,3.59582592 13.50048,3.59582592 L16.58083,3.59582592 C16.69633,3.59582592 16.79083,3.69135664 16.79083,3.80855046 L16.79083,6.93407404 C16.79083,7.05126786 16.69633,7.14715371 16.58083,7.14715371 L13.50048,7.14715371 C13.38498,7.14715371 13.29083,7.05126786 13.29083,6.93407404 L13.29083,3.80855046 Z M19.24993,8.78040935 L19.24993,11.9059329 C19.24993,12.0231268 19.15578,12.1190126 19.04028,12.1190126 L15.96028,12.1190126 C15.84478,12.1190126 15.75028,12.0231268 15.75028,11.9059329 L15.75028,8.78040935 C15.75028,8.66321554 15.84478,8.56768482 15.96028,8.56768482 L19.04028,8.56768482 C19.15578,8.56768482 19.24993,8.66321554 19.24993,8.78040935 L19.24993,8.78040935 Z M18.20938,3.80855046 C18.20938,3.69135664 18.30353,3.59582592 18.41903,3.59582592 L21.49903,3.59582592 C21.61453,3.59582592 21.70903,3.69135664 21.70903,3.80855046 L21.70903,6.93407404 C21.70903,7.05126786 21.61453,7.14715371 21.49903,7.14715371 L18.41903,7.14715371 C18.30353,7.14715371 18.20938,7.05126786 18.20938,6.93407404 L18.20938,3.80855046 Z M24.16848,8.78040935 L24.16848,11.9059329 C24.16848,12.0231268 24.07398,12.1190126 23.95848,12.1190126 L20.87848,12.1190126 C20.76263,12.1190126 20.66848,12.0231268 20.66848,11.9059329 L20.66848,8.78040935 C20.66848,8.66321554 20.76263,8.56768482 20.87848,8.56768482 L23.95848,8.56768482 C24.07398,8.56768482 24.16848,8.66321554 24.16848,8.78040935 L24.16848,8.78040935 Z M23.12723,3.80855046 C23.12723,3.69135664 23.22173,3.59582592 23.33723,3.59582592 L26.41758,3.59582592 C26.53308,3.59582592 26.62723,3.69135664 26.62723,3.80855046 L26.62723,6.93407404 C26.62723,7.05126786 26.53308,7.14715371 26.41758,7.14715371 L23.33723,7.14715371 C23.22173,7.14715371 23.12723,7.05126786 23.12723,6.93407404 L23.12723,3.80855046 Z M33.59993,0.0888897344 L1.39993,0.0888897344 C0.62993,0.0888897344 -7.00000001e-05,0.727773603 -7.00000001e-05,1.50942085 L-7.00000001e-05,19.1772766 C-7.00000001e-05,19.9585687 0.62993,20.5978077 1.39993,20.5978077 L33.59993,20.5978077 C34.36993,20.5978077 34.99993,19.9585687 34.99993,19.1772766 L34.99993,1.50942085 C34.99993,0.727773603 34.36993,0.0888897344 33.59993,0.0888897344 L33.59993,0.0888897344 Z" id="Fill-3" fill="#05243E" mask="url(#mask-2)"></path>
                </g>
            </g>
        </g>
    </g>
</svg>