<?xml version="1.0" encoding="UTF-8"?>
<svg width="298px" height="195px" viewBox="0 0 298 195" version="1.1" xmlns="http://www.w3.org/2000/svg" xmlns:xlink="http://www.w3.org/1999/xlink">
    <!-- Generator: Sketch 40.1 (33804) - http://www.bohemiancoding.com/sketch -->
    <title>Group 24</title>
    <desc>Created with Sketch.</desc>
    <defs></defs>
    <g id="v2" stroke="none" stroke-width="1" fill="none" fill-rule="evenodd">
        <g id="Stockroom-home-Copy-3" transform="translate(-580.000000, -1144.000000)">
            <g id="Group" transform="translate(580.000000, 1118.000000)">
                <g id="Group-24" transform="translate(0.000000, 26.000000)">
                    <polygon id="Star" fill="#1E88F5" points="4.98535725 25.072962 1.90423702 26.691712 2.49267863 23.2631445 -4.88498131e-15 20.8350196 3.44479714 20.3347983 4.98535725 17.2153846 6.52591737 20.3347983 9.9707145 20.8350196 7.47803588 23.2631445 8.06647748 26.691712"></polygon>
                    <polygon id="Star-Copy" fill="#1E88F5" points="235.396978 101.750029 232.623466 103.207168 233.153159 100.120897 230.909341 97.9351869 234.010222 97.4849059 235.396978 94.6769231 236.783734 97.4849059 239.884615 97.9351869 237.640797 100.120897 238.17049 103.207168"></polygon>
                    <polygon id="Star-Copy-2" fill="#FFDA42" points="248.949643 6.19323132 246.877073 7.28211224 247.272898 4.97582544 245.596154 3.34250406 247.913358 3.00602135 248.949643 0.907692308 249.985928 3.00602135 252.303132 3.34250406 250.626388 4.97582544 251.022213 7.28211224"></polygon>
                    <polygon id="Star-Copy-3" fill="#FF6B74" points="29.7441138 151.774167 27.4980401 152.954203 27.927002 150.454847 26.1098901 148.684794 28.621077 148.320143 29.7441138 146.046154 30.8671507 148.320143 33.3783376 148.684794 31.5612257 150.454847 31.9901876 152.954203"></polygon>
                    <path d="M270.346154,51.189011 L270.346154,49.2827678 C270.346154,48.6856416 269.859079,48.2 269.258242,48.2 C268.653216,48.2 268.17033,48.6847717 268.17033,49.2827678 L268.17033,51.189011 L266.264086,51.189011 C265.66696,51.189011 265.181319,51.6760858 265.181319,52.2769231 C265.181319,52.8819493 265.66609,53.3648352 266.264086,53.3648352 L268.17033,53.3648352 L268.17033,55.2710783 C268.17033,55.8682045 268.657405,56.3538462 269.258242,56.3538462 C269.863268,56.3538462 270.346154,55.8690745 270.346154,55.2710783 L270.346154,53.3648352 L272.252397,53.3648352 C272.849523,53.3648352 273.335165,52.8777603 273.335165,52.2769231 C273.335165,51.6718969 272.850393,51.189011 272.252397,51.189011 L270.346154,51.189011 Z" id="Combined-Shape" fill="#FF6B74"></path>
                    <path d="M86.3258242,118.485714 L86.3258242,117.352106 C86.3258242,116.983693 86.0335793,116.692308 85.6730769,116.692308 C85.3100612,116.692308 85.0203297,116.987709 85.0203297,117.352106 L85.0203297,118.485714 L83.8867215,118.485714 C83.5183081,118.485714 83.2269231,118.777959 83.2269231,119.138462 C83.2269231,119.501477 83.5223249,119.791209 83.8867215,119.791209 L85.0203297,119.791209 L85.0203297,120.924817 C85.0203297,121.29323 85.3125746,121.584615 85.6730769,121.584615 C86.0360926,121.584615 86.3258242,121.289214 86.3258242,120.924817 L86.3258242,119.791209 L87.4594324,119.791209 C87.8278458,119.791209 88.1192308,119.498964 88.1192308,119.138462 C88.1192308,118.775446 87.823829,118.485714 87.4594324,118.485714 L86.3258242,118.485714 Z" id="Combined-Shape-Copy-3" fill="#FFDA42"></path>
                    <path d="M58.2848901,58.4461538 L58.2848901,57.1236109 C58.2848901,56.6937953 57.9439377,56.3538462 57.5233516,56.3538462 C57.0998333,56.3538462 56.7618132,56.6984816 56.7618132,57.1236109 L56.7618132,58.4461538 L55.4392703,58.4461538 C55.0094546,58.4461538 54.6695055,58.7871062 54.6695055,59.2076923 C54.6695055,59.6312106 55.0141409,59.9692308 55.4392703,59.9692308 L56.7618132,59.9692308 L56.7618132,61.2917737 C56.7618132,61.7215893 57.1027656,62.0615385 57.5233516,62.0615385 C57.94687,62.0615385 58.2848901,61.716903 58.2848901,61.2917737 L58.2848901,59.9692308 L59.607433,59.9692308 C60.0372487,59.9692308 60.3771978,59.6282784 60.3771978,59.2076923 C60.3771978,58.784174 60.0325624,58.4461538 59.607433,58.4461538 L58.2848901,58.4461538 Z" id="Combined-Shape-Copy-4" fill="#0DD56B"></path>
                    <ellipse id="Oval-5" stroke="#FF6B74" cx="259.467033" cy="162.353846" rx="1.63186813" ry="1.63076923"></ellipse>
                    <ellipse id="Oval-5-Copy" fill="#1E88F5" cx="212.550824" cy="49.4230769" rx="2.03983516" ry="2.03846154"></ellipse>
                    <ellipse id="Oval-5-Copy-3" stroke="#E9E9E9" cx="294.552198" cy="131.369231" rx="2.4478022" ry="2.44615385"></ellipse>
                    <ellipse id="Oval-5-Copy-2" stroke="#FFDA42" cx="19.5824176" cy="96.3076923" rx="2.4478022" ry="2.44615385"></ellipse>
                    <ellipse id="Oval-5-Copy-4" fill="#0DD56B" cx="203.575549" cy="192.930769" rx="2.03983516" ry="2.03846154"></ellipse>
                </g>
            </g>
        </g>
    </g>
</svg>