<?xml version="1.0" encoding="UTF-8" standalone="no"?>
<svg
   xmlns:dc="http://purl.org/dc/elements/1.1/"
   xmlns:cc="http://creativecommons.org/ns#"
   xmlns:rdf="http://www.w3.org/1999/02/22-rdf-syntax-ns#"
   xmlns:svg="http://www.w3.org/2000/svg"
   xmlns="http://www.w3.org/2000/svg"
   xmlns:xlink="http://www.w3.org/1999/xlink"
   xmlns:sodipodi="http://sodipodi.sourceforge.net/DTD/sodipodi-0.dtd"
   xmlns:inkscape="http://www.inkscape.org/namespaces/inkscape"
   width="70px"
   height="217px"
   viewBox="0 0 70 217"
   version="1.1"
   id="svg67"
   sodipodi:docname="guy_identify.svg"
   inkscape:version="0.92.2 (unknown)">
  <metadata
     id="metadata71">
    <rdf:RDF>
      <cc:Work
         rdf:about="">
        <dc:format>image/svg+xml</dc:format>
        <dc:type
           rdf:resource="http://purl.org/dc/dcmitype/StillImage" />
        <dc:title>Page 1</dc:title>
      </cc:Work>
    </rdf:RDF>
  </metadata>
  <sodipodi:namedview
     pagecolor="#ffffff"
     bordercolor="#666666"
     borderopacity="1"
     objecttolerance="10"
     gridtolerance="10"
     guidetolerance="10"
     inkscape:pageopacity="0"
     inkscape:pageshadow="2"
     inkscape:window-width="1366"
     inkscape:window-height="738"
     id="namedview69"
     showgrid="false"
     inkscape:zoom="4.3502304"
     inkscape:cx="21.709108"
     inkscape:cy="184.05531"
     inkscape:window-x="0"
     inkscape:window-y="0"
     inkscape:window-maximized="1"
     inkscape:current-layer="svg67" />
  <!-- Generator: Sketch 40.1 (33804) - http://www.bohemiancoding.com/sketch -->
  <title
     id="title2">Page 1</title>
  <desc
     id="desc4">Created with Sketch.</desc>
  <defs
     id="defs9">
    <polygon
       id="path-1"
       points="38.5975538 0.0297501042 0.0772311828 0.0297501042 0.0772311828 26.5924292 38.5975538 26.5924292" />
    <polygon
       id="path-3"
       points="0.0982311828 6.77196117 4.36597312 6.77196117 4.36597312 0.175168062 0.0982311828 0.175168062" />
    <polygon
       id="path-5"
       points="0.236086022 6.77196117 4.50156989 6.77196117 4.50156989 0.175168062 0.236086022 0.175168062" />
  </defs>
  <g
     id="v2"
     stroke="none"
     stroke-width="1"
     fill="none"
     fill-rule="evenodd">
    <g
       id="Stockroom-home"
       transform="translate(-475.000000, -1162.000000)">
      <g
         id="Group-30"
         transform="translate(475.000000, 1122.000000)">
        <g
           id="Page-1"
           transform="translate(0.000000, 40.000000)">
          <path
             d="M59.8405161,120.669981 C61.1569677,117.144047 61.2947097,118.204987 61.2935806,114.684696 C61.2495484,99.4150522 59.8980968,84.1657243 55.3729355,69.8057807 L62.1550323,67.6771275 C62.1911613,67.6511684 65.5658387,78.3452237 66.9240645,89.8146686 C68.4403548,101.264926 68.3816452,113.170034 68.3985806,115.093271 C68.4053548,118.956675 68.4064839,115.095528 68.4064839,115.095528 C68.4268065,115.101172 68.4268065,122.208345 68.6289032,122.958904 L69.2995484,125.308774 C69.6439032,126.526599 69.2916452,128.338098 68.5193871,129.350507 L66.5819677,131.902407 C65.8232581,132.915944 64.1116452,133.689076 62.7816452,133.586368 L61.9901935,133.531064 C60.6613226,133.430613 59.6339032,132.278251 59.7389032,131.009637 L59.8280968,129.841474 C59.9353548,128.578503 59.7468065,126.550301 59.4103548,125.330219 L59.276,124.856182 C58.9395484,123.644001 59.4001935,121.843788 59.8405161,120.669981"
             id="Fill-1"
             fill="#FFA685"
             style="fill:#c87137" />
          <path
             d="M53.8723387,72.847407 C52.2510484,67.2278079 50.1883065,61.7662212 47.5904032,56.5890569 C46.4500806,54.2369291 47.4549194,51.2132484 50.0550806,49.7053584 C52.6089516,48.2256849 55.946371,49.1003965 57.2537903,51.7820932 C60.1644355,57.5913072 62.4597581,63.6725283 64.243629,69.8575862 L53.8723387,72.847407 Z"
             id="Fill-3"
             fill="#FFC230"
             style="fill:#ff8c00;fill-opacity:1" />
          <path
             d="M51.8149032,66.4700255 L61.9649032,62.8075231 C62.3634516,63.9779438 62.8049032,65.1348205 63.1616774,66.318785 L52.8942581,69.6381746 C52.5702258,68.5682048 52.1694194,67.5275801 51.8149032,66.4700255"
             id="Fill-5"
             fill="#8AC7CC"
             style="fill:#5d5d5d;fill-opacity:1" />
          <path
             d="M50.5183226,196.464366 L50.3636452,208.486855 C50.3388065,210.414606 48.6350968,211.954099 46.5610645,211.92814 C44.4859032,211.899923 42.8228387,210.316413 42.8510645,208.393176 L43.0046129,196.36843 L50.5183226,196.464366 Z"
             id="Fill-7"
             fill="#F7921E" />
          <path
             d="M42.5962419,200.839053 L43.789629,110.077844 C43.824629,107.559803 46.0499516,105.546273 48.7607581,105.580133 C51.4749516,105.615121 53.6494677,107.685084 53.6167258,110.200868 L52.4255968,200.846954 L42.5962419,200.839053 Z"
             id="Fill-9"
             fill="#24455B"
             style="fill:#5d5d5d;fill-opacity:1" />
          <polygon
             id="Fill-11"
             fill="#422B21"
             points="52.4698548 194.631422 42.641629 194.506141 42.6032419 197.72508 52.4292097 197.849232" />
          <path
             d="M36.800129,102.258712 C45.7217419,102.258712 52.9610968,110.345562 52.9610968,120.317275 L52.9610968,124.00235 L20.6357742,124.00235 L20.6357742,120.317275 C20.6357742,110.345562 27.8694839,102.258712 36.800129,102.258712"
             id="Fill-13"
             fill="#24455B"
             style="fill:#5d5d5d;fill-opacity:1" />
          <path
             d="M25.1129516,196.160192 L24.4705323,208.137534 C24.355371,210.060771 22.5884355,211.516743 20.5155323,211.389204 C18.4448871,211.26618 16.8574677,209.620594 16.9647258,207.710901 L17.6048871,195.780963 L25.1129516,196.160192 Z"
             id="Fill-15"
             fill="#F7921E" />
          <path
             d="M17.1590323,200.306664 C18.7679032,169.41072 19.7354839,140.983156 20.4558065,110.014977 C20.51,107.509352 22.75,105.529682 25.4630645,105.579343 C28.1795161,105.631261 30.3370968,107.719282 30.2806452,110.230551 C29.5603226,141.187443 28.5972581,169.560832 26.9883871,200.52111 L17.1590323,200.306664 Z"
             id="Fill-17"
             fill="#24455B"
             style="fill:#5d5d5d;fill-opacity:1" />
          <polygon
             id="Fill-19"
             fill="#422B21"
             points="27.3500161 194.081426 17.5319516 193.583687 17.3682419 196.778924 27.1829194 197.293593" />
          <path
             d="M17.7587742,49.5142762 C23.8453871,47.8246719 30.2266774,46.9206151 36.7999032,46.9206151 C43.372,46.9206151 49.7532903,47.8246719 55.8410323,49.5142762 L55.8399032,111.142509 L17.7553871,111.142509 L17.7587742,49.5142762 Z"
             id="Fill-21"
             fill="#FFC230"
             style="fill:#ff8c00;fill-opacity:1" />
          <polygon
             id="Fill-23"
             fill="#8AC7CC"
             points="17.7562903 107.159918 55.8396774 107.159918 55.8396774 103.690417 17.7562903 103.690417"
             style="fill:#5d5d5d;fill-opacity:1" />
          <path
             d="M36.7957258,46.920728 C33.8207258,46.920728 30.888629,47.1148575 28.0039516,47.4749001 C28.2884677,52.0866057 32.1102419,55.7412074 36.7957258,55.7412074 C41.4812097,55.7412074 45.3052419,52.0866057 45.5897581,47.4749001 C42.7062097,47.1148575 39.7729839,46.920728 36.7957258,46.920728"
             id="Fill-25"
             fill="#FFA685"
             style="fill:#c87137" />
          <path
             d="M45.5920161,47.4746744 L45.5920161,47.4746744 C45.3052419,52.0863799 41.4812097,55.7409817 36.7979839,55.7409817 C32.113629,55.7409817 28.2907258,52.0863799 28.0039516,47.475803 C26.8545968,47.6202716 25.7075,47.78167 24.5739516,47.9814428 C25.1181452,54.2996826 30.4257258,59.2093544 36.7979839,59.2093544 C43.173629,59.2093544 48.4789516,54.2996826 49.0220161,47.9814428 C47.8907258,47.78167 46.7447581,47.6180142 45.5920161,47.4746744"
             id="Fill-27"
             fill="#8AC7CC"
             style="fill:#5d5d5d;fill-opacity:1" />
          <path
             d="M36.7979839,28.6362071 C34.421371,28.6362071 32.496371,30.5639587 32.496371,32.9364024 L32.496371,47.3279486 C32.496371,49.7026496 34.421371,51.6258866 36.7979839,51.6258866 C39.1712097,51.6258866 41.0973387,49.7026496 41.0973387,47.3279486 L41.0973387,32.9364024 C41.0973387,30.5639587 39.1712097,28.6362071 36.7979839,28.6362071"
             id="Fill-29"
             fill="#FFA685"
             style="fill:#c87137" />
          <path
             d="M54.1381129,10.7314803 L54.1381129,29.4119352 C53.7384355,33.9051315 51.6034355,38.0427997 48.4150484,40.8723508 C47.9363387,40.9739303 40.7715,40.8723508 40.6619839,40.8723508 C32.7384355,40.8723508 26.3142419,34.4525317 26.3142419,26.5270798 L26.3142419,10.7314803 L54.1381129,10.7314803 Z"
             id="Fill-31"
             fill="#FFA685"
             style="fill:#c87137" />
          <path
             d="M24.8405161,21.587047 C22.6230968,21.587047 20.8324516,23.380488 20.8324516,25.589276 C20.8324516,27.80145 22.6230968,29.5892477 24.8405161,29.5892477 L31.3550323,29.5892477 L31.1145484,21.587047 L24.8405161,21.587047 Z"
             id="Fill-33"
             fill="#FFA685"
             style="fill:#c87137" />
          <g
             id="Group-37"
             transform="translate(21.155914, 0.267492)">
            <mask
               id="mask-2"
               fill="white">
              <use
                 xlink:href="#path-1"
                 id="use28" />
            </mask>
            <g
               id="Clip-36" />
            <path
               d="M38.5975538,0.0294115062 L14.0738441,0.0294115062 C10.3480376,0.0294115062 7.04336022,1.8217239 4.97158602,4.59145601 C4.16432796,3.50568491 2.88513441,2.79350032 1.43319892,2.79350032 C0.960134409,2.79350032 0.506263441,2.87024922 0.0772311828,3.00794576 L1.34174731,4.27091652 C2.13206989,5.06097866 2.78126344,6.62304437 2.78126344,7.7392893 L2.78126344,10.1568794 C2.77448925,10.1873533 2.77110215,10.2166984 2.76658602,10.2471723 L2.76658602,21.3486739 L4.36077957,21.3486739 L4.36077957,24.2120848 C4.36077957,25.5247166 5.42658602,26.5924292 6.74303763,26.5924292 C8.05610215,26.5924292 9.12303763,25.5247166 9.12303763,24.2120848 L9.12303763,22.4886207 C9.43803763,20.694051 11.0051344,19.3317582 12.8928763,19.3295008 L12.8928763,14.6150872 C13.2112634,12.8227748 14.7738441,11.4627393 16.659328,11.460482 L16.659328,11.4333941 L32.9930376,11.4333941 C35.6202957,11.4333941 37.7812634,9.43566557 38.0386828,6.87134961 L35.6564247,6.87134961 L38.5975538,0.0294115062 Z"
               id="Fill-35"
               fill="#1F1C1C"
               mask="url(#mask-2)" />
          </g>
          <path
             d="M49.8612258,22.5564532 C49.1939677,22.5564532 48.6486452,22.015825 48.6486452,21.3476581 C48.6486452,20.6783626 49.1939677,20.1343484 49.8612258,20.1343484 C50.533,20.1343484 51.0738065,20.6783626 51.0738065,21.3476581 C51.0738065,22.015825 50.533,22.5564532 49.8612258,22.5564532"
             id="Fill-38"
             fill="#1F1C1C" />
          <path
             d="M40.233629,22.5564532 C39.5641129,22.5564532 39.0221774,22.015825 39.0221774,21.3476581 C39.0221774,20.6783626 39.5641129,20.1343484 40.233629,20.1343484 C40.9031452,20.1343484 41.4450806,20.6783626 41.4450806,21.3476581 C41.4450806,22.015825 40.9031452,22.5564532 40.233629,22.5564532"
             id="Fill-40"
             fill="#1F1C1C" />
          <path
             d="M40.4221774,30.6493983 C40.4221774,33.2024276 42.4928226,35.2735191 45.0489516,35.2735191 C47.6016935,35.2735191 49.6689516,33.2024276 49.6689516,30.6493983 L40.4221774,30.6493983 Z"
             id="Fill-42"
             fill="#F7E8E7" />
          <path
             d="M44.9083871,206.568358 L53.9801613,206.568358 C54.1596774,208.237647 55.5743548,209.54012 57.2927419,209.54012 L60.6583871,209.54012 C60.6662903,209.659758 60.6753226,216.138268 60.6753226,216.138268 L41.5754839,216.138268 L41.5754839,209.90242 C41.5754839,208.057061 43.0658065,206.568358 44.9083871,206.568358"
             id="Fill-44"
             fill="#1F1C1C" />
          <path
             d="M54.4435161,216.138832 L54.4435161,213.795734 C54.4435161,211.442477 56.3481935,209.539556 58.7022258,209.539556 L60.6080323,209.539556 C62.9586774,209.539556 64.8656129,211.442477 64.8656129,213.795734 L64.8656129,216.138832 L54.4435161,216.138832 Z"
             id="Fill-46"
             fill="#422B21" />
          <g
             id="Group-50"
             transform="translate(41.478495, 209.366871)">
            <mask
               id="mask-4"
               fill="white">
              <use
                 xlink:href="#path-3"
                 id="use39" />
            </mask>
            <g
               id="Clip-49" />
            <path
               d="M0.134360215,0.175168062 C0.119682796,0.295934703 0.0982311828,0.409929383 0.0982311828,0.535210664 L0.0982311828,6.7721869 L4.36597312,6.7721869 L4.36597312,4.42908834 C4.36597312,2.08937575 2.47258602,0.188711985 0.134360215,0.175168062"
               id="Fill-48"
               fill="#422B21"
               mask="url(#mask-4)" />
          </g>
          <path
             d="M49.1422581,206.794316 L49.1422581,206.027956 C49.1422581,204.936541 50.0274194,204.0528 51.1180645,204.0528 L52.0020968,204.0528 C53.095,204.0528 53.9790323,204.936541 53.9790323,206.027956 L53.9790323,206.794316 L49.1422581,206.794316 Z"
             id="Fill-51"
             fill="#1F1C1C" />
          <polygon
             id="Fill-53"
             fill="#000003"
             points="41.5765 213.927787 64.8661774 213.927787 64.8661774 216.138832 41.5765 216.138832" />
          <path
             d="M17.9504839,206.568358 L27.018871,206.568358 C27.2029032,208.237647 28.6153226,209.54012 30.3348387,209.54012 L30.2817742,216.138268 L14.6175806,216.138268 L14.6175806,209.90242 C14.6175806,208.057061 16.1079032,206.568358 17.9504839,206.568358"
             id="Fill-55"
             fill="#1F1C1C" />
          <path
             d="M25.0719677,216.138832 L25.0719677,213.795734 C25.0719677,211.442477 26.9766452,209.539556 29.3318065,209.539556 L31.2353548,209.539556 C33.587129,209.539556 35.4929355,211.442477 35.4929355,213.795734 L35.4929355,216.138832 L25.0719677,216.138832 Z"
             id="Fill-57"
             fill="#422B21" />
          <g
             id="Group-61"
             transform="translate(14.381720, 209.366871)">
            <mask
               id="mask-6"
               fill="white">
              <use
                 xlink:href="#path-5"
                 id="use49" />
            </mask>
            <g
               id="Clip-60" />
            <path
               d="M0.269956989,0.175168062 C0.259795699,0.295934703 0.236086022,0.409929383 0.236086022,0.535210664 L0.236086022,6.7721869 L4.50156989,6.7721869 L4.50156989,4.42908834 C4.50156989,2.08937575 2.61044086,0.188711985 0.269956989,0.175168062"
               id="Fill-59"
               fill="#422B21"
               mask="url(#mask-6)" />
          </g>
          <path
             d="M20.9814839,206.794316 L20.9814839,206.027956 C20.9814839,204.936541 21.8666452,204.0528 22.9572903,204.0528 L25.0437419,204.0528 C26.1355161,204.0528 27.0195484,204.936541 27.0195484,206.027956 L27.0195484,206.794316 L20.9814839,206.794316 Z"
             id="Fill-62"
             fill="#1F1C1C" />
          <polygon
             id="Fill-64"
             fill="#000003"
             points="14.6174677 213.927787 35.4932742 213.927787 35.4932742 216.138832 14.6174677 216.138832" />
          <g
             id="Group-68"
             transform="translate(0.000000, 67.155687)"
             fill="#FFA685">
            <path
               d="M9.81253226,53.4129408 C8.63833871,49.838474 8.45995161,50.8892566 8.60108065,47.3757374 C9.24914516,32.1185089 11.2057581,16.935772 16.2965645,2.76544321 L9.60704839,0.369297616 C9.56866129,0.343338431 5.77172581,10.8929253 3.96075806,22.3002939 C1.99172581,33.6805746 1.57624194,45.5811677 1.48366129,47.4987614 C1.32446774,51.3610366 1.47462903,47.503276 1.47462903,47.503276 C1.45769355,47.510048 1.17317742,54.6081919 0.939467742,55.3531077 L0.1785,57.6713757 C-0.215532258,58.8767848 0.0655967742,60.699571 0.797209677,61.742453 L2.6318871,64.3722313 C3.34882258,65.4105987 5.02882258,66.2514505 6.35995161,66.2029181 L7.15366129,66.1769589 C8.48479032,66.1306839 9.5585,65.0223396 9.50430645,63.7458249 L9.45914516,62.5776616 C9.40495161,61.3101762 9.67479032,59.2910031 10.0586613,58.0878513 L10.2110806,57.6194573 C10.5938226,56.4208202 10.2054355,54.6036773 9.81253226,53.4129408"
               id="Fill-66"
               style="fill:#a05a2c" />
          </g>
          <path
             d="M17.6782742,73.020995 C19.5174677,67.4725015 21.7969839,62.093307 24.5992419,57.0233654 C25.8332742,54.7208986 24.9492419,51.6577148 22.4089194,50.0471167 C19.9137581,48.4681211 16.5481129,49.2096508 15.1334355,51.8371718 C11.9958548,57.5256192 9.45891935,63.5120328 7.43117742,69.6214705 L17.6782742,73.020995 Z"
             id="Fill-69"
             fill="#FFC230"
             style="fill:#ff8c00;fill-opacity:1" />
          <path
             d="M19.9881613,66.729053 L9.99058065,62.6658763 C9.5446129,63.8204957 9.05574194,64.9604425 8.65493548,66.1274771 L18.7823548,69.8531844 C19.1492903,68.7956298 19.5884839,67.7730637 19.9881613,66.729053"
             id="Fill-71"
             fill="#8AC7CC"
             style="fill:#5d5d5d;fill-opacity:1" />
          <polygon
             id="Fill-73"
             fill="#422B21"
             points="1.39762903 116.268883 9.18682258 116.644727 9.33924194 113.503666 1.54779032 113.128951" />
          <path
             d="M5.36685484,114.886726 C5.2991129,116.331411 4.06959677,117.446528 2.62443548,117.378808 C1.17701613,117.308831 0.0615322581,116.078591 0.130403226,114.632778 C0.199274194,113.188093 1.42879032,112.074105 2.87508065,112.144082 C4.32137097,112.211802 5.43798387,113.440912 5.36685484,114.886726"
             id="Fill-75"
             fill="#F7E8E7" />
        </g>
      </g>
    </g>
  </g>
</svg>
