<?xml version="1.0" encoding="UTF-8" standalone="no"?>
<svg
   xmlns:dc="http://purl.org/dc/elements/1.1/"
   xmlns:cc="http://creativecommons.org/ns#"
   xmlns:rdf="http://www.w3.org/1999/02/22-rdf-syntax-ns#"
   xmlns:svg="http://www.w3.org/2000/svg"
   xmlns="http://www.w3.org/2000/svg"
   xmlns:xlink="http://www.w3.org/1999/xlink"
   xmlns:sodipodi="http://sodipodi.sourceforge.net/DTD/sodipodi-0.dtd"
   xmlns:inkscape="http://www.inkscape.org/namespaces/inkscape"
   width="132px"
   height="173px"
   viewBox="0 0 132 173"
   version="1.1"
   id="svg326"
   sodipodi:docname="guy_code.svg"
   inkscape:version="0.92.2 (unknown)">
  <metadata
     id="metadata330">
    <rdf:RDF>
      <cc:Work
         rdf:about="">
        <dc:format>image/svg+xml</dc:format>
        <dc:type
           rdf:resource="http://purl.org/dc/dcmitype/StillImage" />
      </cc:Work>
    </rdf:RDF>
  </metadata>
  <sodipodi:namedview
     pagecolor="#ffffff"
     bordercolor="#666666"
     borderopacity="1"
     objecttolerance="10"
     gridtolerance="10"
     guidetolerance="10"
     inkscape:pageopacity="0"
     inkscape:pageshadow="2"
     inkscape:window-width="1366"
     inkscape:window-height="738"
     id="namedview328"
     showgrid="false"
     inkscape:zoom="10.913295"
     inkscape:cx="39.6733"
     inkscape:cy="135.25096"
     inkscape:window-x="0"
     inkscape:window-y="0"
     inkscape:window-maximized="1"
     inkscape:current-layer="svg326" />
  <!-- Generator: Sketch 40.1 (33804) - http://www.bohemiancoding.com/sketch -->
  <title
     id="title2">Page-1</title>
  <desc
     id="desc4">Created with Sketch.</desc>
  <defs
     id="defs43">
    <polygon
       id="path-1"
       points="0 0.747816981 0 59.3833925 53.3318296 59.3833925 53.3318296 0.747816981" />
    <polygon
       id="path-3"
       points="0 172.61483 131.652889 172.61483 131.652889 0 0 0" />
    <polygon
       id="path-5"
       points="0 172.61483 131.652889 172.61483 131.652889 0 0 0" />
    <polygon
       id="path-7"
       points="0 172.61483 131.652889 172.61483 131.652889 0 0 0" />
    <polygon
       id="path-9"
       points="0 172.61483 131.652889 172.61483 131.652889 0 0 0" />
    <polygon
       id="path-11"
       points="0 172.61483 131.652889 172.61483 131.652889 0 0 0" />
    <polygon
       id="path-13"
       points="0 172.61483 131.652889 172.61483 131.652889 0 0 0" />
    <polygon
       id="path-15"
       points="0 172.61483 131.652889 172.61483 131.652889 0 0 0" />
    <polygon
       id="path-17"
       points="0 172.61483 131.652889 172.61483 131.652889 0 0 0" />
    <polygon
       id="path-19"
       points="0 172.61483 131.652889 172.61483 131.652889 0 0 0" />
    <polygon
       id="path-21"
       points="0 172.61483 131.652889 172.61483 131.652889 0 0 0" />
    <polygon
       id="path-23"
       points="0 172.61483 131.652889 172.61483 131.652889 0 0 0" />
    <polygon
       id="path-25"
       points="0 172.61483 131.652889 172.61483 131.652889 0 0 0" />
    <polygon
       id="path-27"
       points="0 172.61483 131.652889 172.61483 131.652889 0 0 0" />
    <polygon
       id="path-29"
       points="0 172.61483 131.652889 172.61483 131.652889 0 0 0" />
    <polygon
       id="path-31"
       points="0 172.61483 131.652889 172.61483 131.652889 0 0 0" />
    <polygon
       id="path-33"
       points="0 172.61483 131.652889 172.61483 131.652889 0 0 0" />
    <polygon
       id="path-35"
       points="0 172.61483 131.652889 172.61483 131.652889 0 0 0" />
    <polygon
       id="path-37"
       points="0 172.61483 131.652889 172.61483 131.652889 0 0 0" />
    <polygon
       id="path-39"
       points="0 172.61483 131.652889 172.61483 131.652889 0 0 0" />
    <polygon
       id="path-41"
       points="0 172.61483 131.652889 172.61483 131.652889 0 0 0" />
    <polygon
       id="path-43"
       points="0 172.61483 131.652889 172.61483 131.652889 0 0 0" />
    <polygon
       id="path-45"
       points="0 172.61483 131.652889 172.61483 131.652889 0 0 0" />
    <polygon
       id="path-47"
       points="0 172.61483 131.652889 172.61483 131.652889 0 0 0" />
    <polygon
       id="path-49"
       points="0 172.61483 131.652889 172.61483 131.652889 0 0 0" />
    <polygon
       id="path-51"
       points="0 172.61483 131.652889 172.61483 131.652889 0 0 0" />
    <polygon
       id="path-53"
       points="0 172.61483 131.652889 172.61483 131.652889 0 0 0" />
    <polygon
       id="path-55"
       points="0 172.61483 131.652889 172.61483 131.652889 0 0 0" />
    <polygon
       id="path-57"
       points="0 172.61483 131.652889 172.61483 131.652889 0 0 0" />
    <polygon
       id="path-59"
       points="0 172.61483 131.652889 172.61483 131.652889 0 0 0" />
    <polygon
       id="path-61"
       points="0 172.61483 131.652889 172.61483 131.652889 0 0 0" />
    <polygon
       id="path-63"
       points="0 172.61483 131.652889 172.61483 131.652889 0 0 0" />
    <polygon
       id="path-65"
       points="0 172.61483 131.652889 172.61483 131.652889 0 0 0" />
    <polygon
       id="path-67"
       points="0 172.61483 131.652889 172.61483 131.652889 0 0 0" />
    <polygon
       id="path-69"
       points="0 172.61483 131.652889 172.61483 131.652889 0 0 0" />
    <polygon
       id="path-71"
       points="0 172.61483 131.652889 172.61483 131.652889 0 0 0" />
    <polygon
       id="path-73"
       points="0 172.61483 131.652889 172.61483 131.652889 0 0 0" />
  </defs>
  <g
     style="fill:none;fill-rule:evenodd;stroke:none;stroke-width:1"
     transform="translate(-436,-1195)"
     id="Stockroom-home-Copy-2">
    <g
       transform="translate(436,1195)"
       id="Page-1-1">
      <g
         id="g321">
        <g
           id="Artboard-2">
          <g
             id="g318">
            <g
               id="Page-1">
              <path
                 style="fill:#0e0f2d"
                 inkscape:connector-curvature="0"
                 id="Fill-1"
                 d="M 25.257956,125.86093 H 13.743807 c -0.694222,0 -1.258889,-0.56552 -1.258889,-1.26078 0,-0.69527 0.564667,-1.26078 1.258889,-1.26078 h 11.514149 c 1.515555,0 2.747555,-1.23385 2.747555,-2.75249 v -4.69957 c 0,-0.69526 0.564667,-1.26077 1.259704,-1.26077 0.694222,0 1.258889,0.56551 1.258889,1.26077 v 4.69957 c 0,2.90754 -2.362963,5.27405 -5.266148,5.27405 z" />
              <path
                 style="fill:#0e0f2d"
                 inkscape:connector-curvature="0"
                 id="Fill-3"
                 d="M 41.225556,119.47339 H 27.374518 c -2.228518,0 -4.034148,-1.80834 -4.034148,-4.03938 0,-2.23187 1.80563,-4.04021 4.034148,-4.04021 h 13.851038 c 2.227703,0 4.033333,1.80834 4.033333,4.04021 0,2.23104 -1.80563,4.03938 -4.033333,4.03938" />
              <path
                 style="fill:#0e0f2d"
                 inkscape:connector-curvature="0"
                 id="Fill-5"
                 d="m 34.299222,139.81631 c -1.093481,0 -1.98,-0.88784 -1.98,-1.98297 v -23.2179 c 0,-1.09594 0.886519,-1.98297 1.98,-1.98297 1.093482,0 1.98,0.88703 1.98,1.98297 v 23.2179 c 0,1.09513 -0.886518,1.98297 -1.98,1.98297" />
              <path
                 style="fill:#0e0f2d"
                 inkscape:connector-curvature="0"
                 id="Fill-7"
                 d="m 9.1874444,172.49324 v 0 c -2.5275555,0 -4.5768148,-2.05233 -4.5768148,-4.58368 v -4.58369 h 4.5768148 c 2.5275556,0 4.5768146,2.05234 4.5768146,4.58369 0,2.53135 -2.049259,4.58368 -4.5768146,4.58368" />
              <path
                 style="fill:#0e0f2d"
                 inkscape:connector-curvature="0"
                 id="Fill-9"
                 d="m 21.732415,172.49324 v 0 c -2.527556,0 -4.576815,-2.05233 -4.576815,-4.58368 v -4.58369 h 4.576815 c 2.527555,0 4.576815,2.05234 4.576815,4.58369 0,2.53135 -2.04926,4.58368 -4.576815,4.58368" />
              <path
                 style="fill:#0e0f2d"
                 inkscape:connector-curvature="0"
                 id="Fill-11"
                 d="m 53.107756,172.49324 v 0 c -2.527556,0 -4.576815,-2.05233 -4.576815,-4.58368 v -4.58369 h 4.576815 c 2.527555,0 4.576814,2.05234 4.576814,4.58369 0,2.53135 -2.049259,4.58368 -4.576814,4.58368" />
              <path
                 style="fill:#0e0f2d"
                 inkscape:connector-curvature="0"
                 id="Fill-13"
                 d="m 65.54517,172.49324 v 0 c -2.527555,0 -4.576814,-2.05233 -4.576814,-4.58368 v -4.58369 h 4.576814 c 2.527556,0 4.576815,2.05234 4.576815,4.58369 0,2.53135 -2.049259,4.58368 -4.576815,4.58368" />
              <path
                 style="fill:#808080"
                 inkscape:connector-curvature="0"
                 id="Fill-15"
                 d="m 15.421593,109.63385 v 5.67147 h 18.319481 c 2.366222,0 4.284296,1.92095 4.284296,4.28991 h 38.121926 c 0,-5.50173 -4.453778,-9.96138 -9.946444,-9.96138 z" />
              <g
                 transform="translate(0,55.921434)"
                 id="Group-19">
                <g
                   id="Fill-17-Clipped">
                  <mask
                     fill="white"
                     id="mask-2">
                    <use
                       height="100%"
                       width="100%"
                       y="0"
                       x="0"
                       id="use53"
                       xlink:href="#path-1" />
                  </mask>
                  <g
                     id="g56" />
                  <path
                     style="fill:#db3333"
                     inkscape:connector-curvature="0"
                     mask="url(#mask-2)"
                     id="Fill-17"
                     d="M 38.121681,46.564256 V 10.140411 c 0,-5.1867355 -4.19874,-9.39259402 -9.378518,-9.39259402 H 9.3782741 c -5.178963,0 -9.37851854444,4.20585852 -9.37851854444,9.39259402 V 47.34602 c 0,6.648259 5.38185184444,12.037372 12.02014844444,12.037372 H 53.33183 v -5.670646 h -8.072371 c -3.942074,0 -7.137778,-3.2005 -7.137778,-7.14849" />
                </g>
              </g>
              <path
                 style="fill:#0e0f2d"
                 inkscape:connector-curvature="0"
                 id="Fill-20"
                 d="M 7.3123926,163.32636 H 4.7946148 c 0,-5.04882 4.100963,-9.15839 9.1430372,-9.15839 h 20.361407 v 2.52237 H 13.937652 c -3.652815,0 -6.6252594,2.97691 -6.6252594,6.63602" />
              <path
                 style="fill:#a6a8ab"
                 inkscape:connector-curvature="0"
                 id="Fill-22"
                 d="m 63.805296,163.32636 h -2.517778 c 0,-3.65911 -2.972444,-6.63602 -6.625259,-6.63602 H 34.299222 v -2.52237 h 20.363037 c 5.04126,0 9.143037,4.10957 9.143037,9.15839" />
              <path
                 style="fill:#a6a8ab"
                 inkscape:connector-curvature="0"
                 id="Fill-24"
                 d="m 19.89623,163.32636 h -2.517778 c 0,-5.04882 4.102592,-9.15839 9.143852,-9.15839 h 7.776592 v 2.52237 h -7.776592 c -3.65363,0 -6.626074,2.97691 -6.626074,6.63602" />
              <path
                 style="fill:#a6a8ab"
                 inkscape:connector-curvature="0"
                 id="Fill-26"
                 d="m 51.221541,163.32636 h -2.517778 c 0,-3.65911 -2.972445,-6.63602 -6.626074,-6.63602 h -7.778222 v -2.52237 h 7.778222 c 5.041259,0 9.143852,4.10957 9.143852,9.15839" />
              <g
                 id="Fill-28-Clipped">
                <mask
                   fill="white"
                   id="mask-4">
                  <use
                     height="100%"
                     width="100%"
                     y="0"
                     x="0"
                     id="use65"
                     xlink:href="#path-3" />
                </mask>
                <g
                   id="g68" />
                <path
                   inkscape:connector-curvature="0"
                   style="fill:#a6a8ab"
                   mask="url(#mask-4)"
                   d="m 37.127852,137.83285 h -5.65563 v 18.86353 h 5.65563 z"
                   id="Fill-28" />
              </g>
              <g
                 id="Fill-30-Clipped">
                <mask
                   fill="white"
                   id="mask-6">
                  <use
                     height="100%"
                     width="100%"
                     y="0"
                     x="0"
                     id="use72"
                     xlink:href="#path-5" />
                </mask>
                <g
                   id="g75" />
                <path
                   style="fill:#ff8c00;fill-opacity:1"
                   inkscape:connector-curvature="0"
                   mask="url(#mask-6)"
                   id="Fill-30"
                   d="m 19.121259,104.52848 c 3.234,-3.979 8.663111,-6.524225 14.185926,-6.524225 H 48.824519 C 45.744518,88.310543 44.15237,78.193307 44.15237,67.997732 l 3.225852,-13.990151 c 0.404963,-1.75693 -0.671407,-3.514675 -2.41837,-3.950439 L 26.696593,45.498755 8.3461482,49.889854 12.104074,67.997732 c 0,12.123872 2.22363,24.144924 6.560889,35.464188 0.139333,0.36313 0.296593,0.71566 0.456296,1.06656" />
              </g>
              <g
                 id="Fill-31-Clipped">
                <mask
                   fill="white"
                   id="mask-8">
                  <use
                     height="100%"
                     width="100%"
                     y="0"
                     x="0"
                     id="use79"
                     xlink:href="#path-7" />
                </mask>
                <g
                   id="g82" />
                <path
                   inkscape:connector-curvature="0"
                   style="fill:#c87137"
                   mask="url(#mask-8)"
                   d="m 35.375756,47.664682 -8.678593,-2.165764 -8.576741,2.052335 11.708074,8.67693 z"
                   id="Fill-31" />
              </g>
              <g
                 id="Fill-32-Clipped">
                <mask
                   fill="white"
                   id="mask-10">
                  <use
                     height="100%"
                     width="100%"
                     y="0"
                     x="0"
                     id="use86"
                     xlink:href="#path-9" />
                </mask>
                <g
                   id="g89" />
                <path
                   style="fill:#c87137"
                   inkscape:connector-curvature="0"
                   mask="url(#mask-10)"
                   id="Fill-32"
                   d="M 76.372185,99.09032 H 64.435148 c -8.838296,0 -16.419333,-6.316948 -18.027778,-15.019991 L 43.79263,69.925131 c -0.325112,-1.759377 0.835185,-3.448575 2.591111,-3.774174 1.753481,-0.3256 3.443407,0.836438 3.768518,2.595 L 52.767,82.891155 c 1.041333,5.633108 5.948148,9.721457 11.668148,9.721457 h 11.937037 c 1.786074,0 3.234,1.450099 3.234,3.238854 0,1.788755 -1.447926,3.238854 -3.234,3.238854" />
              </g>
              <g
                 id="Fill-33-Clipped">
                <mask
                   fill="white"
                   id="mask-12">
                  <use
                     height="100%"
                     width="100%"
                     y="0"
                     x="0"
                     id="use93"
                     xlink:href="#path-11" />
                </mask>
                <g
                   id="g96" />
                <path
                   style="fill:#db3333"
                   inkscape:connector-curvature="0"
                   mask="url(#mask-12)"
                   id="Fill-33"
                   d="m 46.072889,64.468124 0.899555,4.867665" />
              </g>
              <g
                 id="Fill-34-Clipped">
                <mask
                   fill="white"
                   id="mask-14">
                  <use
                     height="100%"
                     width="100%"
                     y="0"
                     x="0"
                     id="use100"
                     xlink:href="#path-13" />
                </mask>
                <g
                   id="g103" />
                <path
                   inkscape:connector-curvature="0"
                   style="fill:#ff8c00;fill-opacity:1"
                   mask="url(#mask-14)"
                   d="M 49.527867,59.435374 51.99757,72.79636 43.516978,74.368049 41.048089,61.007063 Z"
                   id="Fill-34" />
              </g>
              <g
                 id="Fill-35-Clipped">
                <mask
                   fill="white"
                   id="mask-16">
                  <use
                     height="100%"
                     width="100%"
                     y="0"
                     x="0"
                     id="use107"
                     xlink:href="#path-15" />
                </mask>
                <g
                   id="g110" />
                <path
                   style="fill:#ff8c00;fill-opacity:1"
                   inkscape:connector-curvature="0"
                   mask="url(#mask-16)"
                   id="Fill-35"
                   d="m 46.068081,68.78733 c -2.041925,0 -3.855703,-1.45826 -4.237037,-3.541604 l -1.746962,-9.560698 c -0.428593,-2.346109 1.122814,-4.595925 3.465407,-5.025161 2.340963,-0.430868 4.589037,1.124501 5.017629,3.470609 l 1.746963,9.559882 c 0.429408,2.346109 -1.122814,4.596741 -3.465407,5.025976 -0.261555,0.04815 -0.523111,0.071 -0.780593,0.071" />
              </g>
              <g
                 id="Fill-36-Clipped">
                <mask
                   fill="white"
                   id="mask-18">
                  <use
                     height="100%"
                     width="100%"
                     y="0"
                     x="0"
                     id="use114"
                     xlink:href="#path-17" />
                </mask>
                <g
                   id="g117" />
                <path
                   style="fill:#ffa685"
                   inkscape:connector-curvature="0"
                   mask="url(#mask-18)"
                   id="Fill-36"
                   d="m 77.558718,92.058523 h -3.45074 c -2.22363,0 -4.026,1.805075 -4.026,4.032042 0,2.226967 1.80237,4.032045 4.026,4.032045 h 11.502741 c 0,-4.453936 -3.605556,-8.064087 -8.052001,-8.064087" />
              </g>
              <g
                 id="Fill-37-Clipped">
                <mask
                   fill="white"
                   id="mask-20">
                  <use
                     height="100%"
                     width="100%"
                     y="0"
                     x="0"
                     id="use121"
                     xlink:href="#path-19" />
                </mask>
                <g
                   id="g124" />
                <path
                   style="fill:#808080"
                   inkscape:connector-curvature="0"
                   mask="url(#mask-20)"
                   id="Fill-37"
                   d="m 19.121259,104.52848 c 3.089778,6.80575 9.876371,11.23357 17.411778,11.23357 h 18.893111 l -4.712889,-12.30013 c -0.690148,-1.801 -1.306963,-3.624844 -1.88874,-5.457665 H 32.804444 c -5.522814,0 -10.449185,2.545225 -13.683185,6.524225" />
              </g>
              <g
                 id="Fill-38-Clipped">
                <mask
                   fill="white"
                   id="mask-22">
                  <use
                     height="100%"
                     width="100%"
                     y="0"
                     x="0"
                     id="use128"
                     xlink:href="#path-21" />
                </mask>
                <g
                   id="g131" />
                <path
                   style="fill:#808080"
                   inkscape:connector-curvature="0"
                   mask="url(#mask-22)"
                   id="Fill-38"
                   d="M 96.313637,114.99106 H 69.603193 c -2.977334,0 -5.39,-2.4171 -5.39,-5.39809 0,-2.9818 2.412666,-5.39809 5.39,-5.39809 h 26.710444 c 2.976519,0 5.390003,2.41629 5.390003,5.39809 0,2.98099 -2.413484,5.39809 -5.390003,5.39809" />
              </g>
              <g
                 id="Fill-39-Clipped">
                <mask
                   fill="white"
                   id="mask-24">
                  <use
                     height="100%"
                     width="100%"
                     y="0"
                     x="0"
                     id="use135"
                     xlink:href="#path-23" />
                </mask>
                <g
                   id="g138" />
                <path
                   inkscape:connector-curvature="0"
                   style="fill:#db3333"
                   mask="url(#mask-24)"
                   d="m 108.18916,156.86742 6.46881,0.0465 -0.0782,10.97571 -6.468,-0.0465 z"
                   id="Fill-39" />
              </g>
              <g
                 id="Fill-40-Clipped">
                <mask
                   fill="white"
                   id="mask-26">
                  <use
                     height="100%"
                     width="100%"
                     y="0"
                     x="0"
                     id="use142"
                     xlink:href="#path-25" />
                </mask>
                <g
                   id="g145" />
                <path
                   style="fill:#e6e7e8"
                   inkscape:connector-curvature="0"
                   mask="url(#mask-26)"
                   id="Fill-40"
                   d="m 122.75739,165.9589 c -2.06718,0 -3.7677,-1.56924 -3.98281,-3.57996 -0.004,0 -0.004,-0.65201 -0.004,-0.65201 0,-1.31301 -1.06496,-2.37794 -2.37518,-2.37794 h -0.4783 c -0.924,0 -1.67281,0.74994 -1.67281,1.67533 v 0.4578 c -0.0864,1.49335 -1.31104,2.68966 -2.82089,2.68966 h -2.87141 c -1.42755,0 -2.58459,1.15387 -2.58459,2.58357 0,2.48321 0.002,5.85915 0.002,5.85915 h 11.44652 6.26674 7.97133 v -1.36441 -0.92212 c 0,-2.41303 -1.95393,-4.36907 -4.36333,-4.36907 h -4.53282 z" />
              </g>
              <g
                 id="Fill-41-Clipped">
                <mask
                   fill="white"
                   id="mask-28">
                  <use
                     height="100%"
                     width="100%"
                     y="0"
                     x="0"
                     id="use149"
                     xlink:href="#path-27" />
                </mask>
                <g
                   id="g152" />
                <path
                   inkscape:connector-curvature="0"
                   style="fill:#d8d0bc"
                   mask="url(#mask-28)"
                   d="M 131.65289,170.32829 H 105.9683 v 2.28654 h 25.68459 z"
                   id="Fill-41" />
              </g>
              <g
                 id="Fill-42-Clipped">
                <mask
                   fill="white"
                   id="mask-30">
                  <use
                     height="100%"
                     width="100%"
                     y="0"
                     x="0"
                     id="use156"
                     xlink:href="#path-29" />
                </mask>
                <g
                   id="g159" />
                <path
                   inkscape:connector-curvature="0"
                   style="fill:#808080"
                   mask="url(#mask-30)"
                   d="m 106.06306,138.95197 10.78081,0.018 -0.0301,17.92998 -10.78,-0.018 z"
                   id="Fill-42" />
              </g>
              <g
                 id="Fill-43-Clipped">
                <mask
                   fill="white"
                   id="mask-32">
                  <use
                     height="100%"
                     width="100%"
                     y="0"
                     x="0"
                     id="use163"
                     xlink:href="#path-31" />
                </mask>
                <g
                   id="g166" />
                <path
                   style="fill:#808080"
                   inkscape:connector-curvature="0"
                   mask="url(#mask-32)"
                   id="Fill-43"
                   d="m 111.45379,144.35928 h -0.009 c -2.97733,-0.005 -5.38674,-2.42608 -5.38185,-5.40707 l 0.0269,-16.17468 c 0.003,-2.07926 -0.80178,-4.03368 -2.26845,-5.50499 -1.46666,-1.47132 -3.41733,-2.28164 -5.493479,-2.28164 H 96.3732 c -2.977333,0 -5.390815,-2.41711 -5.390815,-5.39809 0,-2.98099 2.413482,-5.39809 5.390815,-5.39809 h 1.954741 c 4.958959,0 9.618889,1.93564 13.122589,5.4495 3.50289,3.51549 5.4283,8.18567 5.41934,13.15126 l -0.0261,16.17469 c -0.005,2.97772 -2.41755,5.38911 -5.39,5.38911" />
              </g>
              <g
                 id="Fill-44-Clipped">
                <mask
                   fill="white"
                   id="mask-34">
                  <use
                     height="100%"
                     width="100%"
                     y="0"
                     x="0"
                     id="use170"
                     xlink:href="#path-33" />
                </mask>
                <g
                   id="g173" />
                <path
                   style="fill:#808080"
                   inkscape:connector-curvature="0"
                   mask="url(#mask-34)"
                   id="Fill-44"
                   d="M 60.368326,114.99106 H 44.872178 c -2.976519,0 -5.39,-2.4171 -5.39,-5.39809 0,-2.9818 2.413481,-5.39809 5.39,-5.39809 h 15.496148 c 2.976518,0 5.39,2.41629 5.39,5.39809 0,2.98099 -2.413482,5.39809 -5.39,5.39809" />
              </g>
              <g
                 id="Fill-45-Clipped">
                <mask
                   fill="white"
                   id="mask-36">
                  <use
                     height="100%"
                     width="100%"
                     y="0"
                     x="0"
                     id="use177"
                     xlink:href="#path-35" />
                </mask>
                <g
                   id="g180" />
                <path
                   inkscape:connector-curvature="0"
                   style="fill:#db3333"
                   mask="url(#mask-36)"
                   d="m 89.796341,155.97868 3.270666,11.16176 -6.206444,1.82384 -3.270667,-11.16176 z"
                   id="Fill-45" />
              </g>
              <g
                 id="Fill-46-Clipped">
                <mask
                   fill="white"
                   id="mask-38">
                  <use
                     height="100%"
                     width="100%"
                     y="0"
                     x="0"
                     id="use184"
                     xlink:href="#path-37" />
                </mask>
                <g
                   id="g187" />
                <path
                   style="fill:#e6e7e8"
                   inkscape:connector-curvature="0"
                   mask="url(#mask-38)"
                   id="Fill-46"
                   d="m 99.01483,165.9589 c -2.067186,0 -3.767704,-1.56924 -3.982815,-3.57996 -0.0041,0 -0.0041,-0.65201 -0.0041,-0.65201 0,-1.31301 -1.064963,-2.37794 -2.375185,-2.37794 h -1.466667 c -0.924,0 -1.672815,0.74994 -1.672815,1.67533 v 0.4578 c -0.08637,1.49335 -1.311037,2.68966 -2.820074,2.68966 h -1.619037 c -1.427556,0 -2.584593,1.15387 -2.584593,2.58357 0,2.48321 8.15e-4,5.85915 8.15e-4,5.85915 h 10.194148 6.266741 5.465772 v -1.36441 -0.92212 c 0,-2.41303 -1.95311,-4.36907 -4.36252,-4.36907 h -1.039696 z" />
              </g>
              <g
                 id="Fill-47-Clipped">
                <mask
                   fill="white"
                   id="mask-40">
                  <use
                     height="100%"
                     width="100%"
                     y="0"
                     x="0"
                     id="use191"
                     xlink:href="#path-39" />
                </mask>
                <g
                   id="g194" />
                <path
                   inkscape:connector-curvature="0"
                   style="fill:#d8d0bc"
                   mask="url(#mask-40)"
                   d="M 104.41689,170.32829 H 82.490222 v 2.28654 h 21.926668 z"
                   id="Fill-47" />
              </g>
              <g
                 id="Fill-48-Clipped">
                <mask
                   fill="white"
                   id="mask-42">
                  <use
                     height="100%"
                     width="100%"
                     y="0"
                     x="0"
                     id="use198"
                     xlink:href="#path-41" />
                </mask>
                <g
                   id="g201" />
                <path
                   inkscape:connector-curvature="0"
                   style="fill:#808080"
                   mask="url(#mask-42)"
                   d="m 83.450481,127.37117 8.404001,27.96398 -10.322889,3.11155 -8.403186,-27.96316 z"
                   id="Fill-48" />
              </g>
              <g
                 id="Fill-49-Clipped">
                <mask
                   fill="white"
                   id="mask-44">
                  <use
                     height="100%"
                     width="100%"
                     y="0"
                     x="0"
                     id="use205"
                     xlink:href="#path-43" />
                </mask>
                <g
                   id="g208" />
                <path
                   style="fill:#808080"
                   inkscape:connector-curvature="0"
                   mask="url(#mask-44)"
                   id="Fill-49"
                   d="m 78.287489,134.32732 c -2.317333,0 -4.457852,-1.50804 -5.159408,-3.84436 l -3.806814,-12.69673 c -0.400074,-1.64594 -1.861037,-2.79493 -3.552593,-2.79493 h -5.400592 c -2.976519,0 -5.39,-2.4171 -5.39,-5.3989 0,-2.98099 2.413481,-5.39809 5.39,-5.39809 h 5.400592 c 6.625259,0 12.354222,4.46699 13.987926,10.88268 l 3.69437,12.29524 c 0.858,2.8545 -0.757777,5.86568 -3.608,6.72415 -0.518222,0.15668 -1.041333,0.23094 -1.555481,0.23094" />
              </g>
              <g
                 id="Fill-50-Clipped">
                <mask
                   fill="white"
                   id="mask-46">
                  <use
                     height="100%"
                     width="100%"
                     y="0"
                     x="0"
                     id="use212"
                     xlink:href="#path-45" />
                </mask>
                <g
                   id="g215" />
                <path
                   style="fill:#d8d0bc"
                   inkscape:connector-curvature="0"
                   mask="url(#mask-46)"
                   id="Fill-50"
                   d="M 80.178674,100.13893 H 38.452007 c 0,1.76998 1.43326,3.20539 3.200593,3.20539 h 38.526074 z" />
              </g>
              <g
                 id="Fill-51-Clipped">
                <mask
                   fill="white"
                   id="mask-48">
                  <use
                     height="100%"
                     width="100%"
                     y="0"
                     x="0"
                     id="use219"
                     xlink:href="#path-47" />
                </mask>
                <g
                   id="g222" />
                <path
                   style="fill:#edf2f0"
                   inkscape:connector-curvature="0"
                   mask="url(#mask-48)"
                   id="Fill-51"
                   d="M 107.18596,76.287614 H 71.114919 c -1.516371,0 -2.859186,0.981693 -3.320371,2.428529 l -7.858889,24.628017 h 41.738071 l 7.68289,-24.078824 c 0.47015,-1.472948 -0.62659,-2.977722 -2.17066,-2.977722" />
              </g>
              <g
                 id="Fill-52-Clipped">
                <mask
                   fill="white"
                   id="mask-50">
                  <use
                     height="100%"
                     width="100%"
                     y="0"
                     x="0"
                     id="use226"
                     xlink:href="#path-49" />
                </mask>
                <g
                   id="g229" />
                <path
                   style="fill:#d8d0bc"
                   inkscape:connector-curvature="0"
                   mask="url(#mask-50)"
                   id="Fill-52"
                   d="M 110.17144,76.287614 H 74.099585 c -1.515555,0 -2.85837,0.981693 -3.319555,2.428529 l -7.858889,24.628017 h 38.508149 c 1.92378,0 3.62755,-1.24609 4.21259,-3.08136 l 6.70022,-20.997464 c 0.47015,-1.472948 -0.62659,-2.977722 -2.17066,-2.977722" />
              </g>
              <g
                 id="Fill-53-Clipped">
                <mask
                   fill="white"
                   id="mask-52">
                  <use
                     height="100%"
                     width="100%"
                     y="0"
                     x="0"
                     id="use233"
                     xlink:href="#path-51" />
                </mask>
                <g
                   id="g236" />
                <path
                   style="fill:#c87137"
                   inkscape:connector-curvature="0"
                   mask="url(#mask-52)"
                   id="Fill-53"
                   d="M 40.789304,99.09032 H 28.851452 c -8.837482,0 -16.418519,-6.316948 -18.027778,-15.019175 L 8.2097481,69.925131 c -0.3251111,-1.759377 0.8351852,-3.448575 2.5911109,-3.774174 1.755111,-0.3256 3.443408,0.836438 3.768519,2.595 l 2.61474,14.146014 c 1.041334,5.632292 5.948149,9.720641 11.667334,9.720641 h 11.937852 c 1.786074,0 3.234,1.450099 3.234,3.238854 0,1.788755 -1.447926,3.238854 -3.234,3.238854" />
              </g>
              <g
                 id="Fill-54-Clipped">
                <mask
                   fill="white"
                   id="mask-54">
                  <use
                     height="100%"
                     width="100%"
                     y="0"
                     x="0"
                     id="use240"
                     xlink:href="#path-53" />
                </mask>
                <g
                   id="g243" />
                <path
                   style="fill:#ff8c00;fill-opacity:1"
                   mask="url(#mask-54)"
                   d="M 13.944985,59.435374 16.414689,72.79636 7.9340963,74.368049 5.4652074,61.007063 Z"
                   id="Fill-54"
                   inkscape:connector-curvature="0" />
              </g>
              <g
                 id="Fill-55-Clipped">
                <mask
                   fill="white"
                   id="mask-56">
                  <use
                     height="100%"
                     width="100%"
                     y="0"
                     x="0"
                     id="use247"
                     xlink:href="#path-55" />
                </mask>
                <g
                   id="g250" />
                <path
                   style="fill:#ff8c00;fill-opacity:1"
                   inkscape:connector-curvature="0"
                   mask="url(#mask-56)"
                   id="Fill-55"
                   d="m 10.4852,68.78733 c -2.0419259,0 -3.8557037,-1.45826 -4.237037,-3.541604 L 4.5012,55.685844 c -0.4294074,-2.346109 1.122,-4.595925 3.4645926,-5.025977 2.3466664,-0.430868 4.5898514,1.124501 5.0184444,3.470609 l 1.746963,9.559882 c 0.429407,2.346109 -1.122,4.595924 -3.464593,5.025976 -0.26237,0.04815 -0.523925,0.071 -0.781407,0.071" />
              </g>
              <g
                 id="Fill-56-Clipped">
                <mask
                   fill="white"
                   id="mask-58">
                  <use
                     height="100%"
                     width="100%"
                     y="0"
                     x="0"
                     id="use254"
                     xlink:href="#path-57" />
                </mask>
                <g
                   id="g257" />
                <path
                   style="fill:#c87137"
                   inkscape:connector-curvature="0"
                   mask="url(#mask-58)"
                   id="Fill-56"
                   d="m 41.975593,92.058523 h -3.450741 c -2.22363,0 -4.026,1.805075 -4.026,4.032042 0,2.226967 1.80237,4.032045 4.026,4.032045 h 11.502741 c 0,-4.453936 -3.604741,-8.064087 -8.052,-8.064087" />
              </g>
              <g
                 id="Fill-57-Clipped">
                <mask
                   fill="white"
                   id="mask-60">
                  <use
                     height="100%"
                     width="100%"
                     y="0"
                     x="0"
                     id="use261"
                     xlink:href="#path-59" />
                </mask>
                <g
                   id="g264" />
                <path
                   style="fill:#c87137"
                   inkscape:connector-curvature="0"
                   mask="url(#mask-60)"
                   id="Fill-57"
                   d="m 26.291793,51.296295 c 2.41674,0.500231 4.782963,-1.056769 5.282444,-3.477137 l 3.027852,-14.672358 -6.067111,-5.826509 -2.68726,4.014905 -3.027851,14.671543 c -0.499482,2.420368 1.055185,4.789325 3.471926,5.289556" />
              </g>
              <g
                 id="Fill-58-Clipped">
                <mask
                   fill="white"
                   id="mask-62">
                  <use
                     height="100%"
                     width="100%"
                     y="0"
                     x="0"
                     id="use268"
                     xlink:href="#path-61" />
                </mask>
                <g
                   id="g271" />
                <path
                   style="fill:#c87137"
                   inkscape:connector-curvature="0"
                   mask="url(#mask-62)"
                   id="Fill-58"
                   d="m 52.021444,13.583438 c 0,0 -1.733111,13.737179 -2.672592,19.265835 -0.844963,4.97375 -3.843482,8.537386 -7.530519,11.000188 -0.507629,0.03427 -7.870296,-1.095122 -7.981926,-1.110627 C 25.680926,41.604542 19.983741,34.059457 21.117148,25.888471 L 23.377444,9.5979094 Z" />
              </g>
              <g
                 id="Fill-59-Clipped">
                <mask
                   fill="white"
                   id="mask-64">
                  <use
                     height="100%"
                     width="100%"
                     y="0"
                     x="0"
                     id="use275"
                     xlink:href="#path-63" />
                </mask>
                <g
                   id="g278" />
                <path
                   style="fill:#c87137"
                   inkscape:connector-curvature="0"
                   mask="url(#mask-64)"
                   id="Fill-59"
                   d="m 20.307385,20.58243 c -2.277407,-0.316623 -4.382074,1.275467 -4.697407,3.552213 -0.316963,2.282457 1.275185,4.383754 3.552592,4.701193 l 6.705926,0.932731 0.897926,-8.287679 z" />
              </g>
              <g
                 id="Fill-60-Clipped">
                <mask
                   fill="white"
                   id="mask-66">
                  <use
                     height="100%"
                     width="100%"
                     y="0"
                     x="0"
                     id="use282"
                     xlink:href="#path-65" />
                </mask>
                <g
                   id="g285" />
                <path
                   style="fill:#0e0f2d"
                   inkscape:connector-curvature="0"
                   mask="url(#mask-66)"
                   id="Fill-60"
                   d="M 57.77363,3.4147099 34.050296,0.11383726 c -3.836963,-0.53368867 -7.493037,0.84215095 -10.023037,3.39879714 -0.673852,-1.2314009 -1.89037,-2.1502594 -3.388,-2.358349 -0.485629,-0.067731 -0.96474,-0.053043 -1.422666,0.026113 l 1.12037,1.4851887 C 21.036074,3.593422 21.477704,5.2940446 21.318,6.447922 l -0.345482,2.4913632 c -0.0065,0.031826 -0.01793,0.062019 -0.02689,0.093844 l -1.588074,11.4498258 1.641037,0.228491 -0.409037,2.94916 c -0.188223,1.357887 0.758592,2.608873 2.112814,2.797377 1.354223,0.188505 2.600889,-0.757283 2.789926,-2.115169 l 0.246074,-1.774066 c 0.585037,-1.805076 2.390667,-2.988331 4.334815,-2.721486 l 0.673852,-4.860321 c 0.585037,-1.802627 2.388222,-2.980986 4.330741,-2.713325 l 0.0033,-0.02775 16.812074,2.339581 c 2.706815,0.376193 5.217259,-1.374208 5.847926,-3.983081 L 53.46,10.006663 c 2.08837,-1.5994342 3.656889,-3.886788 4.31363,-6.5919531" />
              </g>
              <g
                 id="Fill-61-Clipped">
                <mask
                   fill="white"
                   id="mask-68">
                  <use
                     height="100%"
                     width="100%"
                     y="0"
                     x="0"
                     id="use289"
                     xlink:href="#path-67" />
                </mask>
                <g
                   id="g292" />
                <path
                   style="fill:#0e0f2d"
                   inkscape:connector-curvature="0"
                   mask="url(#mask-68)"
                   id="Fill-61"
                   d="m 47.307659,24.518588 c -0.07578,0.545113 -0.577703,0.926203 -1.122815,0.850312 -0.545111,-0.07589 -0.924814,-0.579387 -0.849037,-1.124501 0.07578,-0.545929 0.577704,-0.926202 1.122815,-0.850311 0.545111,0.07589 0.924815,0.579387 0.849037,1.1245" />
              </g>
              <g
                 id="Fill-62-Clipped">
                <mask
                   fill="white"
                   id="mask-70">
                  <use
                     height="100%"
                     width="100%"
                     y="0"
                     x="0"
                     id="use296"
                     xlink:href="#path-69" />
                </mask>
                <g
                   id="g299" />
                <path
                   style="fill:#0e0f2d"
                   inkscape:connector-curvature="0"
                   mask="url(#mask-70)"
                   id="Fill-62"
                   d="m 36.751978,23.049883 c -0.07578,0.545114 -0.577704,0.926203 -1.122815,0.850312 -0.545111,-0.07589 -0.924815,-0.579387 -0.849037,-1.1245 0.07578,-0.545929 0.577704,-0.926203 1.122815,-0.850312 0.545111,0.07589 0.924815,0.579387 0.849037,1.1245" />
              </g>
              <g
                 id="Fill-63-Clipped">
                <mask
                   fill="white"
                   id="mask-72">
                  <use
                     height="100%"
                     width="100%"
                     y="0"
                     x="0"
                     id="use303"
                     xlink:href="#path-71" />
                </mask>
                <g
                   id="g306" />
                <path
                   style="fill:#d38d5f"
                   inkscape:connector-curvature="0"
                   mask="url(#mask-72)"
                   id="Fill-63"
                   d="m 40.372363,36.366558 c -1.449556,0 -3.138667,-0.513287 -4.759333,-1.749584 -0.35526,-0.270925 -0.423704,-0.779317 -0.153186,-1.135109 0.270519,-0.354976 0.777334,-0.42434 1.132593,-0.153415 2.429778,1.852406 4.836741,1.596986 5.698,0.838071 0.335704,-0.29459 0.845778,-0.261948 1.140741,0.07507 0.294963,0.336208 0.261555,0.847863 -0.07415,1.142453 -0.696667,0.612028 -1.755112,0.982509 -2.984667,0.982509" />
              </g>
              <g
                 id="Fill-64-Clipped">
                <mask
                   fill="white"
                   id="mask-74">
                  <use
                     height="100%"
                     width="100%"
                     y="0"
                     x="0"
                     id="use310"
                     xlink:href="#path-73" />
                </mask>
                <g
                   id="g313" />
                <path
                   style="fill:#f8fcef"
                   inkscape:connector-curvature="0"
                   mask="url(#mask-74)"
                   id="Fill-64"
                   d="m 84.866874,89.951676 1.662222,3.604439 4.264741,-3.871283 -1.664667,-3.609335 z m 1.298815,5.392378 -2.609037,-5.659222 5.935111,-5.397273 2.613111,5.664117 z" />
              </g>
            </g>
          </g>
        </g>
      </g>
    </g>
  </g>
</svg>
