<?xml version="1.0" encoding="UTF-8" standalone="no"?>
<svg
   xmlns:dc="http://purl.org/dc/elements/1.1/"
   xmlns:cc="http://creativecommons.org/ns#"
   xmlns:rdf="http://www.w3.org/1999/02/22-rdf-syntax-ns#"
   xmlns:svg="http://www.w3.org/2000/svg"
   xmlns="http://www.w3.org/2000/svg"
   xmlns:sodipodi="http://sodipodi.sourceforge.net/DTD/sodipodi-0.dtd"
   xmlns:inkscape="http://www.inkscape.org/namespaces/inkscape"
   width="97px"
   height="118px"
   viewBox="0 0 97 118"
   version="1.1"
   id="svg19"
   sodipodi:docname="iot.svg"
   inkscape:version="0.92.2 (unknown)">
  <metadata
     id="metadata23">
    <rdf:RDF>
      <cc:Work
         rdf:about="">
        <dc:format>image/svg+xml</dc:format>
        <dc:type
           rdf:resource="http://purl.org/dc/dcmitype/StillImage" />
        <dc:title>Group</dc:title>
      </cc:Work>
    </rdf:RDF>
  </metadata>
  <sodipodi:namedview
     pagecolor="#ffffff"
     bordercolor="#666666"
     borderopacity="1"
     objecttolerance="10"
     gridtolerance="10"
     guidetolerance="10"
     inkscape:pageopacity="0"
     inkscape:pageshadow="2"
     inkscape:window-width="1366"
     inkscape:window-height="738"
     id="namedview21"
     showgrid="false"
     inkscape:zoom="2.8284271"
     inkscape:cx="33.806386"
     inkscape:cy="55.383118"
     inkscape:window-x="0"
     inkscape:window-y="0"
     inkscape:window-maximized="1"
     inkscape:current-layer="g1089" />
  <!-- Generator: Sketch 40.1 (33804) - http://www.bohemiancoding.com/sketch -->
  <title
     id="title2">Group</title>
  <desc
     id="desc4">Created with Sketch.</desc>
  <defs
     id="defs6" />
  <g
     id="g1089"
     transform="translate(-313.8125,-16.3125)">
    <g
       id="g1018"
       transform="matrix(0.3227767,0,0,0.32333126,315.58578,26.464466)">
      <g
         id="g1016">
        <path
           id="path986"
           d="m 145.313,154.688 c -5.18,0 -9.375,-4.195 -9.375,-9.375 0,-5.18 4.195,-9.375 9.375,-9.375 1.716,0 3.305,0.497 4.688,1.298 V 4.805 C 148.44,4.753 146.884,4.688 145.313,4.688 67.645,4.688 4.688,67.645 4.688,145.313 c 0,77.668 62.958,140.625 140.625,140.625 1.57,0 3.127,-0.066 4.688,-0.117 V 153.389 c -1.384,0.802 -2.973,1.299 -4.688,1.299 z"
           style="fill:#ff8c00;fill-opacity:1"
           inkscape:connector-curvature="0" />
        <path
           id="path988"
           d="m 280.955,154.383 9.356,0.614 c 0.206,-3.197 0.314,-6.459 0.314,-9.684 h -9.375 c 0,3.046 -0.098,6.07 -0.295,9.07 z"
           style="fill:#808080"
           inkscape:connector-curvature="0" />
        <path
           id="path990"
           d="m 43.261,235.125 -7.031,6.206 c 4.191,4.744 8.709,9.248 13.439,13.387 l 6.173,-7.059 c -4.425,-3.867 -8.658,-8.09 -12.581,-12.534 z"
           style="fill:#808080"
           inkscape:connector-curvature="0" />
        <path
           id="path992"
           d="m 64.744,266.264 c 5.259,3.506 10.791,6.703 16.448,9.487 l 4.144,-8.414 c -5.292,-2.606 -10.467,-5.587 -15.389,-8.878 z"
           style="fill:#808080"
           inkscape:connector-curvature="0" />
        <path
           id="path994"
           d="m 98.752,283.003 c 5.972,2.02 12.15,3.666 18.361,4.889 l 1.809,-9.202 c -5.808,-1.139 -11.583,-2.677 -17.17,-4.57 z"
           style="fill:#808080"
           inkscape:connector-curvature="0" />
        <path
           id="path996"
           d="m 258.295,220.931 7.786,5.217 c 3.516,-5.245 6.722,-10.777 9.52,-16.434 l -8.4,-4.158 c -2.62,5.288 -5.615,10.463 -8.906,15.375 z"
           style="fill:#808080"
           inkscape:connector-curvature="0" />
        <path
           id="path998"
           d="m 12.033,172.209 -9.192,1.842 c 1.242,6.183 2.906,12.352 4.95,18.328 l 8.873,-3.028 c -1.912,-5.596 -3.473,-11.362 -4.631,-17.142 z"
           style="fill:#808080"
           inkscape:connector-curvature="0" />
        <path
           id="path1000"
           d="m 15.103,209.888 c 2.803,5.644 6.014,11.166 9.539,16.402 l 7.777,-5.227 c -3.295,-4.903 -6.295,-10.064 -8.92,-15.347 z"
           style="fill:#808080"
           inkscape:connector-curvature="0" />
        <path
           id="path1002"
           d="m 136.538,280.969 -0.6,9.361 c 3.098,0.197 6.225,0.295 9.375,0.295 3.211,0 6.445,-0.103 9.6,-0.309 l -0.614,-9.356 c -5.869,0.384 -11.888,0.388 -17.761,0.009 z"
           style="fill:#808080"
           inkscape:connector-curvature="0" />
        <path
           id="path1004"
           d="m 274.022,189.159 8.878,3.023 c 2.034,-5.967 3.694,-12.145 4.927,-18.352 l -9.197,-1.833 c -1.153,5.805 -2.705,11.575 -4.608,17.162 z"
           style="fill:#808080"
           inkscape:connector-curvature="0" />
        <path
           id="path1006"
           d="m 171.909,278.648 1.828,9.192 c 6.192,-1.228 12.361,-2.878 18.342,-4.908 l -3.019,-8.883 c -5.587,1.904 -11.357,3.446 -17.151,4.599 z"
           style="fill:#808080"
           inkscape:connector-curvature="0" />
        <path
           id="path1008"
           d="m 234.9,247.561 6.178,7.05 c 4.734,-4.148 9.253,-8.663 13.425,-13.411 l -7.041,-6.188 c -3.904,4.44 -8.132,8.663 -12.562,12.549 z"
           style="fill:#808080"
           inkscape:connector-curvature="0" />
        <path
           id="path1010"
           d="m 205.444,267.267 4.153,8.405 c 5.644,-2.789 11.17,-5.986 16.425,-9.502 l -5.212,-7.791 c -4.918,3.287 -10.088,6.277 -15.366,8.888 z"
           style="fill:#808080"
           inkscape:connector-curvature="0" />
        <path
           id="path1012"
           d="m 9.375,145.313 c 0,-74.958 60.98,-135.938 135.938,-135.938 24.117,0 47.48,6.338 68.123,18.323 l -13.617,5.447 3.483,8.705 26.386,-10.552 V 4.688 h -9.375 V 20.935 C 197.709,7.27 171.947,0 145.313,0 65.189,0 0,65.189 0,145.313 c 0,3.225 0.108,6.487 0.314,9.68 l 9.356,-0.614 c -0.197,-2.996 -0.295,-6.02 -0.295,-9.066 z"
           style="fill:#808080"
           inkscape:connector-curvature="0" />
        <path
           id="path1014"
           d="m 248.438,112.5 c 0,-2.7 -0.802,-5.203 -2.128,-7.345 L 271.992,64.8 c 1.439,0.497 2.962,0.825 4.57,0.825 7.753,0 14.063,-6.309 14.063,-14.063 0,-7.754 -6.309,-14.062 -14.062,-14.062 -7.753,0 -14.063,6.309 -14.063,14.063 0,2.7 0.802,5.203 2.128,7.345 l -25.683,40.355 c -1.439,-0.497 -2.963,-0.825 -4.57,-0.825 -3.698,0 -7.041,1.463 -9.553,3.802 L 206.053,90.98 c 0.089,-0.633 0.197,-1.261 0.197,-1.917 C 206.25,81.31 199.941,75 192.187,75 c -7.754,0 -14.063,6.309 -14.063,14.063 0,2.433 0.68,4.692 1.772,6.689 l -29.25,36.563 c -0.206,-0.084 -0.436,-0.127 -0.647,-0.202 V 28.125 h -4.688 c -64.617,0 -117.188,52.57 -117.188,117.188 0,64.618 52.572,117.187 117.19,117.187 H 150 V 158.513 c 5.442,-1.941 9.375,-7.097 9.375,-13.2 0,-2.433 -0.68,-4.692 -1.772,-6.689 l 29.25,-36.563 c 1.65,0.68 3.445,1.064 5.334,1.064 3.698,0 7.041,-1.463 9.553,-3.802 l 18.769,11.259 c -0.089,0.633 -0.197,1.261 -0.197,1.917 0,7.753 6.309,14.063 14.063,14.063 7.754,0 14.063,-6.309 14.063,-14.062 z m 28.125,-65.625 c 2.583,0 4.688,2.105 4.688,4.688 0,2.583 -2.105,4.688 -4.688,4.688 -2.583,0 -4.688,-2.105 -4.688,-4.688 0,-2.583 2.105,-4.688 4.688,-4.688 z M 140.625,93.548 C 126.506,92.835 113.728,89.076 103.003,84.332 114.876,61.105 131.414,47.437 140.625,41.16 Z M 94.795,80.339 C 84.633,74.934 77.006,69.192 72.764,65.667 87.975,51.801 107.147,42.225 128.367,38.859 118.27,47.109 104.953,60.638 94.795,80.339 Z m -4.026,8.597 c -6.113,14.32 -10.387,31.458 -10.973,51.689 H 37.617 c 1.13,-26.287 11.728,-50.152 28.448,-68.297 4.552,3.891 13.093,10.486 24.704,16.608 z M 79.795,150 c 0.581,20.236 4.861,37.373 10.973,51.689 -11.611,6.122 -20.152,12.717 -24.703,16.603 C 49.341,200.152 38.747,176.288 37.617,150 Z m 15,60.286 c 10.158,19.702 23.475,33.23 33.572,41.48 -21.225,-3.366 -40.397,-12.942 -55.603,-26.808 4.242,-3.525 11.869,-9.272 22.031,-14.672 z m 8.391,-4.069 c 10.688,-4.711 23.4,-8.428 37.439,-9.136 v 52.289 c -9.131,-6.356 -25.561,-20.128 -37.439,-43.153 z m 37.439,-18.52 c -15.684,0.708 -29.738,4.762 -41.442,9.923 -5.55,-13.195 -9.441,-28.978 -10.008,-47.616 h 42.942 c 1.416,3.97 4.542,7.097 8.513,8.513 v 29.18 z m -8.512,-47.072 H 89.166 c 0.558,-18.713 4.388,-34.509 9.863,-47.681 11.737,5.189 25.847,9.277 41.597,9.984 v 29.184 c -3.971,1.416 -7.098,4.543 -8.513,8.513 z m 13.2,9.375 c -2.583,0 -4.688,-2.105 -4.688,-4.688 0,-2.583 2.105,-4.688 4.688,-4.688 2.583,0 4.688,2.105 4.688,4.688 C 150,147.895 147.895,150 145.313,150 Z m 46.875,-56.25 c -2.583,0 -4.688,-2.105 -4.688,-4.688 0,-2.583 2.105,-4.688 4.688,-4.688 2.583,0 4.688,2.105 4.688,4.688 0,2.583 -2.106,4.688 -4.688,4.688 z m 42.187,23.438 c -2.583,0 -4.688,-2.105 -4.688,-4.688 0,-2.583 2.105,-4.688 4.688,-4.688 2.583,0 4.688,2.105 4.688,4.688 0,2.583 -2.105,4.688 -4.688,4.688 z"
           style="fill:#808080"
           inkscape:connector-curvature="0" />
      </g>
    </g>
    <g
       id="g1020" />
    <g
       id="g1022" />
    <g
       id="g1024" />
    <g
       id="g1026" />
    <g
       id="g1028" />
    <g
       id="g1030" />
    <g
       id="g1032" />
    <g
       id="g1034" />
    <g
       id="g1036" />
    <g
       id="g1038" />
    <g
       id="g1040" />
    <g
       id="g1042" />
    <g
       id="g1044" />
    <g
       id="g1046" />
    <g
       id="g1048" />
  </g>
</svg>
