<?xml version="1.0" encoding="UTF-8" standalone="no"?>
<svg width="296.991mm" height="209.979mm"
 viewBox="0 0 3461 2447"
 xmlns="http://www.w3.org/2000/svg" xmlns:xlink="http://www.w3.org/1999/xlink"  version="1.2" baseProfile="tiny">
<desc>Generated with Qt</desc>
<defs>
</defs>
<g fill="none" stroke="black" stroke-width="1" fill-rule="evenodd" stroke-linecap="square" stroke-linejoin="bevel" >

<g fill="none" stroke="#000000" stroke-opacity="1" stroke-width="1" stroke-linecap="square" stroke-linejoin="bevel" transform="matrix(1,0,0,1,0,0)"
font-family="Cantarell" font-size="45.2222" font-weight="400" font-style="normal" 
>
</g>

<g fill="none" stroke="#000000" stroke-opacity="1" stroke-width="1" stroke-linecap="square" stroke-linejoin="bevel" transform="matrix(11.6524,0,0,11.6524,0,0)"
font-family="Cantarell" font-size="45.2222" font-weight="400" font-style="normal" 
>
</g>

<g fill="none" stroke="none" transform="matrix(0.9999,0,0,0.9999,0,0)"
font-family="Cantarell" font-size="45.2222" font-weight="400" font-style="normal" 
>
<path vector-effect="none" fill-rule="evenodd" d="M-1,-1 L3462.1,-1 L3462.1,2448.24 L-1,2448.24 L-1,-1"/>
</g>

<g fill="none" stroke="#000000" stroke-opacity="1" stroke-width="1" stroke-linecap="square" stroke-linejoin="bevel" transform="matrix(11.6524,0,0,11.6524,0,0)"
font-family="Cantarell" font-size="45.2222" font-weight="400" font-style="normal" 
>
</g>

<g fill="none" stroke="#000000" stroke-opacity="1" stroke-width="1" stroke-linecap="square" stroke-linejoin="bevel" transform="matrix(11.6524,0,0,11.6524,0,0)"
font-family="Cantarell" font-size="45.2222" font-weight="400" font-style="normal" 
>
</g>

<g fill="none" stroke="#000000" stroke-opacity="1" stroke-width="1" stroke-linecap="square" stroke-linejoin="bevel" transform="matrix(11.6524,0,0,11.6524,0,0)"
font-family="Cantarell" font-size="45.2222" font-weight="400" font-style="normal" 
>
</g>

<g fill="none" stroke="#000000" stroke-opacity="1" stroke-width="1" stroke-linecap="square" stroke-linejoin="bevel" transform="matrix(11.6524,0,0,11.6524,0,0)"
font-family="Cantarell" font-size="45.2222" font-weight="400" font-style="normal" 
>
</g>

<g fill="#000000" fill-opacity="0" stroke="none" transform="matrix(0.9999,0,0,0.9999,0,0)"
font-family="Cantarell" font-size="45.2222" font-weight="400" font-style="normal" 
>
<path vector-effect="non-scaling-stroke" fill-rule="evenodd" d="M0,0 L3461,0 L3461,2424 L0,2424 L0,0"/>
</g>

<g fill="#298896" fill-opacity="0" stroke="#808080" stroke-opacity="1" stroke-width="14.6835" stroke-linecap="square" stroke-linejoin="bevel" transform="matrix(0.9999,0,0,0.9999,0,0)"
font-family="Cantarell" font-size="45.2222" font-weight="400" font-style="normal" 
>
<path vector-effect="none" fill-rule="evenodd" d="M2060.84,2363.49 L2060.32,2362.86 L2060.15,2361.39 L2059.94,2360.23 L2059.75,2359.3 L2059.84,2358.7 L2060.22,2359.27 L2060.24,2358.65 L2059.96,2357.95 L2059.61,2357.15 L2059.06,2356.77 L2058.45,2356.67 L2058.13,2356.35 L2057.98,2355.81 L2058.22,2355.59 L2058.75,2355.97 L2059.16,2355.98 L2059.15,2355.27 L2059.63,2355.06 L2059.99,2355.66 L2060.63,2355.97 L2061.54,2355.98 L2062.24,2356.24 L2062.68,2355.71 L2062.92,2354.82 L2063.17,2353.62 L2063.15,2352.57 L2063.45,2351.05 L2064.15,2350.47 L2064.9,2350.57 L2065.63,2350.93 L2065.99,2351.88 L2065.97,2352.36 L2066.02,2353.13 L2065.91,2354.08 L2065.54,2354.96 L2064.78,2355.81 L2064.23,2356.85 L2064.12,2357.81 L2064.06,2358.9 L2064.05,2359.89 L2063.79,2360.63 L2062.88,2360.99 L2062,2361.76 L2061.82,2362.28 L2061.43,2363.12 L2060.84,2363.49"/>
<path vector-effect="none" fill-rule="evenodd" d="M2013.62,2376.93 L2012.97,2376.72 L2012.28,2376.19 L2012.43,2375.65 L2012.85,2375.25 L2013.35,2375.44 L2013.51,2376.04 L2014.1,2376.5 L2013.62,2376.93"/>
<path vector-effect="none" fill-rule="evenodd" d="M2024.3,2384.04 L2023.5,2383.68 L2022.76,2382.69 L2022.18,2381.8 L2021.73,2380.49 L2021.75,2379.27 L2022.25,2378.48 L2022.12,2377.74 L2021.88,2376.59 L2022.01,2375.88 L2022.98,2376.56 L2023.69,2376.91 L2024.79,2377.32 L2025.45,2377.69 L2025.88,2377.8 L2026.35,2377.88 L2027.48,2378 L2028.62,2378.16 L2029.62,2378.36 L2029.81,2379.17 L2029.47,2379.97 L2029.03,2380.98 L2028.36,2381.19 L2028.04,2381.73 L2027.41,2382.75 L2026.61,2383.03 L2025.91,2383.51 L2025.31,2383.94 L2024.3,2384.04"/>
<path vector-effect="none" fill-rule="evenodd" d="M2052.37,2382.05 L2051.86,2381.41 L2051.65,2380.89 L2051.24,2381.19 L2050.64,2381.11 L2050.2,2381.13 L2049.81,2380.93 L2049.41,2380.5 L2048.58,2380.38 L2047.88,2380.38 L2047.25,2380.33 L2046.36,2380.25 L2045.74,2380.33 L2045.28,2380.27 L2044.84,2380.25 L2044.3,2380.44 L2043.82,2380.28 L2043.49,2380.25 L2043.17,2380.18 L2042.85,2379.81 L2043.04,2379.63 L2043.52,2379.58 L2044.05,2379.52 L2044.1,2378.98 L2043.82,2378.26 L2043.44,2377.57 L2044.13,2377.86 L2044.87,2378.07 L2045.52,2378.1 L2046.24,2378.06 L2047.09,2378.42 L2048.11,2378.67 L2048.76,2378.75 L2049.56,2378.81 L2050.37,2378.94 L2050.95,2378.8 L2051.52,2378.25 L2052,2378.23 L2052.35,2379.01 L2052.65,2379.85 L2053.04,2380.53 L2053.11,2381.31 L2052.73,2381.76 L2052.37,2382.05"/>
<path vector-effect="none" fill-rule="evenodd" d="M2438.49,1772.66 L2437.2,1772.25 L2437.94,1770.73 L2438.77,1769.61 L2440.1,1769.21 L2440.8,1769.59 L2441.13,1770.47 L2442.2,1770.12 L2442.92,1770.29 L2443.76,1770.55 L2443.56,1771.17 L2442.86,1771.06 L2442.34,1772.19 L2441.59,1772.12 L2440.86,1772.18 L2440.18,1772.18 L2439.29,1772.34 L2438.49,1772.66"/>
<path vector-effect="none" fill-rule="evenodd" d="M2436.75,1776.59 L2436.3,1775.97 L2437.07,1775.33 L2437.86,1774.97 L2438.54,1773.95 L2439.37,1773.29 L2440.37,1773.74 L2441.1,1774.41 L2441.09,1775.1 L2439.02,1775.26 L2437.75,1776.49 L2436.75,1776.59"/>
<path vector-effect="none" fill-rule="evenodd" d="M2461.44,1785.82 L2461.62,1783.94 L2462.56,1781.82 L2463.52,1780.22 L2464.71,1779.46 L2465.06,1778.36 L2465.78,1777.15 L2466.79,1776.72 L2468.07,1775.94 L2468.89,1774.62 L2469.71,1774.42 L2469.89,1775.38 L2469.43,1776.54 L2468.45,1777.56 L2467.93,1778.32 L2466.86,1779.55 L2466.42,1780.46 L2465.5,1781.81 L2464.03,1782.72 L2463.34,1784.14 L2462.42,1785.55 L2461.44,1785.82"/>
<path vector-effect="none" fill-rule="evenodd" d="M2450.58,1783.09 L2449.44,1782.47 L2448.76,1781.91 L2448.19,1780.98 L2449.23,1780.56 L2450.13,1780.44 L2450.91,1780.38 L2451.37,1780.96 L2451.72,1781.52 L2452.15,1782.24 L2451.66,1782.94 L2450.58,1783.09"/>
<path vector-effect="none" fill-rule="evenodd" d="M2421.63,1796.11 L2422.67,1795.16 L2422.53,1794.4 L2422.3,1793.4 L2422.6,1792.42 L2422.98,1791.19 L2424.13,1791.83 L2425.22,1792.59 L2425.88,1792.13 L2426.13,1791.38 L2426.88,1791.15 L2427.65,1791.11 L2428.06,1792.26 L2428.89,1793.46 L2429.8,1794.61 L2430.77,1795.07 L2430.76,1793.9 L2430.17,1793.27 L2430.5,1792.57 L2431.46,1792.86 L2432.27,1793.34 L2433.12,1794.34 L2432.62,1795.27 L2432.58,1796.2 L2433.71,1796.18 L2434.39,1795.25 L2435.76,1794.45 L2436.79,1794.86 L2437.47,1795.37 L2438.75,1795.3 L2440.03,1795.57 L2441.17,1797.37 L2440.48,1798.56 L2440.38,1799.73 L2438.93,1800.48 L2437.85,1799.86 L2437.58,1800.86 L2436.97,1801.46 L2436.25,1800.2 L2435.75,1798.78 L2434.22,1798.59 L2432.09,1798.57 L2430.86,1797.97 L2429.91,1798.23 L2428.93,1799.63 L2428.81,1800.84 L2428.58,1801.66 L2428.43,1803.19 L2428.69,1804.45 L2428.71,1805.59 L2429.24,1806.76 L2428.54,1807.39 L2428.05,1808.16 L2428.88,1808.74 L2430.13,1809.24 L2429.85,1810.55 L2429.04,1811.26 L2427.76,1811.4 L2426.09,1811.52 L2424.85,1811.35 L2423.85,1809.83 L2423.16,1808.37 L2423.83,1807.08 L2424.99,1806.15 L2425.07,1805.36 L2424.2,1805.64 L2423.46,1806.25 L2422.65,1806.18 L2421.95,1806.99 L2420.77,1807.68 L2420.21,1808.58 L2421.03,1809.21 L2419.49,1809.64 L2418.8,1810.07 L2417.2,1810.57 L2416.3,1810.48 L2414.86,1810.3 L2415.97,1808.94 L2416.55,1807.9 L2416.7,1806.89 L2415.52,1805.99 L2415.33,1804.61 L2414.59,1804.37 L2413.54,1804.5 L2412.35,1804.96 L2410.76,1806.28 L2409.79,1807.48 L2407.95,1807.9 L2406.93,1808.79 L2408.49,1810.05 L2407.69,1810.99 L2405.51,1811.7 L2403.78,1811.17 L2402.43,1810.4 L2401.16,1809.75 L2400.89,1807.86 L2399.66,1807.41 L2398.29,1806.9 L2398.45,1805.69 L2399.46,1804.24 L2401.55,1803.3 L2402.4,1802.86 L2402.77,1802.32 L2403.24,1801.11 L2403.61,1800.25 L2404.52,1800.32 L2404.89,1801.75 L2404.19,1803.27 L2403.79,1804.82 L2404.78,1805.84 L2406.14,1805.33 L2405.79,1803.95 L2405.89,1802.65 L2406.43,1801.95 L2407.67,1802.5 L2408.61,1802.65 L2410.59,1801.39 L2412.58,1800.19 L2414.58,1799.38 L2415.29,1799.17 L2416.13,1800.09 L2416.99,1801.14 L2418.22,1801.77 L2419.22,1802.98 L2419.39,1801.83 L2418.47,1800.56 L2418.21,1798.94 L2418.96,1798.31 L2419.94,1797.37 L2421.63,1796.11"/>
<path vector-effect="none" fill-rule="evenodd" d="M2436.43,1805.41 L2435.53,1805.12 L2434.85,1804.42 L2433.54,1804.5 L2433.46,1803.84 L2432.97,1803.36 L2431.97,1802.66 L2433.07,1802.24 L2433.62,1801.72 L2434.14,1800.69 L2435,1801.39 L2435.5,1802.06 L2435.44,1803.05 L2436.06,1803.25 L2437.01,1802.65 L2437.92,1802.85 L2438.37,1803.48 L2438.96,1804.08 L2438.76,1804.85 L2437.98,1805.04 L2436.43,1805.41"/>
<path vector-effect="none" fill-rule="evenodd" d="M2399.66,1815.74 L2399.54,1814.67 L2399.84,1813.52 L2400.43,1812.31 L2401.52,1811.95 L2401.96,1812.53 L2402.09,1813.46 L2401.14,1814.49 L2400.33,1815.17 L2399.66,1815.74"/>
<path vector-effect="none" fill-rule="evenodd" d="M2416.14,1817.18 L2415.73,1816.38 L2415.19,1815.91 L2414.33,1815.21 L2414.62,1814.26 L2415.31,1813.66 L2416.04,1813.6 L2416.97,1813.86 L2417.61,1814.29 L2418.29,1814.57 L2418.3,1815.35 L2417.49,1816.1 L2416.81,1816.78 L2416.14,1817.18"/>
<path vector-effect="none" fill-rule="evenodd" d="M2388.27,1852.49 L2387.27,1851.64 L2386.38,1850.24 L2386.9,1848.77 L2387.52,1847.71 L2388.19,1847.67 L2389.07,1847.47 L2389.82,1846.69 L2390.82,1846.23 L2391.97,1846.51 L2393.17,1847.32 L2394.69,1847.15 L2395.77,1846.61 L2396.12,1844.58 L2395.16,1844.92 L2393.91,1844.51 L2392.44,1843.99 L2391.47,1843.76 L2389.79,1843.8 L2388.88,1842.68 L2388.06,1841.4 L2386.69,1839.87 L2386.16,1838.54 L2385.25,1837.92 L2384.49,1836.58 L2384.04,1835.1 L2383.05,1833.02 L2383.32,1831.23 L2384.28,1830.98 L2385.4,1831.75 L2386.25,1831.86 L2386.92,1832.14 L2387.22,1832.99 L2388.47,1832.72 L2389.28,1833.26 L2390.4,1833.89 L2390.26,1834.81 L2390.04,1835.7 L2389.68,1837.39 L2389.59,1838.95 L2390.72,1839.37 L2391.57,1839.45 L2392.41,1839.18 L2392.2,1838.34 L2392.01,1837.62 L2391.69,1836.33 L2391.97,1835.43 L2393.12,1834.77 L2393.72,1834.12 L2393.26,1833.6 L2392.9,1832.64 L2393.93,1832.81 L2394.96,1833.69 L2395.71,1834.09 L2396.78,1835.05 L2396.43,1835.77 L2395.57,1836.39 L2395.16,1837.21 L2396.32,1838.33 L2397.39,1838.7 L2397.27,1837.6 L2398.14,1837.09 L2398.89,1836.43 L2398.97,1835.6 L2398.48,1834.82 L2398.15,1833.92 L2398.15,1832.56 L2397.4,1832.04 L2397.29,1830.84 L2398.15,1831.03 L2399.15,1831.53 L2400,1832.91 L2400.48,1834.31 L2401.25,1835.64 L2402.14,1837.44 L2402.87,1838.5 L2402.88,1839.6 L2401.43,1840.99 L2400.19,1842.26 L2398.73,1843.49 L2398.79,1844.32 L2397.7,1846.37 L2396.72,1848.21 L2395.68,1849.48 L2394.78,1851.09 L2393.93,1851.32 L2392.79,1851.59 L2391.52,1851.8 L2390.71,1851.9 L2389.62,1852.12 L2388.27,1852.49"/>
<path vector-effect="none" fill-rule="evenodd" d="M2383.78,1847.66 L2382.6,1847.42 L2380.73,1847.56 L2378.63,1847.83 L2376.12,1848.14 L2374.74,1849.29 L2372.65,1850.38 L2370.88,1851.49 L2370.12,1851.86 L2369.19,1853.26 L2367.94,1854.78 L2366.12,1855.65 L2364.52,1855.95 L2364.06,1853.3 L2364.69,1851.57 L2363.77,1849.87 L2363.62,1848.28 L2364.5,1848.77 L2364.55,1847.8 L2364.23,1845.78 L2365.11,1844.33 L2366.01,1843.41 L2367.85,1843.71 L2369.14,1844.29 L2370.81,1844.46 L2371.32,1843.67 L2370.32,1843.26 L2369.51,1842.65 L2368.82,1842.32 L2368.89,1841.41 L2369.7,1840.1 L2370.44,1839.22 L2372.59,1838.95 L2374.45,1839.27 L2375.24,1839.27 L2376.08,1838.73 L2376.75,1838.03 L2377.99,1838.14 L2378.07,1836.96 L2378.54,1836.27 L2379.46,1836.22 L2381.13,1836.88 L2381.62,1837.41 L2382.06,1838.14 L2382.63,1839.36 L2383.5,1840.67 L2384.09,1841.5 L2385.01,1842.62 L2385.39,1844.37 L2385.84,1845.4 L2386.29,1846.51 L2385.94,1847.45 L2383.78,1847.66"/>
<path vector-effect="none" fill-rule="evenodd" d="M2182.09,2085.01 L2181.53,2084.6 L2180.98,2084.06 L2181.22,2082.73 L2181.87,2082.61 L2182.25,2083.45 L2182.56,2084.12 L2182.09,2085.01"/>
<path vector-effect="none" fill-rule="evenodd" d="M2178.15,2088.61 L2177.81,2087.79 L2177.05,2087.31 L2177.85,2086.85 L2178.66,2086.85 L2180.21,2085.65 L2179.72,2087.27 L2178.8,2087.94 L2178.15,2088.61"/>
<path vector-effect="none" fill-rule="evenodd" d="M2161.46,2141.11 L2160.18,2143.25 L2159.17,2144.63 L2158.08,2146.29 L2156.93,2147.43 L2156.02,2147.67 L2153.85,2147.04 L2153.04,2146.86 L2152.02,2146.11 L2150.12,2144.76 L2148.6,2143.16 L2147.03,2141.43 L2144.8,2140.71 L2142.49,2140.41 L2140.96,2140.68 L2139.48,2142.08 L2138.75,2141.81 L2138.45,2140.54 L2138.12,2139.01 L2138.73,2138.36 L2139.04,2137.11 L2140.45,2135.8 L2140.02,2134.84 L2138.16,2135.57 L2137,2137.38 L2136.39,2139.42 L2137.11,2141.16 L2138.2,2142.57 L2139.22,2143.18 L2141.09,2143.36 L2142.82,2143.15 L2144.05,2143.3 L2144.44,2144.29 L2144.58,2145.73 L2143.29,2145.8 L2141.52,2144.94 L2139.57,2144.51 L2138.27,2145.58 L2139.3,2146.57 L2140.49,2146.75 L2141.76,2147.83 L2141.79,2149 L2142.07,2149.67 L2143.44,2149.55 L2143.89,2150.43 L2144.63,2150.53 L2145.5,2150.59 L2146.62,2151.01 L2147.6,2150.87 L2148.09,2149.58 L2148.61,2148.86 L2149.26,2148.44 L2150.12,2148.45 L2150.95,2147.88 L2151.99,2147.8 L2152.84,2148.68 L2154.54,2148.85 L2156.08,2149.51 L2157.03,2150.77 L2157.65,2152.71 L2157.95,2154.32 L2157.08,2156.06 L2155.39,2157.11 L2153.92,2157.25 L2151.88,2157.14 L2152.04,2158.08 L2153.51,2158.34 L2155.2,2158.49 L2157.03,2158.57 L2158.31,2158.46 L2158.21,2159.41 L2157.51,2161.71 L2156.55,2164.09 L2156.21,2165.31 L2155.64,2166.3 L2154.14,2169.73 L2153.36,2173.02 L2151.93,2176.56 L2150.99,2179.96 L2149.63,2183.87 L2148.54,2186.97 L2147.86,2189.99 L2146.86,2192.36 L2146.19,2193.36 L2144.79,2196.41 L2143.11,2200.38 L2141.48,2202.89 L2140.32,2205.37 L2139.68,2205.13 L2138.88,2208.49 L2138.19,2210.81 L2137.42,2212.63 L2135.89,2215.15 L2134.74,2216.81 L2132.56,2217.73 L2130.61,2218.24 L2128.55,2217.61 L2127,2217.21 L2125.23,2217.21 L2122.8,2217.26 L2121.34,2217.13 L2121.46,2217.2 L2121.79,2217.31 L2122.21,2217.42 L2123.19,2217.35 L2124.34,2217.34 L2125.49,2217.45 L2126.7,2217.61 L2128.15,2218.05 L2129.37,2218.42 L2130.53,2218.77 L2132.1,2219.27 L2132.88,2219.61 L2133.47,2219.77 L2133.22,2220.17 L2132.29,2221.18 L2131.35,2222.42 L2130.22,2223.96 L2129.04,2225.22 L2127.68,2226.68 L2126.57,2228.17 L2126.14,2228.69 L2125.79,2229.48 L2125.58,2230.09 L2125.53,2230.34 L2125.32,2231.08 L2125.43,2232.05 L2125.9,2232.63 L2126.32,2232.49 L2126.41,2232.71 L2126.22,2233.29 L2125.83,2233.66 L2125.08,2234.13 L2124.44,2234.92 L2123.79,2235.88 L2123.14,2236.93 L2122.34,2237.92 L2121.47,2239.17 L2120.77,2240.45 L2119.91,2241.69 L2118.93,2242.42 L2117.82,2242.66 L2116.85,2242.45 L2116.31,2242.4 L2115.92,2242.54 L2115.84,2242.87 L2115.58,2243.41 L2115.37,2244.33 L2114.76,2244.97 L2113.94,2245.5 L2113.39,2245.99 L2112.66,2246.44 L2112.62,2246.7 L2112.95,2246.88 L2113.39,2247.17 L2113.65,2247.68 L2113.69,2248.43 L2113.59,2249.36 L2113.18,2250.53 L2112.84,2251.28 L2111.8,2252.77 L2111.34,2253.51 L2111.2,2254.11 L2111.12,2254.57 L2110.66,2255.16 L2110.22,2255.76 L2109.56,2256.88 L2109.14,2257.76 L2108.83,2259.01 L2108.78,2259.24 L2108.74,2259.31 L2108.85,2259.37 L2108.05,2261.06 L2106.3,2263.82 L2105.17,2266.39 L2104.2,2268.1 L2103.25,2269.92 L2102.61,2271.4 L2101.53,2272.6 L2100.74,2273.96 L2100.04,2275.4 L2099.75,2276.45 L2099.32,2277.83 L2098.8,2279.36 L2098.35,2280.47 L2097.88,2281.92 L2097.4,2283.26 L2097.19,2284.11 L2096.92,2285.23 L2096.43,2286.83 L2096.41,2287.68 L2095.98,2287.81 L2095.24,2287.82 L2094.41,2287.77 L2093.61,2288.02 L2093.15,2288.47 L2093.64,2288.58 L2094.23,2288.58 L2095.01,2288.37 L2095.78,2288.5 L2096.2,2289.59 L2095.68,2292.2 L2094.91,2294.2 L2094,2296.61 L2092.89,2298.99 L2091.42,2301.64 L2091.04,2303.05 L2090.01,2305.9 L2089.33,2307.24 L2088.55,2309.39 L2086.99,2313.15 L2085.74,2316.31 L2084.88,2319.83 L2084.42,2323.1 L2083.98,2325.98 L2083.47,2327.92 L2082.46,2328.52 L2081.52,2328.2 L2082.04,2326.93 L2082.79,2325.38 L2082.31,2323.6 L2081.76,2322.03 L2080.98,2321.42 L2080.31,2321.07 L2079.78,2321.6 L2079.4,2320.99 L2078.85,2320.13 L2078.36,2320.58 L2077.34,2320.38 L2076.33,2320.25 L2076.09,2320.48 L2075.97,2321.13 L2075.75,2321.93 L2075.79,2322.31 L2076.01,2322.45 L2076.45,2321.83 L2076.42,2322.48 L2076,2323.04 L2075.78,2323.93 L2075.73,2324.98 L2076.09,2325.29 L2076.47,2324.51 L2077,2324 L2076.98,2325.19 L2076.93,2326.06 L2076.85,2327.51 L2076.09,2328.88 L2075.22,2329.51 L2074.4,2329.34 L2073.26,2328.69 L2072.43,2328.98 L2072.35,2329.4 L2073.05,2329.63 L2073.8,2329.57 L2074.56,2330.15 L2074.16,2331.52 L2074.22,2332.75 L2074.37,2334.43 L2073.86,2335.71 L2072.5,2336.75 L2071.02,2337.9 L2070.27,2339.1 L2069.23,2340.77 L2068.6,2342.3 L2068.37,2343.01 L2067.79,2343.62 L2067.38,2345.33 L2066.84,2347.18 L2066.1,2349.4 L2065.63,2349.94 L2065.24,2349.21 L2065.27,2348.08 L2064.15,2346.89 L2063.43,2345.8 L2062.5,2344.95 L2061.96,2344.48 L2061.5,2345.4 L2060.97,2346.6 L2060.38,2346.92 L2059.56,2346.19 L2058.21,2346.18 L2057.04,2346.59 L2057.14,2347.19 L2057.88,2347.41 L2057.9,2348.58 L2058.01,2349.63 L2058.16,2350.88 L2057.49,2350.99 L2056.46,2350.99 L2056,2350.17 L2055.32,2350.92 L2054.93,2352.09 L2054.43,2353.76 L2053.79,2353.73 L2053.22,2353.6 L2052.11,2354.21 L2051.48,2354.41 L2050.28,2354.87 L2050.11,2354.12 L2050.31,2352.94 L2049.47,2353.31 L2048.82,2353.07 L2048.14,2352.87 L2047.36,2352.94 L2047.14,2353.18 L2047.39,2353.81 L2047.9,2353.87 L2048.15,2354.57 L2047.77,2355.15 L2047.48,2355.51 L2047.9,2356.23 L2048.39,2356.61 L2048.49,2357.38 L2048.97,2357.62 L2049.42,2358.86 L2049.45,2360.09 L2049.1,2361.86 L2049.36,2363.04 L2049.69,2362.99 L2049.85,2362.48 L2050.08,2361.87 L2050.36,2361.39 L2050.79,2361.67 L2051.01,2362.76 L2050.75,2363.46 L2049.98,2364.67 L2050.18,2365.72 L2050.2,2366.46 L2050.58,2367.68 L2051.06,2369.03 L2051.78,2371.31 L2052.53,2373.09 L2052.89,2375.09 L2051.75,2375.85 L2050.18,2376.37 L2048.78,2376.44 L2047.23,2376.16 L2045.92,2375.94 L2044.57,2375.4 L2043.55,2374.7 L2042.55,2374.21 L2041.75,2373.8 L2040.15,2374.01 L2039.27,2374.05 L2037.85,2374.69 L2036.31,2374.67 L2035.18,2374.53 L2034.67,2373.69 L2034.34,2372.8 L2034,2373.03 L2033.81,2373.88 L2033.5,2373.61 L2033.38,2372.8 L2032.58,2373.29 L2031.71,2372.62 L2031.81,2370.93 L2032.29,2369.47 L2032.87,2369.13 L2033.4,2369.11 L2033.68,2369.9 L2033.97,2369.52 L2034.15,2368.81 L2034.11,2368.36 L2034.53,2368.75 L2034.93,2368.72 L2035.04,2368.19 L2034.9,2367.71 L2034.16,2367.52 L2033.75,2366.79 L2032.98,2366.99 L2031.82,2367.4 L2031.98,2366.84 L2032.92,2366.05 L2033.68,2365.53 L2034.04,2364.75 L2033.48,2363.45 L2033.57,2361.99 L2033.97,2361.09 L2034.17,2359.96 L2035.06,2359.2 L2035.92,2358.41 L2036.31,2358.12 L2036.84,2358.46 L2037.63,2358.17 L2037.65,2357.26 L2036.36,2356.85 L2035.36,2356.86 L2034.32,2356.74 L2033.66,2356.06 L2033.32,2355.47 L2032.85,2355.24 L2032.62,2355.74 L2033.34,2356.85 L2033.69,2357.78 L2032.89,2358.15 L2031.39,2358.46 L2030.12,2358.9 L2029.57,2358.6 L2028.91,2358.55 L2027.87,2359.46 L2026.53,2360.76 L2025.35,2361.98 L2024.74,2362.41 L2024.07,2362.27 L2023.41,2362.59 L2023.25,2361.91 L2023.24,2361.14 L2021.92,2361.81 L2020.82,2361.67 L2019.4,2360.62 L2018.11,2359.9 L2017.23,2358.53 L2016.83,2358.63 L2016.47,2359.55 L2016.8,2360.74 L2017.18,2361.78 L2018.42,2362.33 L2018.93,2363.6 L2019.36,2364.49 L2020.8,2365.03 L2022.35,2365.2 L2022.54,2366.19 L2021.25,2366.3 L2020.22,2365.67 L2019.95,2366.29 L2019.31,2366.77 L2019.23,2367.99 L2018.37,2368.74 L2018,2368.42 L2017.91,2367.27 L2017.75,2366.34 L2017.21,2366.43 L2017.19,2367.1 L2017,2367.59 L2016.41,2367.62 L2016.38,2368.37 L2016.13,2368.65 L2015.75,2368.68 L2015.73,2369.11 L2015.34,2369.83 L2015.02,2369.48 L2014.45,2368.89 L2013.5,2368.94 L2013.19,2369.59 L2013.69,2370.24 L2014.24,2370.63 L2013.97,2371.01 L2013.33,2371.35 L2012.77,2372.05 L2012.25,2373.14 L2012.69,2373.03 L2013.52,2372.74 L2014.23,2373.01 L2013.76,2373.48 L2012.78,2373.68 L2011.23,2373.9 L2010.37,2375.27 L2009.86,2376.4 L2009.54,2377.63 L2009.88,2378.07 L2010.29,2378.31 L2010.68,2377.79 L2011.57,2378.14 L2011.35,2379.52 L2010.6,2380.22 L2010.18,2379.37 L2009.46,2379.84 L2009.99,2380.73 L2010.53,2381.38 L2010.97,2381.99 L2011.97,2381.35 L2012.46,2381.34 L2011.83,2382.41 L2011.33,2383.81 L2010.45,2383.06 L2009.16,2383.12 L2008.15,2382.29 L2007.47,2381.37 L2006.93,2380.86 L2005.92,2381.27 L2005.52,2381.15 L2005.26,2379.73 L2004.6,2379.05 L2003.39,2378.34 L1985.57,2366.01 L1963.59,2351.07 L1962.99,2350.8 L1916.72,2318.53 L1908.94,2313.32 L1836.75,2264.35 L1836.83,2264.35 L1836.73,2264.24 L1836.66,2264.24 L1836.39,2264.01 L1835.94,2263.6 L1835.5,2263.34 L1835.11,2262.93 L1835.11,2262.93 L1831.92,2260.73 L1798.06,2236.77 L1735.59,2192.46 L1689.28,2160.33 L1682.61,2143.3 L1681.64,2139.81 L1678.85,2131.89 L1678.47,2130.17 L1668.22,2126.86 L1661.85,2122.06 L1658.96,2123.58 L1655.13,2125.3 L1651.25,2126.95 L1648.36,2126.17 L1648.01,2123.29 L1649.74,2121.31 L1652.96,2117.82 L1651.95,2112.71 L1650.51,2112.63 L1643.65,2112.08 L1643.74,2107.56 L1656.19,2094.44 L1660.17,2089.57 L1665.6,2087.56 L1665.82,2081.85 L1671.88,2078.06 L1670.11,2067.29 L1668.48,2057.75 L1667.24,2049.94 L1666.98,2049.96 L1665.58,2042.68 L1663.73,2030.7 L1662.54,2023.58 L1648.9,2013.72 L1641.25,2008.52 L1634.52,2003.65 L1629.61,2000.73 L1624.29,1998.02 L1618.71,1994.96 L1617.08,1994.2 L1615.15,1993.16 L1607.62,1989.09 L1580.85,1974.56 L1571.17,1969.42 L1516.52,1939.55 L1508.91,1935.43 L1487.68,1923.51 L1480.47,1919.54 L1455.89,1905.86 L1442.78,1898.67 L1390.33,1869.47 L1373.59,1860.43 L1334.15,1838.55 L1284.78,1811.95 L1284.48,1808.6 L1275.83,1803.83 L1178.48,1748.45 L1167.7,1742.34 L1101.15,1704.01 L1091.22,1698.85 L1064.68,1683.61 L1062.8,1682.64 L1035.72,1667.41 L1027.06,1662.66 L1011.99,1653.76 L999.259,1646.61 L999.11,1645.95 L993.925,1642.96 L993.129,1642.55 L980.525,1635.35 L979.22,1634.63 L969.45,1629.19 L968.753,1628.75 L966.811,1627.66 L966.037,1627.16 L963.374,1625.74 L961.866,1624.8 L951.451,1618.93 L950.698,1618.52 L938.19,1611.41 L936.841,1610.63 L920.256,1601.18 L918.222,1600.07 L894.103,1586.63 L893.433,1586.23 L879.272,1578.37 L878.346,1577.76 L874.201,1575.36 L856.557,1565.7 L853.787,1564.18 L853.541,1564.43 L852.935,1565.04 L852.025,1565.34 L850.54,1565.36 L850.376,1565.92 L850.454,1566.81 L849.675,1567.62 L848.482,1568.48 L847.212,1569.2 L845.571,1569.34 L843.837,1568.41 L843.005,1566.77 L842.574,1565.08 L842.595,1563.27 L842.329,1561.73 L841.226,1560.19 L840.078,1559.18 L820.906,1559.24 L819.392,1502.17 L819.371,1501.55 L819.371,1500.89 L819.371,1500.5 L819.288,1499.32 L819.025,1497.38 L818.933,1493.37 L818.645,1484.24 L818.164,1474.62 L818.043,1467.08 L817.726,1461.18 L818.405,1457.64 L818.8,1450.19 L819.331,1440.95 L820.191,1435.42 L821.596,1427.59 L822.899,1420 L824.501,1410.38 L823.96,1410.38 L831.921,1362.5 L824.962,1339.58 L825.222,1339.58 L818.913,1318.98 L818.605,1317.63 L817.884,1315.6 L816.981,1313.38 L816.501,1311.89 L816.048,1310.09 L816.134,1309.48 L816.866,1308.3 L817.967,1307.14 L818.969,1305.73 L819.591,1304.47 L820.455,1303.44 L821.194,1302.64 L822.418,1300.86 L823.793,1298.95 L825.575,1296.48 L826.128,1295.41 L826.629,1294.87 L827.103,1294.34 L827.728,1293.58 L828.712,1292.04 L829.869,1290.65 L831.015,1288.9 L833.199,1286.16 L834.177,1284.77 L834.698,1284.12 L835.501,1282.99 L836.291,1282.1 L837.532,1280.12 L838.424,1279.06 L838.947,1277.91 L839.833,1276.69 L840.134,1276.28 L840.788,1275.74 L840.738,1274.83 L840.875,1274.37 L841.508,1273.58 L841.286,1273.01 L841.709,1272.58 L842.345,1272.48 L843.171,1272.43 L843.996,1272.3 L844.639,1271.58 L845.248,1270.78 L844.971,1270.17 L845.032,1269.6 L844.934,1269.13 L845.109,1268.76 L845.43,1268.51 L845.129,1268.15 L844.83,1267.78 L845.133,1267.23 L845.655,1267.8 L846.423,1267.38 L846.888,1266.59 L846.92,1265.49 L847.185,1264.74 L847.942,1263.94 L848.798,1263.68 L849.711,1263.02 L849.148,1262.06 L848.668,1261.2 L848.436,1260.5 L849.578,1260.03 L850.594,1260.07 L851.292,1260.15 L852.068,1260.19 L852.301,1259.6 L852.822,1259.18 L853.533,1258.9 L854.173,1258.4 L854.122,1257.81 L854.643,1257.56 L855.371,1256.94 L855.713,1256.58 L856.072,1256.55 L856.337,1255.79 L857.265,1255.23 L858.038,1254.48 L858.202,1253.21 L858.714,1252.03 L858.899,1251.71 L859.186,1251.27 L860.013,1250.35 L860.303,1249.06 L860.157,1247.49 L859.883,1246.21 L859.442,1244.91 L859.13,1243.74 L858.813,1242.96 L858.526,1242.04 L858.3,1240.61 L857.939,1239.75 L857.233,1239.2 L856.483,1238.42 L856.155,1237.35 L856,1235.97 L856.191,1234.38 L856.378,1233.71 L856.317,1232.63 L855.996,1231.23 L855.888,1230.11 L856.741,1229.25 L857.58,1228.82 L857.861,1228.61 L858.759,1227.88 L858.903,1227.58 L859.366,1227.25 L860.013,1226.51 L861.445,1225.59 L862.505,1224.72 L862.332,1224.35 L862.269,1223.47 L862.449,1222.1 L862.243,1220.47 L862.015,1218.92 L862.483,1217.83 L863.221,1216.83 L862.79,1216.09 L862.15,1215.78 L861.932,1214.93 L862.465,1213.91 L863.161,1212.82 L863.755,1211.73 L863.932,1209.73 L864.323,1208.49 L864.469,1206.89 L864.848,1205.21 L865.698,1202.87 L866.318,1201.16 L866.988,1201.41 L867.797,1201.98 L868.224,1201.65 L869.015,1201.32 L869.588,1201.21 L870.343,1200.77 L870.961,1199.88 L872.149,1198.9 L872.943,1198.38 L873.709,1197.79 L874.452,1197.26 L875.019,1196.95 L875.398,1196.5 L876.136,1196.28 L876.74,1196.68 L877.504,1196.75 L877.578,1196.01 L877.384,1195.24 L877.967,1195.09 L878.407,1194.85 L878.993,1194.72 L878.753,1194.37 L878.765,1193.68 L879.165,1193.23 L879.481,1193.82 L879.857,1193.39 L879.706,1192.85 L880.252,1192.3 L880.989,1192.26 L881.557,1192.77 L881.915,1192.64 L882.264,1191.92 L883.137,1192.39 L884.101,1192.83 L884.654,1192.37 L884.85,1191.77 L885.44,1191.21 L886.072,1191.25 L886.865,1191.64 L887.562,1192.11 L887.957,1191.79 L888.532,1191.91 L889.123,1191.83 L889.667,1191.34 L890.016,1190.65 L890.512,1190.67 L891.464,1190.94 L892.024,1191.42 L892.494,1191.21 L893.357,1190.7 L894.035,1190.1 L895.098,1189.49 L896.06,1189.3 L896.523,1189.29 L896.707,1188.94 L897.257,1189.21 L897.808,1188.63 L898.424,1187.88 L898.497,1186.85 L898.365,1186.05 L897.792,1185.45 L898.522,1185.06 L898.21,1184.17 L898.803,1183.33 L898.543,1182.95 L898.192,1182.11 L898.215,1180.95 L898.226,1180.03 L898.934,1179.92 L899.392,1179.24 L900.004,1179.58 L900.702,1179.53 L901.125,1179.16 L901.738,1178.89 L902.315,1178.62 L901.974,1178.14 L902.632,1177.99 L902.997,1177.42 L903.587,1177.23 L903.985,1177.28 L904.223,1176.87 L904.277,1176.41 L904.738,1176.73 L905.187,1176.59 L905.598,1176.56 L905.94,1176.5 L905.846,1176.05 L906.284,1176.02 L906.053,1175.2 L905.899,1174.6 L905.069,1174.26 L905.185,1173.92 L905.295,1173.18 L905.338,1172.48 L905.088,1172.29 L904.635,1171.35 L904.882,1170.36 L904.794,1170.08 L905.073,1169.43 L904.85,1168.82 L904.877,1167.9 L905.288,1166.95 L905.189,1166.34 L905.446,1165.22 L905.861,1163.97 L906.097,1163.06 L906.689,1162.63 L906.383,1162.42 L906.704,1161.82 L906.843,1161.13 L907.253,1161.04 L907.609,1160.82 L907.846,1160.37 L908.434,1160.67 L908.805,1160.57 L908.58,1160.29 L909.043,1160.33 L910.218,1160.16 L911.531,1160.14 L912.276,1159.43 L913.299,1159.36 L913.946,1158.76 L914.75,1158.47 L914.811,1158.99 L915.762,1158.82 L916.047,1158.29 L916.796,1157.66 L917.932,1158.27 L918.029,1158.38 L918.043,1158.35 L918.737,1157.84 L919.355,1157.59 L919.746,1157.38 L920.08,1156.86 L920.174,1156.09 L920.584,1155.31 L920.887,1154.8 L921.222,1154.42 L921.498,1154.44 L921.732,1154.84 L921.894,1155.2 L922.006,1155.49 L922.296,1155.42 L922.449,1155.22 L922.485,1154.58 L922.563,1154.32 L922.568,1153.62 L922.739,1153.24 L923.157,1152.96 L923.619,1152.73 L923.995,1152.88 L924.397,1152.86 L924.75,1152.84 L925.228,1153.14 L925.554,1153.35 L925.882,1153.02 L926.428,1152.56 L926.986,1152.31 L927.838,1151.97 L929.082,1151.28 L928.981,1150.86 L928.828,1150.38 L928.938,1149.65 L929.028,1149.41 L928.779,1148.91 L928.312,1148.45 L927.945,1148.01 L927.929,1147.33 L928.747,1146.68 L929.185,1146.35 L929.361,1145.85 L929.25,1145.05 L929.552,1144.41 L930.352,1143.71 L930.911,1142.84 L931.34,1142.01 L932.745,1141.54 L933.493,1141.48 L934.711,1141.23 L935.574,1140.88 L936.481,1139.87 L936.843,1139.02 L936.922,1137.98 L936.816,1137.11 L936.771,1136.2 L937.037,1135.51 L937.486,1134.64 L937.67,1134.01 L937.751,1133.39 L937.677,1132.63 L937.648,1131.79 L937.758,1131.25 L938.155,1131.07 L938.778,1130.81 L939.236,1130.42 L939.697,1129.91 L940.488,1128.87 L941.443,1127.87 L941.977,1127.04 L942.569,1126 L943.004,1124.93 L943.556,1123.38 L943.973,1121.86 L944.185,1120.38 L944.885,1118.11 L945.409,1116.47 L945.708,1114.96 L946.13,1112.84 L946.036,1111.56 L945.845,1110.1 L945.874,1109.02 L945.874,1107.76 L946.211,1106.42 L946.431,1104.78 L946.748,1102.47 L946.957,1100.54 L947.307,1098 L947.817,1096.04 L948.467,1094.12 L949.544,1092.4 L950.583,1091.18 L951.599,1090.05 L952.191,1088.62 L952.53,1087.59 L952.981,1086.49 L953.624,1085.42 L954.125,1084.95 L954.412,1084.29 L954.249,1084.94 L957.377,1082.47 L961.596,1079.88 L966.437,1076.28 L967.661,1074.23 L968.852,1074 L970.214,1073.78 L971.236,1073.62 L972.403,1073.26 L973.391,1072.99 L974.346,1072.73 L975.445,1072.27 L975.923,1071.67 L976.932,1070.85 L977.638,1070.31 L978.64,1069.96 L979.882,1069.83 L981.04,1069.74 L982.278,1068.68 L983.48,1068.05 L984.545,1067.04 L985.172,1066.29 L986.037,1065.4 L986.772,1064.58 L987.213,1063.56 L987.532,1062.71 L988.208,1061.93 L989.322,1061.56 L991.021,1061.23 L992.924,1061.03 L994.543,1060.84 L996.127,1060.49 L997.909,1060.25 L999.598,1060.06 L1001.17,1059.98 L1002.35,1059.76 L1003.59,1059.66 L1005.06,1059.38 L1006.27,1059.15 L1007.65,1059.15 L1008.79,1059.12 L1010.14,1059.04 L1011.65,1058.74 L1013.04,1058.45 L1014.18,1058.59 L1015.08,1058.55 L1016.27,1057.65 L1017.44,1056.42 L1018.2,1055.18 L1018.71,1053.86 L1019.27,1052.91 L1020.14,1051.72 L1020.67,1050.19 L1020.98,1048.63 L1020.95,1048.52 L1020.92,1048.34 L1020.86,1048.35 L1021.4,1047.86 L1021.99,1047.38 L1022.59,1046.92 L1023.27,1046.47 L1023.05,1044.69 L1022.95,1043.42 L1022.83,1041.8 L1022.74,1040.62 L1023.19,1038.52 L1023.15,1037.9 L1022.77,1037.25 L1022.1,1035.93 L1020.65,1034.19 L1018.99,1032.15 L1017.35,1030.17 L1015.75,1027.82 L1014.46,1025.7 L1014.82,1024.99 L1016.08,1023.95 L1017.23,1022.81 L1016.88,1021.74 L1016.02,1020.08 L1014.95,1018.64 L1014.32,1016.47 L1013.59,1014.52 L1013.81,1013.44 L1014.74,1011.92 L1016.25,1011 L1017.46,1010.45 L1019.55,1008.96 L1021.28,1007.92 L1023.3,1006.85 L1024.34,1006.02 L1025.13,1005.27 L1026.7,1005.73 L1027.75,1006.07 L1028.79,1005.97 L1029.25,1005.42 L1029.68,1004.63 L1029.91,1003.79 L1029.92,1002.56 L1029.51,1000.92 L1029.71,998.772 L1029.8,996.348 L1029.68,994.039 L1030.14,989.242 L1031.45,988.638 L1032.17,987.948 L1033.26,987.709 L1034.1,986.885 L1034.79,984.371 L1035.55,982.387 L1038.4,982.467 L1038.8,982.583 L1040.94,980.626 L1042.28,980.306 L1044.38,979.502 L1046.8,978.437 L1048.34,977.398 L1049.19,975.564 L1050.47,973.237 L1051.15,971.925 L1051.81,969.707 L1052.78,967.719 L1053.76,966.139 L1055.66,962.912 L1056.71,960.416 L1057.99,958.156 L1058.45,956.383 L1059.01,949.416 L1059.3,946.037 L1059.68,940.94 L1061.42,920.567 L1061.61,918.263 L1063.18,913.193 L1063.67,911.788 L1064.17,910.34 L1064.74,908.77 L1065.15,906.84 L1065.59,905.435 L1066.32,903.899 L1066.69,902.043 L1067.2,899.868 L1065.86,897.889 L1064.89,896.593 L1064.31,895.384 L1062.59,894.581 L1061.21,892.812 L1060.45,892.031 L1059.54,890.317 L1058.51,888.741 L1057.69,887.462 L1057.31,885.359 L1057.31,883.885 L1056.47,881.769 L1055.15,879.305 L1053.99,876.628 L1052.04,873.435 L1052.87,872.615 L1054.1,870.884 L1055.78,869.388 L1057.42,867.568 L1058.53,865.804 L1058.22,865.033 L1057.23,862.803 L1056.32,860.439 L1055.17,857.646 L1053.49,854.059 L1052.22,851.152 L1051.78,848.99 L1050.98,846.719 L1050.63,844.351 L1049.84,840.573 L1049.3,838.577 L1048.93,835.826 L1048.43,832.862 L1047.79,829.346 L1047.5,826.719 L1047.42,826.276 L1047.19,824.993 L1046.8,822.943 L1046.74,821.882 L1046.76,821.819 L1046.44,820.679 L1046.22,818.393 L1045.86,816.275 L1045.53,813.468 L1044.76,810.523 L1044.41,808.281 L1044.37,806.674 L1043.65,804.3 L1043.34,802.205 L1043.06,799.963 L1042.9,797.762 L1042.59,795.407 L1041.58,792.481 L1041.56,790.817 L1041.99,789.652 L1041.94,788.548 L1042.15,787.927 L1042.02,787.374 L1042.13,786.634 L1043.21,786.565 L1044,785.572 L1044.47,785.538 L1045.04,785.555 L1045.35,784.581 L1045.46,783.14 L1046.43,783.095 L1046.56,781.959 L1047.26,781.026 L1048.52,779.916 L1048.43,780.099 L1050.95,778.796 L1051.24,778.36 L1053.48,776.628 L1050.93,770.547 L1048.18,764.695 L1044.04,763.636 L1043.26,758.403 L1043.04,754.932 L1042.14,751.214 L1040.54,746.675 L1037.99,748.29 L1037.03,749.729 L1034.37,751.879 L1027.78,745.477 L1026.24,743.575 L1025.78,741.292 L1024.95,739.427 L1022.43,735.975 L1019.32,733.256 L1018.81,731.168 L1017.55,728.901 L1016.84,726.62 L1013.25,722.922 L1012.48,720.848 L1013.81,716.561 L1015.27,711.465 L1015.4,707.913 L1014.24,701.492 L1013.11,697.749 L1011.54,694.386 L1010.85,694.204 L1008.91,693.766 L1007.31,692.361 L1006.03,689.964 L1004.08,686.156 L1002.1,684.948 L998.3,682.311 L995.823,684.63 L993.542,684.925 L989.496,684.141 L987.554,683.508 L986.237,681.998 L983.99,674.85 L980.739,673.853 L973.8,669.986 L972.888,664.987 L973.148,658.863 L976.683,647.613 L977.018,639.469 L973.881,637.113 L970.142,630.037 L963.976,627.569 L959.408,628.846 L957.941,625.221 L955.842,623.018 L950.745,619.591 L950.932,610.535 L950.276,600.462 L948.069,592.955 L945.134,583.24 L938.093,576.305 L938.664,572.12 L939.239,568.414 L943.452,565.443 L943.796,559.787 L940.903,555.401 L935.803,550.548 L946.674,549.693 L947.856,548.193 L949.663,545.113 L950.683,542.105 L951.757,538.969 L951.844,536.235 L951.404,532.725 L952.181,524.396 L953.323,517.866 L953.725,509.62 L949.002,507.689 L941.861,504.6 L938.711,500.118 L934.379,495.022 L922.662,497.592 L921.772,501.369 L919.779,506.258 L918.939,502.48 L917.378,499.901 L913.553,496.336 L910.695,491.73 L908.219,487.133 L903.731,485.509 L901.412,485.893 L896.298,487.676 L890.678,489.384 L888.615,486.261 L892.415,485.25 L894.653,485.032 L891.571,481.6 L886.47,480.882 L890.179,475.747 L892.815,475.188 L896.826,473.909 L902.239,473.923 L901.895,471.984 L900.25,466.914 L898.891,463.006 L894.927,463.754 L890.447,464.631 L886.876,466.425 L882.739,466.248 L879.304,465.947 L873.152,467.237 L874.086,461.401 L879.187,459.371 L880.955,452.063 L882.714,445.287 L879.178,443.206 L874.576,441.267 L870.448,436.541 L867.1,434.425 L866.058,432.781 L867.211,430.785 L871.143,429.621 L873.49,427.009 L873.864,423.399 L872.125,419.367 L868.166,416.588 L866.439,414.369 L865.339,410.245 L865.918,407.953 L867.379,404.488 L867.251,401.853 L865.599,398.702 L862.606,396.362 L858.966,393.123 L851.632,386.117 L856.148,382.271 L868.403,372.842 L889.618,352.767 L922.964,321.456 L925.514,318.835 L930.891,312.877 L934.187,308.843 L940.798,302.081 L947.665,295.537 L958.529,283.688 L965.401,277.172 L973.578,271.917 L979.375,263.274 L987.114,255.822 L990.201,253.097 L1013.44,230.736 L1031.44,215.331 L1046.31,201.49 L1056.42,192.104 L1070.36,180.353 L1078.32,172.068 L1085.93,164.782 L1096.74,155.423 L1105.05,147.409 L1111.14,136.211 L1121.31,120.831 L1133.68,103.835 L1165.1,102.937 L1183.36,101.988 L1190.76,102.227 L1196.56,101.632 L1202.45,105.513 L1209.99,108.842 L1215.42,109.66 L1221.06,109.61 L1228.7,110.301 L1234.79,113.872 L1239.19,116.826 L1245.68,118.353 L1249.06,119.892 L1253.46,123.041 L1258.21,126.099 L1260.3,130.758 L1257.28,139.422 L1256.06,146.758 L1256.61,152.058 L1259.35,155.977 L1260.21,160.24 L1258.13,174.356 L1255.32,188.564 L1252.57,199.931 L1250.73,213.697 L1249,222.575 L1249.82,232.128 L1249.72,241.827 L1249.59,246.547 L1250.77,254.197 L1264.61,272.599 L1269.96,279.492 L1276.1,286.072 L1278.4,288.995 L1277.1,294.457 L1275.74,298.796 L1278.11,300.544 L1280.31,301.477 L1281.66,302.983 L1280.69,305.961 L1277.05,307.529 L1282.14,312.407 L1285.31,314.438 L1285.67,314.661 L1286.09,315.032 L1292.82,319.744 L1298.27,324.848 L1298.23,329.257 L1311.56,331.493 L1311.21,332.354 L1323.04,331.5 L1345.35,330.489 L1363.58,330.452 L1385.33,329.926 L1404.41,333.249 L1427.2,333.173 L1446.89,335.915 L1452.62,334.652 L1464.02,333.682 L1479.99,335.522 L1493.35,341.154 L1518.13,348.931 L1538.95,361.198 L1559.38,374.928 L1583.67,394.277 L1606.23,408.166 L1627.11,421.934 L1634.65,427.635 L1653.61,441.232 L1696.6,466.352 L1711.83,475.516 L1731.23,486.563 L1747.87,496.992 L1759.53,513.789 L1770.59,519.773 L1778.55,521.939 L1797.98,522.883 L1817.66,523.566 L1843.19,522.266 L1848.48,520.659 L1858.64,517.14 L1867.48,519.289 L1877.45,523.485 L1882.89,524.049 L1890.12,518.626 L1894.06,521.598 L1901.29,528.437 L1909.13,537.073 L1921.19,537.813 L1939.3,543.139 L1958.98,542.691 L1964.65,542.164 L1970.9,541.989 L1983.37,540.603 L1994.43,545.346 L2013.06,551.955 L2030.61,554.14 L2034.52,560.729 L2035.1,572.083 L2036.32,572.164 L2039.57,572.355 L2044,572.819 L2047.51,573.434 L2050.33,573.802 L2053.11,574.74 L2054.8,574.887 L2056.84,573.969 L2058.32,573.694 L2060.48,573.337 L2062.49,572.821 L2062.81,577.36 L2063.54,580.721 L2064.05,582.734 L2065.05,583.862 L2065.74,585.666 L2068.27,586.822 L2070.81,586.778 L2074.1,587.097 L2074.97,583.516 L2077.27,577.47 L2078.99,572.114 L2080.73,568.785 L2081.96,566.594 L2084.29,565.381 L2088.84,560.991 L2098.28,551.325 L2105.84,543.557 L2111.86,537.226 L2115.58,531.904 L2119.3,527.546 L2121.07,526.346 L2123.24,524.361 L2126.93,520.724 L2129.41,517.418 L2139.49,508.2 L2158.88,466.328 L2189.24,450.643 L2225.69,431.406 L2229.61,429.872 L2241.87,424.677 L2249,421.735 L2283.01,408.037 L2341.58,383.547 L2345.91,381.576 L2349.27,380.902 L2351.77,379.326 L2353.91,377.438 L2357.06,375.008 L2359.05,375.109 L2362.22,376.284 L2364.79,378.419 L2368.44,380.094 L2370.88,381.542 L2373.05,381.615 L2375.77,382.265 L2376.85,384.504 L2378.43,385.94 L2380.44,387.877 L2382.84,388.691 L2383.44,390.316 L2384.11,391.713 L2384.56,393.23 L2385.81,395.703 L2387.2,397.284 L2387.64,398.281 L2388.06,401.491 L2390.82,403.32 L2393.61,404.733 L2396.65,405.589 L2399.63,407.136 L2402.19,409.279 L2404.16,411.899 L2406.35,413.396 L2409.43,413.933 L2410.72,415.313 L2412.55,418.141 L2415.07,419.946 L2418.24,422.525 L2420.91,425.404 L2423.88,428.787 L2425.61,431.748 L2427.49,433.691 L2430.22,435.376 L2432.23,436.681 L2431.91,438.169 L2431.3,439.095 L2431.62,441.233 L2432.97,441.396 L2434.68,441.751 L2436.13,442.115 L2436.7,443.174 L2437.31,444.776 L2438.53,446.243 L2439.92,446.671 L2442.53,448.241 L2444.24,449.26 L2445.28,449.789 L2446.61,450.014 L2447.99,451.629 L2450.59,452.617 L2452.47,452.37 L2454.02,451.341 L2455.82,449.387 L2459.38,448.533 L2462.81,448.438 L2465.13,448.327 L2466.97,448.359 L2469.15,449.033 L2471.35,449.751 L2473.92,449.933 L2477.27,450.784 L2480.45,451.259 L2482.91,451.33 L2484.72,449.553 L2486.63,448.587 L2488.89,448.739 L2490.92,449.17 L2492.98,448.243 L2494.56,447.437 L2496.59,447.417 L2499.05,449.136 L2501.43,450.276 L2503.45,449.764 L2505.06,449.35 L2506.74,448.45 L2509.78,448.022 L2512.99,447.617 L2515.03,447.666 L2516.64,447.015 L2517.93,447.294 L2520.03,448.09 L2521.94,449.032 L2523.38,447.101 L2524.19,445.485 L2525.5,444.111 L2527.62,443.043 L2529.99,442.352 L2531.23,443.785 L2533.62,445.442 L2535.06,445.167 L2536.65,445.079 L2538.39,444.955 L2540.63,444.61 L2543.34,444.066 L2545.67,442.926 L2547.8,442.342 L2549.87,443.499 L2551.56,445.732 L2553.36,446.286 L2556.62,446.728 L2558.42,445.852 L2559.57,444.08 L2562.02,442.882 L2564.11,441.792 L2567.4,441.08 L2571.28,441.75 L2573.27,443.204 L2574.52,444.068 L2575.15,444.432 L2576.76,444.218 L2577.78,444.062 L2579.92,443.533 L2581.92,443.283 L2582.96,443.694 L2583.82,444.792 L2584.52,446.14 L2584.67,447.759 L2585.56,448.497 L2587.38,449.11 L2588.9,449.705 L2591.41,450.551 L2594.34,451.088 L2595.74,450.061 L2598.3,448.336 L2600.3,447.677 L2602.96,445.98 L2604.69,444.687 L2607.08,444.044 L2609.49,444.173 L2600.63,456.999 L2598.48,460.094 L2572.18,496.881 L2550.62,527.655 L2514.94,577.876 L2511.03,583.396 L2495.43,606.39 L2476.21,631.671 L2448.6,658.945 L2406.26,700.059 L2406.09,705.262 L2406,707.798 L2406.47,719.569 L2406.14,726.583 L2406.48,807.44 L2406.33,832.742 L2404.45,843.629 L2406.62,884.389 L2407.82,906.631 L2408.82,925.179 L2408.37,1038.21 L2406.9,1138.28 L2407.99,1182.76 L2406.76,1217.97 L2406.74,1232.81 L2409.06,1242.4 L2408.18,1255.3 L2407.55,1268.99 L2407.95,1280.5 L2409.02,1372.21 L2408.97,1398.9 L2409.48,1495.19 L2409.75,1509.82 L2410.25,1518.64 L2417.99,1529.36 L2435.16,1553.36 L2450.15,1572.44 L2460.67,1586.63 L2471.17,1598.8 L2491.36,1625.77 L2520.25,1666.49 L2539.01,1689.69 L2538.54,1703.57 L2530.24,1704.26 L2524.41,1704.81 L2524.16,1705.1 L2518.83,1711.44 L2514.52,1716.95 L2511.91,1721.01 L2509.44,1724.12 L2505.49,1728.69 L2501,1732.57 L2498.02,1735.4 L2497.17,1738.39 L2493.94,1741.6 L2491.55,1744.72 L2490.03,1746.65 L2488.18,1746.52 L2487.48,1747.73 L2488.15,1748.64 L2489.18,1748.64 L2490.26,1748.33 L2489.1,1750.3 L2487,1752.26 L2485.07,1754.25 L2483.74,1755.65 L2481.91,1758.25 L2479.46,1760.32 L2477.66,1762.79 L2476.08,1765.13 L2474.42,1767.52 L2473.43,1768.21 L2472.32,1768.58 L2471.6,1769.14 L2470.42,1770.51 L2469.37,1771.79 L2467.87,1773.19 L2466.41,1774.4 L2466.84,1772.32 L2467.58,1770.35 L2467.98,1767.89 L2467.01,1766.48 L2465.92,1765.03 L2464.86,1764.71 L2463.92,1764.36 L2463.38,1763.61 L2462.52,1764.68 L2461.45,1764.59 L2460.6,1764.94 L2460.71,1766.03 L2460.54,1766.8 L2460.24,1767.56 L2459.24,1768.23 L2458.05,1768.03 L2457.86,1766.64 L2458.2,1765.38 L2459.65,1764 L2460.32,1763.39 L2460.54,1762.08 L2460.43,1760.84 L2460.6,1759.71 L2460.47,1758.57 L2459.59,1758.62 L2459.3,1759.91 L2458.88,1760.76 L2458.18,1760.98 L2458.05,1759.75 L2457.5,1759.22 L2457.34,1758.4 L2457.26,1757.65 L2456.57,1757.16 L2455.7,1757.17 L2454.63,1758.06 L2453.54,1758.87 L2453.29,1758.17 L2453.72,1757.42 L2453.77,1756.21 L2454.28,1754.91 L2454.54,1754.04 L2452.47,1755.02 L2451.19,1756.01 L2450.15,1756.58 L2449.06,1757.62 L2448.37,1758.39 L2447.38,1759.26 L2446.53,1760.47 L2445.17,1761.12 L2444.21,1761.78 L2443.34,1763.08 L2442.13,1763.34 L2440.79,1763.72 L2440.4,1764.63 L2440.63,1765.69 L2439.95,1766.62 L2438.68,1767.71 L2437.54,1768.91 L2437.57,1767.61 L2436.86,1768.02 L2436.26,1768.99 L2435.44,1770 L2434.71,1771.18 L2433.64,1772.09 L2432.45,1772.95 L2431.09,1773.11 L2431.06,1771.81 L2430.4,1770.82 L2431.48,1769.98 L2428.74,1771.33 L2426.3,1772.11 L2425.05,1772.62 L2423.35,1773.59 L2421,1774.98 L2418.99,1776.27 L2418.11,1777.6 L2419.03,1778.76 L2418.59,1780.06 L2417.72,1781.46 L2418.66,1782.85 L2417.78,1782.88 L2416.68,1782.64 L2415.68,1782.38 L2414.32,1783.49 L2414.08,1784.71 L2412.75,1786.4 L2412.27,1787.65 L2411.31,1789.05 L2410.12,1790.02 L2409.57,1789.35 L2409.1,1789.99 L2408.18,1791 L2406.1,1790.94 L2406.12,1789.82 L2406.1,1788.4 L2405.78,1787.26 L2404.93,1787.93 L2403.86,1788.42 L2402.48,1788.97 L2401.96,1788.1 L2401.97,1786.52 L2401.18,1785 L2400.31,1783.81 L2401.51,1782.76 L2401.69,1781.07 L2401.15,1780.3 L2400.21,1779.81 L2400.66,1778.59 L2401.76,1775.85 L2401.55,1773.34 L2401.46,1770.79 L2401.16,1768.74 L2402.17,1766.82 L2403.66,1764.62 L2404.76,1762.89 L2406.22,1761.86 L2407.27,1761.49 L2407.04,1760.27 L2407.62,1759.03 L2408.85,1758.43 L2409.84,1759.48 L2409.94,1758.37 L2411.74,1757.45 L2413.4,1754.96 L2415.35,1753.33 L2415.09,1750.85 L2413.77,1748.93 L2412.22,1749.9 L2411.59,1751.74 L2410.24,1753.17 L2408.33,1754.86 L2406.77,1755.55 L2405.98,1756.11 L2405.15,1754.87 L2404.33,1756.76 L2403.58,1759.07 L2402.04,1759.87 L2400.53,1758.99 L2401.29,1760.69 L2401.67,1761.46 L2401.21,1762.34 L2400.07,1763.24 L2398.61,1764.22 L2397.8,1766.04 L2397.18,1767.83 L2396.96,1769.52 L2397.87,1770.4 L2398.51,1771.81 L2397.72,1773.16 L2397.13,1774.29 L2397.45,1776.34 L2396.81,1777.79 L2395.5,1779.24 L2394.88,1779.84 L2394.2,1782.53 L2393.78,1783.98 L2393.27,1785.22 L2393.38,1786.5 L2394.29,1787.7 L2394.79,1789.83 L2395.28,1792.59 L2395.88,1794.81 L2394.82,1795.89 L2394,1795 L2393.65,1796.67 L2392.9,1797.72 L2390.93,1797.94 L2390.92,1794.76 L2390.62,1792.13 L2389.9,1790.31 L2388.41,1788.89 L2386.76,1787.44 L2386.94,1786.64 L2389.51,1784.06 L2390.1,1782.35 L2387.99,1782.38 L2386.7,1780.82 L2384.84,1778.78 L2381.93,1778 L2379.39,1778.06 L2378.33,1777.91 L2376.79,1776.43 L2376.72,1774.02 L2376.27,1772.22 L2375.13,1769.86 L2374.86,1771.31 L2374.62,1773.11 L2373,1774 L2372.15,1772.96 L2371.89,1769.94 L2370.65,1767.1 L2369.05,1765.6 L2368.45,1767.01 L2369.38,1769.29 L2369.67,1770.72 L2368.37,1771.03 L2366.4,1770.82 L2364.93,1770.5 L2363.99,1770.06 L2363.53,1768.29 L2363.08,1767.06 L2362.71,1768.41 L2362.53,1769.69 L2361.19,1768.46 L2359.27,1768.16 L2358.55,1767.95 L2356.9,1766.95 L2355.76,1766.64 L2355.42,1767.82 L2355.64,1768.62 L2356.24,1769.61 L2357.55,1770.53 L2358.41,1771.34 L2359.54,1771.75 L2361.35,1772.62 L2362.82,1773.35 L2363.21,1774.63 L2364.29,1775.47 L2366.44,1775.79 L2367.89,1775.74 L2369.39,1775.06 L2370.33,1776.43 L2371.59,1777.23 L2372.33,1778.12 L2374.2,1779 L2375.69,1780.33 L2375.87,1781.88 L2374.76,1781.96 L2373.58,1781.54 L2371.36,1782.2 L2368.98,1783.05 L2367.32,1784.39 L2368.89,1784.73 L2370.01,1784.54 L2371.53,1784.48 L2372.68,1784.81 L2374.22,1785.27 L2374.74,1783.97 L2375.92,1783.66 L2377.85,1784.25 L2380.13,1783.74 L2381.5,1783.05 L2382.96,1783.25 L2382.81,1785.81 L2382.48,1788.05 L2382.81,1789.64 L2382.16,1791 L2380.44,1790.24 L2379.23,1788.91 L2378.07,1787.65 L2377.76,1788.88 L2377.02,1790.35 L2377.94,1791.17 L2378.82,1790.68 L2379.79,1791.4 L2380.53,1792.05 L2381.18,1793.18 L2380.25,1793.86 L2379.6,1793.44 L2378.76,1792.75 L2377.54,1792.99 L2376.56,1794.08 L2374.89,1794.85 L2372.79,1796.21 L2374.49,1797.41 L2375.57,1796.85 L2377.07,1795.84 L2378.74,1795.19 L2378.25,1796.38 L2377.66,1797.8 L2378.42,1798.13 L2379.02,1797.13 L2381.4,1797.55 L2382.04,1798.59 L2382.95,1799.08 L2384.08,1799.07 L2384.68,1801.31 L2384.28,1804.38 L2384.33,1806.23 L2384.64,1809.32 L2385.19,1811.47 L2386.05,1813.79 L2386.3,1818.52 L2386.04,1822.44 L2386.55,1824.14 L2386.78,1826.29 L2387.02,1827.97 L2388.27,1829.85 L2387.75,1830.41 L2386.12,1829.84 L2384.37,1829.46 L2383.19,1828.46 L2382.83,1826.77 L2382.36,1825.99 L2381.18,1826.31 L2379.55,1825.61 L2380.1,1823.83 L2379.61,1822.72 L2379.11,1823.83 L2378.57,1824.7 L2377.99,1825.81 L2377.84,1826.99 L2378.39,1828.86 L2377.24,1828.67 L2375.99,1828.5 L2374.89,1828.4 L2374.41,1828.97 L2375.33,1829.82 L2377.07,1830.39 L2377.62,1831.31 L2376.12,1831.9 L2375.47,1832.44 L2376.3,1833.24 L2375.05,1833.97 L2373.01,1834.14 L2371.72,1834.78 L2370.36,1835.2 L2368.66,1835.75 L2367.3,1835.71 L2368.4,1834.81 L2369.2,1833.07 L2368.25,1832.31 L2366.71,1832.34 L2365.42,1832.24 L2364.15,1833.03 L2362.79,1833.78 L2361.95,1834.18 L2360.9,1833.66 L2359.3,1833.9 L2359.1,1835.03 L2360.29,1835.68 L2361.12,1836.51 L2359.53,1837.25 L2358.15,1838.43 L2357.22,1839.67 L2356.48,1839.28 L2355.9,1837.87 L2355.63,1836.52 L2354.76,1838.18 L2354.51,1837 L2354.66,1835.65 L2354.18,1834.84 L2353.65,1836.04 L2352.57,1837.08 L2352.74,1837.93 L2351.73,1838.59 L2350.83,1838.78 L2350.98,1839.82 L2351.52,1841.03 L2352.04,1842.83 L2351.55,1843.68 L2350.03,1843.77 L2348.93,1843.43 L2348.27,1843.32 L2347.9,1844.54 L2348.07,1845.65 L2349.2,1845.84 L2350.07,1846.69 L2350.85,1847.37 L2352.26,1849.16 L2351.84,1850.32 L2350.65,1849.1 L2349.35,1847.96 L2347.49,1847.43 L2346.49,1846.19 L2345.45,1845.76 L2344.65,1844.64 L2345.05,1843.32 L2343.99,1843.24 L2343.3,1844.09 L2342.52,1843.72 L2341.53,1842.72 L2340.92,1843.47 L2341.72,1844.51 L2342.63,1844.8 L2343.47,1845.09 L2344.09,1846.24 L2342.49,1846.04 L2341.58,1845.72 L2340.37,1845.22 L2339.49,1844.74 L2338.59,1845 L2337.95,1845.84 L2337.83,1847 L2338.44,1847.98 L2339.34,1848.28 L2340.83,1848.01 L2342.36,1848.37 L2343.45,1848.63 L2342.95,1849.49 L2341.81,1849.43 L2340.51,1849.2 L2339.6,1849.52 L2339.32,1850.43 L2339.82,1851 L2341.5,1851.5 L2342.39,1851.22 L2344.32,1851.42 L2344.2,1850.37 L2345,1850.23 L2346.82,1851.02 L2348.07,1851.11 L2349.68,1851.43 L2351.16,1852.63 L2352.11,1853.18 L2352.6,1855.18 L2352.68,1856.57 L2353.34,1858.02 L2353.15,1858.93 L2353.21,1859.67 L2353.5,1860.43 L2354.66,1860.44 L2355.44,1861.54 L2354.88,1862.5 L2355.84,1862.58 L2357.13,1862.05 L2357.06,1863.47 L2355.41,1864.1 L2354.64,1864.59 L2353.67,1865.43 L2354.19,1865.94 L2353.98,1867.88 L2353.29,1868.93 L2352.57,1870.73 L2354.37,1870.16 L2355.11,1870.35 L2355.75,1869.39 L2355.09,1868.08 L2355.98,1866.89 L2356.8,1866.52 L2357.87,1865.43 L2358.43,1863.76 L2359.04,1862.78 L2359.17,1861.44 L2359.07,1860.07 L2360.14,1860.44 L2360.8,1859.95 L2361.08,1858.53 L2361.51,1857.9 L2362.25,1859.12 L2363.56,1859.42 L2364.57,1860.36 L2365.82,1862.37 L2366.05,1863.95 L2366.38,1866.94 L2365.36,1870.18 L2363.33,1871.79 L2360.49,1873.4 L2358.24,1876.02 L2355.9,1878.17 L2355.29,1879.9 L2354.55,1881.75 L2354.22,1882.94 L2350.86,1882.48 L2348.04,1883.97 L2344.98,1884.73 L2342.01,1885.94 L2338.71,1886.54 L2336.08,1888.6 L2329.38,1894.05 L2323.95,1900.2 L2318.94,1903.17 L2312.79,1903.74 L2308.4,1902.17 L2304.78,1899.93 L2301.97,1899.03 L2299.76,1897.99 L2298.3,1897.33 L2296.9,1897.38 L2296.07,1898.75 L2293.87,1899.43 L2292.15,1899.85 L2288.87,1900.13 L2287.55,1900.34 L2283.97,1900.97 L2279.58,1902.88 L2275.15,1904.67 L2269.86,1907.09 L2265.13,1909.33 L2262.13,1911 L2257.22,1913.82 L2251.26,1917.58 L2246.74,1921.09 L2243.15,1925.02 L2241.79,1924.27 L2240.66,1925.07 L2240.03,1927.05 L2238.98,1928.27 L2235.1,1932.07 L2232.35,1935.63 L2230.94,1937.45 L2224.98,1947.1 L2222.18,1943.18 L2222.5,1943.97 L2221.91,1944.55 L2220.41,1944.64 L2221.11,1945.57 L2221.86,1946.07 L2222.32,1947.75 L2223.02,1947.78 L2223.77,1947.05 L2223.57,1948.76 L2223.79,1950.06 L2224.14,1951.05 L2223.52,1951.21 L2223.99,1952.05 L2223.29,1952.43 L2222.49,1952.13 L2221.95,1951.15 L2221.52,1952.37 L2222.04,1953.12 L2221.63,1953.63 L2222.79,1954.11 L2223.07,1955.01 L2222.25,1955.48 L2221.47,1956.03 L2222.16,1956.37 L2222.63,1956.78 L2221.9,1957.47 L2221.28,1957.99 L2222.16,1959.69 L2222.95,1960.05 L2223.22,1958.92 L2224.1,1959.62 L2225.29,1961.9 L2226.09,1964.39 L2226.28,1966.64 L2225.48,1968.72 L2225.83,1969.48 L2225.81,1970.91 L2224.91,1973.05 L2223.94,1975.81 L2223.19,1977.99 L2222.39,1979.51 L2221.88,1978.8 L2221.88,1977.82 L2221.2,1976.8 L2221.08,1977.88 L2221.06,1978.99 L2221.05,1980.11 L2220.2,1981.03 L2219.45,1981.62 L2219.61,1983.73 L2220.67,1984.11 L2221.3,1983.21 L2222.22,1982.09 L2223.88,1981.3 L2224.53,1981.67 L2223.79,1982.88 L2223.32,1983.93 L2222.99,1985.32 L2222.53,1986 L2221.75,1985.24 L2221.02,1984.98 L2220.24,1985.75 L2220.21,1986.54 L2219.99,1988 L2220.66,1987.7 L2222.31,1987.1 L2222.22,1988.61 L2222.26,1990.12 L2221.61,1990.6 L2221.65,1991.89 L2220.76,1992.58 L2220.05,1993.97 L2220.54,1996.08 L2220.8,1997.78 L2220.88,1999.42 L2220.36,2000.45 L2219.92,2001.67 L2219.89,2003.33 L2220.34,2006.09 L2220.21,2007.93 L2219.6,2010.08 L2219.69,2012 L2219.54,2014.22 L2219.77,2016.37 L2220.34,2016.02 L2221.02,2015.98 L2220.8,2014.78 L2220.97,2014.03 L2221.91,2013.13 L2223,2013.17 L2224.12,2012.63 L2224.74,2011 L2225.63,2009.46 L2227.3,2008.28 L2227.49,2005.59 L2228.73,2004.04 L2230.11,2003.97 L2231.32,2003.58 L2233.05,2003.37 L2235.44,2003.27 L2237.01,2002.14 L2238.42,2000.42 L2239.75,1999.71 L2240.25,2001.21 L2240.24,2002.74 L2239.73,2003.89 L2238.47,2003.64 L2236.61,2004.35 L2234.48,2005.57 L2232.69,2007.38 L2231.05,2010.15 L2230.1,2012.23 L2228.64,2012.98 L2226.93,2013.85 L2225.63,2015.3 L2224.81,2016.89 L2224.85,2017.92 L2225.19,2019.52 L2225.01,2020.59 L2224.21,2021.95 L2222.44,2024.64 L2222.52,2027.38 L2223.49,2030.91 L2223.56,2033.75 L2222.33,2035.61 L2220.19,2038.56 L2218.74,2041.06 L2217.52,2041.38 L2216.34,2040.23 L2215.04,2039.66 L2215.67,2041.1 L2216.56,2042.71 L2216.81,2043.82 L2215.31,2046.2 L2213.95,2047.9 L2213.66,2049.72 L2213.76,2051.12 L2213.64,2052.1 L2213.9,2053.38 L2214.28,2054.46 L2214.68,2055.84 L2214.99,2057.07 L2214.94,2059.09 L2215.07,2060.77 L2215.63,2062.79 L2215.88,2064.21 L2215.57,2065.56 L2215,2066.47 L2215.2,2068 L2213.65,2068.91 L2213.1,2071.09 L2211.94,2072.28 L2210.46,2073.5 L2208.68,2074.55 L2205.48,2075.98 L2203.2,2077.67 L2200.96,2079.6 L2197.32,2081.43 L2194.47,2082.89 L2193.88,2084.42 L2193.26,2085.28 L2192.39,2086.15 L2191.74,2085.66 L2190.86,2086.26 L2190.85,2086.93 L2189.82,2086.63 L2188.58,2087.86 L2187.31,2088.66 L2186.29,2089.68 L2185,2090.93 L2183.16,2092.25 L2181.72,2092.48 L2181.48,2091.32 L2181.86,2090.27 L2183.28,2089.04 L2184.36,2088.17 L2185.05,2088.81 L2185.82,2088.38 L2186.85,2087.87 L2185.62,2087.59 L2186.16,2086.66 L2186.46,2085.12 L2186.02,2083.46 L2185.31,2081.95 L2184.14,2081.17 L2184.54,2079.68 L2185.13,2078.98 L2186.44,2077.91 L2187.19,2076.58 L2185.12,2077.38 L2182.72,2078.02 L2179.71,2079.11 L2177.2,2079.81 L2176.44,2081 L2175.38,2082.1 L2173.8,2082.27 L2171.74,2082.54 L2169.3,2083.02 L2168.44,2083.7 L2170.62,2086.07 L2172.39,2087.85 L2174.09,2088.95 L2174.57,2089.69 L2175.62,2089.53 L2175.66,2090.51 L2174.78,2091.24 L2174.32,2092.31 L2175.36,2092.18 L2176.4,2091.22 L2177.64,2091.27 L2178.82,2092.47 L2180.07,2093.27 L2180.49,2094.98 L2180.35,2096.7 L2179.27,2099.18 L2178.77,2100.8 L2176.72,2105.08 L2174.59,2109.39 L2172.12,2114.41 L2170.39,2118.83 L2169.92,2120.96 L2168.76,2123.45 L2168.07,2125.68 L2167.28,2127.97 L2166.67,2130.57 L2165.98,2132.85 L2164.57,2135.58 L2163.22,2137.66 L2162.22,2139.47 L2161.46,2141.11"/>
</g>

<g fill="none" stroke="#000000" stroke-opacity="1" stroke-width="1" stroke-linecap="square" stroke-linejoin="bevel" transform="matrix(11.6524,0,0,11.6524,0,0)"
font-family="Cantarell" font-size="45.2222" font-weight="400" font-style="normal" 
>
</g>

<g fill="none" stroke="#000000" stroke-opacity="1" stroke-width="1" stroke-linecap="square" stroke-linejoin="bevel" transform="matrix(11.6524,0,0,11.6524,0,0)"
font-family="Cantarell" font-size="45.2222" font-weight="400" font-style="normal" 
>
</g>

<g fill="none" stroke="#000000" stroke-opacity="1" stroke-width="1" stroke-linecap="square" stroke-linejoin="bevel" transform="matrix(11.6524,0,0,11.6524,0,0)"
font-family="Cantarell" font-size="45.2222" font-weight="400" font-style="normal" 
>
</g>

<g fill="none" stroke="#000000" stroke-opacity="1" stroke-width="1" stroke-linecap="square" stroke-linejoin="bevel" transform="matrix(1,0,0,1,0,0)"
font-family="Cantarell" font-size="45.2222" font-weight="400" font-style="normal" 
>
</g>

<g fill="none" stroke="#000000" stroke-opacity="1" stroke-width="1" stroke-linecap="square" stroke-linejoin="bevel" transform="matrix(11.6524,0,0,11.6524,0,0)"
font-family="Cantarell" font-size="45.2222" font-weight="400" font-style="normal" 
>
</g>

<g fill="none" stroke="#000000" stroke-opacity="1" stroke-width="1" stroke-linecap="square" stroke-linejoin="bevel" transform="matrix(11.6524,0,0,11.6524,0,0)"
font-family="Cantarell" font-size="45.2222" font-weight="400" font-style="normal" 
>
</g>

<g fill="none" stroke="#000000" stroke-opacity="1" stroke-width="1" stroke-linecap="square" stroke-linejoin="bevel" transform="matrix(11.6524,0,0,11.6524,0,0)"
font-family="Cantarell" font-size="45.2222" font-weight="400" font-style="normal" 
>
</g>

<g fill="none" stroke="#000000" stroke-opacity="1" stroke-width="1" stroke-linecap="square" stroke-linejoin="bevel" transform="matrix(11.6524,0,0,11.6524,0,0)"
font-family="Cantarell" font-size="45.2222" font-weight="400" font-style="normal" 
>
</g>

<g fill="none" stroke="#000000" stroke-opacity="1" stroke-width="1" stroke-linecap="square" stroke-linejoin="bevel" transform="matrix(11.6524,0,0,11.6524,0,0)"
font-family="Cantarell" font-size="45.2222" font-weight="400" font-style="normal" 
>
</g>

<g fill="none" stroke="#000000" stroke-opacity="1" stroke-width="1" stroke-linecap="square" stroke-linejoin="bevel" transform="matrix(11.6524,0,0,11.6524,0,0)"
font-family="Cantarell" font-size="45.2222" font-weight="400" font-style="normal" 
>
</g>

<g fill="none" stroke="#000000" stroke-opacity="1" stroke-width="1" stroke-linecap="square" stroke-linejoin="bevel" transform="matrix(1,0,0,1,0,0)"
font-family="Cantarell" font-size="45.2222" font-weight="400" font-style="normal" 
>
</g>
</g>
</svg>
