<?xml version="1.0" encoding="UTF-8" standalone="no"?>
<svg
   xmlns:dc="http://purl.org/dc/elements/1.1/"
   xmlns:cc="http://creativecommons.org/ns#"
   xmlns:rdf="http://www.w3.org/1999/02/22-rdf-syntax-ns#"
   xmlns:svg="http://www.w3.org/2000/svg"
   xmlns="http://www.w3.org/2000/svg"
   xmlns:xlink="http://www.w3.org/1999/xlink"
   xmlns:sodipodi="http://sodipodi.sourceforge.net/DTD/sodipodi-0.dtd"
   xmlns:inkscape="http://www.inkscape.org/namespaces/inkscape"
   width="92px"
   height="123px"
   viewBox="0 0 92 123"
   version="1.1"
   id="svg40"
   sodipodi:docname="layers.svg"
   inkscape:version="0.92.2 (unknown)">
  <metadata
     id="metadata44">
    <rdf:RDF>
      <cc:Work
         rdf:about="">
        <dc:format>image/svg+xml</dc:format>
        <dc:type
           rdf:resource="http://purl.org/dc/dcmitype/StillImage" />
        <dc:title>Group 25</dc:title>
      </cc:Work>
    </rdf:RDF>
  </metadata>
  <sodipodi:namedview
     pagecolor="#ffffff"
     bordercolor="#666666"
     borderopacity="1"
     objecttolerance="10"
     gridtolerance="10"
     guidetolerance="10"
     inkscape:pageopacity="0"
     inkscape:pageshadow="2"
     inkscape:window-width="1366"
     inkscape:window-height="738"
     id="namedview42"
     showgrid="false"
     inkscape:zoom="0.6783626"
     inkscape:cx="-405.65515"
     inkscape:cy="149.35218"
     inkscape:window-x="0"
     inkscape:window-y="0"
     inkscape:window-maximized="1"
     inkscape:current-layer="svg40" />
  <!-- Generator: Sketch 40.1 (33804) - http://www.bohemiancoding.com/sketch -->
  <title
     id="title2">Group 25</title>
  <desc
     id="desc4">Created with Sketch.</desc>
  <defs
     id="defs18">
    <rect
       id="path-1"
       x="5.78720779"
       y="10.0784459"
       width="79.1097156"
       height="100.625"
       rx="4" />
    <filter
       x="-50%"
       y="-50%"
       width="200%"
       height="200%"
       filterUnits="objectBoundingBox"
       id="filter-2">
      <feOffset
         dx="0"
         dy="2"
         in="SourceAlpha"
         result="shadowOffsetOuter1"
         id="feOffset7" />
      <feColorMatrix
         values="0 0 0 0 0.839604592   0 0 0 0 0.839604592   0 0 0 0 0.839604592  0 0 0 0.5 0"
         type="matrix"
         in="shadowOffsetOuter1"
         id="feColorMatrix9" />
    </filter>
    <ellipse
       id="path-3"
       cx="14.3017488"
       cy="14.3002859"
       rx="14.3017488"
       ry="14.3002859" />
    <mask
       id="mask-4"
       maskContentUnits="userSpaceOnUse"
       maskUnits="objectBoundingBox"
       x="-5"
       y="-5"
       width="38.6034976"
       height="38.6005717">
      <rect
         x="-5"
         y="-5"
         width="38.6034976"
         height="38.6005717"
         fill="white"
         id="rect13" />
      <use
         xlink:href="#path-3"
         fill="black"
         id="use15" />
    </mask>
  </defs>
  <g
     id="g1003"
     transform="matrix(0.18934392,0,0,0.25670759,-0.11375054,-0.24546131)"
     style="fill:#b3b3b3;fill-opacity:1">
    <g
       id="g944"
       style="fill:#b3b3b3;fill-opacity:1">
      <path
         id="path936"
         d="m 0.018,393.086 c 0.335,7.91 5.781,14.674 13.434,16.707 l 183.256,48.558 c 4.355,1.151 8.823,1.721 13.273,1.721 5.718,0 11.416,-0.936 16.878,-2.818 l 247.238,-85.063 c 7.655,-2.633 12.633,-10.029 12.185,-18.109 -0.446,-8.084 -6.211,-14.882 -14.107,-16.66 l -31.558,-7.076 -203.079,69.875 c -8.888,3.06 -18.157,4.611 -27.558,4.611 -7.301,0 -14.586,-0.951 -21.681,-2.826 L 43.936,363.752 11.962,375.272 c -7.444,2.683 -12.296,9.904 -11.944,17.814 z"
         inkscape:connector-curvature="0"
         style="fill:#b3b3b3;fill-opacity:1" />
      <path
         id="path938"
         d="m 0.018,305.044 c 0.335,7.91 5.797,14.677 13.449,16.709 l 183.24,48.556 c 4.355,1.154 8.823,1.73 13.273,1.73 5.718,0 11.416,-0.945 16.878,-2.826 l 247.238,-85.064 c 7.655,-2.633 12.633,-10.031 12.185,-18.108 -0.446,-8.087 -6.211,-14.884 -14.107,-16.662 l -31.558,-7.076 -203.079,69.876 c -8.888,3.059 -18.157,4.603 -27.558,4.603 -7.301,0 -14.586,-0.943 -21.681,-2.817 L 43.936,275.711 11.962,287.232 c -7.444,2.681 -12.296,9.903 -11.944,17.812 z"
         inkscape:connector-curvature="0"
         style="fill:#b3b3b3;fill-opacity:1" />
      <path
         id="path940"
         d="m 237.538,224.128 c -8.888,3.059 -18.157,4.604 -27.558,4.604 -7.301,0 -14.586,-0.944 -21.681,-2.818 L 43.936,187.669 11.962,199.19 c -7.444,2.682 -12.296,9.904 -11.944,17.814 0.335,7.908 5.797,14.674 13.449,16.707 l 183.24,48.557 c 4.355,1.152 8.823,1.722 13.273,1.722 5.718,0 11.416,-0.937 16.878,-2.817 l 247.238,-85.065 c 7.655,-2.634 12.633,-10.032 12.185,-18.109 -0.446,-8.086 -6.211,-14.883 -14.107,-16.66 l -31.558,-7.078 z"
         inkscape:connector-curvature="0"
         style="fill:#b3b3b3;fill-opacity:1" />
      <path
         id="path942"
         d="m 13.452,145.662 183.256,48.557 c 4.355,1.152 8.823,1.721 13.273,1.721 5.718,0 11.416,-0.937 16.878,-2.818 l 247.238,-85.063 c 7.655,-2.635 12.633,-10.031 12.185,-18.109 -0.446,-8.087 -6.211,-14.883 -14.107,-16.661 L 268.008,27.494 c -3.748,-0.841 -7.557,-1.256 -11.352,-1.256 -5.973,0 -11.912,1.023 -17.582,3.066 L 11.962,111.14 c -7.444,2.682 -12.296,9.904 -11.944,17.814 0.335,7.91 5.781,14.674 13.434,16.708 z"
         inkscape:connector-curvature="0"
         style="fill:#b3b3b3;fill-opacity:1" />
    </g>
    <g
       id="g946"
       style="fill:#b3b3b3;fill-opacity:1" />
    <g
       id="g948"
       style="fill:#b3b3b3;fill-opacity:1" />
    <g
       id="g950"
       style="fill:#b3b3b3;fill-opacity:1" />
    <g
       id="g952"
       style="fill:#b3b3b3;fill-opacity:1" />
    <g
       id="g954"
       style="fill:#b3b3b3;fill-opacity:1" />
    <g
       id="g956"
       style="fill:#b3b3b3;fill-opacity:1" />
    <g
       id="g958"
       style="fill:#b3b3b3;fill-opacity:1" />
    <g
       id="g960"
       style="fill:#b3b3b3;fill-opacity:1" />
    <g
       id="g962"
       style="fill:#b3b3b3;fill-opacity:1" />
    <g
       id="g964"
       style="fill:#b3b3b3;fill-opacity:1" />
    <g
       id="g966"
       style="fill:#b3b3b3;fill-opacity:1" />
    <g
       id="g968"
       style="fill:#b3b3b3;fill-opacity:1" />
    <g
       id="g970"
       style="fill:#b3b3b3;fill-opacity:1" />
    <g
       id="g972"
       style="fill:#b3b3b3;fill-opacity:1" />
    <g
       id="g974"
       style="fill:#b3b3b3;fill-opacity:1" />
  </g>
</svg>
