<?xml version="1.0" encoding="UTF-8" standalone="no"?>
<svg
   xmlns:dc="http://purl.org/dc/elements/1.1/"
   xmlns:cc="http://creativecommons.org/ns#"
   xmlns:rdf="http://www.w3.org/1999/02/22-rdf-syntax-ns#"
   xmlns:svg="http://www.w3.org/2000/svg"
   xmlns="http://www.w3.org/2000/svg"
   xmlns:sodipodi="http://sodipodi.sourceforge.net/DTD/sodipodi-0.dtd"
   xmlns:inkscape="http://www.inkscape.org/namespaces/inkscape"
   width="30px"
   height="30px"
   viewBox="0 0 30 30"
   version="1.1"
   id="svg24"
   sodipodi:docname="logo_mobile.svg"
   inkscape:version="0.92.2 (unknown)">
  <metadata
     id="metadata28">
    <rdf:RDF>
      <cc:Work
         rdf:about="">
        <dc:format>image/svg+xml</dc:format>
        <dc:type
           rdf:resource="http://purl.org/dc/dcmitype/StillImage" />
        <dc:title>Group</dc:title>
      </cc:Work>
    </rdf:RDF>
  </metadata>
  <sodipodi:namedview
     pagecolor="#ffffff"
     bordercolor="#666666"
     borderopacity="1"
     objecttolerance="10"
     gridtolerance="10"
     guidetolerance="10"
     inkscape:pageopacity="0"
     inkscape:pageshadow="2"
     inkscape:window-width="1366"
     inkscape:window-height="738"
     id="namedview26"
     showgrid="false"
     inkscape:zoom="15.733333"
     inkscape:cx="13.368438"
     inkscape:cy="14.436963"
     inkscape:window-x="0"
     inkscape:window-y="0"
     inkscape:window-maximized="1"
     inkscape:current-layer="g947" />
  <!-- Generator: Sketch 40.1 (33804) - http://www.bohemiancoding.com/sketch -->
  <title
     id="title2">Group</title>
  <desc
     id="desc4">Created with Sketch.</desc>
  <defs
     id="defs6" />
  <g
     id="g947"
     transform="matrix(0.10564972,0,0,0.10564972,-0.57509551,-0.51823829)">
    <g
       id="g977"
       transform="matrix(1.0007084,0,0,0.96802784,-3.95853,12.579448)">
      <g
         id="g6"
         transform="matrix(-1,0,0,1,294.4186,-9.0139494)">
        <path
           d="m 147.42104,5.3735686 c -50.64579,0 -91.849632,41.2038414 -91.849632,91.8496294 0,45.291502 25.553402,92.333102 51.908072,134.159672 1.69974,2.6988 5.26478,3.50824 7.96454,1.80754 2.69783,-1.69974 3.50728,-5.26574 1.80658,-7.96357 C 70.973515,151.77793 67.122151,120.70005 67.122151,97.223198 c 0,-44.277046 36.021839,-80.299849 80.299849,-80.299849 44.27801,0 80.29985,36.02184 80.29985,80.299849 0,71.905082 -88.27215,173.450352 -89.12106,174.548542 -1.94903,2.52459 -1.48415,6.15122 1.04044,8.10024 1.05103,0.81234 2.29359,1.20503 3.52653,1.20503 1.7267,0 3.43606,-0.77191 4.57372,-2.24451 3.56407,-4.61221 91.53111,-105.76189 91.53111,-181.610265 -0.002,-50.644825 -41.2048,-91.8486664 -91.85155,-91.8486664 z"
           id="path2"
           inkscape:connector-curvature="0"
           style="fill:#ff8c00;stroke:#ff8c00;stroke-width:8.25376987;stroke-miterlimit:4;stroke-dasharray:none;stroke-opacity:1"
           sodipodi:nodetypes="sscccsssccsccs" />
        <path
           d="m 147.421,65 c 3.313,0 6,-2.687 6,-6 0,-3.313 -2.687,-6 -6,-6 -23.396,0 -42.43,19.034 -42.43,42.43 0,23.396 19.034,42.43 42.43,42.43 23.396,0 42.43,-19.034 42.43,-42.43 0,-9.344 -2.979,-18.208 -8.617,-25.635 -2.003,-2.639 -5.767,-3.154 -8.407,-1.151 -2.639,2.003 -3.155,5.767 -1.151,8.407 4.04,5.321 6.175,11.677 6.175,18.379 0,16.779 -13.651,30.43 -30.43,30.43 -16.779,0 -30.43,-13.651 -30.43,-30.43 0,-16.779 13.652,-30.43 30.43,-30.43 z"
           id="path4"
           inkscape:connector-curvature="0"
           style="fill:#ff8c00;stroke:#ff8c00;stroke-width:5.73593569;stroke-miterlimit:4;stroke-dasharray:none;stroke-opacity:1" />
      </g>
      <g
         id="g8" />
      <g
         id="g10" />
      <g
         id="g12" />
      <g
         id="g14" />
      <g
         id="g16" />
      <g
         id="g18" />
      <g
         id="g20" />
      <g
         id="g22" />
      <g
         id="g24" />
      <g
         id="g26" />
      <g
         id="g28" />
      <g
         id="g30" />
      <g
         id="g32" />
      <g
         id="g34" />
      <g
         id="g36" />
      <circle
         r="12.504309"
         style="fill:#aaaaaa;fill-opacity:1;stroke-width:5.20007706;stroke-miterlimit:4;stroke-dasharray:none;paint-order:fill markers stroke"
         id="ellipse862"
         cy="226.62671"
         cx="176.89612" />
      <circle
         cx="157.75317"
         cy="273.42053"
         id="circle949"
         style="fill:#aaaaaa;fill-opacity:1;stroke-width:5.02316952;stroke-miterlimit:4;stroke-dasharray:none;paint-order:fill markers stroke"
         r="12.07891" />
      <circle
         cx="142.43884"
         cy="47.959358"
         id="circle951"
         style="fill:#aaaaaa;fill-opacity:1;stroke-width:4.66935444;stroke-miterlimit:4;stroke-dasharray:none;paint-order:fill markers stroke"
         r="11.228113" />
      <circle
         r="11.228113"
         style="fill:#aaaaaa;fill-opacity:1;stroke-width:4.66935444;stroke-miterlimit:4;stroke-dasharray:none;paint-order:fill markers stroke"
         id="circle953"
         cy="61.146709"
         cx="120.31812" />
    </g>
  </g>
</svg>
