<?xml version="1.0" encoding="UTF-8" standalone="no"?>
<svg
   xmlns:dc="http://purl.org/dc/elements/1.1/"
   xmlns:cc="http://creativecommons.org/ns#"
   xmlns:rdf="http://www.w3.org/1999/02/22-rdf-syntax-ns#"
   xmlns:svg="http://www.w3.org/2000/svg"
   xmlns="http://www.w3.org/2000/svg"
   xmlns:sodipodi="http://sodipodi.sourceforge.net/DTD/sodipodi-0.dtd"
   xmlns:inkscape="http://www.inkscape.org/namespaces/inkscape"
   width="404px"
   height="258px"
   viewBox="0 0 404 258"
   version="1.1"
   id="svg34"
   sodipodi:docname="identify_ui.svg"
   inkscape:version="0.92.2 (unknown)">
  <metadata
     id="metadata38">
    <rdf:RDF>
      <cc:Work
         rdf:about="">
        <dc:format>image/svg+xml</dc:format>
        <dc:type
           rdf:resource="http://purl.org/dc/dcmitype/StillImage" />
        <dc:title>Group</dc:title>
      </cc:Work>
    </rdf:RDF>
  </metadata>
  <sodipodi:namedview
     pagecolor="#ffffff"
     bordercolor="#666666"
     borderopacity="1"
     objecttolerance="10"
     gridtolerance="10"
     guidetolerance="10"
     inkscape:pageopacity="0"
     inkscape:pageshadow="2"
     inkscape:window-width="1366"
     inkscape:window-height="738"
     id="namedview36"
     showgrid="false"
     inkscape:zoom="1.2936217"
     inkscape:cx="43.900019"
     inkscape:cy="113.50647"
     inkscape:window-x="0"
     inkscape:window-y="0"
     inkscape:window-maximized="1"
     inkscape:current-layer="svg34" />
  <!-- Generator: Sketch 40.1 (33804) - http://www.bohemiancoding.com/sketch -->
  <title
     id="title2">Group</title>
  <desc
     id="desc4">Created with Sketch.</desc>
  <defs
     id="defs6" />
  <g
     id="v2"
     stroke-width="1"
     stroke="none"
     fill-rule="evenodd"
     fill="none">
    <g
       id="Stockroom-home"
       transform="translate(-533.000000, -1122.000000)">
      <g
         id="Group-30"
         transform="translate(475.000000, 1122.000000)">
        <g
           id="Group-32"
           transform="translate(58.000000, 0.000000)">
          <g
             id="Group-29">
            <g
               id="g27">
              <g
                 id="Page-1">
                <g
                   id="g24">
                  <g
                     id="Artboard-Copy-5">
                    <g
                       id="1">
                      <g
                         id="Group">
                        <rect
                           id="Rectangle-89"
                           x="0"
                           y="0"
                           width="404"
                           height="257.735716"
                           rx="2.7"
                           fill="#EFEFEF" />
                        <polygon
                           id="Rectangle-89-Copy"
                           points="3.59910913 27.6710125 401.300668 27.6710125 401.300668 254.573315 3.59910913 254.573315"
                           fill="#FFFFFF" />
                        <rect
                           id="Rectangle-90"
                           x="27.7385157"
                           y="60.2299652"
                           width="205.674438"
                           height="12.5853659"
                           rx="6.29268293"
                           fill="#F5F5F5" />
                        <rect
                           id="Rectangle-90-Copy"
                           x="26.9933185"
                           y="91.6933798"
                           width="117.758899"
                           height="11.6864111"
                           rx="5.84320557"
                           fill="#F5F5F5" />
                        <rect
                           id="Rectangle-90-Copy-5"
                           x="27.766342"
                           y="233.3853"
                           width="145.88078"
                           height="8.0905924"
                           rx="4.0452962"
                           style="fill:#f5f5f5" />
                        <path
                           d="M2.24944321,126.752613 L401.750557,126.752613"
                           id="Line"
                           stroke-width="1.8"
                           stroke="#EFEFEF" />
                        <rect
                           id="Rectangle-85"
                           x="300.525612"
                           y="81.804878"
                           width="80.0801782"
                           height="25.1707317"
                           rx="1.8"
                           style="fill:#ff8c00;fill-opacity:1"
                           fill="#02B958" />
                      </g>
                    </g>
                  </g>
                </g>
              </g>
            </g>
          </g>
        </g>
      </g>
    </g>
  </g>
  <g
     id="g4677"
     transform="matrix(0.25340249,0,0,0.24020494,174.47616,98.741649)"
     style="fill:#f5f5f5;fill-opacity:1">
    <g
       id="g4618"
       style="fill:#f5f5f5;fill-opacity:1">
      <path
         id="path4610"
         d="m 398.248,196.799 c 0.016,0 0.029,-0.01 0.045,-0.01 -0.016,0 -0.045,0.01 -0.08,0.01 z"
         inkscape:connector-curvature="0"
         style="fill:#f5f5f5;fill-opacity:1" />
      <path
         id="path4612"
         d="m 375.394,184.199 c -4.127,-6.521 -8.348,-13.473 -12.59,-20.543 H 65.918 c -16.167,0 -29.32,13.154 -29.32,29.322 v 35.213 c 0,16.166 13.153,29.316 29.32,29.316 h 173.558 c 1.686,0 3.059,1.375 3.059,3.057 v 48.58 c 0,16.84 13.708,30.539 30.538,30.539 h 78.5 c 3.594,0 6.522,2.918 6.522,6.512 v 110.988 c 0,3.594 -2.929,6.516 -6.522,6.516 H 183.016 c -5.549,9.49 -11.197,18.805 -16.651,27.43 -1.378,2.174 -3.074,4.053 -4.935,5.711 h 190.143 c 21.866,0 39.665,-17.793 39.665,-39.656 V 346.195 c 0,-21.863 -17.799,-39.654 -39.665,-39.654 h -75.895 v -45.977 c 0,-19.961 -16.247,-36.199 -36.201,-36.199 H 69.74 v -27.566 h 328.473 c -9.336,-0.026 -17.863,-4.744 -22.819,-12.6 z"
         inkscape:connector-curvature="0"
         style="fill:#f5f5f5;fill-opacity:1" />
      <path
         id="path4614"
         d="m 143.516,306.938 c -34.226,0 -61.994,27.754 -61.994,61.994 0,26.103 36.037,86.254 53.156,113.359 1.912,3.025 5.26,4.863 8.838,4.863 3.592,0 6.926,-1.844 8.837,-4.871 17.136,-27.115 53.157,-87.248 53.157,-113.352 0,-34.24 -27.754,-61.993 -61.994,-61.993 z m 0,92.595 c -15.359,0 -27.804,-12.451 -27.804,-27.811 0,-15.363 12.444,-27.809 27.804,-27.809 15.358,0 27.803,12.445 27.803,27.809 -10e-4,15.36 -12.445,27.811 -27.803,27.811 z"
         inkscape:connector-curvature="0"
         style="fill:#f5f5f5;fill-opacity:1" />
      <path
         id="path4616"
         d="m 398.248,0 c -34.23,0 -61.999,27.754 -61.999,61.994 0,26.106 36.022,86.238 53.162,113.354 1.911,3.033 5.244,4.869 8.837,4.879 3.572,0 6.926,-1.846 8.832,-4.873 C 424.205,148.25 460.242,88.1 460.242,61.995 460.242,27.754 432.488,0 398.248,0 Z m 0,92.598 c -15.359,0 -27.804,-12.453 -27.804,-27.811 0,-15.365 12.444,-27.809 27.804,-27.809 15.354,0 27.799,12.443 27.799,27.809 0,15.358 -12.445,27.811 -27.799,27.811 z"
         inkscape:connector-curvature="0"
         style="fill:#f5f5f5;fill-opacity:1" />
    </g>
    <g
       id="g4620"
       style="fill:#f5f5f5;fill-opacity:1" />
    <g
       id="g4622"
       style="fill:#f5f5f5;fill-opacity:1" />
    <g
       id="g4624"
       style="fill:#f5f5f5;fill-opacity:1" />
    <g
       id="g4626"
       style="fill:#f5f5f5;fill-opacity:1" />
    <g
       id="g4628"
       style="fill:#f5f5f5;fill-opacity:1" />
    <g
       id="g4630"
       style="fill:#f5f5f5;fill-opacity:1" />
    <g
       id="g4632"
       style="fill:#f5f5f5;fill-opacity:1" />
    <g
       id="g4634"
       style="fill:#f5f5f5;fill-opacity:1" />
    <g
       id="g4636"
       style="fill:#f5f5f5;fill-opacity:1" />
    <g
       id="g4638"
       style="fill:#f5f5f5;fill-opacity:1" />
    <g
       id="g4640"
       style="fill:#f5f5f5;fill-opacity:1" />
    <g
       id="g4642"
       style="fill:#f5f5f5;fill-opacity:1" />
    <g
       id="g4644"
       style="fill:#f5f5f5;fill-opacity:1" />
    <g
       id="g4646"
       style="fill:#f5f5f5;fill-opacity:1" />
    <g
       id="g4648"
       style="fill:#f5f5f5;fill-opacity:1" />
  </g>
  <g
     id="g4803"
     transform="matrix(0.1793676,0,0,0.18991817,42.285873,132.28887)"
     style="fill:#f5f5f5;fill-opacity:1">
    <g
       id="g4683"
       style="fill:#f5f5f5;fill-opacity:1">
      <g
         id="g4681"
         style="fill:#f5f5f5;fill-opacity:1">
        <path
           id="path4679"
           d="m 397.423,131.319 c -23.122,-23.123 -53.837,-36.631 -86.487,-38.034 -4.158,-0.178 -7.684,3.05 -7.862,7.214 -0.178,4.164 3.051,7.683 7.214,7.862 28.865,1.24 56.02,13.183 76.465,33.629 42.947,42.947 44.817,111.646 5.623,156.843 L 229.908,136.365 c 15.043,-13.051 33.095,-21.939 52.676,-25.86 4.087,-0.818 6.736,-4.794 5.917,-8.879 -0.818,-4.087 -4.791,-6.737 -8.88,-5.918 -25.207,5.047 -48.176,17.361 -66.426,35.61 -0.256,0.255 -0.481,0.529 -0.692,0.809 l -60.325,46.735 -119.48,90.336 c -1.596,1.207 -2.647,2.998 -2.923,4.981 -0.275,1.982 0.249,3.992 1.455,5.589 l 16.792,22.21 c 1.484,1.962 3.741,2.995 6.024,2.995 1.585,0 3.183,-0.498 4.545,-1.527 l 75.7,-57.235 c 3.324,-2.513 3.981,-7.246 1.468,-10.57 -2.513,-3.323 -7.244,-3.982 -10.57,-1.468 l -69.681,52.684 -7.691,-10.172 108.237,-81.835 19.333,19.333 c -0.019,0.149 -0.042,0.296 -0.053,0.447 -1.906,28.315 5.534,56.626 20.987,80.193 l -71.596,71.596 c -2.947,2.947 -2.947,7.725 0,10.67 l 19.689,19.689 c 1.473,1.473 3.404,2.21 5.335,2.21 1.931,0 3.862,-0.736 5.335,-2.21 l 70.392,-70.393 c 22.866,17.797 50.655,27.324 79.665,27.324 2.979,0 5.974,-0.101 8.975,-0.303 0.15,-0.01 0.295,-0.033 0.442,-0.052 l 20.625,20.625 -81.141,108.941 -10.129,-7.658 52.684,-69.681 c 2.513,-3.324 1.856,-8.057 -1.468,-10.57 -3.326,-2.513 -8.056,-1.856 -10.57,1.468 l -57.235,75.7 c -2.513,3.324 -1.856,8.056 1.468,10.57 l 22.21,16.792 c 1.318,0.996 2.918,1.527 4.55,1.527 0.354,0 0.71,-0.025 1.065,-0.076 1.991,-0.284 3.786,-1.35 4.987,-2.963 L 348.772,381 c 1.279,-0.526 2.405,-1.396 3.235,-2.54 l 46.401,-63.923 c 49.796,-50.871 49.473,-132.759 -0.985,-183.218 z m -207.128,97.771 35.881,35.881 -18.91,18.91 C 197.1,267.394 191.257,248.478 190.295,229.09 Z m -40.544,151.683 -9.017,-9.017 96.114,-96.114 9.017,9.017 z m 86.489,-65.149 20.294,-20.294 43.152,43.152 C 276.658,337.4 254.7,329.513 236.24,315.624 Z m 108.055,46.125 -176.087,-176.087 51.054,-38.6 163.304,163.304 z"
           inkscape:connector-curvature="0"
           style="fill:#f5f5f5;fill-opacity:1" />
      </g>
    </g>
    <g
       id="g4689"
       style="fill:#f5f5f5;fill-opacity:1">
      <g
         id="g4687"
         style="fill:#f5f5f5;fill-opacity:1">
        <path
           id="path4685"
           d="m 331.013,8.176 c -10.902,-10.902 -28.639,-10.902 -39.54,0 -10.902,10.901 -10.902,28.639 0,39.54 5.452,5.451 12.61,8.175 19.77,8.175 7.159,0 14.32,-2.725 19.77,-8.175 10.9,-10.901 10.9,-28.638 0,-39.54 z m -10.67,28.868 c -5.018,5.016 -13.182,5.017 -18.199,0 -5.018,-5.017 -5.018,-13.18 0,-18.199 2.509,-2.509 5.804,-3.763 9.099,-3.763 3.295,0 6.591,1.255 9.1,3.763 5.017,5.018 5.017,13.182 0,18.199 z"
           inkscape:connector-curvature="0"
           style="fill:#f5f5f5;fill-opacity:1" />
      </g>
    </g>
    <g
       id="g4695"
       style="fill:#f5f5f5;fill-opacity:1">
      <g
         id="g4693"
         style="fill:#f5f5f5;fill-opacity:1">
        <path
           id="path4691"
           d="m 426.651,388.607 c -5.281,-5.281 -12.301,-8.189 -19.77,-8.189 -7.468,0 -14.489,2.909 -19.77,8.189 -10.902,10.901 -10.902,28.639 0,39.54 5.281,5.281 12.302,8.189 19.77,8.189 7.468,0 14.489,-2.909 19.77,-8.189 10.902,-10.901 10.902,-28.639 0,-39.54 z m -10.67,28.87 c -2.431,2.431 -5.662,3.77 -9.099,3.77 -3.437,0 -6.668,-1.339 -9.099,-3.77 -5.017,-5.017 -5.017,-13.181 0,-18.199 2.509,-2.509 5.804,-3.763 9.099,-3.763 3.295,0 6.591,1.255 9.099,3.763 5.017,5.017 5.017,13.182 0,18.199 z"
           inkscape:connector-curvature="0"
           style="fill:#f5f5f5;fill-opacity:1" />
      </g>
    </g>
    <g
       id="g4701"
       style="fill:#f5f5f5;fill-opacity:1">
      <g
         id="g4699"
         style="fill:#f5f5f5;fill-opacity:1">
        <path
           id="path4697"
           d="m 493.765,274.123 c -5.281,-5.281 -12.302,-8.189 -19.77,-8.189 -7.468,0 -14.489,2.909 -19.77,8.189 -5.281,5.281 -8.189,12.302 -8.189,19.77 0,7.468 2.909,14.489 8.189,19.77 5.281,5.281 12.302,8.189 19.77,8.189 7.468,0 14.489,-2.909 19.77,-8.189 5.281,-5.281 8.189,-12.302 8.189,-19.77 0,-7.468 -2.908,-14.49 -8.189,-19.77 z m -10.671,28.868 c -2.431,2.431 -5.662,3.77 -9.1,3.77 -3.438,0 -6.668,-1.339 -9.099,-3.77 -2.431,-2.431 -3.77,-5.662 -3.77,-9.099 0,-3.437 1.339,-6.668 3.77,-9.099 2.431,-2.431 5.662,-3.77 9.099,-3.77 3.437,0 6.669,1.339 9.1,3.77 5.017,5.018 5.017,13.181 0,18.198 z"
           inkscape:connector-curvature="0"
           style="fill:#f5f5f5;fill-opacity:1" />
      </g>
    </g>
    <g
       id="g4707"
       style="fill:#f5f5f5;fill-opacity:1">
      <g
         id="g4705"
         style="fill:#f5f5f5;fill-opacity:1">
        <path
           id="path4703"
           d="m 234.003,67.19 -4.715,-7.436 2.187,-8.528 c 0.662,-2.583 -0.088,-5.324 -1.974,-7.209 -1.886,-1.886 -4.626,-2.635 -7.21,-1.974 l -8.528,2.187 -7.436,-4.715 c -2.252,-1.428 -5.091,-1.561 -7.466,-0.351 -2.376,1.211 -3.937,3.586 -4.105,6.247 l -0.555,8.787 -6.782,5.614 c -2.054,1.7 -3.058,4.359 -2.641,6.993 0.419,2.634 2.195,4.852 4.674,5.834 l 8.185,3.244 3.244,8.185 c 0.983,2.479 3.201,4.256 5.834,4.673 0.394,0.062 0.789,0.093 1.181,0.093 2.226,0 4.365,-0.987 5.811,-2.734 l 5.614,-6.782 8.787,-0.555 c 2.662,-0.168 5.036,-1.728 6.247,-4.105 1.209,-2.378 1.076,-5.217 -0.352,-7.468 z m -23.798,-0.484 c -0.731,-1.469 -1.924,-2.661 -3.392,-3.392 1.171,-1.149 1.937,-2.651 2.178,-4.274 1.456,0.759 3.12,1.022 4.739,0.75 -0.272,1.619 -0.008,3.283 0.751,4.738 -1.625,0.241 -3.126,1.006 -4.276,2.178 z"
           inkscape:connector-curvature="0"
           style="fill:#f5f5f5;fill-opacity:1" />
      </g>
    </g>
    <g
       id="g4713"
       style="fill:#f5f5f5;fill-opacity:1">
      <g
         id="g4711"
         style="fill:#f5f5f5;fill-opacity:1">
        <path
           id="path4709"
           d="m 107.146,320.539 c -2.947,-2.947 -7.724,-2.947 -10.67,0 l -54.832,54.832 c -2.947,2.947 -2.947,7.724 0,10.67 1.473,1.473 3.404,2.21 5.335,2.21 1.931,0 3.861,-0.737 5.335,-2.21 l 54.832,-54.832 c 2.947,-2.946 2.947,-7.724 0,-10.67 z"
           inkscape:connector-curvature="0"
           style="fill:#f5f5f5;fill-opacity:1" />
      </g>
    </g>
    <g
       id="g4719"
       style="fill:#f5f5f5;fill-opacity:1">
      <g
         id="g4717"
         style="fill:#f5f5f5;fill-opacity:1">
        <path
           id="path4715"
           d="m 201.505,414.897 c -2.947,-2.947 -7.724,-2.947 -10.67,0 l -76.856,76.856 c -2.947,2.947 -2.947,7.725 0,10.67 1.473,1.473 3.404,2.21 5.335,2.21 1.931,0 3.862,-0.736 5.335,-2.21 l 76.856,-76.856 c 2.947,-2.946 2.947,-7.724 0,-10.67 z"
           inkscape:connector-curvature="0"
           style="fill:#f5f5f5;fill-opacity:1" />
      </g>
    </g>
    <g
       id="g4725"
       style="fill:#f5f5f5;fill-opacity:1">
      <g
         id="g4723"
         style="fill:#f5f5f5;fill-opacity:1">
        <path
           id="path4721"
           d="m 112.336,409.706 c -2.947,-2.947 -7.725,-2.947 -10.67,0 l -89.411,89.412 c -2.947,2.947 -2.947,7.724 0,10.67 1.473,1.473 3.404,2.21 5.335,2.21 1.931,0 3.862,-0.736 5.335,-2.21 l 89.411,-89.412 c 2.947,-2.945 2.947,-7.723 0,-10.67 z"
           inkscape:connector-curvature="0"
           style="fill:#f5f5f5;fill-opacity:1" />
      </g>
    </g>
    <g
       id="g4727"
       style="fill:#f5f5f5;fill-opacity:1" />
    <g
       id="g4729"
       style="fill:#f5f5f5;fill-opacity:1" />
    <g
       id="g4731"
       style="fill:#f5f5f5;fill-opacity:1" />
    <g
       id="g4733"
       style="fill:#f5f5f5;fill-opacity:1" />
    <g
       id="g4735"
       style="fill:#f5f5f5;fill-opacity:1" />
    <g
       id="g4737"
       style="fill:#f5f5f5;fill-opacity:1" />
    <g
       id="g4739"
       style="fill:#f5f5f5;fill-opacity:1" />
    <g
       id="g4741"
       style="fill:#f5f5f5;fill-opacity:1" />
    <g
       id="g4743"
       style="fill:#f5f5f5;fill-opacity:1" />
    <g
       id="g4745"
       style="fill:#f5f5f5;fill-opacity:1" />
    <g
       id="g4747"
       style="fill:#f5f5f5;fill-opacity:1" />
    <g
       id="g4749"
       style="fill:#f5f5f5;fill-opacity:1" />
    <g
       id="g4751"
       style="fill:#f5f5f5;fill-opacity:1" />
    <g
       id="g4753"
       style="fill:#f5f5f5;fill-opacity:1" />
    <g
       id="g4755"
       style="fill:#f5f5f5;fill-opacity:1" />
  </g>
</svg>
