<?xml version="1.0" encoding="UTF-8" standalone="no"?>
<!-- Created with Inkscape (http://www.inkscape.org/) -->

<svg
   xmlns:dc="http://purl.org/dc/elements/1.1/"
   xmlns:cc="http://creativecommons.org/ns#"
   xmlns:rdf="http://www.w3.org/1999/02/22-rdf-syntax-ns#"
   xmlns:svg="http://www.w3.org/2000/svg"
   xmlns="http://www.w3.org/2000/svg"
   xmlns:sodipodi="http://sodipodi.sourceforge.net/DTD/sodipodi-0.dtd"
   xmlns:inkscape="http://www.inkscape.org/namespaces/inkscape"
   version="1.1"
   id="svg2"
   xml:space="preserve"
   width="152"
   height="132"
   viewBox="0 0 152 132"
   sodipodi:docname="meeting.svg"
   inkscape:version="0.92.2 (unknown)"><metadata
     id="metadata8"><rdf:RDF><cc:Work
         rdf:about=""><dc:format>image/svg+xml</dc:format><dc:type
           rdf:resource="http://purl.org/dc/dcmitype/StillImage" /><dc:title /></cc:Work></rdf:RDF></metadata><defs
     id="defs6"><clipPath
       clipPathUnits="userSpaceOnUse"
       id="clipPath104"><path
         d="m 4693.06,4494.5 h -64.08 v 328.58 c 0,16.84 -13.72,30.57 -30.55,30.57 h -258.55 c -16.83,0 -30.55,-13.73 -30.55,-30.57 v -47.67 c -21.5,-1.42 -58.2,-7.82 -83.17,-33.61 -4.53,-4.68 -9.28,-10.69 -13.38,-18.23 -24.99,8.6 -50.84,14.46 -77.09,17.51 v 409.62 c 70.95,9.48 1145.05,164.73 1341.51,164.73 19.84,0 30.71,-1.58 30.71,-5.05 v -205.84 c -59.99,5.95 -202.88,17.39 -325.12,17.39 -105.27,0 -195.22,-8.48 -203.81,-36.26 -10.28,-33.34 -29.27,-81.62 -55.89,-120.27 0.05,1.34 0.07,2.68 0.07,4.02 0,55.98 -45.38,101.36 -101.35,101.36 -55.98,0 -101.36,-45.38 -101.36,-101.36 0,-28.45 11.73,-54.17 30.61,-72.58 -0.02,0 -0.04,-0.01 -0.05,-0.01 -23.54,-4.67 -51.77,-11.53 -82.81,-19.8 4.5,-81.62 23.37,-360.56 24.86,-382.53 m -420.62,42.16 -54.97,3.37 6.54,9.13 39.13,-3.61 c 3.14,-3.14 6.25,-6.1 9.3,-8.89 m 36.89,73.26 -39.21,3.61 14.73,20.56 24.48,-1.54 v -22.63 m 0,91.09 -50.53,3.18 c -0.78,0.39 -1.56,0.77 -2.35,1.15 0.99,1.34 2.06,2.62 3.23,3.83 12.44,12.93 34.11,17.78 49.65,19.27 v -27.43"
         id="path102"
         inkscape:connector-curvature="0" /></clipPath><clipPath
       clipPathUnits="userSpaceOnUse"
       id="clipPath272"><path
         d="m 3565.23,1977.43 c -23.41,634.17 -84.38,1303.62 -144.91,1416.94 -57.46,68.45 -377.41,219.55 -688.24,324.43 l 131.34,389.66 c 218.15,-73.51 741.77,-266.96 891.79,-475.28 63.34,-87.93 133.03,-324.84 169.71,-970.25 19.2,-338.05 58.73,-669.9 58.73,-669.9 l -418.42,-15.6"
         id="path270"
         inkscape:connector-curvature="0" /></clipPath></defs><sodipodi:namedview
     pagecolor="#ffffff"
     bordercolor="#666666"
     borderopacity="1"
     objecttolerance="10"
     gridtolerance="10"
     guidetolerance="10"
     inkscape:pageopacity="0"
     inkscape:pageshadow="2"
     inkscape:window-width="1366"
     inkscape:window-height="738"
     id="namedview4"
     showgrid="false"
     inkscape:zoom="3.1466667"
     inkscape:cx="7.9741133"
     inkscape:cy="72.896527"
     inkscape:window-x="0"
     inkscape:window-y="0"
     inkscape:window-maximized="1"
     inkscape:current-layer="g10" /><g
     id="g10"
     inkscape:groupmode="layer"
     inkscape:label="ink_ext_XXXXXX"
     transform="matrix(1.3333333,0,0,-1.3333333,0,132)"><g
       id="g12"
       transform="matrix(0.0171245,0,0,0.0171245,-19.679294,-28.658865)"><path
         d="m 7687.09,1688.79 h -6408.9 c -51.45,0 -93.55,42.1 -93.55,93.56 0,51.46 42.1,93.56 93.55,93.56 h 6408.9 c 51.46,0 93.56,-42.1 93.56,-93.56 0,-51.46 -42.1,-93.56 -93.56,-93.56"
         style="fill:#b9b3c3;fill-opacity:1;fill-rule:nonzero;stroke:none"
         id="path14"
         inkscape:connector-curvature="0" /><path
         d="M 5428.09,3380.84 H 4222.2 c -102.92,0 -187.12,84.21 -187.12,187.12 v 1850.42 c 0,102.92 84.2,187.13 187.12,187.13 h 1205.89 c 102.92,0 187.12,-84.21 187.12,-187.13 V 3567.96 c 0,-102.91 -84.2,-187.12 -187.12,-187.12"
         style="fill:#5f2949;fill-opacity:1;fill-rule:nonzero;stroke:none"
         id="path16"
         inkscape:connector-curvature="0" /><path
         d="m 4451.69,3183.64 h 779.67 c 42.88,0 77.97,35.08 77.97,77.96 0,42.88 -35.09,77.97 -77.97,77.97 h -779.67 c -42.88,0 -77.97,-35.09 -77.97,-77.97 0,-42.88 35.09,-77.96 77.97,-77.96"
         style="fill:#161b37;fill-opacity:1;fill-rule:nonzero;stroke:none"
         id="path18"
         inkscape:connector-curvature="0" /><path
         d="m 4150.11,3277.2 h 896.14 c 107.22,0 194.94,87.72 194.94,194.94 v 0 c 0,107.23 -87.72,194.95 -194.94,194.95 h -896.14 c -107.22,0 -194.94,-87.72 -194.94,-194.95 v 0 c 0,-107.22 87.72,-194.94 194.94,-194.94"
         style="fill:#5f2949;fill-opacity:1;fill-rule:nonzero;stroke:none"
         id="path20"
         inkscape:connector-curvature="0" /><path
         d="m 4857.58,3272 h 716.8 c 107.22,0 194.96,87.72 194.96,194.95 v 0 c 0,107.22 -87.74,194.94 -194.96,194.94 h -716.8 c -107.23,0 -194.95,-87.72 -194.95,-194.94 v 0 c 0,-107.23 87.72,-194.95 194.95,-194.95"
         style="fill:#5f2949;fill-opacity:1;fill-rule:nonzero;stroke:none"
         id="path22"
         inkscape:connector-curvature="0" /><path
         d="m 4116.43,1894.58 h 109.16 c 0,130.4 106.09,236.5 236.49,236.5 h 795.26 c 130.41,0 236.51,-106.1 236.51,-236.5 H 5603 c 0,190.59 -155.06,345.65 -345.66,345.65 h -795.26 c -190.6,0 -345.65,-155.06 -345.65,-345.65"
         style="fill:#161b37;fill-opacity:1;fill-rule:nonzero;stroke:none"
         id="path24"
         inkscape:connector-curvature="0" /><path
         d="m 5461.91,1789.03 c 0,-50.07 40.6,-90.67 90.68,-90.67 50.08,0 90.66,40.6 90.66,90.67 0,50.07 -40.58,90.67 -90.66,90.67 -50.08,0 -90.68,-40.6 -90.68,-90.67"
         style="fill:#161b37;fill-opacity:1;fill-rule:nonzero;stroke:none"
         id="path26"
         inkscape:connector-curvature="0" /><path
         d="m 5421.84,1797.03 h 248.13 v 27.55 c 0,65.9 -53.42,119.31 -119.31,119.31 h -9.52 c -65.89,0 -119.3,-53.41 -119.3,-119.31 v -27.55"
         style="fill:#161b37;fill-opacity:1;fill-rule:nonzero;stroke:none"
         id="path28"
         inkscape:connector-curvature="0" /><path
         d="m 4075.21,1789.03 c 0,-50.07 40.6,-90.67 90.68,-90.67 50.07,0 90.66,40.6 90.66,90.67 0,50.07 -40.59,90.67 -90.66,90.67 -50.08,0 -90.68,-40.6 -90.68,-90.67"
         style="fill:#161b37;fill-opacity:1;fill-rule:nonzero;stroke:none"
         id="path30"
         inkscape:connector-curvature="0" /><path
         d="m 4035.14,1797.03 h 248.13 v 27.55 c 0,65.9 -53.42,119.31 -119.31,119.31 h -9.52 c -65.89,0 -119.3,-53.41 -119.3,-119.31 v -27.55"
         style="fill:#161b37;fill-opacity:1;fill-rule:nonzero;stroke:none"
         id="path32"
         inkscape:connector-curvature="0" /><path
         d="m 4779.74,1878.98 h 144.477 v 327.469 H 4779.74 Z"
         style="fill:#161b37;fill-opacity:1;fill-rule:nonzero;stroke:none"
         id="path34"
         inkscape:connector-curvature="0" /><path
         d="m 4758.26,1789.03 c 0,-50.07 40.6,-90.67 90.68,-90.67 50.06,0 90.66,40.6 90.66,90.67 0,50.07 -40.6,90.67 -90.66,90.67 -50.08,0 -90.68,-40.6 -90.68,-90.67"
         style="fill:#161b37;fill-opacity:1;fill-rule:nonzero;stroke:none"
         id="path36"
         inkscape:connector-curvature="0" /><path
         d="m 4718.18,1797.03 h 248.14 v 27.55 c 0,65.9 -53.42,119.31 -119.31,119.31 h -9.52 c -65.89,0 -119.31,-53.41 -119.31,-119.31 v -27.55"
         style="fill:#2a3463;fill-opacity:1;fill-rule:nonzero;stroke:none"
         id="path38"
         inkscape:connector-curvature="0" /><path
         d="m 3726.48,4943.16 c 12.65,28.69 522.49,856.87 710.57,950.92 188.1,94.05 551.99,119.62 657.85,64.96 413.79,-213.68 752.65,-904.9 815.55,-1057.67 73.15,-177.65 0,-407.54 -83.6,-407.54 -83.59,0 -1964.53,0 -1964.53,0 0,0 -292.58,94.05 -135.84,449.33"
         style="fill:#232334;fill-opacity:1;fill-rule:nonzero;stroke:none"
         id="path40"
         inkscape:connector-curvature="0" /><path
         d="m 4987.48,6222.67 h -247.23 c -210.47,0 -381.1,170.62 -381.1,381.1 v 291.13 c 0,264.59 214.5,479.08 479.09,479.08 h 51.26 c 264.59,0 479.08,-214.49 479.08,-479.08 v -291.13 c 0,-210.48 -170.62,-381.1 -381.1,-381.1"
         style="fill:#161b37;fill-opacity:1;fill-rule:nonzero;stroke:none"
         id="path42"
         inkscape:connector-curvature="0" /><path
         d="m 4511.65,6736.06 -6.47,-111.9 -4.47,-75.55 -33.73,1.49 c -2.47,0.14 -4.93,0.27 -7.23,0.69 -56.23,5.95 -98.6,51.12 -95.82,100.77 1.38,25.77 14.94,47.2 35.58,63.48 18.48,14.51 42.82,22.24 69.32,22.51 h 0.15 c 3.08,0.27 5.7,0.27 8.78,0 l 33.89,-1.49"
         style="fill:#c87137;fill-opacity:1;fill-rule:nonzero;stroke:none"
         id="path44"
         inkscape:connector-curvature="0" /><path
         d="m 5246.99,6733.49 6.48,-111.9 4.46,-75.54 33.74,1.48 c 2.46,0.14 4.92,0.28 7.24,0.69 56.22,5.96 98.58,51.12 95.81,100.77 -1.39,25.77 -14.94,47.2 -35.59,63.48 -18.48,14.51 -42.82,22.25 -69.32,22.51 h -0.15 c -3.08,0.27 -5.7,0.27 -8.78,0 l -33.89,-1.49"
         style="fill:#c87137;fill-opacity:1;fill-rule:nonzero;stroke:none"
         id="path46"
         inkscape:connector-curvature="0" /><path
         d="m 4896.72,5836.35 h -76.69 c -70.38,0 -127.96,57.57 -127.96,127.95 v 360.55 c 0,70.37 57.58,127.95 127.96,127.95 h 76.69 c 70.37,0 127.95,-57.58 127.95,-127.95 V 5964.3 c 0,-70.38 -57.58,-127.95 -127.95,-127.95"
         style="fill:#784421;fill-opacity:1;fill-rule:nonzero;stroke:none"
         id="path48"
         inkscape:connector-curvature="0" /><path
         d="m 5311.76,6751.55 -10.48,-204.73 -1.53,-30.65 c -0.93,-20.19 -3.55,-40.21 -7.24,-59.47 -31.59,-162.67 -156.21,-291.3 -314.88,-332.12 -17.72,-4.62 -35.89,-8.01 -54.38,-10.32 -5.54,-0.93 -11.24,-1.39 -16.79,-1.69 -11.7,-1.24 -23.41,-1.86 -35.27,-1.86 -8.48,0 -16.95,0.31 -25.57,0.62 -19.41,1.08 -38.21,3.39 -56.85,6.94 -7.7,1.38 -15.25,3.07 -22.79,4.92 -28.81,6.78 -56.23,16.64 -82.27,28.96 l -0.3,0.16 c -124.78,59 -215.67,175.15 -240.47,311.79 l -0.16,1.23 c -2.46,14.79 -4.31,29.73 -5.39,44.83 -0.46,4.78 -0.61,9.39 -0.77,14.17 -0.16,4.93 -0.3,9.7 -0.16,14.63 -0.3,5.7 0,11.55 0.32,17.41 v 3.08 l 0.61,14.02 2,36.51 3.09,62.54 v 0.61 l 3.08,63.16 0.15,1.24 v 0.16 l 1.23,23.25 0.93,18.18 0.93,16.64 0.3,4.31 c 1.7,28.96 7.55,57 16.03,83.8 5.69,18.8 12.77,37.13 20.63,54.69 1.08,2.93 2.16,5.39 3.39,8.01 6.47,14.48 14.02,28.8 22.19,42.36 l 0.15,0.31 c 30.96,51.76 72.71,96.58 122.01,131.24 9.85,6.94 20.02,13.57 30.34,19.73 71.94,42.21 156.36,64.85 245.4,60.23 119.07,-6.17 225.83,-59.62 300.23,-141.26 21.88,-24.04 39.75,-50.22 54.38,-78.56 12.17,-22.96 22.19,-47.14 30.81,-72.72 5.55,-16.02 9.55,-32.5 12.48,-49.14 v -0.3 c 0.92,-5.71 1.69,-11.25 2.3,-16.95 1.23,-10.01 2.16,-20.18 2.62,-30.5 0.94,-19.41 0.77,-39.28 -0.3,-59.46"
         style="fill:#c87137;fill-opacity:1;fill-rule:nonzero;stroke:none"
         id="path50"
         inkscape:connector-curvature="0" /><path
         d="m 5005.75,6649.69 v 0 c -10.59,0 -19.26,8.66 -19.26,19.25 v 31.62 c 0,10.59 8.67,19.25 19.26,19.25 10.59,0 19.26,-8.66 19.26,-19.25 v -31.62 c 0,-10.59 -8.67,-19.25 -19.26,-19.25"
         style="fill:#161b37;fill-opacity:1;fill-rule:nonzero;stroke:none"
         id="path52"
         inkscape:connector-curvature="0" /><path
         d="m 4669.41,6650.97 v 0 c -10.58,0 -19.25,8.66 -19.25,19.26 v 31.61 c 0,10.59 8.67,19.26 19.25,19.26 10.6,0 19.26,-8.67 19.26,-19.26 v -31.61 c 0,-10.6 -8.66,-19.26 -19.26,-19.26"
         style="fill:#161b37;fill-opacity:1;fill-rule:nonzero;stroke:none"
         id="path54"
         inkscape:connector-curvature="0" /><path
         d="m 5102.99,6775.26 h -136.08 c -13.41,0 -24.39,10.98 -24.39,24.39 0,13.42 10.98,24.39 24.39,24.39 h 136.08 c 13.41,0 24.38,-10.97 24.38,-24.39 0,-13.41 -10.97,-24.39 -24.38,-24.39"
         style="fill:#161b37;fill-opacity:1;fill-rule:nonzero;stroke:none"
         id="path56"
         inkscape:connector-curvature="0" /><path
         d="m 4771.79,6775.26 h -136.08 c -13.42,0 -24.39,10.98 -24.39,24.39 0,13.42 10.97,24.39 24.39,24.39 h 136.08 c 13.41,0 24.38,-10.97 24.38,-24.39 0,-13.41 -10.97,-24.39 -24.38,-24.39"
         style="fill:#161b37;fill-opacity:1;fill-rule:nonzero;stroke:none"
         id="path58"
         inkscape:connector-curvature="0" /><path
         d="m 5000.88,6424.09 c -39.42,-57.78 -93.28,-89.64 -147.16,-81.3 -45.18,6.99 -81.84,40.9 -104.39,91.15 l 251.55,-9.85"
         style="fill:#ffffff;fill-opacity:1;fill-rule:nonzero;stroke:none"
         id="path60"
         inkscape:connector-curvature="0" /><path
         d="m 4820.87,6556.78 h 92.42 c 0,0 -43.64,-61.62 -92.42,0"
         style="fill:#d38d5f;fill-opacity:1;fill-rule:nonzero;stroke:none"
         id="path62"
         inkscape:connector-curvature="0" /><path
         d="m 5311.76,6751.55 -10.48,-204.73 -1.53,-30.65 c -0.93,-20.19 -3.55,-40.21 -7.24,-59.47 -31.59,-162.67 -156.21,-291.3 -314.88,-332.12 -17.72,-4.62 -35.89,-8.01 -54.38,-10.32 -5.54,-0.93 -11.24,-1.39 -16.79,-1.69 -11.7,-1.24 -23.41,-1.86 -35.27,-1.86 -8.48,0 -16.95,0.31 -25.57,0.62 -22.04,0.93 -43.6,3.39 -64.86,7.09 -4.3,0.77 -8.47,1.38 -12.78,2.31 -29.12,6.77 -56.7,16.64 -82.88,28.96 l -0.31,0.15 c -125.7,59.46 -217.36,176.39 -241.85,314.26 l -0.16,1.23 c -2.61,14.79 -4.46,29.73 -5.39,44.83 -0.46,4.78 -0.61,9.39 -0.77,14.17 -0.16,4.93 -0.3,9.7 -0.16,14.63 -0.3,5.7 0,11.55 0.32,17.41 v 3.08 l 0.61,14.02 2,36.51 3.09,62.54 c 19.25,-229.06 100.28,-518.52 385.88,-530.23 395.44,-16.17 477.54,418.55 483.7,668.72 0.94,-19.41 0.77,-39.28 -0.3,-59.46"
         style="fill:#c87137;fill-opacity:1;fill-rule:nonzero;stroke:none"
         id="path64"
         inkscape:connector-curvature="0" /><path
         d="m 4750.26,6993.25 233.3,-72.22 c 36.76,-11.38 70.56,24.46 57.05,60.49 l -1.52,4.02 28.12,-14.97 c 82.36,-43.89 149.05,-112.29 190.83,-195.75 l 53.24,-106.35 c 0,0 125.8,539.16 -464.74,551.99 -471.31,10.25 -412.08,-462.13 -412.08,-462.13 0,0 103.99,265.73 315.8,234.92"
         style="fill:#161b37;fill-opacity:1;fill-rule:nonzero;stroke:none"
         id="path66"
         inkscape:connector-curvature="0" /><path
         d="m 5366.03,3831.04 c 0,-47.58 -26.66,-91.19 -70.92,-125.18 -56.61,-43.6 -142.51,-71.42 -238.62,-71.42 h -520.17 c -15.46,0 -30.61,0.73 -45.41,2.19 -38.19,3.45 -74.05,11.51 -106.31,23.11 -5.76,1.99 -11.36,4.19 -16.79,6.49 -84.74,35.03 -140.86,95.79 -140.86,164.81 l 9.54,104.89 1120.49,6.17 9.05,-111.06"
         style="fill:#1a1a22;fill-opacity:1;fill-rule:nonzero;stroke:none"
         id="path68"
         inkscape:connector-curvature="0" /><path
         d="m 4586.6,1743.53 h -296.27 c -58.61,0 -106.56,47.95 -106.56,106.56 0,58.6 47.95,106.55 106.56,106.55 h 296.27 c 58.61,0 106.55,-47.95 106.55,-106.55 0,-58.61 -47.94,-106.56 -106.55,-106.56"
         style="fill:#5f2949;fill-opacity:1;fill-rule:nonzero;stroke:none"
         id="path70"
         inkscape:connector-curvature="0" /><path
         d="m 4630.78,1950.65 h -395.03 v 1772.46 c 0,109.08 88.43,197.51 197.52,197.51 109.08,0 197.51,-88.43 197.51,-197.51 V 1950.65"
         style="fill:#1a1a22;fill-opacity:1;fill-rule:nonzero;stroke:none"
         id="path72"
         inkscape:connector-curvature="0" /><path
         d="m 5324.69,1743.53 h -296.27 c -58.61,0 -106.55,47.95 -106.55,106.56 0,58.6 47.94,106.55 106.55,106.55 h 296.27 c 58.61,0 106.56,-47.95 106.56,-106.55 0,-58.61 -47.95,-106.56 -106.56,-106.56"
         style="fill:#5f2949;fill-opacity:1;fill-rule:nonzero;stroke:none"
         id="path74"
         inkscape:connector-curvature="0" /><path
         d="m 5368.88,1950.65 h -395.04 v 1772.46 c 0,109.08 88.44,197.51 197.52,197.51 109.08,0 197.52,-88.43 197.52,-197.51 V 1950.65"
         style="fill:#1a1a22;fill-opacity:1;fill-rule:nonzero;stroke:none"
         id="path76"
         inkscape:connector-curvature="0" /><path
         d="m 4230.56,3700 h 1138.32 v 486.672 H 4230.56 Z"
         style="fill:#1a1a22;fill-opacity:1;fill-rule:nonzero;stroke:none"
         id="path78"
         inkscape:connector-curvature="0" /><path
         d="m 5393.47,5471.62 -34.99,-1194.56 -1122.73,-10.39 -29.36,1204.95 c 0,250.18 181.16,458.29 419.46,500.19 28.66,4.93 58.08,7.55 88.27,7.55 h 171.61 c 280.36,0 507.74,-227.37 507.74,-507.74"
         style="fill:#232334;fill-opacity:1;fill-rule:nonzero;stroke:none"
         id="path80"
         inkscape:connector-curvature="0" /><path
         d="m 5077.79,4293.33 h -447.01 l 1.08,1716.84 h 454.44 l -8.51,-1716.84"
         style="fill:#edeff0;fill-opacity:1;fill-rule:nonzero;stroke:none"
         id="path82"
         inkscape:connector-curvature="0" /><path
         d="m 4746.44,5991.95 c 7.7,-11.56 123.24,-177.16 123.24,-177.16 l 138.64,169.45 -71.23,17.83 -127.09,-15.4 -63.56,5.28"
         style="fill:#ff8c00;fill-opacity:1;fill-rule:nonzero;stroke:none"
         id="path84"
         inkscape:connector-curvature="0" /><path
         d="m 5091.43,5854.63 -213.1,125.17 -249.03,-125.17 v 154.05 h 462.13 v -154.05"
         style="fill:#ffffff;fill-opacity:1;fill-rule:nonzero;stroke:none"
         id="path86"
         inkscape:connector-curvature="0" /><path
         d="m 4823.47,5333.4 h 103.973 v 585.383 H 4823.47 Z"
         style="fill:#ff8c00;fill-opacity:1;fill-rule:nonzero;stroke:none"
         id="path88"
         inkscape:connector-curvature="0" /><path
         d="m 4498.04,7019.26 -14.13,-355.16 c -0.68,-16.85 -16.08,-29.23 -32.68,-26.27 -13.08,2.34 -22.69,13.6 -22.92,26.88 l -5.37,300.64 75.1,53.91"
         style="fill:#161b37;fill-opacity:1;fill-rule:nonzero;stroke:none"
         id="path90"
         inkscape:connector-curvature="0" /><path
         d="m 5249.01,6986.53 14.14,-355.16 c 0.67,-16.86 16.07,-29.24 32.68,-26.27 13.08,2.33 22.68,13.59 22.91,26.88 l 5.37,300.63 -75.1,53.92"
         style="fill:#161b37;fill-opacity:1;fill-rule:nonzero;stroke:none"
         id="path92"
         inkscape:connector-curvature="0" /><path
         d="M 5507.91,5310.38 V 4482.05 H 4135.69 v 828.33 c 0,80.93 65.5,146.26 146.26,146.26 h 1079.7 c 43.04,0 81.71,-18.55 108.37,-48.03 23.55,-25.88 37.89,-60.35 37.89,-98.23"
         style="fill:#958fa7;fill-opacity:1;fill-rule:nonzero;stroke:none"
         id="path94"
         inkscape:connector-curvature="0" /><path
         d="m 4923.16,4969.42 c 0,-55.97 -45.38,-101.35 -101.35,-101.35 -55.98,0 -101.36,45.38 -101.36,101.35 0,55.98 45.38,101.36 101.36,101.36 55.97,0 101.35,-45.38 101.35,-101.36"
         style="fill:#ffffff;fill-opacity:1;fill-rule:nonzero;stroke:none"
         id="path96"
         inkscape:connector-curvature="0" /><g
         id="g98"><g
           id="g100"
           clip-path="url(#clipPath104)"><path
             d="m 4135.69,4494.5 h 1372.22 v 820.93 H 4135.69 Z"
             style="fill:#807b93;fill-opacity:1;fill-rule:nonzero;stroke:none"
             id="path106"
             inkscape:connector-curvature="0" /></g></g><path
         d="m 4751.06,4896.84 c -18.88,18.41 -30.61,44.13 -30.61,72.58 0,55.98 45.38,101.36 101.36,101.36 55.97,0 101.35,-45.38 101.35,-101.36 0,-1.34 -0.02,-2.68 -0.07,-4.02 -0.03,-0.04 -0.06,-0.07 -0.08,-0.11 -24.42,-35.5 -55.24,-62.74 -91.38,-62.74 -4.49,0 -9.07,0.42 -13.73,1.3 -2.74,0.51 -6.1,0.75 -10.04,0.75 -13.1,0 -32.6,-2.72 -56.8,-7.76"
         style="fill:#dfdee1;fill-opacity:1;fill-rule:nonzero;stroke:none"
         id="path108"
         inkscape:connector-curvature="0" /><path
         d="M 5348.09,1783.96 H 4248.74 c 0,94.73 76.8,171.52 171.53,171.52 h 756.28 c 94.74,0 171.54,-76.79 171.54,-171.52"
         style="fill:#ffffff;fill-opacity:1;fill-rule:nonzero;stroke:none"
         id="path110"
         inkscape:connector-curvature="0" /><path
         d="M 4925.81,4222.89 V 1951.31 c 0,-28.34 -22.97,-51.31 -51.31,-51.31 h -115.68 c -28.34,0 -51.32,22.97 -51.32,51.31 v 2271.58 h 218.31"
         style="fill:#958fa7;fill-opacity:1;fill-rule:nonzero;stroke:none"
         id="path112"
         inkscape:connector-curvature="0" /><path
         d="m 4122.82,4113.73 h 1387.81 v 140.34 H 4122.82 Z"
         style="fill:#554f71;fill-opacity:1;fill-rule:nonzero;stroke:none"
         id="path114"
         inkscape:connector-curvature="0" /><path
         d="m 3591.8,4213.8 h 2449.9 v 280.699 H 3591.8 Z"
         style="fill:#ffffff;fill-opacity:1;fill-rule:nonzero;stroke:none"
         id="path116"
         inkscape:connector-curvature="0" /><path
         d="M 5348.09,1688.96 H 4248.74 c 0,94.73 76.8,171.52 171.53,171.52 h 756.28 c 94.74,0 171.54,-76.79 171.54,-171.52"
         style="fill:#efedf1;fill-opacity:1;fill-rule:nonzero;stroke:none"
         id="path118"
         inkscape:connector-curvature="0" /><path
         d="m 3591.8,4213.84 h 2449.88 v 133.789 H 3591.8 Z"
         style="fill:#efedf1;fill-opacity:1;fill-rule:nonzero;stroke:none"
         id="path120"
         inkscape:connector-curvature="0" /><path
         d="m 4707.5,4169.25 218.31,4.99 v -172.47 l -218.31,-85.14 v 252.62"
         style="fill:#554f71;fill-opacity:1;fill-rule:nonzero;stroke:none"
         id="path122"
         inkscape:connector-curvature="0" /><path
         d="m 4716.67,4443.9 c 0,-22.42 -18.17,-40.6 -40.6,-40.6 H 3591.8 v 81.2 h 1084.27 c 22.43,0 40.6,-18.18 40.6,-40.6"
         style="fill:#958fa7;fill-opacity:1;fill-rule:nonzero;stroke:none"
         id="path124"
         inkscape:connector-curvature="0" /><path
         d="m 6041.68,4464.5 v -61.2 h -391.07 c -16.91,0 -30.61,13.7 -30.61,30.6 0,16.9 13.7,30.6 30.61,30.6 h 391.07"
         style="fill:#958fa7;fill-opacity:1;fill-rule:nonzero;stroke:none"
         id="path126"
         inkscape:connector-curvature="0" /><path
         d="m 1959.58,3380.44 -399.5,1781.95 c -10.09,74.76 215.27,46.21 290.59,50.33 48.42,2.65 143.42,-12.64 154.27,-117.58 l 226.49,-1678.01 c 10.08,-74.76 -42.83,-144.18 -117.58,-154.27 -74.76,-10.09 -144.18,42.82 -154.27,117.58"
         style="fill:#5f2949;fill-opacity:1;fill-rule:nonzero;stroke:none"
         id="path128"
         inkscape:connector-curvature="0" /><path
         d="M 1717.88,3380.44 1491.4,5058.45 c -10.09,74.76 42.82,144.18 117.57,154.27 74.76,10.09 144.18,-42.82 154.27,-117.58 l 226.49,-1678.01 c 10.08,-74.76 -42.83,-144.18 -117.58,-154.27 -74.76,-10.09 -144.18,42.82 -154.27,117.58"
         style="fill:#db2935;fill-opacity:1;fill-rule:nonzero;stroke:none"
         id="path130"
         inkscape:connector-curvature="0" /><path
         d="m 2493.52,2209.57 h 159.539 v 941 H 2493.52 Z"
         style="fill:#958fa7;fill-opacity:1;fill-rule:nonzero;stroke:none"
         id="path132"
         inkscape:connector-curvature="0" /><path
         d="m 2653.06,3095.8 v -212.66 l -159.54,61.73 v 143.98 c 39.93,1.88 116.76,5.08 159.54,6.95"
         style="fill:#232334;fill-opacity:1;fill-rule:nonzero;stroke:none"
         id="path134"
         inkscape:connector-curvature="0" /><path
         d="m 2942.92,3074.48 h -712.88 c -39.21,0 -71.29,32.08 -71.29,71.29 0,39.21 32.08,71.29 71.29,71.29 h 712.88 c 39.21,0 71.29,-32.08 71.29,-71.29 0,-39.21 -32.08,-71.29 -71.29,-71.29"
         style="fill:#232334;fill-opacity:1;fill-rule:nonzero;stroke:none"
         id="path136"
         inkscape:connector-curvature="0" /><path
         d="m 3291.81,3160.03 h -819.36 c -98.04,0 -178.25,80.21 -178.25,178.25 v 0 c 0,98.03 80.21,178.24 178.25,178.24 h 819.36 c 98.03,0 178.25,-80.21 178.25,-178.24 v 0 c 0,-98.04 -80.22,-178.25 -178.25,-178.25"
         style="fill:#5f2949;fill-opacity:1;fill-rule:nonzero;stroke:none"
         id="path138"
         inkscape:connector-curvature="0" /><path
         d="m 3035.18,3160.03 h -819.37 c -98.04,0 -178.24,80.21 -178.24,178.25 v 0 c 0,98.03 80.2,178.24 178.24,178.24 h 819.37 c 98.03,0 178.24,-80.21 178.24,-178.24 v 0 c 0,-98.04 -80.21,-178.25 -178.24,-178.25"
         style="fill:#5f2949;fill-opacity:1;fill-rule:nonzero;stroke:none"
         id="path140"
         inkscape:connector-curvature="0" /><path
         d="m 2571.81,3155.28 h -655.4 c -98.04,0 -178.26,80.21 -178.26,178.24 0,98.04 80.22,178.25 178.26,178.25 h 655.4 c 98.03,0 178.24,-80.21 178.24,-178.25 0,-98.03 -80.21,-178.24 -178.24,-178.24"
         style="fill:#db2935;fill-opacity:1;fill-rule:nonzero;stroke:none"
         id="path142"
         inkscape:connector-curvature="0" /><path
         d="m 3249.45,1895.86 h -99.8 c 0,119.23 -97,216.24 -216.23,216.24 h -727.14 c -119.24,0 -216.24,-97.01 -216.24,-216.24 h -99.81 c 0,174.27 141.78,316.04 316.05,316.04 h 727.14 c 174.26,0 316.03,-141.77 316.03,-316.04"
         style="fill:#161b37;fill-opacity:1;fill-rule:nonzero;stroke:none"
         id="path144"
         inkscape:connector-curvature="0" /><path
         d="m 2455.78,2209.53 h 232.879 v 152.078 H 2455.78 Z"
         style="fill:#161b37;fill-opacity:1;fill-rule:nonzero;stroke:none"
         id="path146"
         inkscape:connector-curvature="0" /><path
         d="m 2019.24,1799.35 c 0,-45.78 -37.12,-82.9 -82.91,-82.9 -45.78,0 -82.9,37.12 -82.9,82.9 0,45.79 37.12,82.91 82.9,82.91 45.79,0 82.91,-37.12 82.91,-82.91"
         style="fill:#161b37;fill-opacity:1;fill-rule:nonzero;stroke:none"
         id="path148"
         inkscape:connector-curvature="0" /><path
         d="M 2055.88,1806.67 H 1829 v 25.19 c 0,60.25 48.84,109.09 109.1,109.09 h 8.7 c 60.24,0 109.08,-48.84 109.08,-109.09 v -25.19"
         style="fill:#2a3463;fill-opacity:1;fill-rule:nonzero;stroke:none"
         id="path150"
         inkscape:connector-curvature="0" /><path
         d="m 3287.14,1799.35 c 0,-45.78 -37.12,-82.9 -82.9,-82.9 -45.79,0 -82.9,37.12 -82.9,82.9 0,45.79 37.11,82.91 82.9,82.91 45.78,0 82.9,-37.12 82.9,-82.91"
         style="fill:#161b37;fill-opacity:1;fill-rule:nonzero;stroke:none"
         id="path152"
         inkscape:connector-curvature="0" /><path
         d="M 3323.79,1806.67 H 3096.9 v 25.19 c 0,60.25 48.85,109.09 109.1,109.09 h 8.7 c 60.24,0 109.09,-48.84 109.09,-109.09 v -25.19"
         style="fill:#2a3463;fill-opacity:1;fill-rule:nonzero;stroke:none"
         id="path154"
         inkscape:connector-curvature="0" /><path
         d="m 2510.87,1881.6 h 132.098 v 299.41 H 2510.87 Z"
         style="fill:#161b37;fill-opacity:1;fill-rule:nonzero;stroke:none"
         id="path156"
         inkscape:connector-curvature="0" /><path
         d="m 2662.61,1799.35 c 0,-45.78 -37.12,-82.9 -82.9,-82.9 -45.79,0 -82.9,37.12 -82.9,82.9 0,45.79 37.11,82.91 82.9,82.91 45.78,0 82.9,-37.12 82.9,-82.91"
         style="fill:#161b37;fill-opacity:1;fill-rule:nonzero;stroke:none"
         id="path158"
         inkscape:connector-curvature="0" /><path
         d="m 2699.26,1806.67 h -226.89 v 25.19 c 0,60.25 48.84,109.09 109.09,109.09 h 8.71 c 60.24,0 109.09,-48.84 109.09,-109.09 v -25.19"
         style="fill:#2a3463;fill-opacity:1;fill-rule:nonzero;stroke:none"
         id="path160"
         inkscape:connector-curvature="0" /><path
         d="m 7345.96,3380.44 399.5,1781.95 c 10.09,74.76 -215.27,46.21 -290.6,50.33 -48.41,2.65 -143.41,-12.64 -154.26,-117.58 L 7074.11,3417.13 c -10.09,-74.76 42.82,-144.18 117.58,-154.27 74.76,-10.09 144.18,42.82 154.27,117.58"
         style="fill:#5f2949;fill-opacity:1;fill-rule:nonzero;stroke:none"
         id="path162"
         inkscape:connector-curvature="0" /><path
         d="m 7587.66,3380.44 226.48,1678.01 c 10.09,74.76 -42.82,144.18 -117.58,154.27 -74.75,10.09 -144.18,-42.82 -154.27,-117.58 L 7315.81,3417.13 c -10.09,-74.76 42.82,-144.18 117.58,-154.27 74.75,-10.09 144.18,42.82 154.27,117.58"
         style="fill:#db2935;fill-opacity:1;fill-rule:nonzero;stroke:none"
         id="path164"
         inkscape:connector-curvature="0" /><path
         d="m 6652.48,2209.57 h 159.539 v 941 H 6652.48 Z"
         style="fill:#958fa7;fill-opacity:1;fill-rule:nonzero;stroke:none"
         id="path166"
         inkscape:connector-curvature="0" /><path
         d="m 6652.48,3095.8 v -212.66 l 159.54,61.73 v 143.98 c -39.93,1.88 -116.78,5.08 -159.54,6.95"
         style="fill:#232334;fill-opacity:1;fill-rule:nonzero;stroke:none"
         id="path168"
         inkscape:connector-curvature="0" /><path
         d="m 6362.62,3074.48 h 712.88 c 39.21,0 71.29,32.08 71.29,71.29 0,39.21 -32.08,71.29 -71.29,71.29 h -712.88 c -39.21,0 -71.29,-32.08 -71.29,-71.29 0,-39.21 32.08,-71.29 71.29,-71.29"
         style="fill:#232334;fill-opacity:1;fill-rule:nonzero;stroke:none"
         id="path170"
         inkscape:connector-curvature="0" /><path
         d="m 6013.73,3160.03 h 819.36 c 98.03,0 178.25,80.21 178.25,178.25 v 0 c 0,98.03 -80.22,178.24 -178.25,178.24 h -819.36 c -98.04,0 -178.25,-80.21 -178.25,-178.24 v 0 c 0,-98.04 80.21,-178.25 178.25,-178.25"
         style="fill:#5f2949;fill-opacity:1;fill-rule:nonzero;stroke:none"
         id="path172"
         inkscape:connector-curvature="0" /><path
         d="m 6270.36,3160.03 h 819.37 c 98.03,0 178.25,80.21 178.25,178.25 v 0 c 0,98.03 -80.22,178.24 -178.25,178.24 h -819.37 c -98.04,0 -178.24,-80.21 -178.24,-178.24 v 0 c 0,-98.04 80.2,-178.25 178.24,-178.25"
         style="fill:#5f2949;fill-opacity:1;fill-rule:nonzero;stroke:none"
         id="path174"
         inkscape:connector-curvature="0" /><path
         d="m 6733.73,3155.28 h 655.4 c 98.04,0 178.25,80.21 178.25,178.24 0,98.04 -80.21,178.25 -178.25,178.25 h -655.4 c -98.04,0 -178.24,-80.21 -178.24,-178.25 0,-98.03 80.2,-178.24 178.24,-178.24"
         style="fill:#db2935;fill-opacity:1;fill-rule:nonzero;stroke:none"
         id="path176"
         inkscape:connector-curvature="0" /><path
         d="m 6056.08,1895.86 h 99.81 c 0,119.23 97,216.24 216.23,216.24 h 727.14 c 119.24,0 216.24,-97.01 216.24,-216.24 h 99.8 c 0,174.27 -141.77,316.04 -316.04,316.04 h -727.14 c -174.26,0 -316.04,-141.77 -316.04,-316.04"
         style="fill:#161b37;fill-opacity:1;fill-rule:nonzero;stroke:none"
         id="path178"
         inkscape:connector-curvature="0" /><path
         d="m 6616.88,2209.53 h 232.883 v 152.078 H 6616.88 Z"
         style="fill:#161b37;fill-opacity:1;fill-rule:nonzero;stroke:none"
         id="path180"
         inkscape:connector-curvature="0" /><path
         d="m 7286.3,1799.35 c 0,-45.78 37.12,-82.9 82.91,-82.9 45.78,0 82.9,37.12 82.9,82.9 0,45.79 -37.12,82.91 -82.9,82.91 -45.79,0 -82.91,-37.12 -82.91,-82.91"
         style="fill:#161b37;fill-opacity:1;fill-rule:nonzero;stroke:none"
         id="path182"
         inkscape:connector-curvature="0" /><path
         d="m 7249.66,1806.67 h 226.87 v 25.19 c 0,60.25 -48.83,109.09 -109.09,109.09 h -8.7 c -60.24,0 -109.08,-48.84 -109.08,-109.09 v -25.19"
         style="fill:#2a3463;fill-opacity:1;fill-rule:nonzero;stroke:none"
         id="path184"
         inkscape:connector-curvature="0" /><path
         d="m 6018.4,1799.35 c 0,-45.78 37.12,-82.9 82.9,-82.9 45.79,0 82.9,37.12 82.9,82.9 0,45.79 -37.11,82.91 -82.9,82.91 -45.78,0 -82.9,-37.12 -82.9,-82.91"
         style="fill:#161b37;fill-opacity:1;fill-rule:nonzero;stroke:none"
         id="path186"
         inkscape:connector-curvature="0" /><path
         d="m 5981.75,1806.67 h 226.88 v 25.19 c 0,60.25 -48.84,109.09 -109.09,109.09 h -8.7 c -60.25,0 -109.09,-48.84 -109.09,-109.09 v -25.19"
         style="fill:#2a3463;fill-opacity:1;fill-rule:nonzero;stroke:none"
         id="path188"
         inkscape:connector-curvature="0" /><path
         d="m 6662.57,1881.6 h 132.102 v 299.41 H 6662.57 Z"
         style="fill:#161b37;fill-opacity:1;fill-rule:nonzero;stroke:none"
         id="path190"
         inkscape:connector-curvature="0" /><path
         d="m 6642.93,1799.35 c 0,-45.78 37.12,-82.9 82.9,-82.9 45.79,0 82.9,37.12 82.9,82.9 0,45.79 -37.11,82.91 -82.9,82.91 -45.78,0 -82.9,-37.12 -82.9,-82.91"
         style="fill:#161b37;fill-opacity:1;fill-rule:nonzero;stroke:none"
         id="path192"
         inkscape:connector-curvature="0" /><path
         d="m 6606.28,1806.67 h 226.88 v 25.19 c 0,60.25 -48.84,109.09 -109.09,109.09 h -8.7 c -60.24,0 -109.09,-48.84 -109.09,-109.09 v -25.19"
         style="fill:#2a3463;fill-opacity:1;fill-rule:nonzero;stroke:none"
         id="path194"
         inkscape:connector-curvature="0" /><path
         d="m 5913.34,4808.73 -0.31,-5.3 -0.94,-12.63 -1.4,-18.4 -1.56,-20.59 -2.19,-31.18 V 4720 l -3.89,-51.14 -7.33,-101.04 -4.83,-66.28 -6.06,-62.76 -202.71,0.78 -5.33,61.98 -4.84,66.28 -7.32,101.04 -3.74,51.14 -2.19,30.1 -2.02,27.6 -0.94,13.1 -0.94,12.63 -0.46,5.3 h 259"
         style="fill:#fdfefe;fill-opacity:1;fill-rule:nonzero;stroke:none"
         id="path196"
         inkscape:connector-curvature="0" /><path
         d="m 5874.36,4815.44 h -48.85 c -9.97,0 -18.05,8.08 -18.05,18.05 0,9.97 8.08,18.05 18.05,18.05 h 48.85 c 9.97,0 18.05,-8.08 18.05,-18.05 0,-9.97 -8.08,-18.05 -18.05,-18.05"
         style="fill:#182241;fill-opacity:1;fill-rule:nonzero;stroke:none"
         id="path198"
         inkscape:connector-curvature="0" /><path
         d="m 5929.32,4803.49 v -21.79 c 0,-13.51 -8.28,-25.11 -20.14,-29.95 -3.82,-1.53 -7.9,-2.42 -12.24,-2.42 h -231.53 c -2.29,0 -4.59,0.26 -6.76,0.77 -14.66,3.05 -25.61,16.05 -25.61,31.6 v 21.79 c 0.25,17.58 14.66,31.86 32.37,31.86 h 231.53 c 17.72,0 32.12,-14.28 32.38,-31.86"
         style="fill:#ff8c00;fill-opacity:1;fill-rule:nonzero;stroke:none"
         id="path200"
         inkscape:connector-curvature="0" /><path
         d="m 5906.94,4720 -3.89,-51.14 -7.33,-101.04 -4.83,-66.28 h -214.1 l -4.84,66.28 -7.32,101.04 -3.74,51.14 h 246.05"
         style="fill:#808080;fill-opacity:1;fill-rule:nonzero;stroke:none"
         id="path202"
         inkscape:connector-curvature="0" /><path
         d="m 6373.97,5535.7 -1.71,-1.88 c -53.18,-56.44 -167.47,-178.07 -480.9,-277.24 -53.33,-16.85 -112.28,-33.22 -177.77,-48.35 -59.88,-13.88 -118.36,-24.79 -174.49,-33.21 -132.86,-19.95 -253.4,-26.2 -352.88,-26.2 -166.84,0 -274.6,17.78 -282.7,19.18 l 19.64,115.24 -20.74,93.56 c -12.63,2.34 285.21,-23.86 625.14,32.9 43.97,7.33 88.57,16.07 133.33,26.51 71.26,16.53 133.01,34 186.81,52.08 234.2,78.13 436.14,190.25 474.97,231.57 l -118.98,-23.87 170.28,-160.29"
         style="fill:#c87137;fill-opacity:1;fill-rule:nonzero;stroke:none"
         id="path204"
         inkscape:connector-curvature="0" /><path
         d="m 4753.35,5295.87 c 0,-1.25 0,-2.34 -0.16,-3.58 -1.25,-11.7 -8.41,-22.46 -19.8,-27.77 L 4623.61,5214.01 4497.62,5156 c -6.7,-3.12 -13.88,-3.9 -20.74,-2.49 -10.6,2.02 -20.12,8.88 -24.95,19.33 -2.18,4.67 -3.12,9.51 -3.12,14.34 0,12.95 7.49,25.58 19.96,31.35 l 46.31,21.36 45.22,20.9 111.18,51.14 2.96,1.41 30.1,13.87 c 15.91,7.18 34.62,1.41 43.66,-13.25 0.78,-1.25 1.41,-2.49 2.03,-3.74 2.18,-4.68 3.12,-9.51 3.12,-14.35"
         style="fill:#f49986;fill-opacity:1;fill-rule:nonzero;stroke:none"
         id="path206"
         inkscape:connector-curvature="0" /><path
         d="m 4743.68,5192.8 c 0,-13.1 -7.49,-25.57 -20.12,-31.34 l -17.77,-8.27 -171.38,-79.06 c -17.3,-7.95 -37.89,-0.31 -45.68,17 -2.19,4.68 -3.12,9.51 -3.12,14.35 0,13.09 7.33,25.57 19.96,31.34 l 137.06,63.15 52.09,24.02 c 17.3,7.95 37.9,0.3 45.85,-16.84 2.02,-4.69 3.11,-9.52 3.11,-14.35"
         style="fill:#f49986;fill-opacity:1;fill-rule:nonzero;stroke:none"
         id="path208"
         inkscape:connector-curvature="0" /><path
         d="m 4900,5191.13 c 0,-4.68 -0.94,-9.36 -2.8,-13.57 -3.12,-7.64 -9.2,-14.03 -17.15,-17.78 l -164.08,-83.23 c -17.15,-7.95 -37.74,-0.3 -45.69,16.85 -2.18,4.68 -3.11,9.51 -3.11,14.34 0,12.94 7.47,25.58 19.95,31.35 l 94.52,51.25 69.56,31.98 c 17.15,7.94 37.74,0.31 45.68,-16.85 2.18,-4.68 3.12,-9.51 3.12,-14.34"
         style="fill:#f49986;fill-opacity:1;fill-rule:nonzero;stroke:none"
         id="path210"
         inkscape:connector-curvature="0" /><path
         d="m 4945.8,5189.22 c -24.94,-14.34 -132.61,-84.28 -154.13,-92.55 -27.44,-10.45 -39.99,4.78 -61.67,1.66 -62.83,-9.2 -30.33,18.72 -43.75,25.42 -3.57,1.72 -26.25,11.25 -26.25,11.25 l 12.46,23.19 -63.16,46.78 -19.02,14.04 -63.31,46.78 -2.34,1.71 c 1.25,0.31 24.17,18.55 51.62,39.46 4.83,3.58 9.66,7.17 14.49,10.91 29.02,21.52 59.73,42.88 74.39,48.49 31.03,11.69 63.46,19.03 96.36,21.99 h 0.47 c 25.11,2.34 50.52,2.02 75.78,-0.94 l 111.97,-12.93 c 0,0 3.11,-181.2 -3.91,-185.26"
         style="fill:#c87137;fill-opacity:1;fill-rule:nonzero;stroke:none"
         id="path212"
         inkscape:connector-curvature="0" /><path
         d="m 5891.36,5256.58 c -53.33,-16.85 -112.28,-33.22 -177.77,-48.35 -59.88,-13.88 -118.36,-24.79 -174.49,-33.21 -2.96,58.17 -10.14,202.56 -11.54,234.68 43.97,7.33 88.57,16.07 133.33,26.51 71.26,16.53 133.01,34 186.81,52.08 l 43.66,-231.71"
         style="fill:#c87137;fill-opacity:1;fill-rule:nonzero;stroke:none"
         id="path214"
         inkscape:connector-curvature="0" /><path
         d="m 6647.51,5691.04 c -7.89,-1.44 -15.78,-2.58 -23.54,-3.59 -259.97,-32.85 -502.04,147.79 -547.02,413.07 l -100.23,590.42 349.35,61.41 640.6,100.98 L 7060,6075 c 46.39,-273.47 -143.92,-336.61 -412.49,-383.96"
         style="fill:#6d283e;fill-opacity:1;fill-rule:nonzero;stroke:none"
         id="path216"
         inkscape:connector-curvature="0" /><path
         d="m 6866.74,5916.01 c -18.32,-93.55 -118.28,-175.05 -242.77,-228.56 -259.97,-32.85 -502.04,147.79 -547.02,413.07 l -100.23,590.42 349.35,61.41 c 217.68,-55.24 456.08,-176.91 472.15,-204.03 7.62,-12.76 117.86,-381.22 68.52,-632.31"
         style="fill:#531434;fill-opacity:1;fill-rule:nonzero;stroke:none"
         id="path218"
         inkscape:connector-curvature="0" /><path
         d="m 6577.08,5855.64 h 47.05 c 61.1,0 111.1,50 111.1,111.11 l -38.32,363.85 c 0,61.11 -11.68,99.21 -72.78,99.21 h -47.05 c -61.11,0 -111.1,-50 -111.1,-111.11 v -351.95 c 0,-61.11 49.99,-111.11 111.1,-111.11"
         style="fill:#a05a2c;fill-opacity:1;fill-rule:nonzero;stroke:none"
         id="path220"
         inkscape:connector-curvature="0" /><path
         d="m 5966.67,6606.67 c 15.04,-39.66 31.62,-77.29 48.33,-116.67 3.96,-9.34 -33.72,90.42 -24.47,85.97 23.7,-11.43 54.81,-2.16 78.16,5.48 86.54,28.31 166.25,79.6 244.97,124.26 78.96,44.79 160.49,95.94 248.63,120.55 24.74,6.91 57.69,14.37 81.74,1.15 27.4,-15.06 47.05,-50.01 63.51,-75.18 53.95,-82.55 98.22,-171.29 144.17,-258.42 7.73,-14.68 15.46,-29.37 23.57,-43.84 2.32,-4.11 8.76,-20.3 13.74,-21.97 11.61,-3.88 45.47,117.73 49.12,131.38 17.51,65.55 31.67,133.48 34.99,201.4 3.11,63.55 -10.4,127.89 -34.93,186.4 -53.05,126.54 -160.35,225.81 -286.53,277.52 -134.96,55.3 -290.16,54.55 -422.29,-8.83 -141.06,-67.66 -262.53,-192.02 -293.57,-345.42 -9,-44.5 -5.81,-167.12 30.86,-263.78"
         style="fill:#6d283e;fill-opacity:1;fill-rule:nonzero;stroke:none"
         id="path222"
         inkscape:connector-curvature="0" /><path
         d="m 6610.24,6629.28 c 0.58,-10.61 3.02,-20.8 7.33,-30.13 4.87,-11.19 12.33,-23.1 21.52,-31.42 16.64,-14.92 38.88,-25.39 62.99,-24.1 l 51.8,2.72 39.73,2.01 -5.88,117.94 h -0.14 l -1.01,21.81 -0.86,16.93 -0.86,15.5 -0.14,4.01 h -0.14 l -91.4,-4.73 c -23.1,-1.15 -43.62,-11.19 -58.54,-26.54 -9.03,-9.33 -15.93,-20.81 -20.09,-33.3 -3.44,-9.75 -4.87,-19.94 -4.31,-30.7"
         style="fill:#fab8b9;fill-opacity:1;fill-rule:nonzero;stroke:none"
         id="path224"
         inkscape:connector-curvature="0" /><path
         d="m 6702.76,6259.78 c -61.17,-87.66 -60.64,-103 -136.39,-138.6 l -0.29,-0.14 c -30.56,-14.48 -63.41,-25.25 -97.85,-31.56 -12.62,-2.29 -25.25,-4.17 -38.16,-5.45 -5.17,-0.43 -10.33,-0.72 -15.65,-1.01 -18.93,-0.86 -37.44,-0.72 -55.81,1.15 -5.16,0.29 -10.48,0.72 -15.64,1.58 -171.46,21.23 -311.2,150.5 -343.92,318.95 -3.43,17.94 -5.88,36.59 -6.74,55.38 l -1.43,28.56 -9.76,190.68 c -1.58,28.7 -1.15,56.67 2.15,83.79 2.44,21.09 6.89,41.76 13.78,61.84 17.78,52.66 42.18,100.29 79.34,140.9 69.3,76.04 168.74,125.83 279.65,131.57 82.92,4.3 161.55,-16.79 228.55,-56.1 9.61,-5.74 19.08,-11.91 28.27,-18.37 45.91,-32.28 74.31,-119.79 74.31,-119.94 7.61,-12.63 17.17,-640.97 15.59,-643.23"
         style="fill:#c87137;fill-opacity:1;fill-rule:nonzero;stroke:none"
         id="path226"
         inkscape:connector-curvature="0" /><path
         d="m 6855.91,6580.6 c 1.86,-37.58 -23.96,-72.3 -59.83,-81.63 -3.3,-0.87 -6.74,-1.58 -10.33,-2.01 -1.58,-0.43 -3.45,-0.43 -5.31,-0.57 l -24.53,-1.3 -2.73,51.23 -0.57,11.47 -4.74,92.98 24.68,1.29 c 2.29,0.14 4.31,0.14 6.45,0 h 0.15 c 3.15,0 6.31,-0.28 9.33,-0.72 h 0.14 c 15.64,-1.86 29.98,-8.03 41.17,-18.07 15.07,-13.5 24.97,-31.28 26.12,-52.67"
         style="fill:#fab8b9;fill-opacity:1;fill-rule:nonzero;stroke:none"
         id="path228"
         inkscape:connector-curvature="0" /><path
         d="m 6673.94,6726.87 c -7.58,24.57 -15.38,49.09 -23.71,73.46 -8.91,-8.32 -17,-19.47 -23.88,-34.34 0,0 3.01,-29.85 5.73,-75.63 l 0.15,-1.86 c 2.01,-33.14 4.01,-74.47 4.44,-118.37 v -7.18 c 0.87,-95.83 -4.87,-203.02 -29.55,-268.01 -45.2,-119.52 -117.51,-188.67 -145.5,-206.75 -4.44,-2.88 28.7,-7.18 28.7,-7.18 0,0 4.46,-6.02 73.31,35.3 l 0.3,0.14 c 80.78,38.16 96.71,67.08 136.88,145.28 1.29,2.44 8.46,122.26 -5.85,230 -13.27,99.97 -14.85,175.78 -21.02,235.14"
         style="fill:#c87137;fill-opacity:1;fill-rule:nonzero;stroke:none"
         id="path230"
         inkscape:connector-curvature="0" /><path
         d="m 6081.67,6940 c -6.32,-34.79 -1.3,-111.37 51.67,-150 138.33,-100.88 529.03,-38.49 546.03,-173.52 71.47,-567.86 192.23,-712.29 194.26,-696.51 9.91,76.77 56.55,422.12 54.58,439.22 -57.17,498.99 -126.84,568.96 -145.21,587.47 -18.36,18.36 -43.91,29.84 -71.74,29.84 h -495.69 c -49.94,0 -124.98,12.62 -133.9,-36.5"
         style="fill:#6d283e;fill-opacity:1;fill-rule:nonzero;stroke:none"
         id="path232"
         inkscape:connector-curvature="0" /><path
         d="m 6190.21,6430.15 c 0,0 4.65,-28.87 45.44,-27.5 35.87,1.19 39.46,26.3 39.46,26.3 l -84.9,1.2"
         style="fill:#d38d5f;fill-opacity:1;fill-rule:nonzero;stroke:none"
         id="path234"
         inkscape:connector-curvature="0" /><path
         d="m 6138.8,6909.6 c 0,0 -121,4.81 -169.9,-139.28 0,0 -27.38,146.46 173.49,297.11 200.87,150.65 555.98,25.11 584.68,-39.46 28.69,-64.56 25.11,-114.78 25.11,-114.78 l -613.38,-3.59"
         style="fill:#6d283e;fill-opacity:1;fill-rule:nonzero;stroke:none"
         id="path236"
         inkscape:connector-curvature="0" /><path
         d="m 6321.74,6654.93 c 0,0 68.15,32.28 139.89,-10.76"
         style="fill:#5f2949;fill-opacity:1;fill-rule:nonzero;stroke:none"
         id="path238"
         inkscape:connector-curvature="0" /><path
         d="m 6038.37,6663.9 c 0,0 68.15,32.28 139.89,-10.77"
         style="fill:#5f2949;fill-opacity:1;fill-rule:nonzero;stroke:none"
         id="path240"
         inkscape:connector-curvature="0" /><path
         d="m 6387.48,6525.99 v 0 c 9.86,0 17.93,8.07 17.93,17.94 v 33.18 c 0,9.86 -8.07,17.93 -17.93,17.93 -9.86,0 -17.94,-8.07 -17.94,-17.93 v -33.18 c 0,-9.87 8.08,-17.94 17.94,-17.94"
         style="fill:#161b37;fill-opacity:1;fill-rule:nonzero;stroke:none"
         id="path242"
         inkscape:connector-curvature="0" /><path
         d="m 6110.09,6525.99 v 0 c 9.86,0 17.93,8.07 17.93,17.94 v 33.18 c 0,9.86 -8.07,17.93 -17.93,17.93 -9.87,0 -17.94,-8.07 -17.94,-17.93 v -33.18 c 0,-9.87 8.07,-17.94 17.94,-17.94"
         style="fill:#161b37;fill-opacity:1;fill-rule:nonzero;stroke:none"
         id="path244"
         inkscape:connector-curvature="0" /><path
         d="m 3624.52,1746.05 648.93,-26.36 c 38.69,-1.58 71.34,28.52 72.91,67.22 1.21,29.8 -16.57,57.1 -44.31,68.06 l -316.51,125.04 -351.28,5.7 -9.74,-239.66"
         style="fill:#862b2b;fill-opacity:1;fill-rule:nonzero;stroke:none"
         id="path246"
         inkscape:connector-curvature="0" /><path
         d="m 4285.71,1701.14 -657.11,21.81 1.57,47.09 704.2,-23.38 c -0.87,-26.01 -22.65,-46.39 -48.66,-45.52"
         style="fill:#161b37;fill-opacity:1;fill-rule:nonzero;stroke:none"
         id="path248"
         inkscape:connector-curvature="0" /><path
         d="m 3974.45,1885.36 78.93,78.94"
         style="fill:none;stroke:#161b37;stroke-width:15.5934;stroke-linecap:round;stroke-linejoin:miter;stroke-miterlimit:10;stroke-dasharray:none;stroke-opacity:1"
         id="path250"
         inkscape:connector-curvature="0" /><path
         d="m 4029.51,1859.95 78.94,78.94"
         style="fill:none;stroke:#161b37;stroke-width:15.5934;stroke-linecap:round;stroke-linejoin:miter;stroke-miterlimit:10;stroke-dasharray:none;stroke-opacity:1"
         id="path252"
         inkscape:connector-curvature="0" /><path
         d="m 4081.94,1826.64 88.88,89.53"
         style="fill:none;stroke:#161b37;stroke-width:15.5934;stroke-linecap:round;stroke-linejoin:miter;stroke-miterlimit:10;stroke-dasharray:none;stroke-opacity:1"
         id="path254"
         inkscape:connector-curvature="0" /><path
         d="m 3187.78,1726.2 649.46,-0.18 c 38.73,-0.02 70.13,31.37 70.14,70.1 0,29.83 -18.85,56.39 -47.01,66.22 l -321.3,112.19 -351.23,-8.47 -0.06,-239.86"
         style="fill:#a43532;fill-opacity:1;fill-rule:nonzero;stroke:none"
         id="path256"
         inkscape:connector-curvature="0" /><path
         d="m 3850.24,1707.98 -657.45,-4.69 -0.34,47.11 704.57,5.03 c 0.19,-26.02 -20.76,-47.27 -46.78,-47.45"
         style="fill:#182241;fill-opacity:1;fill-rule:nonzero;stroke:none"
         id="path258"
         inkscape:connector-curvature="0" /><path
         d="m 3504.85,1891.58 78.24,79.64"
         style="fill:none;stroke:#161b37;stroke-width:15.5934;stroke-linecap:round;stroke-linejoin:miter;stroke-miterlimit:10;stroke-dasharray:none;stroke-opacity:1"
         id="path260"
         inkscape:connector-curvature="0" /><path
         d="m 3560.15,1866.66 78.22,79.64"
         style="fill:none;stroke:#161b37;stroke-width:15.5934;stroke-linecap:round;stroke-linejoin:miter;stroke-miterlimit:10;stroke-dasharray:none;stroke-opacity:1"
         id="path262"
         inkscape:connector-curvature="0" /><path
         d="m 3612.87,1833.82 88.08,90.32"
         style="fill:none;stroke:#161b37;stroke-width:15.5934;stroke-linecap:round;stroke-linejoin:miter;stroke-miterlimit:10;stroke-dasharray:none;stroke-opacity:1"
         id="path264"
         inkscape:connector-curvature="0" /><g
         id="g266"><g
           id="g268"
           clip-path="url(#clipPath272)"><path
             d="m 3566.67,1960 c -23.42,634.17 -85.82,1321.05 -146.35,1434.37 -57.46,68.44 -377.41,219.55 -688.24,324.43 l 131.34,389.66 c 218.15,-73.51 741.77,-266.97 891.79,-475.28 63.34,-87.93 133.03,-324.84 169.71,-970.25 19.2,-338.05 47.18,-687.34 47.18,-687.34 L 3566.67,1960"
             style="fill:#232334;fill-opacity:1;fill-rule:nonzero;stroke:none"
             id="path274"
             inkscape:connector-curvature="0" /><path
             d="m 2656.1,3923.69 c 0,0 787.03,-200.72 895.99,-409.52 108.95,-208.79 195.39,-1487.62 195.39,-1487.62 l -252.51,-34.84 -1034.29,1954.87 195.42,-22.89"
             style="fill:#1a1a22;fill-opacity:1;fill-rule:nonzero;stroke:none"
             id="path276"
             inkscape:connector-curvature="0" /></g></g><path
         d="m 3227.96,3886.98 c 6.83,-70.62 -12.06,-137.77 -48.94,-192.24 -47.14,-69.89 -124.17,-119 -214.81,-127.76 l -490.63,-47.41 c -14.59,-1.41 -28.97,-1.71 -43.15,-0.88 -36.5,1.64 -71.49,10.32 -103.57,24.61 -5.73,2.43 -11.32,5.17 -16.77,8.1 -84.95,44.26 -146.59,129.33 -156.5,231.77 l -6.04,156.55 1055.95,111.27 24.46,-164.01"
         style="fill:#1a1a22;fill-opacity:1;fill-rule:nonzero;stroke:none"
         id="path278"
         inkscape:connector-curvature="0" /><path
         d="m 3530.12,2639.75 c 43.64,-332.67 65.54,-646.89 66.3,-659.72 l -221.86,-6.25 -192.04,-11.42 c -34,573.5 -125.85,1201.37 -202.06,1313.6 -76.06,51.98 -351.34,125.17 -604.19,173.17 -35.62,6.71 -70.84,12.85 -104.86,18.39 -6.01,1.11 -12.01,2.06 -17.99,3.01 l 0.78,4.07 c 0,0 143.62,379.81 580.57,325.61 92.1,-11.42 177.58,-83.72 278.27,-130.7 52.1,-24.17 97.41,-50.35 131.75,-77.94 97.92,-78.67 200.19,-301.12 285.33,-951.82"
         style="fill:#232334;fill-opacity:1;fill-rule:nonzero;stroke:none"
         id="path280"
         inkscape:connector-curvature="0" /><path
         d="m 3374.56,1973.78 -192.04,-11.42 c -34,573.5 -125.85,1201.37 -202.06,1313.6 -76.06,51.98 -351.34,125.17 -604.19,173.17 -36.53,-0.54 -71.98,6.04 -104.86,18.39 -6.01,1.11 -12.01,2.06 -17.99,3.01 l 0.78,4.07 c -87.45,39.12 -154.05,120.37 -170.04,222.03 l -15.37,155.91 170.9,3.36 c -2.12,-12.64 -6.2,-134.2 46.23,-198.57 14.72,-18.36 34.08,-32.05 59.38,-37.38 69.4,-14.66 328.08,-36.49 540.28,-94.03 137.2,-37.3 255.13,-89.63 289.69,-164.85 81.15,-176.66 184,-1234.84 199.29,-1387.29"
         style="fill:#1a1a22;fill-opacity:1;fill-rule:nonzero;stroke:none"
         id="path282"
         inkscape:connector-curvature="0" /><path
         d="m 4315.57,4676.98 c -2.61,0.87 -30.66,14.46 -61,29.28 -52.4,25.6 -110.16,38.34 -168.46,37.21 l -111.66,-2.17 c 0,0 -13,-175.21 -13.64,-183.22 -8.84,-111.49 212.07,-80.3 212.07,-80.3 l 142.69,199.2"
         style="fill:#a05a2c;fill-opacity:1;fill-rule:nonzero;stroke:none"
         id="path284"
         inkscape:connector-curvature="0" /><path
         d="m 4166.32,4641.56 256.78,-16.18 c 18.75,-1.18 35.05,13.2 36.24,31.95 1.18,18.75 -13.2,35.06 -31.95,36.24 l -256.78,16.18 c -18.76,1.18 -35.06,-13.2 -36.24,-31.95 -1.19,-18.75 13.19,-35.06 31.95,-36.24"
         style="fill:#a05a2c;fill-opacity:1;fill-rule:nonzero;stroke:none"
         id="path286"
         inkscape:connector-curvature="0" /><path
         d="m 4187.9,4552.48 205.72,-18.94 c 18.71,-1.72 35.43,12.18 37.15,30.89 1.72,18.71 -12.18,35.43 -30.89,37.15 l -205.71,18.94 c -18.71,1.72 -35.43,-12.18 -37.15,-30.89 -1.73,-18.71 12.17,-35.42 30.88,-37.15"
         style="fill:#a05a2c;fill-opacity:1;fill-rule:nonzero;stroke:none"
         id="path288"
         inkscape:connector-curvature="0" /><path
         d="m 4108.17,4478.28 244.07,-14.97 c 18.76,-1.15 35.03,13.25 36.19,32.01 1.15,18.75 -13.25,35.04 -32.01,36.19 l -244.06,14.97 c -18.76,1.15 -35.04,-13.25 -36.19,-32.01 -1.15,-18.75 13.25,-35.04 32,-36.19"
         style="fill:#784421;fill-opacity:1;fill-rule:nonzero;stroke:none"
         id="path290"
         inkscape:connector-curvature="0" /><path
         d="m 4628.98,4823.08 v -382.66 h -319.65 v 382.66 c 0,16.84 13.72,30.57 30.55,30.57 h 258.55 c 16.83,0 30.55,-13.73 30.55,-30.57"
         style="fill:#f1b235;fill-opacity:1;fill-rule:nonzero;stroke:none"
         id="path292"
         inkscape:connector-curvature="0" /><path
         d="m 4309.33,4534.4 -36.89,2.26 c -3.05,2.79 -6.16,5.75 -9.3,8.89 l 46.19,-4.25 v -6.9 m -52.88,170.94 c -0.62,0.31 -1.25,0.61 -1.88,0.92 -13.6,6.64 -27.56,12.42 -41.79,17.31 4.1,7.54 8.85,13.55 13.38,18.23 24.97,25.79 61.67,32.19 83.17,33.61 v -46.97 c -15.54,-1.49 -37.21,-6.34 -49.65,-19.27 -1.17,-1.21 -2.24,-2.49 -3.23,-3.83"
         style="fill:#d86244;fill-opacity:1;fill-rule:nonzero;stroke:none"
         id="path294"
         inkscape:connector-curvature="0" /><path
         d="m 4268.23,4613.7 -54.64,5.03 c -2.58,6.49 -4.82,13.26 -6.64,20.27 l 50.18,-3.16 c 3.1,-7.84 6.89,-15.23 11.1,-22.14 m -12.45,90.69 -49.74,3.13 c 1.84,5.98 4.16,11.32 6.74,16.05 14.23,-4.89 28.19,-10.67 41.79,-17.31 0.63,-0.31 1.26,-0.61 1.88,-0.92 -0.23,-0.31 -0.45,-0.63 -0.67,-0.95"
         style="fill:#dd6343;fill-opacity:1;fill-rule:nonzero;stroke:none"
         id="path296"
         inkscape:connector-curvature="0" /><path
         d="m 4257.13,4635.84 -50.18,3.16 c -2.28,8.76 -3.91,17.9 -4.74,27.45 -1.41,16.18 0.36,29.77 3.83,41.07 l 49.74,-3.13 c -5.91,-8.62 -8.2,-19.77 -6.97,-33.89 1.07,-12.35 4.06,-23.92 8.32,-34.66"
         style="fill:#dd6343;fill-opacity:1;fill-rule:nonzero;stroke:none"
         id="path298"
         inkscape:connector-curvature="0" /><path
         d="m 4309.33,4541.3 -46.19,4.25 c -18.38,18.42 -37.58,42.98 -49.55,73.18 l 54.64,-5.03 c 12.14,-19.91 27.81,-35.87 41.1,-47.24 v -25.16"
         style="fill:#dd6343;fill-opacity:1;fill-rule:nonzero;stroke:none"
         id="path300"
         inkscape:connector-curvature="0" /><path
         d="m 4309.33,4508.29 c -6.71,4.22 -20.92,13.8 -36.89,28.37 l 36.89,-2.26 v -26.11"
         style="fill:#dd6343;fill-opacity:1;fill-rule:nonzero;stroke:none"
         id="path302"
         inkscape:connector-curvature="0" /><path
         d="m 4550.05,4610 h -91.61 c -31.76,0 -57.5,25.74 -57.5,57.5 0,31.76 25.74,57.5 57.5,57.5 h 91.61 c 31.76,0 57.5,-25.74 57.5,-57.5 0,-31.76 -25.74,-57.5 -57.5,-57.5"
         style="fill:#808080;fill-opacity:1;fill-rule:nonzero;stroke:none"
         id="path304"
         inkscape:connector-curvature="0" /><path
         d="m 4479.6,4440.42 h -170.27 v 67.87 c 2.14,-1.35 3.51,-2.15 3.93,-2.39 l 23.3,40.56 c -0.3,0.18 -12.24,7.16 -27.23,20 v 161.98 c 4.25,0.41 8.04,0.56 11.06,0.56 1.22,0 2.31,-0.02 3.25,-0.07 l 2.55,46.71 c -0.95,0.05 -3.01,0.14 -5.95,0.14 -2.87,0 -6.58,-0.08 -10.91,-0.37 v 47.67 c 0,16.84 13.72,30.57 30.55,30.57 h 10.3 c 0.46,-19.97 5.92,-172.62 48.8,-282.56 37.27,-95.74 70.48,-123.96 80.62,-130.67"
         style="fill:#e2773c;fill-opacity:1;fill-rule:nonzero;stroke:none"
         id="path306"
         inkscape:connector-curvature="0" /><path
         d="m 4313.26,4505.9 c -0.42,0.24 -1.79,1.04 -3.93,2.39 v 58.17 c 14.99,-12.84 26.93,-19.82 27.23,-20 l -23.3,-40.56 m -3.93,222.54 v 46.97 c 4.33,0.29 8.04,0.37 10.91,0.37 2.94,0 5,-0.09 5.95,-0.14 l -2.55,-46.71 c -0.94,0.05 -2.03,0.07 -3.25,0.07 -3.02,0 -6.81,-0.15 -11.06,-0.56"
         style="fill:#dc613f;fill-opacity:1;fill-rule:nonzero;stroke:none"
         id="path308"
         inkscape:connector-curvature="0" /><path
         d="m 3987.19,4668.21 254.7,36.33 c 18.61,2.65 31.65,20.04 29.01,38.64 -2.67,18.68 -19.97,31.66 -38.65,29 l -254.71,-36.33 c -18.6,-2.65 -31.65,-20.04 -29,-38.64 2.65,-18.6 20.04,-31.65 38.65,-29"
         style="fill:#a05a2c;fill-opacity:1;fill-rule:nonzero;stroke:none"
         id="path310"
         inkscape:connector-curvature="0" /><path
         d="m 3906.88,4474.05 h 106.563 v 285.488 H 3906.88 Z"
         style="fill:#edeff0;fill-opacity:1;fill-rule:nonzero;stroke:none"
         id="path312"
         inkscape:connector-curvature="0" /><path
         d="m 2983.4,5493.6 117.18,-751.73 10.07,-21.78 c 15.13,-32.62 30.12,-64.03 49.29,-96.12 14.4,-23.99 31.39,-48.56 53.38,-72.37 16.45,-17.8 35.8,-34.99 57.69,-49.81 16.37,-11.14 34.08,-20.89 52.39,-28.87 27.51,-12.03 56.13,-20 84.47,-24.83 28.4,-4.83 56.62,-6.69 85.3,-6.7 2.25,0 4.34,0.01 6.3,0.03 h 0.31 l 453.38,5.57 -4.19,343.03 -453.07,-5.57 0.63,0.01 c -1.31,-0.01 -2.43,-0.02 -3.36,-0.02 -10.62,0 -18.54,0.58 -23.84,1.27 -4.66,0.59 -7.3,1.24 -8.38,1.55 l -0.65,0.2 -5.79,-15.66 10.25,13.04 c -1.27,1.1 -4.35,2.68 -4.46,2.62 l -5.79,-15.66 10.25,13.04 -7.77,-9.89 8.31,9.43 -0.54,0.46 -7.77,-9.89 8.31,9.43 -2.17,-2.47 2.31,2.35 -0.14,0.12 -2.17,-2.47 2.31,2.35 c -0.07,0.07 -1.21,1.19 -3.39,4.11 -3.25,4.32 -8.7,12.76 -15.51,25.52 -6.84,12.72 -15.04,29.64 -24.48,50.12 l -155.7,-71.96 169.47,26.42 -113.48,727.96 -338.94,-52.83 h -0.01"
         style="fill:#1a1a22;fill-opacity:1;fill-rule:nonzero;stroke:none"
         id="path314"
         inkscape:connector-curvature="0" /><path
         d="m 2905.85,5863.88 h -77.64 c -71.23,0 -129.52,58.28 -129.52,129.52 v 364.97 c 0,71.24 58.29,129.52 129.52,129.52 h 77.64 c 71.23,0 129.52,-58.28 129.52,-129.52 V 5993.4 c 0,-71.24 -58.29,-129.52 -129.52,-129.52"
         style="fill:#a05a2c;fill-opacity:1;fill-rule:nonzero;stroke:none"
         id="path316"
         inkscape:connector-curvature="0" /><path
         d="m 3558.91,6830.99 c -0.15,-8.29 -0.46,-16.58 -0.95,-24.87 -2.58,-39.89 -9.21,-78.87 -19.69,-116.09 -44.68,-159.32 -158.05,-289.47 -305.83,-356.88 -73.39,-33.55 -155.29,-51.54 -241.42,-49.99 -35.81,0.65 -64.23,-0.14 -88.76,-0.92 -70.96,-2.26 -109.34,-4.53 -199.76,27.76 -70,25 -259.31,137.5 -259.31,541.06 0,299.71 245.99,539.91 542.5,547.95 8.47,0.18 16.93,0.2 25.39,0.05 187.82,-3.38 352.13,-99.09 450.75,-243.21 l 0.17,-0.17 c 28.87,-42.33 52.06,-88.96 68.61,-138.51 19.43,-58.4 29.47,-121.21 28.3,-186.18"
         style="fill:#333333;fill-opacity:1;fill-rule:nonzero;stroke:none"
         id="path318"
         inkscape:connector-curvature="0" /><path
         d="m 2834.53,6704.68 c -0.62,-11.54 -3.27,-22.61 -7.95,-32.74 -5.3,-12.17 -13.42,-25.11 -23.4,-34.15 -18.08,-16.22 -42.25,-27.6 -68.44,-26.2 l -56.3,2.96 -43.19,2.19 6.39,128.17 h 0.16 l 1.09,23.7 0.94,18.4 0.93,16.85 0.15,4.36 h 0.16 l 99.33,-5.14 c 25.1,-1.25 47.41,-12.17 63.62,-28.85 9.83,-10.13 17.31,-22.61 21.83,-36.18 3.74,-10.6 5.31,-21.68 4.68,-33.37"
         style="fill:#fab8b9;fill-opacity:1;fill-rule:nonzero;stroke:none"
         id="path320"
         inkscape:connector-curvature="0" /><path
         d="m 3518.3,6759.1 -10.6,-207.24 -1.56,-31.02 c -0.94,-20.43 -3.59,-40.71 -7.33,-60.2 -35.55,-183.06 -187.43,-323.56 -373.77,-346.64 -5.62,-0.93 -11.39,-1.4 -16.99,-1.71 -19.97,-2.03 -40.08,-2.19 -60.67,-1.25 -19.96,0.93 -39.29,3.43 -58.47,7.02 -37.43,6.86 -73.14,18.55 -106.35,34.3 l -0.31,0.16 c -144.71,68.46 -244.51,212.85 -249.81,377.68 -0.16,4.98 -0.31,9.82 -0.16,14.8 -0.31,5.78 0,11.7 0.32,17.62 v 3.13 l 0.62,14.03 2.03,36.96 6.23,126.92 0.16,1.25 v 0.16 l 1.25,23.54 0.94,18.41 0.93,16.84 0.31,4.36 c 1.72,29.32 7.65,57.7 16.22,84.83 5.77,19.03 12.94,37.58 20.9,55.36 1.08,2.96 2.17,5.46 3.42,8.11 6.56,14.65 14.19,29.16 22.46,42.88 l 0.15,0.31 c 31.35,52.39 73.61,97.77 123.51,132.86 9.98,7.01 20.26,13.72 30.72,19.95 72.81,42.73 158.27,65.65 248.4,60.98 120.54,-6.24 228.59,-60.35 303.92,-142.99 40.38,-44.13 66.89,-95.9 86.23,-153.14 7.49,-21.83 12.31,-44.28 14.97,-67.21 3.58,-29.46 4.05,-59.87 2.33,-91.06"
         style="fill:#a05a2c;fill-opacity:1;fill-rule:nonzero;stroke:none"
         id="path322"
         inkscape:connector-curvature="0" /><path
         d="m 2684.99,6743.2 -6.55,-128.65 -4.52,-86.85 -34.15,1.71 c -2.49,0.16 -4.98,0.31 -7.33,0.79 -56.91,6.85 -99.79,58.78 -96.99,115.85 1.41,29.63 15.13,54.27 36.02,72.98 18.72,16.68 43.35,25.57 70.17,25.88 h 0.16 c 3.11,0.31 5.77,0.31 8.88,0 l 34.31,-1.71"
         style="fill:#fab8b9;fill-opacity:1;fill-rule:nonzero;stroke:none"
         id="path324"
         inkscape:connector-curvature="0" /><path
         d="m 3035.37,6112.6 c 0,0 -77.96,-5.2 -152.81,39.76 l -0.31,0.16 c -144.71,68.46 -244.51,212.85 -249.81,377.68 -56.91,6.85 -99.79,58.78 -96.99,115.85 1.41,29.63 15.13,54.27 36.02,72.98 18.72,16.68 43.35,25.57 70.17,25.88 v 0.16 l 1.25,23.54 0.94,18.4 0.93,16.85 0.15,4.36 h 0.16 c 1.72,29.32 7.64,57.7 16.22,84.83 58.94,32.91 118.98,39.14 153.12,-34.62 0,0 -3.42,-33.37 -6.39,-84.2 -2.34,-38.05 -4.52,-85.76 -4.84,-136.44 -0.92,-104.17 5.31,-220.65 32.13,-291.29 57.07,-150.79 200.06,-233.9 200.06,-233.9"
         style="fill:#a05a2c;fill-opacity:1;fill-rule:nonzero;stroke:none"
         id="path326"
         inkscape:connector-curvature="0" /><path
         d="m 3535.46,7059.48 h -702.95 c -46.16,0 -83.93,37.77 -83.93,83.93 0,46.16 37.77,83.93 83.93,83.93 h 702.95 c 46.16,0 83.92,-37.77 83.92,-83.93 0,-46.16 -37.76,-83.93 -83.92,-83.93"
         style="fill:#333333;fill-opacity:1;fill-rule:nonzero;stroke:none"
         id="path328"
         inkscape:connector-curvature="0" /><path
         d="m 3688.49,6991.45 c 6.86,-37.82 -6.34,-73.65 -30.63,-97.93 -19.95,-19.96 -47.71,-32.44 -77.97,-32.44 h -640.96 c -91.94,0 -166.46,-74.52 -166.46,-166.45 v -103.62 c 0,-34.4 -28.13,-62.54 -62.53,-62.54 h -14.81 c -34.53,0 -62.53,28 -62.53,62.54 v 312.18 c 0,2.49 0.15,4.83 0.47,7.17 -11.86,17.47 -18.71,38.67 -18.71,61.13 0,30.41 12.47,58 32.43,78.12 19.96,19.96 47.71,32.43 77.97,32.43 h 850.59 c 54.26,0 103.45,-37.2 113.14,-90.59"
         style="fill:#333333;fill-opacity:1;fill-rule:nonzero;stroke:none"
         id="path330"
         inkscape:connector-curvature="0" /><path
         d="m 3470.69,6744.13 h -137.74 c -13.57,0 -24.69,11.11 -24.69,24.69 0,13.58 11.12,24.69 24.69,24.69 h 137.74 c 13.58,0 24.69,-11.11 24.69,-24.69 0,-13.58 -11.11,-24.69 -24.69,-24.69"
         style="fill:#4d4d4d;fill-opacity:1;fill-rule:nonzero;stroke:none"
         id="path332"
         inkscape:connector-curvature="0" /><path
         d="M 3135.43,6744.13 H 2997.7 c -13.59,0 -24.7,11.11 -24.7,24.69 0,13.58 11.11,24.69 24.7,24.69 h 137.73 c 13.58,0 24.7,-11.11 24.7,-24.69 0,-13.58 -11.12,-24.69 -24.7,-24.69"
         style="fill:#4d4d4d;fill-opacity:1;fill-rule:nonzero;stroke:none"
         id="path334"
         inkscape:connector-curvature="0" /><path
         d="m 3152.32,6567.41 -64.97,127.34 h 46.78 l 67.58,-122.15 -49.39,-5.19"
         style="fill:#d38d5f;fill-opacity:1;fill-rule:nonzero;stroke:none"
         id="path336"
         inkscape:connector-curvature="0" /><path
         d="m 3456.4,6567.41 -64.98,127.34 h 46.78 l 67.58,-122.15 -49.38,-5.19"
         style="fill:#d38d5f;fill-opacity:1;fill-rule:nonzero;stroke:none"
         id="path338"
         inkscape:connector-curvature="0" /><path
         d="M 3472.71,6560.26 H 3326 c -16.35,0 -29.72,13.37 -29.72,29.72 v 80.9 c 0,16.35 13.37,29.72 29.72,29.72 h 146.71 c 16.35,0 29.73,-13.37 29.73,-29.72 v -80.9 c 0,-16.35 -13.38,-29.72 -29.73,-29.72 z"
         style="fill:none;stroke:#253e71;stroke-width:25;stroke-linecap:butt;stroke-linejoin:miter;stroke-miterlimit:10;stroke-dasharray:none;stroke-opacity:1"
         id="path340"
         inkscape:connector-curvature="0" /><path
         d="m 3186.05,6560.26 h -161.08 c -16.99,0 -30.9,13.9 -30.9,30.9 v 78.54 c 0,17 13.91,30.9 30.9,30.9 h 161.08 c 17,0 30.9,-13.9 30.9,-30.9 v -78.54 c 0,-17 -13.9,-30.9 -30.9,-30.9 z"
         style="fill:none;stroke:#253e71;stroke-width:25;stroke-linecap:butt;stroke-linejoin:miter;stroke-miterlimit:10;stroke-dasharray:none;stroke-opacity:1"
         id="path342"
         inkscape:connector-curvature="0" /><path
         d="m 3299.33,6392.71 c -23.06,-23.91 -58.8,-37.86 -98.2,-35.84 -33.01,1.7 -62.35,14.29 -83.06,33.72"
         style="fill:#a05a2c;stroke:#e47657;stroke-width:15.5934;stroke-linecap:butt;stroke-linejoin:miter;stroke-miterlimit:10;stroke-dasharray:none;stroke-opacity:1"
         id="path344"
         inkscape:connector-curvature="0" /><path
         d="m 3309.14,6505.21 -2.67,0.08 c -0.64,-22.15 -19.83,-39.73 -67.35,-38.36 l -5.58,174.55 c 50.68,-64.33 72.12,-100.06 75.6,-136.27"
         style="fill:#c87137;fill-opacity:1;fill-rule:nonzero;stroke:none"
         id="path346"
         inkscape:connector-curvature="0" /><path
         d="m 3219.9,6629.78 12.82,5.92 c 16.68,7.69 35.9,7.63 52.53,-0.16 l 17.82,-8.36"
         style="fill:none;stroke:#253e71;stroke-width:14.62590027;stroke-linecap:butt;stroke-linejoin:miter;stroke-miterlimit:10;stroke-dasharray:none;stroke-opacity:1"
         id="path348"
         inkscape:connector-curvature="0" /><path
         d="m 3361.53,6605.6 v 0 c -10.71,0 -19.49,8.77 -19.49,19.49 v 32.38 c 0,10.71 8.78,19.49 19.49,19.49 10.73,0 19.5,-8.78 19.5,-19.49 v -32.38 c 0,-10.72 -8.77,-19.49 -19.5,-19.49"
         style="fill:#161b37;fill-opacity:1;fill-rule:nonzero;stroke:none"
         id="path350"
         inkscape:connector-curvature="0" /><path
         d="m 3075.65,6605.6 v 0 c -10.71,0 -19.49,8.77 -19.49,19.49 v 32.38 c 0,10.71 8.78,19.49 19.49,19.49 10.73,0 19.5,-8.78 19.5,-19.49 v -32.38 c 0,-10.72 -8.77,-19.49 -19.5,-19.49"
         style="fill:#161b37;fill-opacity:1;fill-rule:nonzero;stroke:none"
         id="path352"
         inkscape:connector-curvature="0" /><path
         d="m 3325.93,5467.55 -104.79,-1572.12 -827.7,-79.06 h -0.16 l -351.78,-33.52 -11.23,-1.1 0.46,5.3 107.44,1378.46 c 40.39,489.48 202.72,832.69 446.13,858.89 22.15,2.34 44.44,3.28 67.2,2.8 7.49,-0.15 14.98,-0.62 22.47,-1.09 l 173.39,-11.54 c 283.18,-18.87 497.43,-263.84 478.57,-547.02"
         style="fill:#1a1a22;fill-opacity:1;fill-rule:nonzero;stroke:none"
         id="path354"
         inkscape:connector-curvature="0" /><path
         d="m 2949.35,4024.88 -458.99,30.62 133.74,2005.21 458.99,-30.62 -133.74,-2005.21"
         style="fill:#edeff0;fill-opacity:1;fill-rule:nonzero;stroke:none"
         id="path356"
         inkscape:connector-curvature="0" /><path
         d="m 2860.36,5834.48 -104.33,171.85 110.44,56.44 120.13,-71.82 -126.24,-156.47"
         style="fill:#546abc;fill-opacity:1;fill-rule:nonzero;stroke:none"
         id="path358"
         inkscape:connector-curvature="0" /><path
         d="m 2791.34,4185.63 -117.17,182.35 155.05,1546.21 79.41,-13 14.46,-1543.45 -131.75,-172.11"
         style="fill:#546abc;fill-opacity:1;fill-rule:nonzero;stroke:none"
         id="path360"
         inkscape:connector-curvature="0" /><path
         d="m 3080.49,5913.06 -206.8,140.77 -259.96,-109.64 10.37,155.59 466.77,-31.13 -10.38,-155.59"
         style="fill:#ffffff;fill-opacity:1;fill-rule:nonzero;stroke:none"
         id="path362"
         inkscape:connector-curvature="0" /><path
         d="m 2947.13,3929.68 -466.33,31.1 6.55,98.23 466.33,-31.1 -6.55,-98.23"
         style="fill:#68292b;fill-opacity:1;fill-rule:nonzero;stroke:none"
         id="path364"
         inkscape:connector-curvature="0" /><path
         d="m 2856.92,3933.7 -167.25,11.16 6.74,101.13 167.25,-11.16 -6.74,-101.13"
         style="fill:#b6b7bb;fill-opacity:1;fill-rule:nonzero;stroke:none"
         id="path366"
         inkscape:connector-curvature="0" /><path
         d="m 6256.54,5397.72 c -19.97,-14.5 -569.07,-234.93 -569.07,-234.93 l -26.8,66.9 -78.51,196.21 c 0,0 522.21,180.9 701.53,356.33 19.43,19.01 110.04,-49.78 117.26,-73.63 1.76,-5.1 2.42,-10.65 1.89,-16.53 -8.34,-107.15 -61.34,-232.62 -146.3,-294.35"
         style="fill:#ff8c00;fill-opacity:1;fill-rule:nonzero;stroke:none"
         id="path368"
         inkscape:connector-curvature="0" /><path
         d="m 5631.88,5425.37 84.22,-231.48 c 6.72,-18.47 -2.68,-38.91 -21.09,-45.82 -18.75,-7.04 -39.64,2.65 -46.37,21.52 l -82.76,232 c -5.99,16.78 1.56,35.38 17.55,43.25 18.73,9.22 41.32,0.15 48.45,-19.47"
         style="fill:#ffffff;fill-opacity:1;fill-rule:nonzero;stroke:none"
         id="path370"
         inkscape:connector-curvature="0" /><path
         d="m 7131.24,5260.74 -76.61,-1286.43 h -1.15 l -262.28,11.34 -626.14,26.83 0.29,87.81 107.94,735.94 -103.36,448.47 c 19.09,334.74 116.65,663.45 377.78,663.45 h 159.85 c 28.11,0 55.52,-2.44 82.21,-7.03 40.74,-7.17 77.62,-22.67 110.9,-45.48 148.07,-101.3 222.69,-345.93 230.57,-634.9"
         style="fill:#808080;fill-opacity:1;fill-rule:nonzero;stroke:none"
         id="path372"
         inkscape:connector-curvature="0" /><path
         d="m 6504.68,4782.53 c 0,0 32.15,381.28 62.82,554.97 70.55,399.35 209.79,592.86 209.79,592.86 L 6519.02,5993.13 6382.5,5935 c 0,0 -67.06,-225 -30,-582.5 15.14,-145.95 152.18,-569.97 152.18,-569.97"
         style="fill:#ff8c00;fill-opacity:1;fill-rule:nonzero;stroke:none"
         id="path374"
         inkscape:connector-curvature="0" /><path
         d="m 6777.29,5926.77 -168.6,-14.35 c -49.52,0 -89.67,40.15 -89.67,89.68 h 232.35 c 19.35,0 34.23,-17.15 31.49,-36.31 l -5.57,-39.02"
         style="fill:#ffffff;fill-opacity:1;fill-rule:nonzero;stroke:none"
         id="path376"
         inkscape:connector-curvature="0" /><path
         d="m 6368.37,5901.67 60.98,10.75 c 49.53,0 89.67,40.15 89.67,89.68 l -117.56,-1.32 c -22.67,-0.26 -40.31,-19.78 -38.25,-42.36 l 5.16,-56.75"
         style="fill:#ffffff;fill-opacity:1;fill-rule:nonzero;stroke:none"
         id="path378"
         inkscape:connector-curvature="0" /><path
         d="m 6375.55,3311.87 6.45,2.59 c -1.86,-4.17 -6.45,-2.59 -6.45,-2.59"
         style="fill:#182241;fill-opacity:1;fill-rule:nonzero;stroke:none"
         id="path380"
         inkscape:connector-curvature="0" /><path
         d="m 5865.85,3382.81 -0.01,-0.02 z m -205.9,-1218.25 c -117.16,555.38 -340.86,1200.61 -202.71,1496.96 72.38,155.28 421.02,275.49 945.48,406.73 30.23,7.57 61.25,25.85 69.39,29.82 -3.63,-1.77 -6.31,-3.42 -8.2,-4.56 l 180.83,-303.06 c -17.78,-10.72 -36.65,-18.82 -106.02,-48.09 -535.55,-225.99 -746.09,-187.98 -769.62,-221.18 -46.78,-322.26 49.65,-806.92 114.36,-1320.24 l -223.51,-36.38"
         style="fill:#c87137;fill-opacity:1;fill-rule:nonzero;stroke:none"
         id="path382"
         inkscape:connector-curvature="0" /><path
         d="m 5645.54,2136.17 -98.89,-239.15 c -17.07,-37.68 -51.76,-64.28 -92.4,-70.87 -32.44,-5.18 -55.65,-34.31 -53.61,-67.27 l 0.01,-0.16 c 2.32,-37.17 35.49,-64.59 72.21,-59.66 l 102.1,12.52 c 52.97,6.49 101.55,32.88 136,73.87 l 244.83,291.31 c 11.01,19.06 14.44,41.61 9.61,63.12 -10.94,48.7 -60.17,78.3 -108.01,64.94 l -211.85,-68.65"
         style="fill:#161b37;fill-opacity:1;fill-rule:nonzero;stroke:none"
         id="path384"
         inkscape:connector-curvature="0" /><path
         d="m 5884.17,1771.26 h 72.9688 v 384.738 H 5884.17 Z"
         style="fill:#161b37;fill-opacity:1;fill-rule:nonzero;stroke:none"
         id="path386"
         inkscape:connector-curvature="0" /><path
         d="m 5635.67,2163.93 -98.88,-239.14 c -17.07,-37.68 -51.75,-64.28 -92.41,-70.87 -32.44,-5.18 -55.64,-34.31 -53.59,-67.28 l 0.01,-0.15 c 2.31,-37.18 35.48,-64.59 72.2,-59.67 l 73.15,8.97 c 71.58,8.78 137.22,44.43 183.77,99.82 l 226.01,268.91 c 11,19.07 14.44,41.62 9.61,63.12 -10.93,48.71 -60.17,78.31 -108.01,64.94 l -211.86,-68.65"
         style="fill:#2a3463;fill-opacity:1;fill-rule:nonzero;stroke:none"
         id="path388"
         inkscape:connector-curvature="0" /><path
         d="m 5558.76,1985.45 61.14,-27.77"
         style="fill:none;stroke:#161b37;stroke-width:15.82129955;stroke-linecap:round;stroke-linejoin:miter;stroke-miterlimit:10;stroke-dasharray:none;stroke-opacity:1"
         id="path390"
         inkscape:connector-curvature="0" /><path
         d="m 5576.51,2033.04 61.14,-27.76"
         style="fill:none;stroke:#161b37;stroke-width:15.82129955;stroke-linecap:round;stroke-linejoin:miter;stroke-miterlimit:10;stroke-dasharray:none;stroke-opacity:1"
         id="path392"
         inkscape:connector-curvature="0" /><path
         d="m 5594.26,2078.66 61.14,-27.77"
         style="fill:none;stroke:#161b37;stroke-width:15.82129955;stroke-linecap:round;stroke-linejoin:miter;stroke-miterlimit:10;stroke-dasharray:none;stroke-opacity:1"
         id="path394"
         inkscape:connector-curvature="0" /><path
         d="m 6744.27,3875 c 1.63,0.39 3.76,0.92 6.33,1.45 -12.06,-1.44 -43.81,-4.28 -72.37,-6.94 -229.99,-21.12 -410.45,-44.13 -552.05,-71.82 -118.7,-22.93 -271.31,-63.3 -341.48,-94.58 -62.2,-27.5 -114.57,-53.72 -141.2,-95.12 -139.49,-216.75 -264.81,-889.02 -321.41,-1453.83 l 228.7,46.78 c 109.16,483.4 161.13,722.5 337.86,1200.69 10.4,-5.19 124.47,8.79 218.31,31.19 47.62,11.51 109.8,23.8 190.85,36.27 103.32,16.23 237.45,32.74 411.3,48.68 75.05,6.84 95.39,8.8 115.61,13.66 L 6744.27,3875"
         style="fill:#c87137;fill-opacity:1;fill-rule:nonzero;stroke:none"
         id="path396"
         inkscape:connector-curvature="0" /><path
         d="m 5320.46,2132.05 -109.01,-234.71 c -18.67,-36.91 -54.46,-62.01 -95.36,-66.86 -32.62,-3.79 -57.05,-31.9 -56.41,-64.92 l 0.01,-0.15 c 0.71,-37.25 32.68,-66.05 69.58,-62.7 l 102.54,8.15 c 53.2,4.22 102.87,28.51 139.03,67.99 l 257.05,280.59 c 11.82,18.58 16.2,40.96 12.31,62.65 h -0.01 c -8.84,49.13 -56.77,80.81 -105.14,69.5 l -214.59,-59.54"
         style="fill:#161b37;fill-opacity:1;fill-rule:nonzero;stroke:none"
         id="path398"
         inkscape:connector-curvature="0" /><path
         d="m 5616.19,1754.16 -72.9,3.12 16.43,384.39 72.9,-3.12 -16.43,-384.39"
         style="fill:#161b37;fill-opacity:1;fill-rule:nonzero;stroke:none"
         id="path400"
         inkscape:connector-curvature="0" /><path
         d="M 5311.79,2160.21 5202.78,1925.5 c -18.67,-36.91 -54.45,-62.01 -95.35,-66.86 -32.63,-3.79 -57.06,-31.9 -56.41,-64.92 v -0.15 c 0.72,-37.24 32.69,-66.05 69.59,-62.7 l 73.46,5.84 c 71.9,5.71 139,38.52 187.86,91.87 l 237.29,259.02 c 11.82,18.58 16.21,40.96 12.3,62.65 -8.84,49.13 -56.76,80.81 -105.13,69.5 l -214.6,-59.54"
         style="fill:#4a5a9f;fill-opacity:1;fill-rule:nonzero;stroke:none"
         id="path402"
         inkscape:connector-curvature="0" /><path
         d="m 5227.32,1985.17 59.9,-30.35"
         style="fill:none;stroke:#161b37;stroke-width:15.82129955;stroke-linecap:round;stroke-linejoin:miter;stroke-miterlimit:10;stroke-dasharray:none;stroke-opacity:1"
         id="path404"
         inkscape:connector-curvature="0" /><path
         d="m 5247.09,2031.96 59.89,-30.35"
         style="fill:none;stroke:#161b37;stroke-width:15.82129955;stroke-linecap:round;stroke-linejoin:miter;stroke-miterlimit:10;stroke-dasharray:none;stroke-opacity:1"
         id="path406"
         inkscape:connector-curvature="0" /><path
         d="m 5266.77,2076.78 59.9,-30.35"
         style="fill:none;stroke:#161b37;stroke-width:15.82129955;stroke-linecap:round;stroke-linejoin:miter;stroke-miterlimit:10;stroke-dasharray:none;stroke-opacity:1"
         id="path408"
         inkscape:connector-curvature="0" /><path
         d="m 5581.98,3781.07 c 0,0 145.54,-10.39 202.72,-77.96 0,0 192.31,88.36 358.65,-31.19 166.33,-119.55 154.46,-202.83 154.46,-202.83 l 183.39,15.71 c 0,0 -93.55,275.48 -301.47,348.25 -207.91,72.77 -597.75,-51.98 -597.75,-51.98"
         style="fill:#c87137;fill-opacity:1;fill-rule:nonzero;stroke:none"
         id="path410"
         inkscape:connector-curvature="0" /><path
         d="m 6823.99,3496.86 -454.54,-26.36 c 3.12,6.24 0.51,26.04 -34.93,84.21 -154.14,253 -752.54,226.36 -752.54,226.36 83.17,93.56 542.5,226.63 542.5,226.63 l 44.86,95.64 638.91,17.25 15.6,0.47 226.1,-70.33 3.59,-76.4 5.14,-108.38 c 7.64,-160.3 -86.23,-307.81 -234.69,-369.09"
         style="fill:#333333;fill-opacity:1;fill-rule:nonzero;stroke:none"
         id="path412"
         inkscape:connector-curvature="0" /><path
         d="m 6542.29,5853.27 c -1.01,-9.86 -7.16,-17.3 -13.73,-16.62 -6.57,0.67 -11.08,9.21 -10.06,19.06 1.01,9.85 7.15,17.29 13.73,16.62 6.57,-0.67 11.07,-9.21 10.06,-19.06"
         style="fill:#ffffff;fill-opacity:1;fill-rule:nonzero;stroke:none"
         id="path414"
         inkscape:connector-curvature="0" /><path
         d="m 6531.58,5749 c -1.01,-9.86 -7.16,-17.3 -13.73,-16.62 -6.57,0.67 -11.07,9.21 -10.07,19.06 1.02,9.85 7.16,17.29 13.73,16.62 6.58,-0.67 11.08,-9.21 10.07,-19.06"
         style="fill:#ffffff;fill-opacity:1;fill-rule:nonzero;stroke:none"
         id="path416"
         inkscape:connector-curvature="0" /><path
         d="m 6520.87,5644.73 c -1.02,-9.86 -7.16,-17.3 -13.73,-16.62 -6.57,0.67 -11.08,9.21 -10.07,19.06 1.02,9.85 7.16,17.29 13.73,16.62 6.57,-0.67 11.08,-9.21 10.07,-19.06"
         style="fill:#ffffff;fill-opacity:1;fill-rule:nonzero;stroke:none"
         id="path418"
         inkscape:connector-curvature="0" /><path
         d="m 6375.55,3311.87 6.45,2.59 c -1.86,-4.17 -6.45,-2.59 -6.45,-2.59"
         style="fill:#182241;fill-opacity:1;fill-rule:nonzero;stroke:none"
         id="path420"
         inkscape:connector-curvature="0" /><path
         d="m 7058.68,3865.95 c 7.64,-160.3 -86.23,-307.81 -234.69,-369.09 l -454.54,-26.36 c 3.12,6.24 0,25.73 -34.93,84.21 83.59,32.59 213.01,89.51 308.91,161.39 89.51,67.05 126.62,147.36 147.82,269.61 4.21,24.48 7.79,50.68 11.07,79.06 2.04,17.78 4.06,36.49 5.93,55.82 5.46,58.17 10.6,123.66 16.84,198.04 28.69,334.79 61.44,1502.11 67.05,1540.01 1.87,13.57 4.84,25.72 8.57,36.96 147.99,-101.2 222.69,-345.87 230.48,-634.81 l -76.56,-1286.46 h -1.09 l 5.14,-108.38"
         style="fill:#333333;fill-opacity:1;fill-rule:nonzero;stroke:none"
         id="path422"
         inkscape:connector-curvature="0" /><path
         d="m 5878.96,4638.52 -197.79,31.61 c -14.44,2.31 -24.37,16.02 -22.07,30.47 2.32,14.44 16.02,24.37 30.46,22.06 l 197.78,-31.62 c 14.45,-2.31 24.38,-16.01 22.07,-30.46 -2.31,-14.44 -16.01,-24.37 -30.45,-22.06"
         style="fill:#c87137;fill-opacity:1;fill-rule:nonzero;stroke:none"
         id="path424"
         inkscape:connector-curvature="0" /><path
         d="m 5815.98,4585.05 -158.81,25.38 c -14.45,2.31 -24.38,16.01 -22.06,30.46 2.3,14.44 16.01,24.37 30.46,22.06 l 158.81,-25.38 c 14.44,-2.31 24.36,-16.02 22.06,-30.46 -2.31,-14.44 -16.02,-24.37 -30.46,-22.06"
         style="fill:#c87137;fill-opacity:1;fill-rule:nonzero;stroke:none"
         id="path426"
         inkscape:connector-curvature="0" /><path
         d="m 5852.7,4515.7 -187.97,30.04 c -14.45,2.31 -24.38,16.02 -22.06,30.46 2.3,14.45 16.01,24.38 30.46,22.07 l 187.95,-30.05 c 14.45,-2.31 24.38,-16.01 22.07,-30.46 -2.31,-14.44 -16.01,-24.37 -30.45,-22.06"
         style="fill:#c87137;fill-opacity:1;fill-rule:nonzero;stroke:none"
         id="path428"
         inkscape:connector-curvature="0" /><path
         d="m 5793.57,4689.66 c 2.12,-0.25 36.11,4.59 62.4,5.03 45.39,0.76 87.21,-16.64 127.95,-36.67 l 71.39,-35.56 c 0,0 -48.07,-139.67 -54.23,-140.77 -144.34,-25.75 -198.6,48.18 -198.6,48.18 l -8.91,159.79"
         style="fill:#c87137;fill-opacity:1;fill-rule:nonzero;stroke:none"
         id="path430"
         inkscape:connector-curvature="0" /><path
         d="m 7039.13,5345.68 c 0,0 -59.4,-248.5 -125.25,-452.67 -18.37,-56.68 -37.17,-109.91 -55.25,-153.52 -5.3,-12.63 -10.76,-24.97 -16.64,-36.88 -72.31,-150.36 -182.79,-242.91 -355.25,-242.91 -1.57,0 -510.64,23.25 -510.64,23.25 l 7.32,176.47 521.26,19.09 c 56.81,-0.72 129.7,87.52 158.97,145.05 2.3,4.45 4.3,8.75 6.03,12.77 13.34,31.28 27.4,69.59 41.89,112.2 86.52,255.97 184.08,669.76 184.08,669.76 l 143.48,-272.61"
         style="fill:#c87137;fill-opacity:1;fill-rule:nonzero;stroke:none"
         id="path432"
         inkscape:connector-curvature="0" /><path
         d="m 6711.57,4948.53 202.31,-55.52 c -18.37,-56.68 -37.17,-109.91 -55.25,-153.52 -5.3,-12.63 -10.76,-24.97 -16.64,-36.88 l -178.34,120.95 47.92,124.97"
         style="fill:#c87137;fill-opacity:1;fill-rule:nonzero;stroke:none"
         id="path434"
         inkscape:connector-curvature="0" /><path
         d="m 7060.22,5438.66 c 0,-24.68 -2.44,-49.5 -7.6,-74.18 l -112.2,-539.48 -69.87,17.65 -204.9,51.79 194.85,797.17 c 6.45,26.4 34.15,39.6 57.68,31.42 5.16,-1.58 10.04,-4.3 14.5,-8.18 81.77,-69.72 127.54,-171.17 127.54,-276.19"
         style="fill:#ff8c00;fill-opacity:1;fill-rule:nonzero;stroke:none"
         id="path436"
         inkscape:connector-curvature="0" /><path
         d="m 6695.31,4934.36 236.77,-67.92 c 18.9,-5.42 29.9,-25.04 24.68,-43.99 -5.32,-19.31 -25.44,-30.51 -44.66,-24.87 l -236.35,69.4 c -17.09,5.02 -27.7,22.06 -24.68,39.62 3.55,20.57 24.17,33.51 44.24,27.76"
         style="fill:#ffffff;fill-opacity:1;fill-rule:nonzero;stroke:none"
         id="path438"
         inkscape:connector-curvature="0" /><path
         d="M 2615.33,6023.93 2458.15,3838.2 c 0,0 -25.42,-9.67 -64.71,-21.83 h -0.16 c -90.75,-28.07 -255.26,-69.08 -351.78,-33.52 -3.75,1.24 -7.33,2.65 -10.77,4.2 l 107.44,1378.46 c 40.39,489.48 202.72,832.69 446.13,858.89 22.15,2.34 8.27,0 31.03,-0.47"
         style="fill:#29293f;fill-opacity:1;fill-rule:nonzero;stroke:none"
         id="path440"
         inkscape:connector-curvature="0" /><path
         d="m 3287.17,4886.13 5.01,75.12 80.91,-55.75 c 0,0 -32.59,-10.09 -85.92,-19.37"
         style="fill:#17161a;fill-opacity:1;fill-rule:nonzero;stroke:none"
         id="path442"
         inkscape:connector-curvature="0" /><path
         d="m 3113.21,4870.93 c -34.04,0 -70,1.82 -107.01,6.3 l 17.92,268.72 268.06,-184.7 -5.01,-75.12 c -45.37,-7.89 -105.78,-15.2 -173.96,-15.2 m -553.02,231.57 c -3.48,3.63 -6.93,7.28 -10.33,10.95 l 24.62,342.32 8.87,-6.11 -23.16,-347.16"
         style="fill:#17161a;fill-opacity:1;fill-rule:nonzero;stroke:none"
         id="path444"
         inkscape:connector-curvature="0" /><path
         d="m 3006.2,4877.23 c -28.88,3.49 -58.42,8.61 -88.13,15.74 l -3.07,328.17 109.12,-75.19 -17.92,-268.72 m -271.99,89.47 c -66.9,38.64 -124.71,84.56 -174.02,135.8 l 23.16,347.16 186.41,-128.44 -35.55,-354.52"
         style="fill:#94959d;fill-opacity:1;fill-rule:nonzero;stroke:none"
         id="path446"
         inkscape:connector-curvature="0" /><path
         d="m 2918.07,4892.97 c -50.66,12.16 -101.88,30.17 -151.58,56.02 -10.99,5.72 -21.74,11.62 -32.28,17.71 l 35.55,354.52 145.24,-100.08 3.07,-328.17"
         style="fill:#35447d;fill-opacity:1;fill-rule:nonzero;stroke:none"
         id="path448"
         inkscape:connector-curvature="0" /><path
         d="m 2549.86,5113.45 c -133.15,143.88 -201.5,327.44 -217.36,509.05 l 241.98,-166.73 -24.62,-342.32"
         style="fill:#1c1c27;fill-opacity:1;fill-rule:nonzero;stroke:none"
         id="path450"
         inkscape:connector-curvature="0" /><path
         d="m 4608.96,5281.85 239.97,-150.76 c 17.52,-11.01 40.5,-5.54 51.08,12.16 10.57,17.7 4.88,41.2 -12.65,52.21 l -239.95,150.76 c -17.53,11.02 -40.52,5.54 -51.08,-12.16 -10.58,-17.7 -4.88,-41.19 12.63,-52.21"
         style="fill:#a05a2c;fill-opacity:1;fill-rule:nonzero;stroke:none"
         id="path452"
         inkscape:connector-curvature="0" /><path
         d="m 4608.61,5183.92 192.68,-121.05 c 17.52,-11.01 40.51,-5.54 51.07,12.16 10.58,17.71 4.89,41.2 -12.63,52.21 l -192.68,121.05 c -17.52,11.01 -40.51,5.54 -51.07,-12.16 -10.58,-17.7 -4.89,-41.2 12.63,-52.21"
         style="fill:#a05a2c;fill-opacity:1;fill-rule:nonzero;stroke:none"
         id="path454"
         inkscape:connector-curvature="0" /><path
         d="m 4512.55,5146.96 228.05,-143.28 c 17.52,-11.01 40.5,-5.54 51.07,12.17 10.58,17.7 4.89,41.19 -12.64,52.2 l -228.04,143.28 c -17.52,11.01 -40.51,5.54 -51.09,-12.16 -10.56,-17.7 -4.88,-41.2 12.65,-52.21"
         style="fill:#a05a2c;fill-opacity:1;fill-rule:nonzero;stroke:none"
         id="path456"
         inkscape:connector-curvature="0" /><path
         d="m 4715.62,5270.27 c -2.9,0.99 -18.48,32.65 -52.12,49.45 -58.09,29.01 -122.27,43.75 -187.19,43.06 l -97.97,-6.11 c 0,0 -50.57,-193.85 -43.31,-199.08 177.25,-127.94 285.96,-71.7 285.96,-71.7 l 94.63,184.38"
         style="fill:#a05a2c;fill-opacity:1;fill-rule:nonzero;stroke:none"
         id="path458"
         inkscape:connector-curvature="0" /><path
         d="m 4434.67,5056.67 -94.28,-15.15 -49.24,306.41 94.28,15.15 49.24,-306.41"
         style="fill:#edeff0;fill-opacity:1;fill-rule:nonzero;stroke:none"
         id="path460"
         inkscape:connector-curvature="0" /><path
         d="m 2445.77,5713.05 c 166,-252.68 694.48,-837.34 1900.11,-527.33"
         style="fill:none;stroke:#29293f;stroke-width:374.24200439;stroke-linecap:butt;stroke-linejoin:miter;stroke-miterlimit:10;stroke-dasharray:none;stroke-opacity:1"
         id="path462"
         inkscape:connector-curvature="0" /><path
         d="m 6172.59,6351.39 c 0,0 72.12,-7.8 146.18,-1.95 0,0 -68.22,-105.25 -146.18,1.95"
         style="fill:#b9413a;fill-opacity:1;fill-rule:nonzero;stroke:none"
         id="path464"
         inkscape:connector-curvature="0" /><path
         d="m 6769.06,6542.89 c 3.78,-37.89 -24.82,-71.76 -63.88,-75.66 -39.06,-3.89 -39.56,27.07 -43.35,64.96 -3.78,37.88 -9.4,68.34 29.66,72.24 39.06,3.9 73.79,-23.66 77.57,-61.54"
         style="fill:#d38d5f;fill-opacity:1;fill-rule:nonzero;stroke:none"
         id="path466"
         inkscape:connector-curvature="0" /><path
         d="m 6426.67,6728.33 c 125.98,-36.12 171.06,-55.91 175,-136.66 3.33,-68.34 78.37,-91.32 80.62,-68.75 1.95,19.49 0,67.81 0,80.89 0,22.42 -10.72,151.06 -10.72,151.06 l -244.9,-26.54"
         style="fill:#6d283e;fill-opacity:1;fill-rule:nonzero;stroke:none"
         id="path468"
         inkscape:connector-curvature="0" /><path
         d="m 4598.75,5330 113.75,51.25 c 0,0 -51.57,36.67 -124,30.89 -72.45,-5.78 -198.5,-55.89 -198.5,-55.89 l 103.46,-60.92 105.29,34.67"
         style="fill:#a05a2c;fill-opacity:1;fill-rule:nonzero;stroke:none"
         id="path470"
         inkscape:connector-curvature="0" /><path
         d="m 4578.79,5150.89 c 2.38,-4.04 3.94,-8.54 4.46,-13.12 1.19,-8.16 -0.8,-16.76 -5.75,-24.02 l -31.82,-56.51 c -10.75,-15.55 -32.36,-19.41 -47.92,-8.67 -4.25,2.93 -7.52,6.62 -9.96,10.78 -6.57,11.16 -6.53,25.84 1.29,37.14 l 18.11,28.68 13.72,27.83 c 10.74,15.55 32.35,19.42 47.91,8.67 4.26,-2.93 7.51,-6.62 9.96,-10.78"
         style="fill:#c87137;fill-opacity:1;fill-rule:nonzero;stroke:none"
         id="path472"
         inkscape:connector-curvature="0" /><path
         d="m 4646.56,5130.55 c 2.64,-4.48 4.38,-9.49 4.96,-14.57 1.32,-9.07 -0.89,-18.63 -6.4,-26.69 l -35.36,-62.8 c -11.95,-17.28 -35.96,-21.56 -53.25,-9.63 -4.73,3.26 -8.35,7.36 -11.06,11.98 -7.3,12.4 -7.26,28.71 1.43,41.27 l 20.13,31.86 15.25,30.93 c 11.94,17.28 35.95,21.57 53.23,9.63 4.73,-3.25 8.35,-7.35 11.07,-11.98"
         style="fill:#c87137;fill-opacity:1;fill-rule:nonzero;stroke:none"
         id="path474"
         inkscape:connector-curvature="0" /><path
         d="m 4701.71,5090.47 c 2.37,-4.04 3.94,-8.54 4.46,-13.12 1.19,-8.16 -0.81,-16.76 -5.75,-24.02 l -31.83,-56.51 c -10.75,-15.55 -32.36,-19.41 -47.92,-8.67 -4.25,2.93 -7.51,6.63 -9.96,10.79 -6.56,11.15 -6.53,25.83 1.29,37.13 l 18.12,28.68 13.71,27.83 c 10.75,15.56 32.36,19.42 47.91,8.67 4.26,-2.93 7.52,-6.61 9.97,-10.78"
         style="fill:#c87137;fill-opacity:1;fill-rule:nonzero;stroke:none"
         id="path476"
         inkscape:connector-curvature="0" /><path
         d="m 4676.22,5335.86 c 1.36,-4.48 1.81,-9.22 1.23,-13.8 -0.77,-8.21 -4.74,-16.09 -11.27,-21.98 L 4580,5217.5 c -14.11,-12.57 -36.03,-11.2 -48.59,2.91 -3.45,3.85 -5.74,8.21 -7.13,12.83 -3.74,12.39 -0.24,26.65 10.04,35.78 l 24.36,23.58 61.82,59.01 c 14.11,12.57 36.01,11.21 48.58,-2.92 3.45,-3.85 5.74,-8.2 7.14,-12.83"
         style="fill:#c87137;fill-opacity:1;fill-rule:nonzero;stroke:none"
         id="path478"
         inkscape:connector-curvature="0" /><path
         d="m 4591.25,5287.5 c 2.5,13.75 0.2,35.16 21.25,56.67 39.17,40 109.24,60.66 225.24,43.24 116.01,-17.41 29.76,-151.16 29.76,-151.16 0,0 -37.5,-2.5 -91.25,26.25 -53.75,28.75 -115,38.75 -152.5,-1.25 -37.5,-40 -32.5,26.25 -32.5,26.25"
         style="fill:#c87137;fill-opacity:1;fill-rule:nonzero;stroke:none"
         id="path480"
         inkscape:connector-curvature="0" /></g></g></svg>