<?xml version="1.0" encoding="UTF-8"?>
<svg width="17px" height="23px" viewBox="0 0 17 23" version="1.1" xmlns="http://www.w3.org/2000/svg" xmlns:xlink="http://www.w3.org/1999/xlink">
    <!-- Generator: Sketch 40.1 (33804) - http://www.bohemiancoding.com/sketch -->
    <title>Combined Shape</title>
    <desc>Created with Sketch.</desc>
    <defs>
        <path d="M359.550738,101.51156 L362.990491,100.882419 C363.408273,100.8059 363.740798,100.488018 363.835265,100.073779 C363.930205,99.6595393 363.768902,99.2290044 363.425749,98.9784298 L352.772432,91.2042407 C352.440143,90.9619319 351.997328,90.9328832 351.63599,91.1305561 C351.274889,91.328229 351.060212,91.7164898 351.085246,92.1274227 L351.877118,105.156357 C351.90286,105.578626 352.176816,105.945632 352.574523,106.090403 C352.69308,106.133386 352.815887,106.154405 352.93775,106.154405 C353.224458,106.154405 353.50479,106.038446 353.709312,105.822824 L356.054097,103.349866 L359.131736,108.471919 C359.687595,109.397022 360.90137,109.70285 361.834916,109.141918 C362.774972,108.577076 363.071786,107.371568 362.512408,106.440606 L359.550738,101.51156 Z" id="path-1"></path>
        <filter x="-50%" y="-50%" width="200%" height="200%" filterUnits="objectBoundingBox" id="filter-2">
            <feOffset dx="0" dy="2" in="SourceAlpha" result="shadowOffsetOuter1"></feOffset>
            <feGaussianBlur stdDeviation="1" in="shadowOffsetOuter1" result="shadowBlurOuter1"></feGaussianBlur>
            <feColorMatrix values="0 0 0 0 0   0 0 0 0 0   0 0 0 0 0  0 0 0 0.206182065 0" type="matrix" in="shadowBlurOuter1"></feColorMatrix>
        </filter>
    </defs>
    <g id="v2" stroke="none" stroke-width="1" fill="none" fill-rule="evenodd">
        <g id="Stockroom-home" transform="translate(-882.000000, -1213.000000)">
            <g id="Group-30" transform="translate(475.000000, 1122.000000)">
                <g id="Group-32" transform="translate(58.000000, 0.000000)">
                    <g id="Group-29">
                        <g id="1">
                            <g id="Combined-Shape">
                                <use fill="black" fill-opacity="1" filter="url(#filter-2)" xlink:href="#path-1"></use>
                                <use fill="#FFFFFF" fill-rule="evenodd" xlink:href="#path-1"></use>
                            </g>
                        </g>
                    </g>
                </g>
            </g>
        </g>
    </g>
</svg>