<?xml version="1.0" encoding="UTF-8" standalone="no"?>
<!-- Generator: Adobe Illustrator 19.0.0, SVG Export Plug-In . SVG Version: 6.00 Build 0)  -->

<svg
   xmlns:dc="http://purl.org/dc/elements/1.1/"
   xmlns:cc="http://creativecommons.org/ns#"
   xmlns:rdf="http://www.w3.org/1999/02/22-rdf-syntax-ns#"
   xmlns:svg="http://www.w3.org/2000/svg"
   xmlns="http://www.w3.org/2000/svg"
   xmlns:sodipodi="http://sodipodi.sourceforge.net/DTD/sodipodi-0.dtd"
   xmlns:inkscape="http://www.inkscape.org/namespaces/inkscape"
   version="1.1"
   id="Capa_1"
   x="0px"
   y="0px"
   viewBox="0 0 294.843 294.843"
   style="enable-background:new 0 0 294.843 294.843;"
   xml:space="preserve"
   width="512px"
   height="512px"
   sodipodi:docname="pin.svg"
   inkscape:version="0.92.2 (unknown)"><metadata
     id="metadata43"><rdf:RDF><cc:Work
         rdf:about=""><dc:format>image/svg+xml</dc:format><dc:type
           rdf:resource="http://purl.org/dc/dcmitype/StillImage" /></cc:Work></rdf:RDF></metadata><defs
     id="defs41" /><sodipodi:namedview
     pagecolor="#ffffff"
     bordercolor="#666666"
     borderopacity="1"
     objecttolerance="10"
     gridtolerance="10"
     guidetolerance="10"
     inkscape:pageopacity="0"
     inkscape:pageshadow="2"
     inkscape:window-width="1366"
     inkscape:window-height="738"
     id="namedview39"
     showgrid="false"
     inkscape:zoom="0.921875"
     inkscape:cx="44.585792"
     inkscape:cy="255.04528"
     inkscape:window-x="0"
     inkscape:window-y="0"
     inkscape:window-maximized="1"
     inkscape:current-layer="Capa_1" /><g
     id="g6"
     transform="matrix(-1,0,0,1,294.844,3.7480042)"><path
       d="m 147.421,0 c -52.62,0 -95.43,42.81 -95.43,95.43 0,47.057 26.549493,95.93232 53.93149,139.38932 1.766,2.804 5.47,3.645 8.275,1.878 2.803,-1.766 3.644,-5.471 1.877,-8.274 C 67.993493,152.11132 63.992,119.822 63.992,95.43 63.992,49.427 101.418,12 147.422,12 c 46.004,0 83.43,37.426 83.43,83.43 0,74.708 -91.71307,180.21158 -92.59507,181.35258 -2.025,2.623 -1.542,6.391 1.081,8.416 1.092,0.844 2.383,1.252 3.664,1.252 1.794,0 3.57,-0.802 4.752,-2.332 C 151.45693,279.32658 242.853,174.234 242.853,95.429 242.851,42.81 200.042,0 147.421,0 Z"
       id="path2"
       inkscape:connector-curvature="0"
       style="fill:#ff8c00"
       sodipodi:nodetypes="sscccsssccsccs" /><path
       d="m 147.421,65 c 3.313,0 6,-2.687 6,-6 0,-3.313 -2.687,-6 -6,-6 -23.396,0 -42.43,19.034 -42.43,42.43 0,23.396 19.034,42.43 42.43,42.43 23.396,0 42.43,-19.034 42.43,-42.43 0,-9.344 -2.979,-18.208 -8.617,-25.635 -2.003,-2.639 -5.767,-3.154 -8.407,-1.151 -2.639,2.003 -3.155,5.767 -1.151,8.407 4.04,5.321 6.175,11.677 6.175,18.379 0,16.779 -13.651,30.43 -30.43,30.43 -16.779,0 -30.43,-13.651 -30.43,-30.43 0,-16.779 13.652,-30.43 30.43,-30.43 z"
       id="path4"
       inkscape:connector-curvature="0"
       style="fill:#ff8c00" /></g><g
     id="g8" /><g
     id="g10" /><g
     id="g12" /><g
     id="g14" /><g
     id="g16" /><g
     id="g18" /><g
     id="g20" /><g
     id="g22" /><g
     id="g24" /><g
     id="g26" /><g
     id="g28" /><g
     id="g30" /><g
     id="g32" /><g
     id="g34" /><g
     id="g36" /><ellipse
     style="fill:#aaaaaa;fill-opacity:1;stroke-width:6.0846138;stroke-miterlimit:4;stroke-dasharray:none;paint-order:fill markers stroke"
     id="path850"
     ry="8.7453423"
     rx="8.2503242"
     cy="72.784279"
     cx="123.01928" /><ellipse
     cx="142.85248"
     cy="62.652954"
     rx="8.2503242"
     ry="8.7453423"
     id="ellipse860"
     style="fill:#aaaaaa;fill-opacity:1;stroke-width:6.0846138;stroke-miterlimit:4;stroke-dasharray:none;paint-order:fill markers stroke" /><ellipse
     style="fill:#aaaaaa;fill-opacity:1;stroke-width:6.0846138;stroke-miterlimit:4;stroke-dasharray:none;paint-order:fill markers stroke"
     id="ellipse862"
     ry="8.7453423"
     rx="8.2503242"
     cy="239.81406"
     cx="182.0009" /><ellipse
     cx="155.85143"
     cy="286.08719"
     rx="8.2503242"
     ry="8.7453423"
     id="ellipse864"
     style="fill:#aaaaaa;fill-opacity:1;stroke-width:6.0846138;stroke-miterlimit:4;stroke-dasharray:none;paint-order:fill markers stroke" /></svg>